<?xml version="1.0" encoding="utf-8" standalone="no"?>
<!DOCTYPE svg PUBLIC "-//W3C//DTD SVG 1.1//EN"
  "http://www.w3.org/Graphics/SVG/1.1/DTD/svg11.dtd">
<svg xmlns:xlink="http://www.w3.org/1999/xlink" width="460.5pt" height="345pt" viewBox="0 0 460.5 345" xmlns="http://www.w3.org/2000/svg" version="1.1">
 <metadata>
  <rdf:RDF xmlns:dc="http://purl.org/dc/elements/1.1/" xmlns:cc="http://creativecommons.org/ns#" xmlns:rdf="http://www.w3.org/1999/02/22-rdf-syntax-ns#">
   <cc:Work>
    <dc:type rdf:resource="http://purl.org/dc/dcmitype/StillImage"/>
    <dc:date>2024-07-25T10:42:51.082050</dc:date>
    <dc:format>image/svg+xml</dc:format>
    <dc:creator>
     <cc:Agent>
      <dc:title>Matplotlib v3.5.1, https://matplotlib.org/</dc:title>
     </cc:Agent>
    </dc:creator>
   </cc:Work>
  </rdf:RDF>
 </metadata>
 <defs>
  <style type="text/css">*{stroke-linejoin: round; stroke-linecap: butt}</style>
 </defs>
 <g id="figure_1">
  <g id="patch_1">
   <path d="M 0 345 
L 460.5 345 
L 460.5 0 
L 0 0 
z
" style="fill: #ffffff"/>
  </g>
  <g id="axes_1">
   <g id="patch_2">
    <path d="M 57.5625 307.05 
L 414.45 307.05 
L 414.45 41.4 
L 57.5625 41.4 
z
" style="fill: #ffffff"/>
   </g>
   <g id="matplotlib.axis_1">
    <g id="xtick_1">
     <g id="line2d_1">
      <defs>
       <path id="m6f46e79b7f" d="M 0 0 
L 0 3.5 
" style="stroke: #000000; stroke-width: 0.8"/>
      </defs>
      <g>
       <use xlink:href="#m6f46e79b7f" x="73.784659" y="307.05" style="stroke: #000000; stroke-width: 0.8"/>
      </g>
     </g>
     <g id="text_1">
      <!-- 0 -->
      <g transform="translate(70.603409 321.648438)scale(0.1 -0.1)">
       <defs>
        <path id="DejaVuSans-30" d="M 2034 4250 
Q 1547 4250 1301 3770 
Q 1056 3291 1056 2328 
Q 1056 1369 1301 889 
Q 1547 409 2034 409 
Q 2525 409 2770 889 
Q 3016 1369 3016 2328 
Q 3016 3291 2770 3770 
Q 2525 4250 2034 4250 
z
M 2034 4750 
Q 2819 4750 3233 4129 
Q 3647 3509 3647 2328 
Q 3647 1150 3233 529 
Q 2819 -91 2034 -91 
Q 1250 -91 836 529 
Q 422 1150 422 2328 
Q 422 3509 836 4129 
Q 1250 4750 2034 4750 
z
" transform="scale(0.015625)"/>
       </defs>
       <use xlink:href="#DejaVuSans-30"/>
      </g>
     </g>
    </g>
    <g id="xtick_2">
     <g id="line2d_2">
      <g>
       <use xlink:href="#m6f46e79b7f" x="127.107341" y="307.05" style="stroke: #000000; stroke-width: 0.8"/>
      </g>
     </g>
     <g id="text_2">
      <!-- 10 -->
      <g transform="translate(120.744841 321.648438)scale(0.1 -0.1)">
       <defs>
        <path id="DejaVuSans-31" d="M 794 531 
L 1825 531 
L 1825 4091 
L 703 3866 
L 703 4441 
L 1819 4666 
L 2450 4666 
L 2450 531 
L 3481 531 
L 3481 0 
L 794 0 
L 794 531 
z
" transform="scale(0.015625)"/>
       </defs>
       <use xlink:href="#DejaVuSans-31"/>
       <use xlink:href="#DejaVuSans-30" x="63.623047"/>
      </g>
     </g>
    </g>
    <g id="xtick_3">
     <g id="line2d_3">
      <g>
       <use xlink:href="#m6f46e79b7f" x="180.430024" y="307.05" style="stroke: #000000; stroke-width: 0.8"/>
      </g>
     </g>
     <g id="text_3">
      <!-- 20 -->
      <g transform="translate(174.067524 321.648438)scale(0.1 -0.1)">
       <defs>
        <path id="DejaVuSans-32" d="M 1228 531 
L 3431 531 
L 3431 0 
L 469 0 
L 469 531 
Q 828 903 1448 1529 
Q 2069 2156 2228 2338 
Q 2531 2678 2651 2914 
Q 2772 3150 2772 3378 
Q 2772 3750 2511 3984 
Q 2250 4219 1831 4219 
Q 1534 4219 1204 4116 
Q 875 4013 500 3803 
L 500 4441 
Q 881 4594 1212 4672 
Q 1544 4750 1819 4750 
Q 2544 4750 2975 4387 
Q 3406 4025 3406 3419 
Q 3406 3131 3298 2873 
Q 3191 2616 2906 2266 
Q 2828 2175 2409 1742 
Q 1991 1309 1228 531 
z
" transform="scale(0.015625)"/>
       </defs>
       <use xlink:href="#DejaVuSans-32"/>
       <use xlink:href="#DejaVuSans-30" x="63.623047"/>
      </g>
     </g>
    </g>
    <g id="xtick_4">
     <g id="line2d_4">
      <g>
       <use xlink:href="#m6f46e79b7f" x="233.752706" y="307.05" style="stroke: #000000; stroke-width: 0.8"/>
      </g>
     </g>
     <g id="text_4">
      <!-- 30 -->
      <g transform="translate(227.390206 321.648438)scale(0.1 -0.1)">
       <defs>
        <path id="DejaVuSans-33" d="M 2597 2516 
Q 3050 2419 3304 2112 
Q 3559 1806 3559 1356 
Q 3559 666 3084 287 
Q 2609 -91 1734 -91 
Q 1441 -91 1130 -33 
Q 819 25 488 141 
L 488 750 
Q 750 597 1062 519 
Q 1375 441 1716 441 
Q 2309 441 2620 675 
Q 2931 909 2931 1356 
Q 2931 1769 2642 2001 
Q 2353 2234 1838 2234 
L 1294 2234 
L 1294 2753 
L 1863 2753 
Q 2328 2753 2575 2939 
Q 2822 3125 2822 3475 
Q 2822 3834 2567 4026 
Q 2313 4219 1838 4219 
Q 1578 4219 1281 4162 
Q 984 4106 628 3988 
L 628 4550 
Q 988 4650 1302 4700 
Q 1616 4750 1894 4750 
Q 2613 4750 3031 4423 
Q 3450 4097 3450 3541 
Q 3450 3153 3228 2886 
Q 3006 2619 2597 2516 
z
" transform="scale(0.015625)"/>
       </defs>
       <use xlink:href="#DejaVuSans-33"/>
       <use xlink:href="#DejaVuSans-30" x="63.623047"/>
      </g>
     </g>
    </g>
    <g id="xtick_5">
     <g id="line2d_5">
      <g>
       <use xlink:href="#m6f46e79b7f" x="287.075389" y="307.05" style="stroke: #000000; stroke-width: 0.8"/>
      </g>
     </g>
     <g id="text_5">
      <!-- 40 -->
      <g transform="translate(280.712889 321.648438)scale(0.1 -0.1)">
       <defs>
        <path id="DejaVuSans-34" d="M 2419 4116 
L 825 1625 
L 2419 1625 
L 2419 4116 
z
M 2253 4666 
L 3047 4666 
L 3047 1625 
L 3713 1625 
L 3713 1100 
L 3047 1100 
L 3047 0 
L 2419 0 
L 2419 1100 
L 313 1100 
L 313 1709 
L 2253 4666 
z
" transform="scale(0.015625)"/>
       </defs>
       <use xlink:href="#DejaVuSans-34"/>
       <use xlink:href="#DejaVuSans-30" x="63.623047"/>
      </g>
     </g>
    </g>
    <g id="xtick_6">
     <g id="line2d_6">
      <g>
       <use xlink:href="#m6f46e79b7f" x="340.398071" y="307.05" style="stroke: #000000; stroke-width: 0.8"/>
      </g>
     </g>
     <g id="text_6">
      <!-- 50 -->
      <g transform="translate(334.035571 321.648438)scale(0.1 -0.1)">
       <defs>
        <path id="DejaVuSans-35" d="M 691 4666 
L 3169 4666 
L 3169 4134 
L 1269 4134 
L 1269 2991 
Q 1406 3038 1543 3061 
Q 1681 3084 1819 3084 
Q 2600 3084 3056 2656 
Q 3513 2228 3513 1497 
Q 3513 744 3044 326 
Q 2575 -91 1722 -91 
Q 1428 -91 1123 -41 
Q 819 9 494 109 
L 494 744 
Q 775 591 1075 516 
Q 1375 441 1709 441 
Q 2250 441 2565 725 
Q 2881 1009 2881 1497 
Q 2881 1984 2565 2268 
Q 2250 2553 1709 2553 
Q 1456 2553 1204 2497 
Q 953 2441 691 2322 
L 691 4666 
z
" transform="scale(0.015625)"/>
       </defs>
       <use xlink:href="#DejaVuSans-35"/>
       <use xlink:href="#DejaVuSans-30" x="63.623047"/>
      </g>
     </g>
    </g>
    <g id="xtick_7">
     <g id="line2d_7">
      <g>
       <use xlink:href="#m6f46e79b7f" x="393.720753" y="307.05" style="stroke: #000000; stroke-width: 0.8"/>
      </g>
     </g>
     <g id="text_7">
      <!-- 60 -->
      <g transform="translate(387.358253 321.648438)scale(0.1 -0.1)">
       <defs>
        <path id="DejaVuSans-36" d="M 2113 2584 
Q 1688 2584 1439 2293 
Q 1191 2003 1191 1497 
Q 1191 994 1439 701 
Q 1688 409 2113 409 
Q 2538 409 2786 701 
Q 3034 994 3034 1497 
Q 3034 2003 2786 2293 
Q 2538 2584 2113 2584 
z
M 3366 4563 
L 3366 3988 
Q 3128 4100 2886 4159 
Q 2644 4219 2406 4219 
Q 1781 4219 1451 3797 
Q 1122 3375 1075 2522 
Q 1259 2794 1537 2939 
Q 1816 3084 2150 3084 
Q 2853 3084 3261 2657 
Q 3669 2231 3669 1497 
Q 3669 778 3244 343 
Q 2819 -91 2113 -91 
Q 1303 -91 875 529 
Q 447 1150 447 2328 
Q 447 3434 972 4092 
Q 1497 4750 2381 4750 
Q 2619 4750 2861 4703 
Q 3103 4656 3366 4563 
z
" transform="scale(0.015625)"/>
       </defs>
       <use xlink:href="#DejaVuSans-36"/>
       <use xlink:href="#DejaVuSans-30" x="63.623047"/>
      </g>
     </g>
    </g>
    <g id="text_8">
     <!-- Time (s) -->
     <g transform="translate(215.677344 335.326563)scale(0.1 -0.1)">
      <defs>
       <path id="DejaVuSans-54" d="M -19 4666 
L 3928 4666 
L 3928 4134 
L 2272 4134 
L 2272 0 
L 1638 0 
L 1638 4134 
L -19 4134 
L -19 4666 
z
" transform="scale(0.015625)"/>
       <path id="DejaVuSans-69" d="M 603 3500 
L 1178 3500 
L 1178 0 
L 603 0 
L 603 3500 
z
M 603 4863 
L 1178 4863 
L 1178 4134 
L 603 4134 
L 603 4863 
z
" transform="scale(0.015625)"/>
       <path id="DejaVuSans-6d" d="M 3328 2828 
Q 3544 3216 3844 3400 
Q 4144 3584 4550 3584 
Q 5097 3584 5394 3201 
Q 5691 2819 5691 2113 
L 5691 0 
L 5113 0 
L 5113 2094 
Q 5113 2597 4934 2840 
Q 4756 3084 4391 3084 
Q 3944 3084 3684 2787 
Q 3425 2491 3425 1978 
L 3425 0 
L 2847 0 
L 2847 2094 
Q 2847 2600 2669 2842 
Q 2491 3084 2119 3084 
Q 1678 3084 1418 2786 
Q 1159 2488 1159 1978 
L 1159 0 
L 581 0 
L 581 3500 
L 1159 3500 
L 1159 2956 
Q 1356 3278 1631 3431 
Q 1906 3584 2284 3584 
Q 2666 3584 2933 3390 
Q 3200 3197 3328 2828 
z
" transform="scale(0.015625)"/>
       <path id="DejaVuSans-65" d="M 3597 1894 
L 3597 1613 
L 953 1613 
Q 991 1019 1311 708 
Q 1631 397 2203 397 
Q 2534 397 2845 478 
Q 3156 559 3463 722 
L 3463 178 
Q 3153 47 2828 -22 
Q 2503 -91 2169 -91 
Q 1331 -91 842 396 
Q 353 884 353 1716 
Q 353 2575 817 3079 
Q 1281 3584 2069 3584 
Q 2775 3584 3186 3129 
Q 3597 2675 3597 1894 
z
M 3022 2063 
Q 3016 2534 2758 2815 
Q 2500 3097 2075 3097 
Q 1594 3097 1305 2825 
Q 1016 2553 972 2059 
L 3022 2063 
z
" transform="scale(0.015625)"/>
       <path id="DejaVuSans-20" transform="scale(0.015625)"/>
       <path id="DejaVuSans-28" d="M 1984 4856 
Q 1566 4138 1362 3434 
Q 1159 2731 1159 2009 
Q 1159 1288 1364 580 
Q 1569 -128 1984 -844 
L 1484 -844 
Q 1016 -109 783 600 
Q 550 1309 550 2009 
Q 550 2706 781 3412 
Q 1013 4119 1484 4856 
L 1984 4856 
z
" transform="scale(0.015625)"/>
       <path id="DejaVuSans-73" d="M 2834 3397 
L 2834 2853 
Q 2591 2978 2328 3040 
Q 2066 3103 1784 3103 
Q 1356 3103 1142 2972 
Q 928 2841 928 2578 
Q 928 2378 1081 2264 
Q 1234 2150 1697 2047 
L 1894 2003 
Q 2506 1872 2764 1633 
Q 3022 1394 3022 966 
Q 3022 478 2636 193 
Q 2250 -91 1575 -91 
Q 1294 -91 989 -36 
Q 684 19 347 128 
L 347 722 
Q 666 556 975 473 
Q 1284 391 1588 391 
Q 1994 391 2212 530 
Q 2431 669 2431 922 
Q 2431 1156 2273 1281 
Q 2116 1406 1581 1522 
L 1381 1569 
Q 847 1681 609 1914 
Q 372 2147 372 2553 
Q 372 3047 722 3315 
Q 1072 3584 1716 3584 
Q 2034 3584 2315 3537 
Q 2597 3491 2834 3397 
z
" transform="scale(0.015625)"/>
       <path id="DejaVuSans-29" d="M 513 4856 
L 1013 4856 
Q 1481 4119 1714 3412 
Q 1947 2706 1947 2009 
Q 1947 1309 1714 600 
Q 1481 -109 1013 -844 
L 513 -844 
Q 928 -128 1133 580 
Q 1338 1288 1338 2009 
Q 1338 2731 1133 3434 
Q 928 4138 513 4856 
z
" transform="scale(0.015625)"/>
      </defs>
      <use xlink:href="#DejaVuSans-54"/>
      <use xlink:href="#DejaVuSans-69" x="57.958984"/>
      <use xlink:href="#DejaVuSans-6d" x="85.742188"/>
      <use xlink:href="#DejaVuSans-65" x="183.154297"/>
      <use xlink:href="#DejaVuSans-20" x="244.677734"/>
      <use xlink:href="#DejaVuSans-28" x="276.464844"/>
      <use xlink:href="#DejaVuSans-73" x="315.478516"/>
      <use xlink:href="#DejaVuSans-29" x="367.578125"/>
     </g>
    </g>
   </g>
   <g id="matplotlib.axis_2">
    <g id="ytick_1">
     <g id="line2d_8">
      <defs>
       <path id="m82fbbaa45a" d="M 0 0 
L -3.5 0 
" style="stroke: #000000; stroke-width: 0.8"/>
      </defs>
      <g>
       <use xlink:href="#m82fbbaa45a" x="57.5625" y="294.975" style="stroke: #000000; stroke-width: 0.8"/>
      </g>
     </g>
     <g id="text_9">
      <!-- 0 -->
      <g transform="translate(44.2 298.774219)scale(0.1 -0.1)">
       <use xlink:href="#DejaVuSans-30"/>
      </g>
     </g>
    </g>
    <g id="ytick_2">
     <g id="line2d_9">
      <g>
       <use xlink:href="#m82fbbaa45a" x="57.5625" y="247.565654" style="stroke: #000000; stroke-width: 0.8"/>
      </g>
     </g>
     <g id="text_10">
      <!-- 5000 -->
      <g transform="translate(25.1125 251.364873)scale(0.1 -0.1)">
       <use xlink:href="#DejaVuSans-35"/>
       <use xlink:href="#DejaVuSans-30" x="63.623047"/>
       <use xlink:href="#DejaVuSans-30" x="127.246094"/>
       <use xlink:href="#DejaVuSans-30" x="190.869141"/>
      </g>
     </g>
    </g>
    <g id="ytick_3">
     <g id="line2d_10">
      <g>
       <use xlink:href="#m82fbbaa45a" x="57.5625" y="200.156308" style="stroke: #000000; stroke-width: 0.8"/>
      </g>
     </g>
     <g id="text_11">
      <!-- 10000 -->
      <g transform="translate(18.75 203.955527)scale(0.1 -0.1)">
       <use xlink:href="#DejaVuSans-31"/>
       <use xlink:href="#DejaVuSans-30" x="63.623047"/>
       <use xlink:href="#DejaVuSans-30" x="127.246094"/>
       <use xlink:href="#DejaVuSans-30" x="190.869141"/>
       <use xlink:href="#DejaVuSans-30" x="254.492188"/>
      </g>
     </g>
    </g>
    <g id="ytick_4">
     <g id="line2d_11">
      <g>
       <use xlink:href="#m82fbbaa45a" x="57.5625" y="152.746963" style="stroke: #000000; stroke-width: 0.8"/>
      </g>
     </g>
     <g id="text_12">
      <!-- 15000 -->
      <g transform="translate(18.75 156.546181)scale(0.1 -0.1)">
       <use xlink:href="#DejaVuSans-31"/>
       <use xlink:href="#DejaVuSans-35" x="63.623047"/>
       <use xlink:href="#DejaVuSans-30" x="127.246094"/>
       <use xlink:href="#DejaVuSans-30" x="190.869141"/>
       <use xlink:href="#DejaVuSans-30" x="254.492188"/>
      </g>
     </g>
    </g>
    <g id="ytick_5">
     <g id="line2d_12">
      <g>
       <use xlink:href="#m82fbbaa45a" x="57.5625" y="105.337617" style="stroke: #000000; stroke-width: 0.8"/>
      </g>
     </g>
     <g id="text_13">
      <!-- 20000 -->
      <g transform="translate(18.75 109.136836)scale(0.1 -0.1)">
       <use xlink:href="#DejaVuSans-32"/>
       <use xlink:href="#DejaVuSans-30" x="63.623047"/>
       <use xlink:href="#DejaVuSans-30" x="127.246094"/>
       <use xlink:href="#DejaVuSans-30" x="190.869141"/>
       <use xlink:href="#DejaVuSans-30" x="254.492188"/>
      </g>
     </g>
    </g>
    <g id="ytick_6">
     <g id="line2d_13">
      <g>
       <use xlink:href="#m82fbbaa45a" x="57.5625" y="57.928271" style="stroke: #000000; stroke-width: 0.8"/>
      </g>
     </g>
     <g id="text_14">
      <!-- 25000 -->
      <g transform="translate(18.75 61.72749)scale(0.1 -0.1)">
       <use xlink:href="#DejaVuSans-32"/>
       <use xlink:href="#DejaVuSans-35" x="63.623047"/>
       <use xlink:href="#DejaVuSans-30" x="127.246094"/>
       <use xlink:href="#DejaVuSans-30" x="190.869141"/>
       <use xlink:href="#DejaVuSans-30" x="254.492188"/>
      </g>
     </g>
    </g>
    <g id="text_15">
     <!-- Trust Score -->
     <g transform="translate(12.670312 201.921875)rotate(-90)scale(0.1 -0.1)">
      <defs>
       <path id="DejaVuSans-72" d="M 2631 2963 
Q 2534 3019 2420 3045 
Q 2306 3072 2169 3072 
Q 1681 3072 1420 2755 
Q 1159 2438 1159 1844 
L 1159 0 
L 581 0 
L 581 3500 
L 1159 3500 
L 1159 2956 
Q 1341 3275 1631 3429 
Q 1922 3584 2338 3584 
Q 2397 3584 2469 3576 
Q 2541 3569 2628 3553 
L 2631 2963 
z
" transform="scale(0.015625)"/>
       <path id="DejaVuSans-75" d="M 544 1381 
L 544 3500 
L 1119 3500 
L 1119 1403 
Q 1119 906 1312 657 
Q 1506 409 1894 409 
Q 2359 409 2629 706 
Q 2900 1003 2900 1516 
L 2900 3500 
L 3475 3500 
L 3475 0 
L 2900 0 
L 2900 538 
Q 2691 219 2414 64 
Q 2138 -91 1772 -91 
Q 1169 -91 856 284 
Q 544 659 544 1381 
z
M 1991 3584 
L 1991 3584 
z
" transform="scale(0.015625)"/>
       <path id="DejaVuSans-74" d="M 1172 4494 
L 1172 3500 
L 2356 3500 
L 2356 3053 
L 1172 3053 
L 1172 1153 
Q 1172 725 1289 603 
Q 1406 481 1766 481 
L 2356 481 
L 2356 0 
L 1766 0 
Q 1100 0 847 248 
Q 594 497 594 1153 
L 594 3053 
L 172 3053 
L 172 3500 
L 594 3500 
L 594 4494 
L 1172 4494 
z
" transform="scale(0.015625)"/>
       <path id="DejaVuSans-53" d="M 3425 4513 
L 3425 3897 
Q 3066 4069 2747 4153 
Q 2428 4238 2131 4238 
Q 1616 4238 1336 4038 
Q 1056 3838 1056 3469 
Q 1056 3159 1242 3001 
Q 1428 2844 1947 2747 
L 2328 2669 
Q 3034 2534 3370 2195 
Q 3706 1856 3706 1288 
Q 3706 609 3251 259 
Q 2797 -91 1919 -91 
Q 1588 -91 1214 -16 
Q 841 59 441 206 
L 441 856 
Q 825 641 1194 531 
Q 1563 422 1919 422 
Q 2459 422 2753 634 
Q 3047 847 3047 1241 
Q 3047 1584 2836 1778 
Q 2625 1972 2144 2069 
L 1759 2144 
Q 1053 2284 737 2584 
Q 422 2884 422 3419 
Q 422 4038 858 4394 
Q 1294 4750 2059 4750 
Q 2388 4750 2728 4690 
Q 3069 4631 3425 4513 
z
" transform="scale(0.015625)"/>
       <path id="DejaVuSans-63" d="M 3122 3366 
L 3122 2828 
Q 2878 2963 2633 3030 
Q 2388 3097 2138 3097 
Q 1578 3097 1268 2742 
Q 959 2388 959 1747 
Q 959 1106 1268 751 
Q 1578 397 2138 397 
Q 2388 397 2633 464 
Q 2878 531 3122 666 
L 3122 134 
Q 2881 22 2623 -34 
Q 2366 -91 2075 -91 
Q 1284 -91 818 406 
Q 353 903 353 1747 
Q 353 2603 823 3093 
Q 1294 3584 2113 3584 
Q 2378 3584 2631 3529 
Q 2884 3475 3122 3366 
z
" transform="scale(0.015625)"/>
       <path id="DejaVuSans-6f" d="M 1959 3097 
Q 1497 3097 1228 2736 
Q 959 2375 959 1747 
Q 959 1119 1226 758 
Q 1494 397 1959 397 
Q 2419 397 2687 759 
Q 2956 1122 2956 1747 
Q 2956 2369 2687 2733 
Q 2419 3097 1959 3097 
z
M 1959 3584 
Q 2709 3584 3137 3096 
Q 3566 2609 3566 1747 
Q 3566 888 3137 398 
Q 2709 -91 1959 -91 
Q 1206 -91 779 398 
Q 353 888 353 1747 
Q 353 2609 779 3096 
Q 1206 3584 1959 3584 
z
" transform="scale(0.015625)"/>
      </defs>
      <use xlink:href="#DejaVuSans-54"/>
      <use xlink:href="#DejaVuSans-72" x="46.333984"/>
      <use xlink:href="#DejaVuSans-75" x="87.447266"/>
      <use xlink:href="#DejaVuSans-73" x="150.826172"/>
      <use xlink:href="#DejaVuSans-74" x="202.925781"/>
      <use xlink:href="#DejaVuSans-20" x="242.134766"/>
      <use xlink:href="#DejaVuSans-53" x="273.921875"/>
      <use xlink:href="#DejaVuSans-63" x="337.398438"/>
      <use xlink:href="#DejaVuSans-6f" x="392.378906"/>
      <use xlink:href="#DejaVuSans-72" x="453.560547"/>
      <use xlink:href="#DejaVuSans-65" x="492.423828"/>
     </g>
    </g>
   </g>
   <g id="line2d_14">
    <path d="M 73.784659 294.975 
L 169.869017 294.868057 
L 171.943251 294.612888 
L 173.490601 294.129031 
L 174.246358 293.735198 
L 175.422506 292.871377 
L 176.548777 291.630946 
L 177.320321 290.496881 
L 178.576733 288.274108 
L 180.754571 282.844241 
L 182.060686 278.026439 
L 183.460559 271.905478 
L 185.098403 259.066623 
L 185.758238 253.085238 
L 186.695031 243.274168 
L 189.395734 240.081921 
L 191.303213 230.152273 
L 192.012211 228.200763 
L 192.72779 226.795783 
L 193.097747 226.225727 
L 193.639007 225.675387 
L 194.630761 224.003693 
L 195.250321 222.689995 
L 196.131968 220.232104 
L 197.968906 214.342796 
L 198.726297 212.853531 
L 199.478165 212.082579 
L 199.835143 211.995877 
L 200.181826 212.103763 
L 200.518852 212.359184 
L 200.858307 212.778611 
L 201.523969 214.099847 
L 202.509945 216.987996 
L 203.140605 219.321936 
L 203.666451 220.545113 
L 205.317983 227.271514 
L 206.900366 234.988031 
L 208.462341 243.931939 
L 212.984725 271.117431 
L 213.502285 272.795628 
L 214.201352 275.910805 
L 215.033283 278.654043 
L 216.393682 283.150149 
L 217.384195 285.644599 
L 218.03284 286.791362 
L 218.700022 287.570316 
L 219.381951 288.031207 
L 220.139035 288.227266 
L 220.885363 288.225058 
L 221.952234 287.933803 
L 222.968284 287.429548 
L 224.538592 286.656665 
L 225.287966 286.452256 
L 226.026287 286.596966 
L 226.774879 287.045013 
L 228.905624 288.830783 
L 230.101612 289.18198 
L 230.844297 289.173201 
L 231.996964 288.857766 
L 235.439912 287.561087 
L 236.456214 287.510306 
L 237.440663 287.766864 
L 239.180824 288.327271 
L 240.271061 288.420168 
L 241.71461 288.220359 
L 245.72482 287.358305 
L 248.189962 287.348037 
L 250.2774 287.377278 
L 258.633599 287.042735 
L 261.766826 286.6677 
L 263.309198 286.698432 
L 266.393159 286.880822 
L 268.966133 286.793647 
L 271.815708 286.68944 
L 276.567525 286.632612 
L 283.724419 285.929718 
L 289.079942 285.619369 
L 292.249091 284.700732 
L 293.172732 284.679738 
L 294.154981 284.913244 
L 297.081492 285.876 
L 298.19865 285.970038 
L 299.569405 285.877494 
L 302.23464 285.557541 
L 303.687494 285.620963 
L 306.368453 285.860912 
L 308.492205 285.745334 
L 310.567818 285.637956 
L 312.318275 285.751032 
L 313.793528 286.145576 
L 317.210855 287.513004 
L 323.220614 290.174106 
L 324.519357 290.622161 
L 325.859073 291.044408 
L 327.344091 291.140411 
L 329.913804 291.236899 
L 332.103904 291.671778 
L 336.13792 292.726403 
L 338.291915 292.920614 
L 342.359238 293.059181 
L 351.108227 293.761279 
L 353.003177 293.689766 
L 354.39832 293.394401 
L 355.51073 292.96494 
L 356.827432 292.217573 
L 358.090767 290.7803 
L 359.37011 288.880576 
L 360.660139 286.567908 
L 364.000689 285.728275 
L 365.315662 282.564541 
L 366.691577 280.376738 
L 367.414441 279.000538 
L 368.95985 276.425064 
L 371.393203 275.717722 
L 373.051735 272.624746 
L 373.981105 271.359174 
L 374.626875 270.872017 
L 375.322374 270.66763 
L 376.021039 270.694528 
L 377.318592 271.061657 
L 378.02895 271.46059 
L 379.990797 273.062604 
L 380.315322 273.379876 
L 382.906904 273.690576 
L 384.717956 275.412004 
L 387.199424 278.324072 
L 389.325428 277.931237 
L 389.717411 277.264525 
L 390.06732 276.228147 
L 390.442537 274.754659 
L 390.831514 272.745154 
L 391.558781 267.206659 
L 392.716306 255.137221 
L 395.351588 248.761766 
L 396.633607 225.469667 
L 397.911544 205.655409 
L 398.227841 201.210319 
L 398.227841 201.210319 
" clip-path="url(#p1788e4ec18)" style="fill: none; stroke: #800080; stroke-width: 5; stroke-linecap: square"/>
   </g>
   <g id="line2d_15">
    <path d="M 73.784659 294.975 
L 170.54015 294.803052 
L 171.943251 294.613268 
L 173.081385 294.275223 
L 173.871151 293.940327 
L 175.038113 293.16989 
L 176.164288 292.051355 
L 177.320321 290.425772 
L 178.576733 288.155487 
L 180.754571 282.634948 
L 182.060686 277.754383 
L 183.460559 271.565726 
L 185.453989 255.849518 
L 186.695031 244.979591 
L 189.395734 243.549407 
L 190.946389 240.355132 
L 191.657599 239.561364 
L 193.097747 238.423149 
L 193.639007 238.074322 
L 194.315164 237.169629 
L 194.965416 236.072001 
L 196.131968 232.929043 
L 197.032859 230.676855 
L 197.637642 229.709598 
L 197.968906 229.448714 
L 198.325024 229.370116 
L 198.726297 229.442842 
L 199.108246 229.728768 
L 199.835143 230.690513 
L 200.518852 232.073904 
L 201.523969 234.765572 
L 202.824141 239.19333 
L 203.140605 240.408162 
L 203.666451 241.652773 
L 205.317983 248.212624 
L 206.900366 255.701313 
L 211.064268 276.765992 
L 212.360491 281.999195 
L 212.984725 284.213889 
L 213.502285 285.220984 
L 214.201352 287.005726 
L 216.393682 290.543027 
L 217.062379 291.165627 
L 217.704947 291.529409 
L 218.360799 291.638302 
L 219.381951 291.516996 
L 221.240544 291.24183 
L 222.301432 291.3695 
L 223.308774 291.653561 
L 224.538592 291.468839 
L 225.648509 291.46987 
L 228.228711 291.743437 
L 230.101612 291.794962 
L 231.22942 292.083533 
L 233.845616 292.921641 
L 235.799324 293.105965 
L 239.907006 293.327477 
L 243.577181 293.33427 
L 253.942876 292.840282 
L 256.846638 293.096372 
L 260.294201 293.679039 
L 262.557332 293.893157 
L 265.64421 293.961702 
L 278.042023 293.871341 
L 281.001161 293.899753 
L 282.580115 293.684165 
L 283.394867 293.43995 
L 284.394948 292.863184 
L 285.436654 292.021448 
L 286.179218 291.279712 
L 289.079942 290.552726 
L 291.940982 284.741155 
L 293.803899 279.811684 
L 295.209788 276.998358 
L 295.955421 275.775181 
L 297.450028 273.797868 
L 299.914497 271.130222 
L 301.000663 270.291887 
L 302.23464 269.910076 
L 303.009764 269.92149 
L 304.014576 270.254924 
L 305.407522 271.141781 
L 308.492205 273.634972 
L 310.567818 275.172346 
L 311.762479 275.986181 
L 312.705289 276.552641 
L 315.286442 278.496742 
L 316.816602 279.564791 
L 319.44396 281.197627 
L 321.045242 281.741399 
L 322.473315 282.087661 
L 325.213819 282.429165 
L 325.522177 282.452094 
L 327.002732 281.836467 
L 328.046059 281.336763 
L 328.756735 281.186761 
L 329.489487 281.216054 
L 330.315997 281.496357 
L 331.62139 282.255589 
L 332.545717 282.912282 
L 333.676704 283.83774 
L 334.73173 284.371984 
L 336.13792 284.458003 
L 337.299968 284.238924 
L 338.291915 283.868732 
L 341.083597 283.699477 
L 342.028743 283.333005 
L 343.003656 283.250477 
L 343.947285 283.470823 
L 346.987891 284.606521 
L 347.942414 284.727051 
L 349.289017 284.623926 
L 351.865208 284.287554 
L 353.329614 284.389229 
L 357.136446 285.0648 
L 358.410229 285.045932 
L 360.660139 284.849525 
L 364.637246 284.669831 
L 366.173259 284.463213 
L 367.414441 284.508906 
L 368.95985 284.84903 
L 372.427964 285.05354 
L 380.315322 285.860442 
L 384.002214 285.979777 
L 384.717956 285.737629 
L 385.431716 285.171518 
L 386.145707 284.160751 
L 386.825326 282.58573 
L 387.199424 281.507674 
L 389.325428 277.23491 
L 392.312147 240.148536 
L 392.716306 235.858279 
L 395.351588 231.659893 
L 396.953253 212.11394 
L 398.227841 198.423291 
L 398.227841 198.423291 
" clip-path="url(#p1788e4ec18)" style="fill: none; stroke: #ff0000; stroke-width: 5; stroke-linecap: square"/>
   </g>
   <g id="line2d_16">
    <path d="M 73.784659 294.975 
L 98.440042 294.974014 
L 169.869017 294.872769 
L 172.33216 294.550079 
L 174.246358 294.32609 
L 181.174091 294.090627 
L 182.060686 293.775232 
L 182.980505 293.208645 
L 183.460559 292.821448 
L 184.083454 291.832737 
L 185.098403 289.697503 
L 185.758238 287.827038 
L 186.387081 285.565175 
L 186.695031 284.255593 
L 189.097131 281.695159 
L 189.395734 278.946301 
L 189.906858 275.868128 
L 191.303213 261.664478 
L 192.72779 244.032279 
L 193.097747 239.24708 
L 193.639007 234.212015 
L 194.630761 218.569548 
L 195.54634 202.50017 
L 197.032859 177.563987 
L 197.968906 164.775659 
L 198.726297 157.513378 
L 199.835143 148.96061 
L 200.518852 144.802614 
L 201.187078 141.859628 
L 201.85189 140.173791 
L 202.179348 139.791328 
L 202.509945 139.701969 
L 202.824141 139.793321 
L 203.666451 140.831576 
L 204.32697 142.879709 
L 205.317983 147.260681 
L 206.900366 156.303943 
L 208.78544 167.205355 
L 210.079716 172.94593 
L 211.388754 178.909509 
L 212.360491 184.863782 
L 212.984725 189.322222 
L 213.502285 191.555669 
L 215.033283 202.831316 
L 216.044464 213.442951 
L 217.704947 229.914637 
L 218.700022 238.010348 
L 219.753509 244.79008 
L 221.240544 252.261093 
L 222.635173 258.100472 
L 222.968284 259.291448 
L 223.308774 259.303389 
L 223.659332 259.176651 
L 224.198655 258.83798 
L 224.919188 257.869778 
L 225.648509 256.544434 
L 226.774879 253.818578 
L 228.228711 249.375371 
L 229.369822 245.667775 
L 234.887777 225.590249 
L 235.439912 224.419934 
L 236.780523 220.387864 
L 237.440663 219.072512 
L 238.089671 218.333727 
L 238.448598 218.236226 
L 238.813345 218.460534 
L 239.180824 218.959967 
L 239.545484 219.757137 
L 240.271061 222.322354 
L 240.996234 226.061462 
L 242.858036 238.214257 
L 244.646388 249.778751 
L 245.72482 255.04051 
L 246.245534 256.619046 
L 247.520892 261.935739 
L 248.513515 265.165858 
L 250.610998 269.641872 
L 251.602969 271.209433 
L 253.275667 273.28594 
L 254.988488 275.104515 
L 257.270307 277.045959 
L 258.633599 279.062463 
L 261.374501 283.486159 
L 262.184635 284.330148 
L 262.922607 284.913615 
L 263.691432 285.149234 
L 264.073868 285.119627 
L 264.471316 284.962317 
L 264.865135 284.681119 
L 265.267528 284.193161 
L 266.017981 282.68582 
L 266.830923 280.444529 
L 268.224589 275.260004 
L 268.966133 270.324343 
L 269.673402 264.497116 
L 271.440065 246.944752 
L 272.938346 229.094728 
L 274.796974 203.891969 
L 276.221649 182.294019 
L 278.788644 142.616974 
L 279.399276 136.824308 
L 282.580115 93.315821 
L 285.090516 65.544874 
L 285.787353 60.193825 
L 286.179218 58.015713 
L 288.680987 56.315668 
L 289.455547 54.129398 
L 289.819975 53.601301 
L 290.170916 53.475 
L 290.763258 53.750626 
L 291.16775 54.426842 
L 291.561043 55.543132 
L 291.940982 57.065327 
L 292.558453 61.339514 
L 293.172732 67.089145 
L 294.505849 83.084433 
L 296.336224 110.420275 
L 298.19865 141.976208 
L 301.000663 194.240122 
L 301.540921 200.451466 
L 303.009764 223.251204 
L 304.344586 243.063442 
L 306.045672 262.302588 
L 306.747357 268.310709 
L 307.840293 275.193599 
L 308.492205 278.795985 
L 309.865026 284.5299 
L 310.567818 286.511856 
L 311.36922 288.004896 
L 311.762479 288.604855 
L 313.793528 290.380532 
L 314.511985 290.643254 
L 315.286442 290.692276 
L 316.00543 290.557909 
L 316.816602 290.21718 
L 317.935725 289.481309 
L 321.045242 286.937425 
L 322.084 285.958314 
L 323.220614 285.018572 
L 324.148401 284.386825 
L 325.522177 283.126944 
L 328.046059 280.351515 
L 335.811821 271.026125 
L 336.833058 269.223053 
L 337.657074 267.893587 
L 338.291915 266.597013 
L 340.769736 265.713144 
L 342.359238 261.563047 
L 343.947285 258.193479 
L 344.882483 256.609972 
L 345.705461 255.700815 
L 346.665704 254.615349 
L 347.627398 253.884678 
L 348.58082 253.473051 
L 349.289017 253.387163 
L 350.655128 253.444103 
L 351.865208 253.730402 
L 353.003177 254.246369 
L 354.769933 255.719029 
L 357.136446 258.133399 
L 358.410229 260.357943 
L 359.699841 263.290311 
L 360.660139 265.801991 
L 363.67846 266.64097 
L 365.315662 271.117664 
L 366.691577 273.928263 
L 367.414441 275.719562 
L 368.95985 278.756123 
L 372.427964 279.023792 
L 372.740421 278.800105 
L 373.361497 277.88227 
L 373.981105 276.323434 
L 374.966258 272.836828 
L 376.021039 268.127674 
L 376.731438 264.321899 
L 377.318592 262.125286 
L 378.02895 257.156458 
L 379.663269 242.205166 
L 380.315322 235.698821 
L 382.906904 232.208521 
L 385.074687 212.696447 
L 386.825326 198.727918 
L 387.199424 196.358161 
L 389.002728 195.215846 
L 389.717411 193.403261 
L 390.442537 191.932391 
L 391.558781 190.280822 
L 392.312147 189.573911 
L 392.716306 189.35217 
L 395.988785 189.196276 
L 396.633607 189.557274 
L 397.265685 190.330488 
L 397.911544 191.514844 
L 398.227841 192.279632 
L 398.227841 192.279632 
" clip-path="url(#p1788e4ec18)" style="fill: none; stroke: #0000ff; stroke-width: 5; stroke-linecap: square"/>
   </g>
   <g id="patch_3">
    <path d="M 57.5625 307.05 
L 57.5625 41.4 
" style="fill: none; stroke: #000000; stroke-width: 0.8; stroke-linejoin: miter; stroke-linecap: square"/>
   </g>
   <g id="patch_4">
    <path d="M 414.45 307.05 
L 414.45 41.4 
" style="fill: none; stroke: #000000; stroke-width: 0.8; stroke-linejoin: miter; stroke-linecap: square"/>
   </g>
   <g id="patch_5">
    <path d="M 57.5625 307.05 
L 414.45 307.05 
" style="fill: none; stroke: #000000; stroke-width: 0.8; stroke-linejoin: miter; stroke-linecap: square"/>
   </g>
   <g id="patch_6">
    <path d="M 57.5625 41.4 
L 414.45 41.4 
" style="fill: none; stroke: #000000; stroke-width: 0.8; stroke-linejoin: miter; stroke-linecap: square"/>
   </g>
   <g id="legend_1">
    <g id="patch_7">
     <path d="M 348.6875 93.434375 
L 407.45 93.434375 
Q 409.45 93.434375 409.45 91.434375 
L 409.45 48.4 
Q 409.45 46.4 407.45 46.4 
L 348.6875 46.4 
Q 346.6875 46.4 346.6875 48.4 
L 346.6875 91.434375 
Q 346.6875 93.434375 348.6875 93.434375 
z
" style="fill: #ffffff; opacity: 0.8; stroke: #cccccc; stroke-linejoin: miter"/>
    </g>
    <g id="line2d_17">
     <path d="M 350.6875 54.498437 
L 360.6875 54.498437 
L 370.6875 54.498437 
" style="fill: none; stroke: #800080; stroke-width: 5; stroke-linecap: square"/>
    </g>
    <g id="text_16">
     <!-- Car 0 -->
     <g transform="translate(378.6875 57.998437)scale(0.1 -0.1)">
      <defs>
       <path id="DejaVuSans-43" d="M 4122 4306 
L 4122 3641 
Q 3803 3938 3442 4084 
Q 3081 4231 2675 4231 
Q 1875 4231 1450 3742 
Q 1025 3253 1025 2328 
Q 1025 1406 1450 917 
Q 1875 428 2675 428 
Q 3081 428 3442 575 
Q 3803 722 4122 1019 
L 4122 359 
Q 3791 134 3420 21 
Q 3050 -91 2638 -91 
Q 1578 -91 968 557 
Q 359 1206 359 2328 
Q 359 3453 968 4101 
Q 1578 4750 2638 4750 
Q 3056 4750 3426 4639 
Q 3797 4528 4122 4306 
z
" transform="scale(0.015625)"/>
       <path id="DejaVuSans-61" d="M 2194 1759 
Q 1497 1759 1228 1600 
Q 959 1441 959 1056 
Q 959 750 1161 570 
Q 1363 391 1709 391 
Q 2188 391 2477 730 
Q 2766 1069 2766 1631 
L 2766 1759 
L 2194 1759 
z
M 3341 1997 
L 3341 0 
L 2766 0 
L 2766 531 
Q 2569 213 2275 61 
Q 1981 -91 1556 -91 
Q 1019 -91 701 211 
Q 384 513 384 1019 
Q 384 1609 779 1909 
Q 1175 2209 1959 2209 
L 2766 2209 
L 2766 2266 
Q 2766 2663 2505 2880 
Q 2244 3097 1772 3097 
Q 1472 3097 1187 3025 
Q 903 2953 641 2809 
L 641 3341 
Q 956 3463 1253 3523 
Q 1550 3584 1831 3584 
Q 2591 3584 2966 3190 
Q 3341 2797 3341 1997 
z
" transform="scale(0.015625)"/>
      </defs>
      <use xlink:href="#DejaVuSans-43"/>
      <use xlink:href="#DejaVuSans-61" x="69.824219"/>
      <use xlink:href="#DejaVuSans-72" x="131.103516"/>
      <use xlink:href="#DejaVuSans-20" x="172.216797"/>
      <use xlink:href="#DejaVuSans-30" x="204.003906"/>
     </g>
    </g>
    <g id="line2d_18">
     <path d="M 350.6875 69.176562 
L 360.6875 69.176562 
L 370.6875 69.176562 
" style="fill: none; stroke: #ff0000; stroke-width: 5; stroke-linecap: square"/>
    </g>
    <g id="text_17">
     <!-- Car 1 -->
     <g transform="translate(378.6875 72.676562)scale(0.1 -0.1)">
      <use xlink:href="#DejaVuSans-43"/>
      <use xlink:href="#DejaVuSans-61" x="69.824219"/>
      <use xlink:href="#DejaVuSans-72" x="131.103516"/>
      <use xlink:href="#DejaVuSans-20" x="172.216797"/>
      <use xlink:href="#DejaVuSans-31" x="204.003906"/>
     </g>
    </g>
    <g id="line2d_19">
     <path d="M 350.6875 83.854687 
L 360.6875 83.854687 
L 370.6875 83.854687 
" style="fill: none; stroke: #0000ff; stroke-width: 5; stroke-linecap: square"/>
    </g>
    <g id="text_18">
     <!-- Car 2 -->
     <g transform="translate(378.6875 87.354687)scale(0.1 -0.1)">
      <use xlink:href="#DejaVuSans-43"/>
      <use xlink:href="#DejaVuSans-61" x="69.824219"/>
      <use xlink:href="#DejaVuSans-72" x="131.103516"/>
      <use xlink:href="#DejaVuSans-20" x="172.216797"/>
      <use xlink:href="#DejaVuSans-32" x="204.003906"/>
     </g>
    </g>
   </g>
  </g>
 </g>
 <defs>
  <clipPath id="p1788e4ec18">
   <rect x="57.5625" y="41.4" width="356.8875" height="265.65"/>
  </clipPath>
 </defs>
</svg>
