<?xml version="1.0" encoding="utf-8" standalone="no"?>
<!DOCTYPE svg PUBLIC "-//W3C//DTD SVG 1.1//EN"
  "http://www.w3.org/Graphics/SVG/1.1/DTD/svg11.dtd">
<svg xmlns:xlink="http://www.w3.org/1999/xlink" width="1387.5pt" height="750.75pt" viewBox="0 0 1387.5 750.75" xmlns="http://www.w3.org/2000/svg" version="1.1">
 <metadata>
  <rdf:RDF xmlns:dc="http://purl.org/dc/elements/1.1/" xmlns:cc="http://creativecommons.org/ns#" xmlns:rdf="http://www.w3.org/1999/02/22-rdf-syntax-ns#">
   <cc:Work>
    <dc:type rdf:resource="http://purl.org/dc/dcmitype/StillImage"/>
    <dc:date>2024-07-22T14:02:31.914217</dc:date>
    <dc:format>image/svg+xml</dc:format>
    <dc:creator>
     <cc:Agent>
      <dc:title>Matplotlib v3.5.1, https://matplotlib.org/</dc:title>
     </cc:Agent>
    </dc:creator>
   </cc:Work>
  </rdf:RDF>
 </metadata>
 <defs>
  <style type="text/css">*{stroke-linejoin: round; stroke-linecap: butt}</style>
 </defs>
 <g id="figure_1">
  <g id="patch_1">
   <path d="M 0 750.75 
L 1387.5 750.75 
L 1387.5 0 
L 0 0 
z
" style="fill: #ffffff"/>
  </g>
  <g id="axes_1">
   <g id="patch_2">
    <path d="M 173.4375 668.1675 
L 1248.75 668.1675 
L 1248.75 90.09 
L 173.4375 90.09 
z
" style="fill: #ffffff"/>
   </g>
   <g id="matplotlib.axis_1">
    <g id="xtick_1">
     <g id="line2d_1">
      <defs>
       <path id="m6b7e105c59" d="M 0 0 
L 0 3.5 
" style="stroke: #000000; stroke-width: 0.8"/>
      </defs>
      <g>
       <use xlink:href="#m6b7e105c59" x="222.315341" y="668.1675" style="stroke: #000000; stroke-width: 0.8"/>
      </g>
     </g>
     <g id="text_1">
      <!-- 0 -->
      <g transform="translate(219.134091 682.765938)scale(0.1 -0.1)">
       <defs>
        <path id="DejaVuSans-30" d="M 2034 4250 
Q 1547 4250 1301 3770 
Q 1056 3291 1056 2328 
Q 1056 1369 1301 889 
Q 1547 409 2034 409 
Q 2525 409 2770 889 
Q 3016 1369 3016 2328 
Q 3016 3291 2770 3770 
Q 2525 4250 2034 4250 
z
M 2034 4750 
Q 2819 4750 3233 4129 
Q 3647 3509 3647 2328 
Q 3647 1150 3233 529 
Q 2819 -91 2034 -91 
Q 1250 -91 836 529 
Q 422 1150 422 2328 
Q 422 3509 836 4129 
Q 1250 4750 2034 4750 
z
" transform="scale(0.015625)"/>
       </defs>
       <use xlink:href="#DejaVuSans-30"/>
      </g>
     </g>
    </g>
    <g id="xtick_2">
     <g id="line2d_2">
      <g>
       <use xlink:href="#m6b7e105c59" x="381.514604" y="668.1675" style="stroke: #000000; stroke-width: 0.8"/>
      </g>
     </g>
     <g id="text_2">
      <!-- 50 -->
      <g transform="translate(375.152104 682.765938)scale(0.1 -0.1)">
       <defs>
        <path id="DejaVuSans-35" d="M 691 4666 
L 3169 4666 
L 3169 4134 
L 1269 4134 
L 1269 2991 
Q 1406 3038 1543 3061 
Q 1681 3084 1819 3084 
Q 2600 3084 3056 2656 
Q 3513 2228 3513 1497 
Q 3513 744 3044 326 
Q 2575 -91 1722 -91 
Q 1428 -91 1123 -41 
Q 819 9 494 109 
L 494 744 
Q 775 591 1075 516 
Q 1375 441 1709 441 
Q 2250 441 2565 725 
Q 2881 1009 2881 1497 
Q 2881 1984 2565 2268 
Q 2250 2553 1709 2553 
Q 1456 2553 1204 2497 
Q 953 2441 691 2322 
L 691 4666 
z
" transform="scale(0.015625)"/>
       </defs>
       <use xlink:href="#DejaVuSans-35"/>
       <use xlink:href="#DejaVuSans-30" x="63.623047"/>
      </g>
     </g>
    </g>
    <g id="xtick_3">
     <g id="line2d_3">
      <g>
       <use xlink:href="#m6b7e105c59" x="540.713868" y="668.1675" style="stroke: #000000; stroke-width: 0.8"/>
      </g>
     </g>
     <g id="text_3">
      <!-- 100 -->
      <g transform="translate(531.170118 682.765938)scale(0.1 -0.1)">
       <defs>
        <path id="DejaVuSans-31" d="M 794 531 
L 1825 531 
L 1825 4091 
L 703 3866 
L 703 4441 
L 1819 4666 
L 2450 4666 
L 2450 531 
L 3481 531 
L 3481 0 
L 794 0 
L 794 531 
z
" transform="scale(0.015625)"/>
       </defs>
       <use xlink:href="#DejaVuSans-31"/>
       <use xlink:href="#DejaVuSans-30" x="63.623047"/>
       <use xlink:href="#DejaVuSans-30" x="127.246094"/>
      </g>
     </g>
    </g>
    <g id="xtick_4">
     <g id="line2d_4">
      <g>
       <use xlink:href="#m6b7e105c59" x="699.913131" y="668.1675" style="stroke: #000000; stroke-width: 0.8"/>
      </g>
     </g>
     <g id="text_4">
      <!-- 150 -->
      <g transform="translate(690.369381 682.765938)scale(0.1 -0.1)">
       <use xlink:href="#DejaVuSans-31"/>
       <use xlink:href="#DejaVuSans-35" x="63.623047"/>
       <use xlink:href="#DejaVuSans-30" x="127.246094"/>
      </g>
     </g>
    </g>
    <g id="xtick_5">
     <g id="line2d_5">
      <g>
       <use xlink:href="#m6b7e105c59" x="859.112395" y="668.1675" style="stroke: #000000; stroke-width: 0.8"/>
      </g>
     </g>
     <g id="text_5">
      <!-- 200 -->
      <g transform="translate(849.568645 682.765938)scale(0.1 -0.1)">
       <defs>
        <path id="DejaVuSans-32" d="M 1228 531 
L 3431 531 
L 3431 0 
L 469 0 
L 469 531 
Q 828 903 1448 1529 
Q 2069 2156 2228 2338 
Q 2531 2678 2651 2914 
Q 2772 3150 2772 3378 
Q 2772 3750 2511 3984 
Q 2250 4219 1831 4219 
Q 1534 4219 1204 4116 
Q 875 4013 500 3803 
L 500 4441 
Q 881 4594 1212 4672 
Q 1544 4750 1819 4750 
Q 2544 4750 2975 4387 
Q 3406 4025 3406 3419 
Q 3406 3131 3298 2873 
Q 3191 2616 2906 2266 
Q 2828 2175 2409 1742 
Q 1991 1309 1228 531 
z
" transform="scale(0.015625)"/>
       </defs>
       <use xlink:href="#DejaVuSans-32"/>
       <use xlink:href="#DejaVuSans-30" x="63.623047"/>
       <use xlink:href="#DejaVuSans-30" x="127.246094"/>
      </g>
     </g>
    </g>
    <g id="xtick_6">
     <g id="line2d_6">
      <g>
       <use xlink:href="#m6b7e105c59" x="1018.311658" y="668.1675" style="stroke: #000000; stroke-width: 0.8"/>
      </g>
     </g>
     <g id="text_6">
      <!-- 250 -->
      <g transform="translate(1008.767908 682.765938)scale(0.1 -0.1)">
       <use xlink:href="#DejaVuSans-32"/>
       <use xlink:href="#DejaVuSans-35" x="63.623047"/>
       <use xlink:href="#DejaVuSans-30" x="127.246094"/>
      </g>
     </g>
    </g>
    <g id="xtick_7">
     <g id="line2d_7">
      <g>
       <use xlink:href="#m6b7e105c59" x="1177.510922" y="668.1675" style="stroke: #000000; stroke-width: 0.8"/>
      </g>
     </g>
     <g id="text_7">
      <!-- 300 -->
      <g transform="translate(1167.967172 682.765938)scale(0.1 -0.1)">
       <defs>
        <path id="DejaVuSans-33" d="M 2597 2516 
Q 3050 2419 3304 2112 
Q 3559 1806 3559 1356 
Q 3559 666 3084 287 
Q 2609 -91 1734 -91 
Q 1441 -91 1130 -33 
Q 819 25 488 141 
L 488 750 
Q 750 597 1062 519 
Q 1375 441 1716 441 
Q 2309 441 2620 675 
Q 2931 909 2931 1356 
Q 2931 1769 2642 2001 
Q 2353 2234 1838 2234 
L 1294 2234 
L 1294 2753 
L 1863 2753 
Q 2328 2753 2575 2939 
Q 2822 3125 2822 3475 
Q 2822 3834 2567 4026 
Q 2313 4219 1838 4219 
Q 1578 4219 1281 4162 
Q 984 4106 628 3988 
L 628 4550 
Q 988 4650 1302 4700 
Q 1616 4750 1894 4750 
Q 2613 4750 3031 4423 
Q 3450 4097 3450 3541 
Q 3450 3153 3228 2886 
Q 3006 2619 2597 2516 
z
" transform="scale(0.015625)"/>
       </defs>
       <use xlink:href="#DejaVuSans-33"/>
       <use xlink:href="#DejaVuSans-30" x="63.623047"/>
       <use xlink:href="#DejaVuSans-30" x="127.246094"/>
      </g>
     </g>
    </g>
    <g id="text_8">
     <!-- Time (s) -->
     <g transform="translate(690.764844 696.444062)scale(0.1 -0.1)">
      <defs>
       <path id="DejaVuSans-54" d="M -19 4666 
L 3928 4666 
L 3928 4134 
L 2272 4134 
L 2272 0 
L 1638 0 
L 1638 4134 
L -19 4134 
L -19 4666 
z
" transform="scale(0.015625)"/>
       <path id="DejaVuSans-69" d="M 603 3500 
L 1178 3500 
L 1178 0 
L 603 0 
L 603 3500 
z
M 603 4863 
L 1178 4863 
L 1178 4134 
L 603 4134 
L 603 4863 
z
" transform="scale(0.015625)"/>
       <path id="DejaVuSans-6d" d="M 3328 2828 
Q 3544 3216 3844 3400 
Q 4144 3584 4550 3584 
Q 5097 3584 5394 3201 
Q 5691 2819 5691 2113 
L 5691 0 
L 5113 0 
L 5113 2094 
Q 5113 2597 4934 2840 
Q 4756 3084 4391 3084 
Q 3944 3084 3684 2787 
Q 3425 2491 3425 1978 
L 3425 0 
L 2847 0 
L 2847 2094 
Q 2847 2600 2669 2842 
Q 2491 3084 2119 3084 
Q 1678 3084 1418 2786 
Q 1159 2488 1159 1978 
L 1159 0 
L 581 0 
L 581 3500 
L 1159 3500 
L 1159 2956 
Q 1356 3278 1631 3431 
Q 1906 3584 2284 3584 
Q 2666 3584 2933 3390 
Q 3200 3197 3328 2828 
z
" transform="scale(0.015625)"/>
       <path id="DejaVuSans-65" d="M 3597 1894 
L 3597 1613 
L 953 1613 
Q 991 1019 1311 708 
Q 1631 397 2203 397 
Q 2534 397 2845 478 
Q 3156 559 3463 722 
L 3463 178 
Q 3153 47 2828 -22 
Q 2503 -91 2169 -91 
Q 1331 -91 842 396 
Q 353 884 353 1716 
Q 353 2575 817 3079 
Q 1281 3584 2069 3584 
Q 2775 3584 3186 3129 
Q 3597 2675 3597 1894 
z
M 3022 2063 
Q 3016 2534 2758 2815 
Q 2500 3097 2075 3097 
Q 1594 3097 1305 2825 
Q 1016 2553 972 2059 
L 3022 2063 
z
" transform="scale(0.015625)"/>
       <path id="DejaVuSans-20" transform="scale(0.015625)"/>
       <path id="DejaVuSans-28" d="M 1984 4856 
Q 1566 4138 1362 3434 
Q 1159 2731 1159 2009 
Q 1159 1288 1364 580 
Q 1569 -128 1984 -844 
L 1484 -844 
Q 1016 -109 783 600 
Q 550 1309 550 2009 
Q 550 2706 781 3412 
Q 1013 4119 1484 4856 
L 1984 4856 
z
" transform="scale(0.015625)"/>
       <path id="DejaVuSans-73" d="M 2834 3397 
L 2834 2853 
Q 2591 2978 2328 3040 
Q 2066 3103 1784 3103 
Q 1356 3103 1142 2972 
Q 928 2841 928 2578 
Q 928 2378 1081 2264 
Q 1234 2150 1697 2047 
L 1894 2003 
Q 2506 1872 2764 1633 
Q 3022 1394 3022 966 
Q 3022 478 2636 193 
Q 2250 -91 1575 -91 
Q 1294 -91 989 -36 
Q 684 19 347 128 
L 347 722 
Q 666 556 975 473 
Q 1284 391 1588 391 
Q 1994 391 2212 530 
Q 2431 669 2431 922 
Q 2431 1156 2273 1281 
Q 2116 1406 1581 1522 
L 1381 1569 
Q 847 1681 609 1914 
Q 372 2147 372 2553 
Q 372 3047 722 3315 
Q 1072 3584 1716 3584 
Q 2034 3584 2315 3537 
Q 2597 3491 2834 3397 
z
" transform="scale(0.015625)"/>
       <path id="DejaVuSans-29" d="M 513 4856 
L 1013 4856 
Q 1481 4119 1714 3412 
Q 1947 2706 1947 2009 
Q 1947 1309 1714 600 
Q 1481 -109 1013 -844 
L 513 -844 
Q 928 -128 1133 580 
Q 1338 1288 1338 2009 
Q 1338 2731 1133 3434 
Q 928 4138 513 4856 
z
" transform="scale(0.015625)"/>
      </defs>
      <use xlink:href="#DejaVuSans-54"/>
      <use xlink:href="#DejaVuSans-69" x="57.958984"/>
      <use xlink:href="#DejaVuSans-6d" x="85.742188"/>
      <use xlink:href="#DejaVuSans-65" x="183.154297"/>
      <use xlink:href="#DejaVuSans-20" x="244.677734"/>
      <use xlink:href="#DejaVuSans-28" x="276.464844"/>
      <use xlink:href="#DejaVuSans-73" x="315.478516"/>
      <use xlink:href="#DejaVuSans-29" x="367.578125"/>
     </g>
    </g>
   </g>
   <g id="matplotlib.axis_2">
    <g id="ytick_1">
     <g id="line2d_8">
      <defs>
       <path id="m41ae4c5606" d="M 0 0 
L -3.5 0 
" style="stroke: #000000; stroke-width: 0.8"/>
      </defs>
      <g>
       <use xlink:href="#m41ae4c5606" x="173.4375" y="641.89125" style="stroke: #000000; stroke-width: 0.8"/>
      </g>
     </g>
     <g id="text_9">
      <!-- 0 -->
      <g transform="translate(160.075 645.690469)scale(0.1 -0.1)">
       <use xlink:href="#DejaVuSans-30"/>
      </g>
     </g>
    </g>
    <g id="ytick_2">
     <g id="line2d_9">
      <g>
       <use xlink:href="#m41ae4c5606" x="173.4375" y="573.844172" style="stroke: #000000; stroke-width: 0.8"/>
      </g>
     </g>
     <g id="text_10">
      <!-- 5000 -->
      <g transform="translate(140.9875 577.64339)scale(0.1 -0.1)">
       <use xlink:href="#DejaVuSans-35"/>
       <use xlink:href="#DejaVuSans-30" x="63.623047"/>
       <use xlink:href="#DejaVuSans-30" x="127.246094"/>
       <use xlink:href="#DejaVuSans-30" x="190.869141"/>
      </g>
     </g>
    </g>
    <g id="ytick_3">
     <g id="line2d_10">
      <g>
       <use xlink:href="#m41ae4c5606" x="173.4375" y="505.797093" style="stroke: #000000; stroke-width: 0.8"/>
      </g>
     </g>
     <g id="text_11">
      <!-- 10000 -->
      <g transform="translate(134.625 509.596312)scale(0.1 -0.1)">
       <use xlink:href="#DejaVuSans-31"/>
       <use xlink:href="#DejaVuSans-30" x="63.623047"/>
       <use xlink:href="#DejaVuSans-30" x="127.246094"/>
       <use xlink:href="#DejaVuSans-30" x="190.869141"/>
       <use xlink:href="#DejaVuSans-30" x="254.492188"/>
      </g>
     </g>
    </g>
    <g id="ytick_4">
     <g id="line2d_11">
      <g>
       <use xlink:href="#m41ae4c5606" x="173.4375" y="437.750015" style="stroke: #000000; stroke-width: 0.8"/>
      </g>
     </g>
     <g id="text_12">
      <!-- 15000 -->
      <g transform="translate(134.625 441.549234)scale(0.1 -0.1)">
       <use xlink:href="#DejaVuSans-31"/>
       <use xlink:href="#DejaVuSans-35" x="63.623047"/>
       <use xlink:href="#DejaVuSans-30" x="127.246094"/>
       <use xlink:href="#DejaVuSans-30" x="190.869141"/>
       <use xlink:href="#DejaVuSans-30" x="254.492188"/>
      </g>
     </g>
    </g>
    <g id="ytick_5">
     <g id="line2d_12">
      <g>
       <use xlink:href="#m41ae4c5606" x="173.4375" y="369.702937" style="stroke: #000000; stroke-width: 0.8"/>
      </g>
     </g>
     <g id="text_13">
      <!-- 20000 -->
      <g transform="translate(134.625 373.502156)scale(0.1 -0.1)">
       <use xlink:href="#DejaVuSans-32"/>
       <use xlink:href="#DejaVuSans-30" x="63.623047"/>
       <use xlink:href="#DejaVuSans-30" x="127.246094"/>
       <use xlink:href="#DejaVuSans-30" x="190.869141"/>
       <use xlink:href="#DejaVuSans-30" x="254.492188"/>
      </g>
     </g>
    </g>
    <g id="ytick_6">
     <g id="line2d_13">
      <g>
       <use xlink:href="#m41ae4c5606" x="173.4375" y="301.655858" style="stroke: #000000; stroke-width: 0.8"/>
      </g>
     </g>
     <g id="text_14">
      <!-- 25000 -->
      <g transform="translate(134.625 305.455077)scale(0.1 -0.1)">
       <use xlink:href="#DejaVuSans-32"/>
       <use xlink:href="#DejaVuSans-35" x="63.623047"/>
       <use xlink:href="#DejaVuSans-30" x="127.246094"/>
       <use xlink:href="#DejaVuSans-30" x="190.869141"/>
       <use xlink:href="#DejaVuSans-30" x="254.492188"/>
      </g>
     </g>
    </g>
    <g id="ytick_7">
     <g id="line2d_14">
      <g>
       <use xlink:href="#m41ae4c5606" x="173.4375" y="233.60878" style="stroke: #000000; stroke-width: 0.8"/>
      </g>
     </g>
     <g id="text_15">
      <!-- 30000 -->
      <g transform="translate(134.625 237.407999)scale(0.1 -0.1)">
       <use xlink:href="#DejaVuSans-33"/>
       <use xlink:href="#DejaVuSans-30" x="63.623047"/>
       <use xlink:href="#DejaVuSans-30" x="127.246094"/>
       <use xlink:href="#DejaVuSans-30" x="190.869141"/>
       <use xlink:href="#DejaVuSans-30" x="254.492188"/>
      </g>
     </g>
    </g>
    <g id="ytick_8">
     <g id="line2d_15">
      <g>
       <use xlink:href="#m41ae4c5606" x="173.4375" y="165.561702" style="stroke: #000000; stroke-width: 0.8"/>
      </g>
     </g>
     <g id="text_16">
      <!-- 35000 -->
      <g transform="translate(134.625 169.360921)scale(0.1 -0.1)">
       <use xlink:href="#DejaVuSans-33"/>
       <use xlink:href="#DejaVuSans-35" x="63.623047"/>
       <use xlink:href="#DejaVuSans-30" x="127.246094"/>
       <use xlink:href="#DejaVuSans-30" x="190.869141"/>
       <use xlink:href="#DejaVuSans-30" x="254.492188"/>
      </g>
     </g>
    </g>
    <g id="ytick_9">
     <g id="line2d_16">
      <g>
       <use xlink:href="#m41ae4c5606" x="173.4375" y="97.514624" style="stroke: #000000; stroke-width: 0.8"/>
      </g>
     </g>
     <g id="text_17">
      <!-- 40000 -->
      <g transform="translate(134.625 101.313842)scale(0.1 -0.1)">
       <defs>
        <path id="DejaVuSans-34" d="M 2419 4116 
L 825 1625 
L 2419 1625 
L 2419 4116 
z
M 2253 4666 
L 3047 4666 
L 3047 1625 
L 3713 1625 
L 3713 1100 
L 3047 1100 
L 3047 0 
L 2419 0 
L 2419 1100 
L 313 1100 
L 313 1709 
L 2253 4666 
z
" transform="scale(0.015625)"/>
       </defs>
       <use xlink:href="#DejaVuSans-34"/>
       <use xlink:href="#DejaVuSans-30" x="63.623047"/>
       <use xlink:href="#DejaVuSans-30" x="127.246094"/>
       <use xlink:href="#DejaVuSans-30" x="190.869141"/>
       <use xlink:href="#DejaVuSans-30" x="254.492188"/>
      </g>
     </g>
    </g>
    <g id="text_18">
     <!-- Trust Score -->
     <g transform="translate(128.545312 406.825625)rotate(-90)scale(0.1 -0.1)">
      <defs>
       <path id="DejaVuSans-72" d="M 2631 2963 
Q 2534 3019 2420 3045 
Q 2306 3072 2169 3072 
Q 1681 3072 1420 2755 
Q 1159 2438 1159 1844 
L 1159 0 
L 581 0 
L 581 3500 
L 1159 3500 
L 1159 2956 
Q 1341 3275 1631 3429 
Q 1922 3584 2338 3584 
Q 2397 3584 2469 3576 
Q 2541 3569 2628 3553 
L 2631 2963 
z
" transform="scale(0.015625)"/>
       <path id="DejaVuSans-75" d="M 544 1381 
L 544 3500 
L 1119 3500 
L 1119 1403 
Q 1119 906 1312 657 
Q 1506 409 1894 409 
Q 2359 409 2629 706 
Q 2900 1003 2900 1516 
L 2900 3500 
L 3475 3500 
L 3475 0 
L 2900 0 
L 2900 538 
Q 2691 219 2414 64 
Q 2138 -91 1772 -91 
Q 1169 -91 856 284 
Q 544 659 544 1381 
z
M 1991 3584 
L 1991 3584 
z
" transform="scale(0.015625)"/>
       <path id="DejaVuSans-74" d="M 1172 4494 
L 1172 3500 
L 2356 3500 
L 2356 3053 
L 1172 3053 
L 1172 1153 
Q 1172 725 1289 603 
Q 1406 481 1766 481 
L 2356 481 
L 2356 0 
L 1766 0 
Q 1100 0 847 248 
Q 594 497 594 1153 
L 594 3053 
L 172 3053 
L 172 3500 
L 594 3500 
L 594 4494 
L 1172 4494 
z
" transform="scale(0.015625)"/>
       <path id="DejaVuSans-53" d="M 3425 4513 
L 3425 3897 
Q 3066 4069 2747 4153 
Q 2428 4238 2131 4238 
Q 1616 4238 1336 4038 
Q 1056 3838 1056 3469 
Q 1056 3159 1242 3001 
Q 1428 2844 1947 2747 
L 2328 2669 
Q 3034 2534 3370 2195 
Q 3706 1856 3706 1288 
Q 3706 609 3251 259 
Q 2797 -91 1919 -91 
Q 1588 -91 1214 -16 
Q 841 59 441 206 
L 441 856 
Q 825 641 1194 531 
Q 1563 422 1919 422 
Q 2459 422 2753 634 
Q 3047 847 3047 1241 
Q 3047 1584 2836 1778 
Q 2625 1972 2144 2069 
L 1759 2144 
Q 1053 2284 737 2584 
Q 422 2884 422 3419 
Q 422 4038 858 4394 
Q 1294 4750 2059 4750 
Q 2388 4750 2728 4690 
Q 3069 4631 3425 4513 
z
" transform="scale(0.015625)"/>
       <path id="DejaVuSans-63" d="M 3122 3366 
L 3122 2828 
Q 2878 2963 2633 3030 
Q 2388 3097 2138 3097 
Q 1578 3097 1268 2742 
Q 959 2388 959 1747 
Q 959 1106 1268 751 
Q 1578 397 2138 397 
Q 2388 397 2633 464 
Q 2878 531 3122 666 
L 3122 134 
Q 2881 22 2623 -34 
Q 2366 -91 2075 -91 
Q 1284 -91 818 406 
Q 353 903 353 1747 
Q 353 2603 823 3093 
Q 1294 3584 2113 3584 
Q 2378 3584 2631 3529 
Q 2884 3475 3122 3366 
z
" transform="scale(0.015625)"/>
       <path id="DejaVuSans-6f" d="M 1959 3097 
Q 1497 3097 1228 2736 
Q 959 2375 959 1747 
Q 959 1119 1226 758 
Q 1494 397 1959 397 
Q 2419 397 2687 759 
Q 2956 1122 2956 1747 
Q 2956 2369 2687 2733 
Q 2419 3097 1959 3097 
z
M 1959 3584 
Q 2709 3584 3137 3096 
Q 3566 2609 3566 1747 
Q 3566 888 3137 398 
Q 2709 -91 1959 -91 
Q 1206 -91 779 398 
Q 353 888 353 1747 
Q 353 2609 779 3096 
Q 1206 3584 1959 3584 
z
" transform="scale(0.015625)"/>
      </defs>
      <use xlink:href="#DejaVuSans-54"/>
      <use xlink:href="#DejaVuSans-72" x="46.333984"/>
      <use xlink:href="#DejaVuSans-75" x="87.447266"/>
      <use xlink:href="#DejaVuSans-73" x="150.826172"/>
      <use xlink:href="#DejaVuSans-74" x="202.925781"/>
      <use xlink:href="#DejaVuSans-20" x="242.134766"/>
      <use xlink:href="#DejaVuSans-53" x="273.921875"/>
      <use xlink:href="#DejaVuSans-63" x="337.398438"/>
      <use xlink:href="#DejaVuSans-6f" x="392.378906"/>
      <use xlink:href="#DejaVuSans-72" x="453.560547"/>
      <use xlink:href="#DejaVuSans-65" x="492.423828"/>
     </g>
    </g>
   </g>
   <g id="line2d_17">
    <path d="M 222.315341 641.89125 
L 247.313491 641.807654 
L 248.4273 641.584009 
L 249.187087 641.218912 
L 249.947353 640.583411 
L 250.721157 639.552725 
L 251.235349 638.5727 
L 252.014869 636.503351 
L 252.604714 634.614821 
L 253.649794 629.369851 
L 254.428948 624.031421 
L 255.220569 617.061772 
L 255.988054 608.336739 
L 257.026603 593.427516 
L 257.809674 579.822204 
L 259.343386 576.882756 
L 259.866108 573.052963 
L 260.482819 571.507908 
L 260.999948 571.056933 
L 261.518358 571.15211 
L 263.077437 571.948626 
L 263.338587 571.874389 
L 263.861531 571.070563 
L 264.390933 569.301302 
L 264.921621 566.284554 
L 265.462761 561.873398 
L 265.996805 555.910572 
L 267.925749 529.325646 
L 268.804906 523.851599 
L 269.060675 522.994768 
L 269.322242 522.602287 
L 269.587833 522.509931 
L 269.849327 522.70707 
L 270.368256 523.684649 
L 271.152447 525.955009 
L 272.474036 530.507098 
L 273.261229 533.92311 
L 274.040767 538.531951 
L 274.830611 544.502025 
L 279.398933 583.447965 
L 280.18186 588.15155 
L 280.96823 591.88572 
L 281.75384 594.754152 
L 282.280026 596.135858 
L 282.809703 597.042669 
L 283.342815 597.481732 
L 283.875537 597.512597 
L 284.521527 597.129938 
L 285.048902 596.466925 
L 286.117937 594.82531 
L 286.385258 594.785072 
L 286.650117 595.18709 
L 286.920888 596.092769 
L 287.446775 599.15816 
L 287.94401 603.736618 
L 290.177741 628.072156 
L 290.669199 630.947438 
L 291.160564 632.660849 
L 291.405739 633.144234 
L 291.651721 633.371481 
L 291.987185 633.460183 
L 292.484323 633.201811 
L 293.223709 632.300392 
L 295.192052 629.769276 
L 295.686406 629.654818 
L 296.178331 629.824869 
L 296.915692 630.178917 
L 297.408061 630.209902 
L 297.899628 629.97069 
L 298.648351 629.264436 
L 299.742626 628.152631 
L 300.496287 627.542596 
L 300.996795 627.324281 
L 301.746014 627.267926 
L 303.992417 627.437152 
L 304.995442 627.009885 
L 306.764278 626.124295 
L 307.613293 626.042184 
L 310.373636 626.128935 
L 312.884209 625.343702 
L 313.897248 625.382046 
L 315.016819 625.527522 
L 317.060194 625.416166 
L 319.607848 625.245791 
L 322.158135 625.04539 
L 324.850926 624.665582 
L 325.629369 623.945403 
L 326.424276 623.282648 
L 326.975828 623.141426 
L 327.511423 623.215427 
L 328.043196 623.452181 
L 332.372261 623.619222 
L 334.054751 624.256815 
L 336.494786 625.512168 
L 337.496038 626.437405 
L 344.291334 634.313001 
L 345.365699 635.494838 
L 346.705899 636.597503 
L 347.610729 637.052046 
L 349.515912 637.878118 
L 351.367913 638.566923 
L 353.47785 639.076496 
L 357.024045 639.471514 
L 357.759414 639.285199 
L 358.517556 638.857517 
L 359.037364 638.381959 
L 359.761612 637.336172 
L 360.486326 635.873569 
L 361.434666 633.334531 
L 363.366128 627.219324 
L 364.499841 623.015491 
L 365.950721 617.111262 
L 367.647976 611.684212 
L 368.850321 608.747931 
L 369.59962 607.433584 
L 370.097326 606.736734 
L 371.15946 605.871127 
L 371.643018 605.713596 
L 372.126384 605.751858 
L 372.609629 605.944151 
L 373.339918 606.540875 
L 374.076172 607.38048 
L 375.388665 609.28284 
L 376.734208 611.602621 
L 382.056429 621.288266 
L 383.300101 622.741764 
L 384.044332 623.305146 
L 385.279568 623.898681 
L 386.117504 624.209074 
L 387.092756 624.586334 
L 388.066748 624.739489 
L 391.498528 624.705261 
L 392.876506 624.887785 
L 393.782579 624.87055 
L 395.038493 624.559552 
L 398.008465 623.617486 
L 398.992219 623.650395 
L 400.217762 623.9269 
L 402.268487 624.602577 
L 403.245968 624.640577 
L 405.719392 624.405433 
L 407.476567 624.395505 
L 411.612797 624.624147 
L 414.338434 625.111441 
L 417.876492 625.398735 
L 419.841187 625.53098 
L 420.579693 625.399559 
L 421.072169 625.164147 
L 421.809614 624.57877 
L 423.063634 623.190243 
L 424.148172 622.016534 
L 427.106373 618.446798 
L 428.345284 616.434941 
L 430.067343 613.402344 
L 431.053087 611.994526 
L 431.887807 611.070287 
L 433.368146 609.568922 
L 434.108118 609.008606 
L 434.858054 608.66386 
L 435.610363 608.587841 
L 436.361666 608.723223 
L 437.359145 609.181095 
L 438.957914 610.266149 
L 439.970032 611.314596 
L 440.969065 612.754323 
L 441.968543 614.494229 
L 445.229874 620.904796 
L 445.980092 621.809009 
L 446.577512 622.308798 
L 447.580033 623.061683 
L 448.583895 623.531629 
L 449.335054 623.626991 
L 452.59141 623.39041 
L 455.958065 623.933333 
L 457.712334 624.492492 
L 458.464136 624.661104 
L 459.471853 624.615987 
L 462.083298 624.563363 
L 469.046706 624.389409 
L 470.479253 624.43102 
L 473.923268 624.894966 
L 475.324489 624.848194 
L 476.726223 624.637603 
L 479.912404 624.138567 
L 481.020544 623.890141 
L 483.219557 623.389737 
L 483.742215 623.582986 
L 484.528115 624.166739 
L 490.912692 630.764447 
L 492.76403 632.862661 
L 496.554736 636.362102 
L 498.930203 638.201742 
L 500.771255 639.366236 
L 502.175643 639.962884 
L 503.754562 640.448323 
L 505.597117 640.724153 
L 509.359892 640.954906 
L 511.314321 640.943739 
L 513.449776 640.715612 
L 518.331817 639.980797 
L 520.20662 640.008819 
L 522.606827 640.280704 
L 527.014559 640.90395 
L 528.89866 640.910327 
L 531.327143 640.559741 
L 534.075854 640.130913 
L 536.316462 640.030411 
L 536.862642 639.841163 
L 537.658027 639.207623 
L 538.462962 638.102622 
L 539.262052 636.459628 
L 540.027842 634.350744 
L 541.330113 629.82797 
L 545.391586 615.821378 
L 546.651824 612.696883 
L 547.645879 610.735613 
L 548.431248 609.513427 
L 549.480328 608.228278 
L 550.534454 607.271526 
L 552.95691 606.081542 
L 553.714474 606.07431 
L 554.488802 606.32469 
L 555.265519 606.880087 
L 556.02453 607.728011 
L 557.017758 609.283608 
L 558.024309 611.33217 
L 559.395981 614.933682 
L 561.214141 620.706505 
L 561.719732 621.744325 
L 562.220628 622.275234 
L 562.472178 622.30965 
L 562.719717 622.196927 
L 562.966784 621.958809 
L 563.460312 620.877923 
L 564.200344 618.321509 
L 564.949022 615.713896 
L 565.445447 614.643997 
L 565.694132 614.349975 
L 565.941094 614.284971 
L 566.563788 614.548209 
L 568.834953 616.669558 
L 569.361359 616.830971 
L 569.910764 616.830488 
L 572.230888 616.48785 
L 574.651503 616.791905 
L 577.198815 616.566994 
L 580.777981 616.411314 
L 584.793372 616.973022 
L 585.551407 617.403114 
L 587.33315 618.729379 
L 587.844739 618.774016 
L 588.359028 618.563234 
L 588.889971 618.122848 
L 590.325813 616.392992 
L 591.363223 615.051851 
L 591.876791 614.724679 
L 592.132126 614.803928 
L 592.405479 615.08999 
L 592.946389 616.231893 
L 594.856744 621.453661 
L 595.366607 622.095615 
L 595.883385 622.341456 
L 596.392085 622.279292 
L 597.76991 621.639264 
L 601.13312 620.070167 
L 603.239552 619.433076 
L 604.051289 618.798378 
L 605.076208 617.534589 
L 609.00899 612.131708 
L 610.785189 611.755102 
L 611.804733 610.376201 
L 612.312082 609.929174 
L 612.81903 609.77088 
L 613.422608 609.978696 
L 613.94227 610.433585 
L 614.965273 611.743697 
L 615.752125 612.768625 
L 617.804946 612.669488 
L 619.082743 611.728228 
L 619.596302 611.927613 
L 620.114741 612.461417 
L 621.530304 614.49547 
L 622.58434 616.022651 
L 623.115852 616.411461 
L 623.663187 616.467096 
L 624.725386 616.283698 
L 625.252024 616.479474 
L 625.778275 617.030903 
L 626.575987 618.257146 
L 627.897882 620.426481 
L 628.986625 621.774637 
L 630.473994 622.553707 
L 631.31825 622.60457 
L 632.180186 622.366467 
L 635.306452 621.159311 
L 636.99701 620.656121 
L 638.212118 620.060562 
L 639.338941 619.278046 
L 640.459103 617.993957 
L 641.564571 616.670431 
L 642.142557 616.345861 
L 642.696763 616.389484 
L 643.544447 617.049652 
L 644.661706 618.223297 
L 644.952839 618.422627 
L 645.519516 617.781043 
L 647.016319 615.69135 
L 647.575003 615.375404 
L 647.86342 615.410709 
L 648.182329 615.646002 
L 648.752126 616.584837 
L 649.337063 617.974174 
L 650.199928 620.017757 
L 650.756768 620.817481 
L 651.324179 621.053175 
L 651.885402 620.81747 
L 653.869968 619.184083 
L 654.440298 619.132417 
L 655.416604 619.450124 
L 656.863897 620.143752 
L 657.434034 620.171894 
L 658.025354 619.99605 
L 659.741449 618.974535 
L 660.589388 618.866573 
L 661.471882 618.995711 
L 662.929939 619.230646 
L 664.195193 619.455698 
L 665.057859 619.93327 
L 665.63107 620.434779 
L 666.783485 621.812761 
L 668.50237 623.955948 
L 670.805216 626.838666 
L 674.388774 631.89312 
L 675.551548 633.297184 
L 677.56847 635.400852 
L 680.477334 638.036361 
L 681.159262 638.446442 
L 682.636401 639.105044 
L 684.651217 640.03329 
L 686.094152 640.459051 
L 687.81632 640.656517 
L 692.515179 640.72136 
L 698.913484 640.768748 
L 701.02372 640.988753 
L 707.371457 641.763838 
L 710.70116 641.84102 
L 714.507038 641.782893 
L 715.381485 641.55683 
L 715.958463 641.255534 
L 716.952358 640.443864 
L 717.821187 639.172097 
L 718.706172 637.478209 
L 719.869125 634.566561 
L 723.343163 624.993481 
L 724.787577 621.892739 
L 725.367526 620.814418 
L 726.383149 619.39625 
L 727.548355 617.793205 
L 728.432695 616.865334 
L 729.322724 616.192522 
L 730.511911 615.591047 
L 736.389692 613.150623 
L 737.232337 612.825009 
L 738.070323 612.121268 
L 738.919357 610.887441 
L 739.753634 609.029655 
L 741.703777 604.210381 
L 741.980706 603.874858 
L 742.285361 603.750619 
L 742.565181 603.843649 
L 743.227386 604.504718 
L 744.091361 606.346549 
L 745.189055 608.864154 
L 746.035926 610.022796 
L 746.341265 610.197945 
L 746.896528 610.158011 
L 747.437151 609.681062 
L 749.593556 606.979379 
L 750.133706 606.732493 
L 750.959165 606.700889 
L 752.60486 606.820161 
L 754.631156 606.77743 
L 755.73546 606.728337 
L 757.115732 606.555006 
L 757.937366 606.636433 
L 758.752867 606.869501 
L 761.076749 608.001904 
L 762.74546 608.930874 
L 764.121124 609.326445 
L 765.21528 609.601244 
L 765.765285 609.849216 
L 766.321326 610.324579 
L 767.152693 611.52087 
L 768.625631 614.019585 
L 769.456008 615.048562 
L 770.284065 615.635015 
L 771.159179 616.194652 
L 771.738892 616.83658 
L 773.78998 619.636645 
L 774.373087 619.872328 
L 774.947215 619.74739 
L 775.532698 619.368225 
L 777.723885 617.494875 
L 778.30057 617.398262 
L 778.927486 617.692341 
L 780.660112 619.090619 
L 781.240678 619.087627 
L 781.816903 618.798601 
L 782.974404 617.761445 
L 785.8584 615.053191 
L 786.816776 614.267607 
L 787.964124 613.394752 
L 789.425326 612.820814 
L 790.600716 612.657501 
L 793.229066 612.604211 
L 794.674365 612.620933 
L 795.395376 612.78857 
L 797.996937 613.984042 
L 798.861145 613.991805 
L 800.862263 613.788996 
L 802.313409 612.813667 
L 802.921137 612.761195 
L 803.895799 613.101091 
L 805.350665 613.791059 
L 805.956245 613.845805 
L 807.406332 613.769507 
L 807.986273 614.003574 
L 808.564826 614.48863 
L 809.452877 615.599515 
L 810.929453 617.775874 
L 811.509059 618.340116 
L 812.0872 618.533815 
L 812.774407 618.4471 
L 814.81294 617.598884 
L 815.677247 617.657754 
L 817.990295 618.17285 
L 819.149547 618.067872 
L 820.593989 617.72663 
L 821.877626 617.740659 
L 823.331929 618.002581 
L 824.201546 618.17593 
L 826.282686 617.694119 
L 827.207705 617.886157 
L 829.860798 618.929478 
L 830.152266 618.952484 
L 831.149848 618.455322 
L 832.037144 618.032335 
L 832.921123 617.944895 
L 834.405375 618.28455 
L 835.96438 618.632216 
L 839.234955 618.994027 
L 842.002037 619.142763 
L 842.890189 619.592121 
L 843.788591 620.279719 
L 844.681279 621.162301 
L 846.755169 623.651853 
L 849.554373 627.349248 
L 851.913446 630.610316 
L 855.273759 634.640474 
L 856.796264 636.2272 
L 857.820088 637.006146 
L 859.667496 638.411487 
L 861.812411 639.913376 
L 862.722694 640.360628 
L 863.940948 640.687552 
L 867.373161 641.419651 
L 868.882488 641.657655 
L 873.144523 641.782189 
L 895.080639 641.743754 
L 896.303104 641.472017 
L 897.837861 640.867862 
L 900.338976 639.944639 
L 900.645285 639.881132 
L 905.219777 639.79605 
L 906.737968 639.502217 
L 908.247756 638.989855 
L 909.736765 638.248999 
L 912.489067 636.716869 
L 914.053578 636.232647 
L 915.561333 636.051657 
L 917.987502 636.023207 
L 920.412275 635.916813 
L 925.766369 635.505939 
L 927.279321 635.587077 
L 928.516315 635.93012 
L 929.720196 636.577177 
L 933.189031 638.718388 
L 934.398427 638.847024 
L 937.455951 638.794858 
L 938.396972 638.502272 
L 939.029285 638.078564 
L 939.698414 637.448099 
L 940.424542 636.525813 
L 941.943366 635.645437 
L 943.800016 629.996744 
L 945.634018 628.946366 
L 947.152307 623.354401 
L 948.089048 619.601168 
L 949.306486 614.290932 
L 950.031174 611.803394 
L 953.714777 596.768449 
L 954.653386 591.44541 
L 955.297904 587.169601 
L 956.566208 577.457542 
L 958.096845 565.952223 
L 958.716279 561.856626 
L 959.445063 558.109709 
L 959.748237 556.372225 
L 961.885108 554.64771 
L 962.490752 551.625875 
L 963.102083 549.515465 
L 963.437019 548.867019 
L 963.748712 548.508259 
L 964.059306 548.41511 
L 964.370361 548.557252 
L 964.680353 548.88263 
L 965.278657 550.137522 
L 965.866074 551.959214 
L 967.352318 558.007018 
L 967.939553 560.793897 
L 969.807128 562.305381 
L 970.7033 567.802894 
L 971.646221 574.330983 
L 974.017798 591.597176 
L 974.903253 596.223892 
L 975.7848 599.786423 
L 977.63682 600.724107 
L 978.227297 602.297436 
L 978.816247 603.234385 
L 979.42919 602.71253 
L 980.020807 601.619623 
L 981.216459 599.037318 
L 981.81439 598.56921 
L 982.996597 597.943574 
L 983.881617 597.080763 
L 985.363876 595.497467 
L 985.980189 595.112595 
L 986.691905 594.931641 
L 987.316464 594.996042 
L 989.10227 595.586552 
L 990.28332 595.485397 
L 990.900453 595.504412 
L 991.494492 595.760012 
L 992.091287 596.337518 
L 992.680507 597.334937 
L 993.266245 598.691723 
L 994.736898 602.648629 
L 995.030792 602.680567 
L 995.735045 602.346815 
L 996.621315 601.830258 
L 996.924674 601.864767 
L 997.218467 602.020227 
L 997.806896 602.711609 
L 999.894695 606.144539 
L 1000.775898 606.827782 
L 1001.364638 607.180482 
L 1001.658719 607.462899 
L 1002.253519 608.437482 
L 1003.823306 611.45716 
L 1004.149641 611.889231 
L 1004.841574 612.404492 
L 1005.423576 612.524557 
L 1006.017022 612.422081 
L 1007.494033 611.835453 
L 1008.101615 612.231261 
L 1009.899856 614.129925 
L 1010.489815 614.255702 
L 1011.080823 614.053513 
L 1011.973528 613.432869 
L 1013.178734 612.553233 
L 1014.159858 612.175232 
L 1015.058303 612.129383 
L 1015.93966 612.306096 
L 1017.990954 612.8926 
L 1021.854338 614.685529 
L 1023.13956 615.07461 
L 1025.224466 616.08786 
L 1026.997835 616.824676 
L 1028.475666 617.384768 
L 1029.391738 617.45332 
L 1029.981472 617.232446 
L 1030.594555 616.80475 
L 1031.582794 615.707163 
L 1032.476099 614.16257 
L 1033.958965 611.088095 
L 1038.745567 600.630313 
L 1039.955704 598.831588 
L 1040.651349 598.119864 
L 1041.554216 597.355768 
L 1042.149147 597.076276 
L 1042.740478 596.996383 
L 1043.630334 597.180901 
L 1044.519399 597.707746 
L 1045.999891 598.989151 
L 1046.915159 599.923617 
L 1047.808139 601.123524 
L 1048.104661 601.585277 
L 1049.675497 602.024075 
L 1050.862573 604.020046 
L 1053.876748 609.793732 
L 1055.687665 612.581453 
L 1056.885324 614.188894 
L 1057.800714 615.149031 
L 1058.392029 615.56947 
L 1059.391099 615.833157 
L 1060.283279 615.715198 
L 1061.177608 615.354861 
L 1062.400246 614.890571 
L 1063.010671 614.874072 
L 1064.230009 615.235949 
L 1065.770589 615.658352 
L 1069.892267 615.821572 
L 1070.816459 615.894544 
L 1071.421481 615.74977 
L 1073.848582 615.531978 
L 1075.070055 615.040948 
L 1075.679262 614.974237 
L 1076.291419 615.080096 
L 1078.854656 615.851177 
L 1079.762181 615.647746 
L 1081.543412 615.330148 
L 1082.771717 614.25878 
L 1083.377923 614.111001 
L 1083.997635 614.194341 
L 1084.912285 614.728903 
L 1086.116275 615.620266 
L 1087.104883 615.86863 
L 1088.018663 615.665191 
L 1088.918682 615.485005 
L 1089.815349 615.556125 
L 1091.024754 615.960927 
L 1093.128207 616.615531 
L 1094.936878 616.729549 
L 1096.268127 616.671486 
L 1098.067724 616.449586 
L 1099.574343 616.245784 
L 1101.690756 616.118449 
L 1105.972039 616.608581 
L 1106.86032 616.645411 
L 1107.44819 616.874017 
L 1108.038812 617.329181 
L 1108.926329 618.409757 
L 1111.024532 621.319796 
L 1111.627294 622.032266 
L 1113.101372 623.14507 
L 1114.086855 624.378661 
L 1114.971925 626.165595 
L 1116.192671 628.658279 
L 1117.107412 630.089275 
L 1117.995391 631.058818 
L 1119.769523 632.864525 
L 1121.865937 635.163932 
L 1122.456241 635.691714 
L 1124.064929 636.716671 
L 1125.843345 637.68089 
L 1126.729947 638.071104 
L 1128.502373 638.230094 
L 1130.294612 639.067614 
L 1131.516059 639.394333 
L 1132.216874 639.483766 
L 1136.443198 639.380959 
L 1142.346457 639.108716 
L 1152.244646 638.925422 
L 1153.21923 638.614753 
L 1153.866948 638.197256 
L 1154.51534 637.556596 
L 1155.164961 636.679945 
L 1156.167013 634.876898 
L 1157.14512 632.485494 
L 1158.780719 627.565206 
L 1160.77418 621.285731 
L 1161.562229 619.247107 
L 1163.201569 614.478781 
L 1164.194334 611.996882 
L 1165.169839 610.084958 
L 1166.147986 608.70878 
L 1168.795707 605.801825 
L 1169.750169 603.946453 
L 1170.389594 602.439641 
L 1171.478642 598.927293 
L 1172.134997 595.42322 
L 1174.042129 582.922279 
L 1174.677486 580.355026 
L 1174.996198 579.512246 
L 1175.316762 578.978794 
L 1175.633429 578.720524 
L 1175.95249 578.729172 
L 1176.270861 578.992519 
L 1176.911439 580.195866 
L 1178.189572 583.408051 
L 1180.431393 583.608958 
L 1180.868064 583.350263 
L 1181.532213 582.349986 
L 1182.481038 580.193518 
L 1184.37891 575.684088 
L 1184.717323 575.437223 
L 1185.034059 575.414128 
L 1185.979022 575.744568 
L 1186.622897 575.284456 
L 1187.570767 573.619274 
L 1188.217521 572.791765 
L 1188.532133 572.059399 
L 1188.848071 570.874726 
L 1189.490913 567.007061 
L 1190.560545 557.894206 
L 1191.830794 544.421577 
L 1192.459265 539.554762 
L 1193.109527 536.756349 
L 1193.426315 536.123365 
L 1193.741527 535.941069 
L 1194.057961 536.067472 
L 1194.701127 536.528333 
L 1195.016668 536.458741 
L 1195.332693 535.94772 
L 1195.717235 534.778806 
L 1196.358493 530.517001 
L 1196.993007 525.327096 
L 1197.313617 523.447803 
L 1197.657986 522.202137 
L 1197.972321 521.53819 
L 1198.288048 521.316437 
L 1198.604181 521.291113 
L 1199.872159 522.077679 
L 1199.872159 522.077679 
" clip-path="url(#pc690354316)" style="fill: none; stroke: #800080; stroke-width: 2; stroke-linecap: square"/>
   </g>
   <g id="line2d_18">
    <path d="M 222.315341 641.89125 
L 247.313491 641.793621 
L 248.4273 641.556581 
L 249.187087 641.176335 
L 249.947353 640.520583 
L 250.721157 639.448978 
L 251.235349 638.448403 
L 252.014869 636.304655 
L 252.604714 634.36266 
L 253.39482 630.564032 
L 254.168468 625.5359 
L 254.954104 619.120389 
L 255.735259 610.870052 
L 256.765311 597.02788 
L 257.809674 583.303518 
L 259.343386 581.807738 
L 259.866108 579.537671 
L 260.482819 577.87895 
L 261.261419 575.339066 
L 262.041817 571.856386 
L 263.338587 565.416178 
L 263.861531 563.782896 
L 264.390933 562.886977 
L 264.921621 562.589093 
L 265.462761 562.710637 
L 265.996805 563.131131 
L 266.808677 564.176763 
L 267.366542 565.107271 
L 268.282555 567.032735 
L 269.060675 569.725507 
L 269.849327 573.242438 
L 270.887095 579.027859 
L 272.210403 587.712513 
L 273.780202 599.566083 
L 275.869493 615.826745 
L 276.493142 619.539982 
L 277.554274 626.220369 
L 278.606708 631.620898 
L 279.398933 634.68972 
L 280.18186 636.846326 
L 280.707055 637.822234 
L 281.22903 638.469689 
L 281.75384 638.841845 
L 282.543252 639.01403 
L 283.875537 639.105561 
L 284.521527 639.422158 
L 285.85131 640.7355 
L 287.446775 640.88136 
L 289.173929 641.066124 
L 290.423226 641.436783 
L 291.405739 641.45762 
L 294.45519 641.187636 
L 300.496287 640.639872 
L 303.743118 640.865013 
L 306.764278 640.977448 
L 310.624442 641.109891 
L 313.13517 641.192284 
L 313.897248 641.027574 
L 314.756777 640.5818 
L 315.272503 640.005243 
L 316.036649 638.718866 
L 316.804105 636.914075 
L 317.824361 633.838183 
L 319.352595 628.269546 
L 322.158135 617.974335 
L 322.506982 617.122571 
L 324.592388 616.33453 
L 326.158332 612.09753 
L 326.975828 610.695545 
L 327.774846 609.750381 
L 328.043196 609.521774 
L 329.661058 609.131957 
L 330.537834 607.69162 
L 331.237816 606.983998 
L 331.80754 606.801647 
L 332.372261 607.030748 
L 333.212004 607.730507 
L 334.619105 608.942587 
L 335.571428 609.223002 
L 336.749023 609.464017 
L 337.247478 609.797644 
L 337.994209 610.683388 
L 343.23388 618.273004 
L 344.026796 618.903317 
L 344.836767 619.292506 
L 348.14573 620.174837 
L 349.790846 620.393241 
L 350.61169 620.518144 
L 353.47785 620.35668 
L 354.788381 619.942496 
L 355.598353 620.14904 
L 356.549808 620.85662 
L 357.024045 620.3839 
L 358.008734 619.073793 
L 358.517556 618.927709 
L 358.791611 619.064746 
L 359.281436 619.665191 
L 360.723628 622.006636 
L 361.195838 622.315066 
L 361.920509 622.321881 
L 363.665456 622.162515 
L 364.499841 622.326412 
L 368.608109 623.970624 
L 372.126384 624.832891 
L 375.126353 625.202241 
L 376.190556 625.506307 
L 376.999391 625.526075 
L 378.367009 625.184624 
L 379.106414 625.09379 
L 380.084179 625.245699 
L 381.565401 625.696785 
L 382.807793 625.719312 
L 385.873915 625.33959 
L 388.818907 625.385208 
L 390.582421 625.156266 
L 392.023259 625.101752 
L 394.283775 625.294694 
L 395.289203 625.818514 
L 396.053325 626.405354 
L 400.217762 630.04086 
L 407.228289 635.832164 
L 408.486729 637.091358 
L 411.106855 638.620175 
L 412.35724 638.89146 
L 413.354683 638.895283 
L 414.583451 638.638737 
L 418.856018 637.562528 
L 420.825742 637.522848 
L 423.897934 637.716356 
L 425.625893 638.005039 
L 427.599271 638.584059 
L 429.574163 639.119396 
L 430.807134 639.236446 
L 432.382049 639.150156 
L 435.860385 638.806016 
L 437.359145 638.98548 
L 438.957914 639.386702 
L 440.469671 640.024985 
L 442.469754 640.927017 
L 443.724621 641.285663 
L 445.730374 641.544203 
L 446.577512 641.528971 
L 447.328544 641.288427 
L 447.829785 640.967396 
L 448.583895 640.184879 
L 449.335054 639.008838 
L 450.085351 637.332739 
L 451.086816 634.430332 
L 454.956895 622.472573 
L 456.208375 619.315764 
L 457.462088 616.853623 
L 458.21411 615.744012 
L 459.221893 614.709075 
L 460.230163 613.969432 
L 461.484853 613.270841 
L 463.086164 612.816754 
L 464.087882 612.75413 
L 465.622888 612.968186 
L 466.412226 613.256393 
L 467.202423 613.794963 
L 467.993512 614.621315 
L 468.783003 615.787875 
L 471.794326 621.202443 
L 472.584628 622.024123 
L 473.923268 622.88324 
L 475.046165 623.449058 
L 475.893809 623.544973 
L 476.726223 623.360375 
L 479.35979 622.413494 
L 480.190291 622.424488 
L 481.296088 622.535231 
L 482.404271 622.428682 
L 483.481574 622.063515 
L 485.577259 621.318292 
L 487.765287 621.009024 
L 488.814602 621.052617 
L 489.864046 621.220122 
L 491.178233 621.505789 
L 492.501303 621.538203 
L 494.713349 621.506987 
L 496.291556 621.772433 
L 498.930203 622.206846 
L 500.771255 622.21522 
L 501.824304 622.341493 
L 504.806644 622.777343 
L 507.176424 623.036882 
L 507.977739 622.887062 
L 508.554554 622.617802 
L 509.359892 621.904431 
L 510.513516 620.242095 
L 511.847678 617.865935 
L 513.71573 615.115552 
L 515.846608 612.265947 
L 517.710957 610.4201 
L 519.672599 608.758674 
L 520.739928 608.078627 
L 521.805942 607.696954 
L 523.679435 607.363665 
L 524.507693 607.378521 
L 525.313162 607.65004 
L 526.744888 608.551955 
L 529.166774 610.322471 
L 529.973714 611.187171 
L 531.055823 612.722815 
L 532.420355 614.949154 
L 533.791151 617.201944 
L 534.075854 617.572496 
L 535.510118 618.670844 
L 536.592746 619.481882 
L 538.999221 621.166969 
L 539.515532 621.228718 
L 540.286504 621.010042 
L 541.330113 620.614727 
L 542.186086 620.617293 
L 544.591118 621.169621 
L 545.391586 621.057705 
L 546.899742 620.737655 
L 547.89611 620.870098 
L 548.945064 620.999244 
L 549.757983 620.927433 
L 551.917395 620.533212 
L 552.699226 620.666617 
L 554.228733 621.16889 
L 555.006537 621.142948 
L 556.520987 620.820823 
L 557.266727 620.930853 
L 559.395981 621.705701 
L 560.202984 622.054853 
L 560.959848 622.094121 
L 561.466189 621.814316 
L 561.972144 621.152284 
L 562.472178 620.089915 
L 563.214392 618.322861 
L 563.706865 617.740173 
L 564.200344 617.839398 
L 564.697432 618.336795 
L 565.694132 619.823493 
L 565.941094 620.18611 
L 567.058693 621.075741 
L 567.559715 621.10174 
L 568.321003 620.670153 
L 569.361359 620.114053 
L 569.910764 620.085146 
L 570.426868 620.232919 
L 573.779722 621.963428 
L 574.392109 622.423183 
L 575.669941 623.93297 
L 578.226319 627.06077 
L 581.552897 630.771462 
L 582.415138 631.4833 
L 584.016318 633.201432 
L 585.303079 634.981838 
L 586.295952 636.322119 
L 587.079293 636.910711 
L 587.844739 637.107197 
L 590.325813 637.308678 
L 590.851395 637.706738 
L 591.621987 638.67795 
L 592.405479 639.587994 
L 592.946389 639.903231 
L 593.770431 640.060755 
L 598.789781 640.28149 
L 604.821756 641.124949 
L 609.00899 641.129443 
L 615.752125 641.234156 
L 623.663187 641.191094 
L 625.514976 640.879845 
L 626.312472 640.569428 
L 627.102634 640.03331 
L 627.897882 639.225581 
L 629.365372 637.005525 
L 630.473994 634.283236 
L 631.901085 630.21622 
L 635.029911 620.129213 
L 636.434962 615.76367 
L 637.553486 612.829885 
L 639.892113 609.117778 
L 640.735302 608.536471 
L 641.564571 608.219369 
L 642.696763 608.030389 
L 643.544447 608.051734 
L 644.383754 608.24409 
L 645.24214 608.656705 
L 647.016319 609.877354 
L 649.057358 611.987021 
L 650.478737 613.342458 
L 653.869968 616.485469 
L 654.736741 617.272011 
L 655.987378 618.024081 
L 657.148912 618.64636 
L 658.025354 618.887268 
L 659.157334 618.686758 
L 660.589388 618.310401 
L 662.044609 618.26961 
L 664.481425 618.643582 
L 666.783485 619.349457 
L 667.64481 619.386386 
L 673.813101 619.292268 
L 676.693614 619.585404 
L 678.139724 619.344248 
L 681.159262 618.824524 
L 683.515668 618.639457 
L 684.954018 618.350229 
L 685.808666 618.206207 
L 687.535123 618.171916 
L 688.112441 617.859227 
L 688.678857 617.26882 
L 689.844654 615.277173 
L 690.518832 614.258134 
L 691.659209 612.741366 
L 692.805146 611.292138 
L 698.03072 603.477331 
L 699.86647 601.274932 
L 700.736184 600.561036 
L 701.591992 600.117069 
L 702.461082 599.904752 
L 703.313812 599.910279 
L 704.473219 600.175676 
L 705.323738 600.611045 
L 706.207581 601.292205 
L 710.991479 605.890769 
L 712.161899 607.356521 
L 713.053202 608.61837 
L 714.507038 611.20875 
L 715.381485 612.572061 
L 715.958463 613.159868 
L 716.555413 613.514586 
L 717.821187 614.017517 
L 718.41574 614.493819 
L 719.869125 615.962873 
L 720.447294 616.143225 
L 721.022764 616.039031 
L 722.180457 615.585109 
L 722.759399 615.527933 
L 723.631295 615.686478 
L 725.074502 616.387927 
L 726.060062 616.7486 
L 727.257163 617.014088 
L 729.619847 617.228824 
L 731.10743 617.618409 
L 732.270794 617.735858 
L 733.442872 617.485517 
L 734.988622 617.098454 
L 735.829096 617.191686 
L 737.789761 617.652503 
L 738.621798 617.463523 
L 739.753634 617.246432 
L 740.592108 617.309736 
L 743.515818 617.936053 
L 746.341265 618.349075 
L 748.787328 618.908023 
L 750.133706 618.915348 
L 750.959165 619.148894 
L 751.913102 619.73851 
L 752.60486 620.255888 
L 755.73546 623.608428 
L 757.937366 626.45411 
L 761.357384 631.217197 
L 763.020688 632.986014 
L 767.152693 636.928742 
L 770.566711 639.041722 
L 771.738892 639.492201 
L 773.212887 639.829286 
L 775.23363 640.054391 
L 777.40566 640.017704 
L 781.816903 639.930661 
L 801.745451 639.842619 
L 803.895799 639.588159 
L 805.060807 639.159767 
L 806.242252 638.479203 
L 807.406332 637.430655 
L 808.275621 636.33624 
L 809.452877 634.356132 
L 813.944071 625.760432 
L 817.119735 618.99388 
L 817.990295 617.766086 
L 818.860125 616.92591 
L 819.726037 616.377193 
L 821.877626 615.275426 
L 823.621865 613.744647 
L 824.491524 613.270656 
L 825.377854 613.118793 
L 826.915167 613.030848 
L 827.787139 612.531915 
L 829.564684 611.433863 
L 830.152266 611.407436 
L 830.553094 611.595064 
L 831.149848 612.223314 
L 832.037144 613.590234 
L 832.921123 614.908109 
L 833.218709 615.182662 
L 833.807597 615.329307 
L 834.100781 615.157938 
L 834.405375 614.789652 
L 834.992138 613.592807 
L 836.266987 610.524063 
L 836.856253 609.687695 
L 837.149951 609.592541 
L 837.759819 609.961121 
L 838.345639 610.887497 
L 839.234955 612.477605 
L 839.931233 612.986959 
L 840.224913 612.738239 
L 840.514519 612.207279 
L 840.821896 611.225526 
L 841.419121 608.261686 
L 842.595409 601.441397 
L 843.200891 599.412742 
L 843.49671 598.908675 
L 843.788591 598.82345 
L 844.097424 599.054057 
L 844.681279 600.131768 
L 845.58163 601.954783 
L 846.167313 602.83766 
L 846.755169 603.283869 
L 847.368609 603.346329 
L 848.248045 603.258035 
L 848.964909 603.546543 
L 849.554373 604.242054 
L 851.027067 606.42216 
L 851.317787 606.662926 
L 851.913446 606.704302 
L 852.503868 606.400781 
L 854.343307 605.014057 
L 854.945156 604.870244 
L 855.577655 604.91538 
L 857.099812 605.413114 
L 858.119532 605.938062 
L 858.737448 606.512907 
L 859.667496 607.678163 
L 860.276643 608.4362 
L 860.577604 608.576381 
L 860.881343 608.576634 
L 861.185113 608.388248 
L 861.812411 607.604774 
L 862.417654 606.871614 
L 862.722694 606.743133 
L 863.027684 606.809692 
L 863.642228 607.445171 
L 865.151287 609.722113 
L 865.748661 610.134194 
L 866.352078 610.194014 
L 867.373161 610.07689 
L 867.672152 610.212529 
L 867.984714 610.553936 
L 868.283975 611.110305 
L 868.583662 612.028167 
L 869.181544 615.155773 
L 870.110991 620.051951 
L 870.409134 620.928748 
L 871.01775 621.739039 
L 871.619541 621.898257 
L 873.457308 622.027834 
L 874.066305 622.225338 
L 874.392819 622.515181 
L 874.680557 623.023735 
L 875.287804 624.837308 
L 876.269974 628.252951 
L 876.838665 629.938522 
L 877.428148 630.947424 
L 878.000858 631.53711 
L 879.460414 632.562738 
L 880.324927 633.589414 
L 882.088167 636.048893 
L 882.961318 636.830352 
L 884.130749 637.532285 
L 886.850592 638.909772 
L 890.409592 640.149852 
L 891.896557 640.383211 
L 892.476957 640.622418 
L 892.761779 640.608123 
L 893.05334 640.303982 
L 893.392778 639.475994 
L 894.105957 635.59939 
L 894.717581 628.470004 
L 895.389896 618.799324 
L 896.917399 593.733325 
L 897.530335 586.606268 
L 898.167191 582.287291 
L 898.474781 581.144243 
L 899.088447 580.132824 
L 900.031512 579.336099 
L 900.645285 578.263636 
L 902.110493 577.524006 
L 902.697659 575.650783 
L 903.707933 571.155845 
L 904.9228 564.489444 
L 905.513921 562.077637 
L 906.737968 558.787095 
L 907.324304 556.49149 
L 908.840468 549.899007 
L 909.444941 548.622984 
L 910.028351 548.075156 
L 910.611847 547.989163 
L 911.1992 548.188538 
L 912.489067 548.786187 
L 913.411574 548.892258 
L 914.356739 548.97535 
L 914.958318 549.287992 
L 915.561333 549.985333 
L 916.473544 551.404963 
L 917.385578 552.882682 
L 918.288598 553.956675 
L 919.189708 554.628064 
L 920.09161 555.252974 
L 921.013443 556.042803 
L 921.734899 556.577157 
L 922.671671 557.171084 
L 923.275598 557.335233 
L 923.942465 557.18935 
L 924.543332 556.763956 
L 925.164174 556.028579 
L 925.464338 555.898292 
L 925.766369 556.248375 
L 926.067255 557.298405 
L 926.370009 559.251014 
L 926.97703 565.72192 
L 927.882444 579.231631 
L 929.119182 597.686411 
L 929.720196 604.079043 
L 930.325575 607.571797 
L 930.628041 608.241571 
L 931.04143 608.579388 
L 931.349062 608.503455 
L 931.976702 607.732202 
L 932.880337 606.424126 
L 933.189031 606.380276 
L 933.491033 606.615678 
L 933.792775 607.350061 
L 934.398427 610.416099 
L 935.035822 614.573477 
L 935.941479 620.806828 
L 936.549989 623.534712 
L 936.851391 624.217514 
L 937.15238 624.4347 
L 937.455951 624.295795 
L 938.088311 623.59963 
L 940.009272 620.508033 
L 940.424542 620.124722 
L 941.943366 619.789443 
L 942.553022 619.401931 
L 943.192567 619.492434 
L 943.800016 619.798019 
L 945.939054 619.763907 
L 946.543706 619.182222 
L 948.089048 617.430841 
L 948.698945 617.094372 
L 949.306486 617.184834 
L 950.031174 617.460325 
L 950.967497 617.93646 
L 951.577473 618.02209 
L 952.186931 617.956076 
L 954.993012 617.13208 
L 957.790788 617.10311 
L 959.748237 616.61612 
L 961.885108 616.450105 
L 962.490752 616.06916 
L 963.437019 615.32486 
L 964.059306 615.11029 
L 964.680353 615.205788 
L 967.058675 616.355847 
L 970.408796 616.171083 
L 971.024294 616.39564 
L 972.249888 616.983627 
L 972.839131 617.132519 
L 973.430398 617.090413 
L 974.312129 616.748245 
L 975.195836 616.401195 
L 975.7848 616.29171 
L 977.63682 616.113219 
L 978.816247 615.293827 
L 979.42919 614.83362 
L 980.020807 614.715222 
L 980.611042 614.951197 
L 981.514201 615.589776 
L 983.291552 616.577441 
L 984.187139 617.472155 
L 985.980189 619.779441 
L 986.691905 620.544813 
L 989.986018 625.251313 
L 993.266245 629.844208 
L 994.149101 630.641307 
L 994.736898 630.966443 
L 995.438592 630.968362 
L 996.028542 630.67826 
L 997.512111 629.406974 
L 999.894695 627.115664 
L 1004.149641 621.182153 
L 1004.841574 620.274589 
L 1005.718604 619.183548 
L 1006.904844 618.099925 
L 1008.397163 617.061084 
L 1010.489815 615.871422 
L 1013.178734 614.037264 
L 1014.769107 613.349696 
L 1017.990954 611.791721 
L 1018.573782 611.716713 
L 1019.768127 611.870158 
L 1021.273826 612.352288 
L 1022.847248 613.236213 
L 1024.634474 614.554264 
L 1025.224466 614.807798 
L 1026.111809 614.841947 
L 1026.702862 614.582693 
L 1027.296557 614.024877 
L 1027.885806 613.166069 
L 1028.799787 611.387827 
L 1030.29775 607.278943 
L 1031.18521 604.930866 
L 1032.476099 603.201783 
L 1033.067456 602.980084 
L 1033.663132 603.032795 
L 1035.447774 603.671256 
L 1035.744901 603.640848 
L 1036.337099 603.220882 
L 1036.963433 602.324067 
L 1037.855236 600.180365 
L 1038.448664 598.869497 
L 1038.745567 598.415305 
L 1039.041864 598.169731 
L 1039.338994 598.130881 
L 1039.634727 598.307935 
L 1040.251479 599.08848 
L 1040.95251 600.19138 
L 1041.554216 601.163489 
L 1042.149147 601.805457 
L 1042.444904 601.927029 
L 1043.037351 601.767234 
L 1043.630334 601.282612 
L 1044.222821 600.701452 
L 1044.819739 600.49831 
L 1045.114463 600.605268 
L 1045.704271 601.282021 
L 1046.915159 603.174064 
L 1047.212037 603.422356 
L 1047.507805 603.471986 
L 1048.104661 603.09091 
L 1049.675497 602.319573 
L 1050.266123 601.115149 
L 1050.862573 600.418934 
L 1051.480779 600.185176 
L 1053.876748 600.265047 
L 1057.183084 599.057126 
L 1059.987532 598.551658 
L 1060.583391 598.805589 
L 1062.09897 599.764604 
L 1062.706516 599.666765 
L 1064.230009 598.792025 
L 1064.834473 598.819903 
L 1065.466185 599.199796 
L 1066.075065 599.978663 
L 1069.591142 605.527477 
L 1071.421481 607.92713 
L 1073.241914 608.720361 
L 1073.848582 610.853881 
L 1074.456134 613.168556 
L 1075.070055 614.743957 
L 1075.374345 615.185095 
L 1075.679262 615.361676 
L 1075.986106 615.290595 
L 1076.291419 615.00216 
L 1076.942096 613.880105 
L 1077.349547 613.074889 
L 1078.555251 609.836567 
L 1078.854656 609.357648 
L 1079.155103 609.115946 
L 1079.454814 609.071251 
L 1079.762181 609.175438 
L 1081.543412 608.980989 
L 1081.844221 608.716389 
L 1082.445112 607.685221 
L 1083.077168 606.201551 
L 1083.697119 604.366397 
L 1084.291343 603.078193 
L 1084.912285 602.450729 
L 1085.206444 602.413189 
L 1085.50097 602.536694 
L 1086.51276 603.520689 
L 1088.018663 605.549505 
L 1089.815349 607.97638 
L 1091.917764 611.072419 
L 1092.526868 611.635141 
L 1093.128207 611.910089 
L 1093.726057 612.032943 
L 1094.636193 611.982837 
L 1095.669611 611.562395 
L 1096.268127 610.984026 
L 1097.167741 609.680904 
L 1099.574343 605.822275 
L 1100.487641 604.852813 
L 1101.39105 604.295841 
L 1101.995132 604.214428 
L 1102.583079 604.388484 
L 1103.169747 604.88118 
L 1103.793712 605.775474 
L 1104.781208 607.875966 
L 1105.972039 611.686004 
L 1106.86032 614.309391 
L 1107.744289 616.193865 
L 1108.629832 617.424383 
L 1109.219749 617.948128 
L 1109.839617 618.25708 
L 1110.434604 618.354831 
L 1111.024532 618.242678 
L 1111.627294 617.859499 
L 1112.510928 616.674595 
L 1114.380371 613.958818 
L 1114.971925 613.429879 
L 1115.874344 613.009547 
L 1117.107412 612.717914 
L 1117.697964 612.792255 
L 1118.290217 613.107289 
L 1118.880889 613.681648 
L 1119.769523 614.928717 
L 1121.275232 617.697383 
L 1122.456241 619.712803 
L 1123.17728 620.553079 
L 1124.362836 622.015087 
L 1125.248903 622.732004 
L 1126.139249 623.205907 
L 1126.729947 623.423461 
L 1128.798611 623.395875 
L 1130.294612 623.112426 
L 1130.888086 623.304475 
L 1132.216874 624.14057 
L 1134.033838 624.143837 
L 1134.333754 624.010738 
L 1135.53474 622.947742 
L 1135.835273 622.900524 
L 1136.443198 623.129162 
L 1138.086491 624.096569 
L 1138.717997 624.308827 
L 1139.030447 624.288245 
L 1139.663492 623.888755 
L 1140.301723 623.011698 
L 1140.932706 621.928745 
L 1142.985345 619.683873 
L 1143.965063 618.717516 
L 1144.924099 617.433982 
L 1146.211405 615.181324 
L 1147.813766 614.630316 
L 1148.806755 613.447221 
L 1150.170319 612.149487 
L 1151.597117 610.719861 
L 1152.244646 610.330905 
L 1152.89363 610.26704 
L 1155.164961 610.741944 
L 1156.167013 610.576041 
L 1157.14512 610.428025 
L 1157.807935 610.722858 
L 1159.430668 611.877812 
L 1160.098195 611.966551 
L 1160.77418 611.648775 
L 1161.562229 611.059985 
L 1162.551077 610.236739 
L 1163.201569 610.045191 
L 1163.525883 610.116032 
L 1164.194334 609.876588 
L 1165.495815 608.933515 
L 1166.147986 608.734481 
L 1166.473395 608.778615 
L 1167.14883 609.218201 
L 1167.796915 609.990644 
L 1168.120231 609.709195 
L 1168.795707 608.704106 
L 1169.750169 606.953631 
L 1170.069011 606.584153 
L 1170.389594 606.448441 
L 1170.704917 606.554402 
L 1171.151361 606.935854 
L 1171.795241 608.236776 
L 1172.771024 610.507723 
L 1173.403338 611.362561 
L 1173.723785 611.515631 
L 1174.360562 611.366751 
L 1175.316762 610.538352 
L 1175.95249 610.080053 
L 1176.5899 609.9323 
L 1177.230065 610.05702 
L 1178.189572 610.466394 
L 1180.091334 609.975473 
L 1181.532213 606.738217 
L 1181.846339 606.507069 
L 1182.162519 606.603443 
L 1182.481038 607.0014 
L 1183.435001 609.073513 
L 1184.062778 610.315407 
L 1184.37891 610.685946 
L 1184.717323 610.798334 
L 1185.034059 610.701719 
L 1185.66397 610.004188 
L 1186.940605 608.033182 
L 1187.570767 607.445358 
L 1188.217521 607.154568 
L 1190.560545 606.639344 
L 1192.143521 605.58855 
L 1192.793341 605.489364 
L 1193.426315 605.691711 
L 1194.388143 606.417531 
L 1196.039466 607.721451 
L 1197.972321 609.124374 
L 1199.238077 610.531764 
L 1199.872159 611.321276 
L 1199.872159 611.321276 
" clip-path="url(#pc690354316)" style="fill: none; stroke: #ff0000; stroke-width: 2; stroke-linecap: square"/>
   </g>
   <g id="line2d_19">
    <path d="M 852.798887 641.89125 
L 853.418932 634.850646 
L 854.042878 625.50007 
L 854.343307 624.218516 
L 854.644254 623.922285 
L 854.945156 624.253933 
L 855.882593 627.768636 
L 859.366517 618.063225 
L 861.185113 586.53931 
L 861.812411 580.467015 
L 891.580256 574.457632 
L 892.186926 555.641067 
L 892.761779 527.785146 
L 894.413924 438.534778 
L 895.080639 406.843828 
L 895.692147 384.51658 
L 895.994827 377.33496 
L 896.303104 372.793462 
L 896.611881 370.21707 
L 896.917399 369.490326 
L 897.223032 370.252989 
L 897.837861 374.685726 
L 899.088447 384.44658 
L 899.395798 385.87801 
L 899.722833 386.814366 
L 900.031512 387.319318 
L 900.645285 387.640852 
L 902.110493 386.754894 
L 902.697659 385.294873 
L 903.00411 384.811019 
L 903.707933 384.457169 
L 904.002185 384.527547 
L 904.613656 385.12122 
L 906.154369 387.312916 
L 909.444941 390.299019 
L 910.028351 390.60865 
L 910.320595 390.815187 
L 910.906299 391.662808 
L 911.787685 393.938247 
L 915.868295 407.272793 
L 916.167679 407.743376 
L 916.473544 407.716796 
L 916.774107 407.050756 
L 917.076543 405.663562 
L 917.385578 407.303334 
L 917.685382 407.373564 
L 917.987502 406.710057 
L 918.288598 405.321249 
L 918.587034 403.101192 
L 919.491249 393.350549 
L 919.791622 391.457828 
L 920.09161 390.358023 
L 920.412275 390.350826 
L 920.71282 392.301517 
L 921.013443 392.829785 
L 921.734899 392.004179 
L 922.052787 392.30938 
L 922.353797 393.311575 
L 922.671671 395.206428 
L 922.973034 398.123581 
L 923.275598 402.956014 
L 924.243032 413.487849 
L 925.164174 425.543414 
L 926.067255 442.622486 
L 927.882444 482.40333 
L 928.516315 491.724712 
L 929.119182 498.521621 
L 929.419066 500.824115 
L 929.720196 502.244525 
L 930.024912 502.664222 
L 930.325575 501.926543 
L 931.04143 497.046943 
L 931.675579 488.356477 
L 932.579816 471.308449 
L 934.095942 440.750985 
L 934.728503 430.927663 
L 935.941479 415.013731 
L 936.549989 409.749735 
L 936.851391 408.503271 
L 937.15238 408.120026 
L 937.455951 408.521759 
L 938.088311 411.122626 
L 939.029285 417.329602 
L 940.424542 428.774512 
L 941.943366 432.214454 
L 942.553022 437.926121 
L 943.192567 440.991577 
L 943.495498 441.347268 
L 943.800016 440.989661 
L 945.332287 441.295581 
L 945.939054 441.91906 
L 947.152307 444.11676 
L 947.475118 445.05913 
L 948.089048 448.544571 
L 948.698945 452.600974 
L 949.306486 455.076524 
L 949.720838 455.502133 
L 950.031174 455.199553 
L 950.659284 453.671613 
L 951.272537 451.538443 
L 951.882115 448.173577 
L 952.495094 443.359796 
L 953.104839 437.465193 
L 954.653386 420.587745 
L 955.623987 413.063229 
L 956.566208 408.194231 
L 957.488514 405.169583 
L 958.716279 402.795229 
L 959.134487 401.569867 
L 959.748237 398.772302 
L 961.885108 397.017085 
L 962.490752 391.64664 
L 963.437019 379.67783 
L 964.680353 361.284099 
L 965.278657 355.741051 
L 965.569315 354.576459 
L 965.866074 354.778886 
L 966.159327 356.113143 
L 966.453256 358.844489 
L 967.058675 367.642801 
L 967.939553 384.398506 
L 969.807128 387.475317 
L 971.024294 398.984248 
L 971.646221 402.168058 
L 972.249888 403.435065 
L 972.544622 404.836245 
L 973.136113 409.613394 
L 973.724027 416.492839 
L 974.609346 429.743023 
L 975.7848 453.110954 
L 977.63682 459.739984 
L 978.227297 471.717382 
L 978.52176 476.128882 
L 978.816247 476.477782 
L 979.112272 475.64201 
L 979.42919 473.759281 
L 980.020807 467.47704 
L 981.514201 445.130423 
L 983.587139 412.923671 
L 984.481141 403.133558 
L 985.363876 395.443835 
L 986.389772 388.672902 
L 986.984674 385.642367 
L 987.316464 384.950838 
L 987.612005 384.801858 
L 987.902417 385.247543 
L 988.217961 386.100113 
L 988.512901 387.524544 
L 989.10227 392.039508 
L 990.603316 404.395406 
L 991.194461 408.419218 
L 991.788658 410.938401 
L 992.091287 411.3745 
L 992.386327 411.381429 
L 992.680507 411.167456 
L 992.975143 411.310436 
L 993.266245 411.993738 
L 993.560406 413.105439 
L 994.149101 417.085089 
L 996.028542 433.788115 
L 997.806896 453.339874 
L 998.417526 456.990223 
L 998.714307 458.228996 
L 999.009422 458.617071 
L 999.305011 458.375898 
L 999.599324 457.323533 
L 1000.191802 453.872522 
L 1001.070056 446.30962 
L 1001.658719 445.069331 
L 1001.951755 444.825124 
L 1002.253519 444.926782 
L 1002.554692 445.413235 
L 1003.192278 447.918973 
L 1003.529397 449.878322 
L 1005.423576 467.503236 
L 1007.199477 487.89533 
L 1007.494033 491.93406 
L 1008.101615 494.9738 
L 1009.603111 500.730274 
L 1009.899856 502.293019 
L 1010.489815 507.267298 
L 1011.080823 514.329732 
L 1011.973528 529.164787 
L 1013.178734 550.193593 
L 1014.478653 563.452871 
L 1015.058303 566.432349 
L 1015.639161 568.053952 
L 1016.521683 569.542668 
L 1016.811627 569.764102 
L 1017.700526 569.473714 
L 1017.990954 569.251437 
L 1018.573782 568.248674 
L 1019.768127 565.415962 
L 1020.372677 564.539758 
L 1021.273826 563.89063 
L 1021.854338 563.510166 
L 1022.148027 563.645935 
L 1022.847248 564.336283 
L 1023.13956 564.141766 
L 1023.730832 562.16224 
L 1024.338996 559.223626 
L 1027.58974 536.543338 
L 1028.180185 530.5834 
L 1030.29775 503.756001 
L 1031.18521 493.537361 
L 1033.067456 482.167774 
L 1033.363447 481.380509 
L 1033.663132 481.361111 
L 1033.958965 481.981272 
L 1034.25495 483.2472 
L 1034.85022 488.068952 
L 1035.744901 499.300081 
L 1036.666798 509.81112 
L 1037.262796 514.472666 
L 1040.251479 532.703217 
L 1040.95251 535.652392 
L 1042.740478 544.082399 
L 1043.333823 545.738057 
L 1044.819739 548.447475 
L 1045.408041 550.092575 
L 1046.322538 553.333255 
L 1047.507805 558.72038 
L 1048.104661 561.884417 
L 1049.675497 563.368668 
L 1050.862573 569.836925 
L 1051.780881 576.260188 
L 1052.687466 583.640196 
L 1052.982129 585.285332 
L 1053.277289 586.280424 
L 1053.577113 586.654955 
L 1053.876748 586.408694 
L 1054.17709 585.268803 
L 1054.477594 582.933861 
L 1054.77436 579.654881 
L 1055.367348 569.024829 
L 1055.992724 553.104866 
L 1057.183084 513.046586 
L 1060.583391 399.227368 
L 1061.476191 379.831417 
L 1062.09897 370.698426 
L 1062.706516 364.434045 
L 1063.316136 359.88169 
L 1063.620252 358.675433 
L 1063.927572 358.312385 
L 1064.230009 358.496422 
L 1064.530606 359.061061 
L 1065.137948 361.024288 
L 1065.770589 363.302224 
L 1066.679302 367.626096 
L 1070.816459 387.377749 
L 1071.421481 391.07594 
L 1073.241914 392.819595 
L 1073.848582 397.414078 
L 1074.762132 404.713725 
L 1075.374345 408.959152 
L 1075.986106 415.961209 
L 1077.349547 439.582262 
L 1078.555251 470.687674 
L 1079.762181 503.445267 
L 1081.543412 510.702725 
L 1082.445112 528.516198 
L 1083.377923 540.94249 
L 1084.912285 554.229031 
L 1086.116275 563.739084 
L 1087.719722 572.476019 
L 1088.018663 573.077041 
L 1088.319249 573.174326 
L 1088.61957 572.881796 
L 1089.219758 571.131771 
L 1090.409669 566.9827 
L 1091.024754 565.826035 
L 1091.321038 565.716697 
L 1091.618296 565.8498 
L 1091.917764 566.237868 
L 1092.526868 567.753593 
L 1093.426755 571.008101 
L 1095.235342 578.070869 
L 1095.97329 580.074023 
L 1096.567527 581.61549 
L 1097.167741 582.683751 
L 1097.767474 583.292463 
L 1098.367059 583.598447 
L 1098.985702 583.673003 
L 1100.190962 583.462846 
L 1100.781872 583.211972 
L 1101.39105 582.792119 
L 1101.995132 582.030694 
L 1104.087542 578.439238 
L 1104.382633 578.246818 
L 1104.781208 578.232045 
L 1105.087336 578.372694 
L 1105.677766 579.47924 
L 1106.267632 581.428683 
L 1106.86032 584.634427 
L 1108.335417 596.202448 
L 1109.514829 605.450125 
L 1110.13998 607.794903 
L 1110.434604 608.20482 
L 1110.729931 607.989048 
L 1111.024532 607.136871 
L 1111.320047 605.597806 
L 1111.627294 603.351562 
L 1112.510928 591.153596 
L 1113.791529 568.853407 
L 1114.971925 539.373365 
L 1116.492371 501.440421 
L 1119.472991 439.624895 
L 1120.360204 425.204489 
L 1121.275232 414.275596 
L 1122.160734 406.171707 
L 1122.456241 404.045735 
L 1123.768871 397.912079 
L 1124.064929 397.402256 
L 1124.362836 397.502516 
L 1124.657835 398.317223 
L 1124.95364 399.793627 
L 1125.54453 405.265886 
L 1126.139249 414.227171 
L 1126.729947 425.373434 
L 1128.211064 430.944089 
L 1129.110664 445.358808 
L 1129.999422 457.04935 
L 1130.593055 462.259753 
L 1130.888086 464.055538 
L 1131.219139 464.826566 
L 1131.516059 464.940881 
L 1131.91259 463.84471 
L 1132.216874 461.592794 
L 1133.736413 454.454043 
L 1134.333754 436.172736 
L 1135.835273 378.314355 
L 1137.106784 330.85781 
L 1138.717997 274.241535 
L 1140.301723 222.275037 
L 1140.932706 203.206506 
L 1141.702939 185.595875 
L 1142.985345 155.009408 
L 1144.284729 132.429219 
L 1144.924099 124.54636 
L 1145.564056 119.141467 
L 1145.888044 117.387235 
L 1146.211405 116.36625 
L 1147.813766 116.510915 
L 1148.156997 117.469986 
L 1148.482729 119.300891 
L 1149.171581 125.773441 
L 1149.8477 135.881029 
L 1151.597117 170.299847 
L 1152.89363 202.308601 
L 1154.51534 253.572525 
L 1155.812102 293.07126 
L 1159.10419 376.532675 
L 1160.77418 421.528334 
L 1161.562229 437.255926 
L 1162.551077 456.265708 
L 1162.87414 461.390004 
L 1163.525883 464.583873 
L 1164.194334 466.756322 
L 1164.845169 467.958533 
L 1165.169839 468.223693 
L 1165.495815 468.337164 
L 1166.147986 468.279715 
L 1167.14883 467.971035 
L 1167.472252 467.996027 
L 1167.796915 469.251268 
L 1168.445373 473.128145 
L 1169.114682 478.299585 
L 1170.389594 489.030491 
L 1170.704917 490.997651 
L 1172.134997 495.331047 
L 1173.086843 498.54492 
L 1173.403338 499.372253 
L 1173.723785 499.774123 
L 1174.360562 499.794582 
L 1174.677486 500.072476 
L 1174.996198 500.884301 
L 1175.633429 504.110528 
L 1176.270861 507.159906 
L 1176.5899 507.631523 
L 1176.911439 507.2481 
L 1177.230065 506.066545 
L 1177.867533 502.100035 
L 1178.189572 499.789389 
L 1180.091334 498.308563 
L 1180.431393 497.169039 
L 1181.203392 495.982414 
L 1181.532213 495.873032 
L 1182.162519 496.357286 
L 1182.794533 494.282523 
L 1183.435001 491.600418 
L 1184.062778 487.045386 
L 1184.717323 480.548945 
L 1186.306735 460.173967 
L 1186.940605 450.133688 
L 1187.254042 443.472241 
L 1187.254042 443.472241 
" clip-path="url(#pc690354316)" style="fill: none; stroke: #0000ff; stroke-width: 2; stroke-linecap: square"/>
   </g>
   <g id="patch_3">
    <path d="M 173.4375 668.1675 
L 173.4375 90.09 
" style="fill: none; stroke: #000000; stroke-width: 0.8; stroke-linejoin: miter; stroke-linecap: square"/>
   </g>
   <g id="patch_4">
    <path d="M 1248.75 668.1675 
L 1248.75 90.09 
" style="fill: none; stroke: #000000; stroke-width: 0.8; stroke-linejoin: miter; stroke-linecap: square"/>
   </g>
   <g id="patch_5">
    <path d="M 173.4375 668.1675 
L 1248.75 668.1675 
" style="fill: none; stroke: #000000; stroke-width: 0.8; stroke-linejoin: miter; stroke-linecap: square"/>
   </g>
   <g id="patch_6">
    <path d="M 173.4375 90.09 
L 1248.75 90.09 
" style="fill: none; stroke: #000000; stroke-width: 0.8; stroke-linejoin: miter; stroke-linecap: square"/>
   </g>
   <g id="legend_1">
    <g id="patch_7">
     <path d="M 1182.9875 142.124375 
L 1241.75 142.124375 
Q 1243.75 142.124375 1243.75 140.124375 
L 1243.75 97.09 
Q 1243.75 95.09 1241.75 95.09 
L 1182.9875 95.09 
Q 1180.9875 95.09 1180.9875 97.09 
L 1180.9875 140.124375 
Q 1180.9875 142.124375 1182.9875 142.124375 
z
" style="fill: #ffffff; opacity: 0.8; stroke: #cccccc; stroke-linejoin: miter"/>
    </g>
    <g id="line2d_20">
     <path d="M 1184.9875 103.188437 
L 1194.9875 103.188437 
L 1204.9875 103.188437 
" style="fill: none; stroke: #800080; stroke-width: 2; stroke-linecap: square"/>
    </g>
    <g id="text_19">
     <!-- Car 0 -->
     <g transform="translate(1212.9875 106.688437)scale(0.1 -0.1)">
      <defs>
       <path id="DejaVuSans-43" d="M 4122 4306 
L 4122 3641 
Q 3803 3938 3442 4084 
Q 3081 4231 2675 4231 
Q 1875 4231 1450 3742 
Q 1025 3253 1025 2328 
Q 1025 1406 1450 917 
Q 1875 428 2675 428 
Q 3081 428 3442 575 
Q 3803 722 4122 1019 
L 4122 359 
Q 3791 134 3420 21 
Q 3050 -91 2638 -91 
Q 1578 -91 968 557 
Q 359 1206 359 2328 
Q 359 3453 968 4101 
Q 1578 4750 2638 4750 
Q 3056 4750 3426 4639 
Q 3797 4528 4122 4306 
z
" transform="scale(0.015625)"/>
       <path id="DejaVuSans-61" d="M 2194 1759 
Q 1497 1759 1228 1600 
Q 959 1441 959 1056 
Q 959 750 1161 570 
Q 1363 391 1709 391 
Q 2188 391 2477 730 
Q 2766 1069 2766 1631 
L 2766 1759 
L 2194 1759 
z
M 3341 1997 
L 3341 0 
L 2766 0 
L 2766 531 
Q 2569 213 2275 61 
Q 1981 -91 1556 -91 
Q 1019 -91 701 211 
Q 384 513 384 1019 
Q 384 1609 779 1909 
Q 1175 2209 1959 2209 
L 2766 2209 
L 2766 2266 
Q 2766 2663 2505 2880 
Q 2244 3097 1772 3097 
Q 1472 3097 1187 3025 
Q 903 2953 641 2809 
L 641 3341 
Q 956 3463 1253 3523 
Q 1550 3584 1831 3584 
Q 2591 3584 2966 3190 
Q 3341 2797 3341 1997 
z
" transform="scale(0.015625)"/>
      </defs>
      <use xlink:href="#DejaVuSans-43"/>
      <use xlink:href="#DejaVuSans-61" x="69.824219"/>
      <use xlink:href="#DejaVuSans-72" x="131.103516"/>
      <use xlink:href="#DejaVuSans-20" x="172.216797"/>
      <use xlink:href="#DejaVuSans-30" x="204.003906"/>
     </g>
    </g>
    <g id="line2d_21">
     <path d="M 1184.9875 117.866562 
L 1194.9875 117.866562 
L 1204.9875 117.866562 
" style="fill: none; stroke: #ff0000; stroke-width: 2; stroke-linecap: square"/>
    </g>
    <g id="text_20">
     <!-- Car 1 -->
     <g transform="translate(1212.9875 121.366562)scale(0.1 -0.1)">
      <use xlink:href="#DejaVuSans-43"/>
      <use xlink:href="#DejaVuSans-61" x="69.824219"/>
      <use xlink:href="#DejaVuSans-72" x="131.103516"/>
      <use xlink:href="#DejaVuSans-20" x="172.216797"/>
      <use xlink:href="#DejaVuSans-31" x="204.003906"/>
     </g>
    </g>
    <g id="line2d_22">
     <path d="M 1184.9875 132.544688 
L 1194.9875 132.544688 
L 1204.9875 132.544688 
" style="fill: none; stroke: #0000ff; stroke-width: 2; stroke-linecap: square"/>
    </g>
    <g id="text_21">
     <!-- Car 2 -->
     <g transform="translate(1212.9875 136.044688)scale(0.1 -0.1)">
      <use xlink:href="#DejaVuSans-43"/>
      <use xlink:href="#DejaVuSans-61" x="69.824219"/>
      <use xlink:href="#DejaVuSans-72" x="131.103516"/>
      <use xlink:href="#DejaVuSans-20" x="172.216797"/>
      <use xlink:href="#DejaVuSans-32" x="204.003906"/>
     </g>
    </g>
   </g>
  </g>
 </g>
 <defs>
  <clipPath id="pc690354316">
   <rect x="173.4375" y="90.09" width="1075.3125" height="578.0775"/>
  </clipPath>
 </defs>
</svg>
