<?xml version="1.0" encoding="utf-8" standalone="no"?>
<!DOCTYPE svg PUBLIC "-//W3C//DTD SVG 1.1//EN"
  "http://www.w3.org/Graphics/SVG/1.1/DTD/svg11.dtd">
<svg xmlns:xlink="http://www.w3.org/1999/xlink" width="460.5pt" height="345pt" viewBox="0 0 460.5 345" xmlns="http://www.w3.org/2000/svg" version="1.1">
 <metadata>
  <rdf:RDF xmlns:dc="http://purl.org/dc/elements/1.1/" xmlns:cc="http://creativecommons.org/ns#" xmlns:rdf="http://www.w3.org/1999/02/22-rdf-syntax-ns#">
   <cc:Work>
    <dc:type rdf:resource="http://purl.org/dc/dcmitype/StillImage"/>
    <dc:date>2024-07-25T10:46:03.044979</dc:date>
    <dc:format>image/svg+xml</dc:format>
    <dc:creator>
     <cc:Agent>
      <dc:title>Matplotlib v3.5.1, https://matplotlib.org/</dc:title>
     </cc:Agent>
    </dc:creator>
   </cc:Work>
  </rdf:RDF>
 </metadata>
 <defs>
  <style type="text/css">*{stroke-linejoin: round; stroke-linecap: butt}</style>
 </defs>
 <g id="figure_1">
  <g id="patch_1">
   <path d="M 0 345 
L 460.5 345 
L 460.5 0 
L 0 0 
z
" style="fill: #ffffff"/>
  </g>
  <g id="axes_1">
   <g id="patch_2">
    <path d="M 57.5625 307.05 
L 414.45 307.05 
L 414.45 41.4 
L 57.5625 41.4 
z
" style="fill: #ffffff"/>
   </g>
   <g id="matplotlib.axis_1">
    <g id="xtick_1">
     <g id="line2d_1">
      <defs>
       <path id="m8bd55ec248" d="M 0 0 
L 0 3.5 
" style="stroke: #000000; stroke-width: 0.8"/>
      </defs>
      <g>
       <use xlink:href="#m8bd55ec248" x="69.701677" y="307.05" style="stroke: #000000; stroke-width: 0.8"/>
      </g>
     </g>
     <g id="text_1">
      <!-- 0 -->
      <g transform="translate(66.520427 321.648438)scale(0.1 -0.1)">
       <defs>
        <path id="DejaVuSans-30" d="M 2034 4250 
Q 1547 4250 1301 3770 
Q 1056 3291 1056 2328 
Q 1056 1369 1301 889 
Q 1547 409 2034 409 
Q 2525 409 2770 889 
Q 3016 1369 3016 2328 
Q 3016 3291 2770 3770 
Q 2525 4250 2034 4250 
z
M 2034 4750 
Q 2819 4750 3233 4129 
Q 3647 3509 3647 2328 
Q 3647 1150 3233 529 
Q 2819 -91 2034 -91 
Q 1250 -91 836 529 
Q 422 1150 422 2328 
Q 422 3509 836 4129 
Q 1250 4750 2034 4750 
z
" transform="scale(0.015625)"/>
       </defs>
       <use xlink:href="#DejaVuSans-30"/>
      </g>
     </g>
    </g>
    <g id="xtick_2">
     <g id="line2d_2">
      <g>
       <use xlink:href="#m8bd55ec248" x="126.212902" y="307.05" style="stroke: #000000; stroke-width: 0.8"/>
      </g>
     </g>
     <g id="text_2">
      <!-- 10 -->
      <g transform="translate(119.850402 321.648438)scale(0.1 -0.1)">
       <defs>
        <path id="DejaVuSans-31" d="M 794 531 
L 1825 531 
L 1825 4091 
L 703 3866 
L 703 4441 
L 1819 4666 
L 2450 4666 
L 2450 531 
L 3481 531 
L 3481 0 
L 794 0 
L 794 531 
z
" transform="scale(0.015625)"/>
       </defs>
       <use xlink:href="#DejaVuSans-31"/>
       <use xlink:href="#DejaVuSans-30" x="63.623047"/>
      </g>
     </g>
    </g>
    <g id="xtick_3">
     <g id="line2d_3">
      <g>
       <use xlink:href="#m8bd55ec248" x="182.724127" y="307.05" style="stroke: #000000; stroke-width: 0.8"/>
      </g>
     </g>
     <g id="text_3">
      <!-- 20 -->
      <g transform="translate(176.361627 321.648438)scale(0.1 -0.1)">
       <defs>
        <path id="DejaVuSans-32" d="M 1228 531 
L 3431 531 
L 3431 0 
L 469 0 
L 469 531 
Q 828 903 1448 1529 
Q 2069 2156 2228 2338 
Q 2531 2678 2651 2914 
Q 2772 3150 2772 3378 
Q 2772 3750 2511 3984 
Q 2250 4219 1831 4219 
Q 1534 4219 1204 4116 
Q 875 4013 500 3803 
L 500 4441 
Q 881 4594 1212 4672 
Q 1544 4750 1819 4750 
Q 2544 4750 2975 4387 
Q 3406 4025 3406 3419 
Q 3406 3131 3298 2873 
Q 3191 2616 2906 2266 
Q 2828 2175 2409 1742 
Q 1991 1309 1228 531 
z
" transform="scale(0.015625)"/>
       </defs>
       <use xlink:href="#DejaVuSans-32"/>
       <use xlink:href="#DejaVuSans-30" x="63.623047"/>
      </g>
     </g>
    </g>
    <g id="xtick_4">
     <g id="line2d_4">
      <g>
       <use xlink:href="#m8bd55ec248" x="239.235352" y="307.05" style="stroke: #000000; stroke-width: 0.8"/>
      </g>
     </g>
     <g id="text_4">
      <!-- 30 -->
      <g transform="translate(232.872852 321.648438)scale(0.1 -0.1)">
       <defs>
        <path id="DejaVuSans-33" d="M 2597 2516 
Q 3050 2419 3304 2112 
Q 3559 1806 3559 1356 
Q 3559 666 3084 287 
Q 2609 -91 1734 -91 
Q 1441 -91 1130 -33 
Q 819 25 488 141 
L 488 750 
Q 750 597 1062 519 
Q 1375 441 1716 441 
Q 2309 441 2620 675 
Q 2931 909 2931 1356 
Q 2931 1769 2642 2001 
Q 2353 2234 1838 2234 
L 1294 2234 
L 1294 2753 
L 1863 2753 
Q 2328 2753 2575 2939 
Q 2822 3125 2822 3475 
Q 2822 3834 2567 4026 
Q 2313 4219 1838 4219 
Q 1578 4219 1281 4162 
Q 984 4106 628 3988 
L 628 4550 
Q 988 4650 1302 4700 
Q 1616 4750 1894 4750 
Q 2613 4750 3031 4423 
Q 3450 4097 3450 3541 
Q 3450 3153 3228 2886 
Q 3006 2619 2597 2516 
z
" transform="scale(0.015625)"/>
       </defs>
       <use xlink:href="#DejaVuSans-33"/>
       <use xlink:href="#DejaVuSans-30" x="63.623047"/>
      </g>
     </g>
    </g>
    <g id="xtick_5">
     <g id="line2d_5">
      <g>
       <use xlink:href="#m8bd55ec248" x="295.746576" y="307.05" style="stroke: #000000; stroke-width: 0.8"/>
      </g>
     </g>
     <g id="text_5">
      <!-- 40 -->
      <g transform="translate(289.384076 321.648438)scale(0.1 -0.1)">
       <defs>
        <path id="DejaVuSans-34" d="M 2419 4116 
L 825 1625 
L 2419 1625 
L 2419 4116 
z
M 2253 4666 
L 3047 4666 
L 3047 1625 
L 3713 1625 
L 3713 1100 
L 3047 1100 
L 3047 0 
L 2419 0 
L 2419 1100 
L 313 1100 
L 313 1709 
L 2253 4666 
z
" transform="scale(0.015625)"/>
       </defs>
       <use xlink:href="#DejaVuSans-34"/>
       <use xlink:href="#DejaVuSans-30" x="63.623047"/>
      </g>
     </g>
    </g>
    <g id="xtick_6">
     <g id="line2d_6">
      <g>
       <use xlink:href="#m8bd55ec248" x="352.257801" y="307.05" style="stroke: #000000; stroke-width: 0.8"/>
      </g>
     </g>
     <g id="text_6">
      <!-- 50 -->
      <g transform="translate(345.895301 321.648438)scale(0.1 -0.1)">
       <defs>
        <path id="DejaVuSans-35" d="M 691 4666 
L 3169 4666 
L 3169 4134 
L 1269 4134 
L 1269 2991 
Q 1406 3038 1543 3061 
Q 1681 3084 1819 3084 
Q 2600 3084 3056 2656 
Q 3513 2228 3513 1497 
Q 3513 744 3044 326 
Q 2575 -91 1722 -91 
Q 1428 -91 1123 -41 
Q 819 9 494 109 
L 494 744 
Q 775 591 1075 516 
Q 1375 441 1709 441 
Q 2250 441 2565 725 
Q 2881 1009 2881 1497 
Q 2881 1984 2565 2268 
Q 2250 2553 1709 2553 
Q 1456 2553 1204 2497 
Q 953 2441 691 2322 
L 691 4666 
z
" transform="scale(0.015625)"/>
       </defs>
       <use xlink:href="#DejaVuSans-35"/>
       <use xlink:href="#DejaVuSans-30" x="63.623047"/>
      </g>
     </g>
    </g>
    <g id="xtick_7">
     <g id="line2d_7">
      <g>
       <use xlink:href="#m8bd55ec248" x="408.769026" y="307.05" style="stroke: #000000; stroke-width: 0.8"/>
      </g>
     </g>
     <g id="text_7">
      <!-- 60 -->
      <g transform="translate(402.406526 321.648438)scale(0.1 -0.1)">
       <defs>
        <path id="DejaVuSans-36" d="M 2113 2584 
Q 1688 2584 1439 2293 
Q 1191 2003 1191 1497 
Q 1191 994 1439 701 
Q 1688 409 2113 409 
Q 2538 409 2786 701 
Q 3034 994 3034 1497 
Q 3034 2003 2786 2293 
Q 2538 2584 2113 2584 
z
M 3366 4563 
L 3366 3988 
Q 3128 4100 2886 4159 
Q 2644 4219 2406 4219 
Q 1781 4219 1451 3797 
Q 1122 3375 1075 2522 
Q 1259 2794 1537 2939 
Q 1816 3084 2150 3084 
Q 2853 3084 3261 2657 
Q 3669 2231 3669 1497 
Q 3669 778 3244 343 
Q 2819 -91 2113 -91 
Q 1303 -91 875 529 
Q 447 1150 447 2328 
Q 447 3434 972 4092 
Q 1497 4750 2381 4750 
Q 2619 4750 2861 4703 
Q 3103 4656 3366 4563 
z
" transform="scale(0.015625)"/>
       </defs>
       <use xlink:href="#DejaVuSans-36"/>
       <use xlink:href="#DejaVuSans-30" x="63.623047"/>
      </g>
     </g>
    </g>
    <g id="text_8">
     <!-- Time (s) -->
     <g transform="translate(215.677344 335.326563)scale(0.1 -0.1)">
      <defs>
       <path id="DejaVuSans-54" d="M -19 4666 
L 3928 4666 
L 3928 4134 
L 2272 4134 
L 2272 0 
L 1638 0 
L 1638 4134 
L -19 4134 
L -19 4666 
z
" transform="scale(0.015625)"/>
       <path id="DejaVuSans-69" d="M 603 3500 
L 1178 3500 
L 1178 0 
L 603 0 
L 603 3500 
z
M 603 4863 
L 1178 4863 
L 1178 4134 
L 603 4134 
L 603 4863 
z
" transform="scale(0.015625)"/>
       <path id="DejaVuSans-6d" d="M 3328 2828 
Q 3544 3216 3844 3400 
Q 4144 3584 4550 3584 
Q 5097 3584 5394 3201 
Q 5691 2819 5691 2113 
L 5691 0 
L 5113 0 
L 5113 2094 
Q 5113 2597 4934 2840 
Q 4756 3084 4391 3084 
Q 3944 3084 3684 2787 
Q 3425 2491 3425 1978 
L 3425 0 
L 2847 0 
L 2847 2094 
Q 2847 2600 2669 2842 
Q 2491 3084 2119 3084 
Q 1678 3084 1418 2786 
Q 1159 2488 1159 1978 
L 1159 0 
L 581 0 
L 581 3500 
L 1159 3500 
L 1159 2956 
Q 1356 3278 1631 3431 
Q 1906 3584 2284 3584 
Q 2666 3584 2933 3390 
Q 3200 3197 3328 2828 
z
" transform="scale(0.015625)"/>
       <path id="DejaVuSans-65" d="M 3597 1894 
L 3597 1613 
L 953 1613 
Q 991 1019 1311 708 
Q 1631 397 2203 397 
Q 2534 397 2845 478 
Q 3156 559 3463 722 
L 3463 178 
Q 3153 47 2828 -22 
Q 2503 -91 2169 -91 
Q 1331 -91 842 396 
Q 353 884 353 1716 
Q 353 2575 817 3079 
Q 1281 3584 2069 3584 
Q 2775 3584 3186 3129 
Q 3597 2675 3597 1894 
z
M 3022 2063 
Q 3016 2534 2758 2815 
Q 2500 3097 2075 3097 
Q 1594 3097 1305 2825 
Q 1016 2553 972 2059 
L 3022 2063 
z
" transform="scale(0.015625)"/>
       <path id="DejaVuSans-20" transform="scale(0.015625)"/>
       <path id="DejaVuSans-28" d="M 1984 4856 
Q 1566 4138 1362 3434 
Q 1159 2731 1159 2009 
Q 1159 1288 1364 580 
Q 1569 -128 1984 -844 
L 1484 -844 
Q 1016 -109 783 600 
Q 550 1309 550 2009 
Q 550 2706 781 3412 
Q 1013 4119 1484 4856 
L 1984 4856 
z
" transform="scale(0.015625)"/>
       <path id="DejaVuSans-73" d="M 2834 3397 
L 2834 2853 
Q 2591 2978 2328 3040 
Q 2066 3103 1784 3103 
Q 1356 3103 1142 2972 
Q 928 2841 928 2578 
Q 928 2378 1081 2264 
Q 1234 2150 1697 2047 
L 1894 2003 
Q 2506 1872 2764 1633 
Q 3022 1394 3022 966 
Q 3022 478 2636 193 
Q 2250 -91 1575 -91 
Q 1294 -91 989 -36 
Q 684 19 347 128 
L 347 722 
Q 666 556 975 473 
Q 1284 391 1588 391 
Q 1994 391 2212 530 
Q 2431 669 2431 922 
Q 2431 1156 2273 1281 
Q 2116 1406 1581 1522 
L 1381 1569 
Q 847 1681 609 1914 
Q 372 2147 372 2553 
Q 372 3047 722 3315 
Q 1072 3584 1716 3584 
Q 2034 3584 2315 3537 
Q 2597 3491 2834 3397 
z
" transform="scale(0.015625)"/>
       <path id="DejaVuSans-29" d="M 513 4856 
L 1013 4856 
Q 1481 4119 1714 3412 
Q 1947 2706 1947 2009 
Q 1947 1309 1714 600 
Q 1481 -109 1013 -844 
L 513 -844 
Q 928 -128 1133 580 
Q 1338 1288 1338 2009 
Q 1338 2731 1133 3434 
Q 928 4138 513 4856 
z
" transform="scale(0.015625)"/>
      </defs>
      <use xlink:href="#DejaVuSans-54"/>
      <use xlink:href="#DejaVuSans-69" x="57.958984"/>
      <use xlink:href="#DejaVuSans-6d" x="85.742188"/>
      <use xlink:href="#DejaVuSans-65" x="183.154297"/>
      <use xlink:href="#DejaVuSans-20" x="244.677734"/>
      <use xlink:href="#DejaVuSans-28" x="276.464844"/>
      <use xlink:href="#DejaVuSans-73" x="315.478516"/>
      <use xlink:href="#DejaVuSans-29" x="367.578125"/>
     </g>
    </g>
   </g>
   <g id="matplotlib.axis_2">
    <g id="ytick_1">
     <g id="line2d_8">
      <defs>
       <path id="mdb599f9bd3" d="M 0 0 
L -3.5 0 
" style="stroke: #000000; stroke-width: 0.8"/>
      </defs>
      <g>
       <use xlink:href="#mdb599f9bd3" x="57.5625" y="294.975" style="stroke: #000000; stroke-width: 0.8"/>
      </g>
     </g>
     <g id="text_9">
      <!-- 0 -->
      <g transform="translate(44.2 298.774219)scale(0.1 -0.1)">
       <use xlink:href="#DejaVuSans-30"/>
      </g>
     </g>
    </g>
    <g id="ytick_2">
     <g id="line2d_9">
      <g>
       <use xlink:href="#mdb599f9bd3" x="57.5625" y="243.060516" style="stroke: #000000; stroke-width: 0.8"/>
      </g>
     </g>
     <g id="text_10">
      <!-- 2000 -->
      <g transform="translate(25.1125 246.859735)scale(0.1 -0.1)">
       <use xlink:href="#DejaVuSans-32"/>
       <use xlink:href="#DejaVuSans-30" x="63.623047"/>
       <use xlink:href="#DejaVuSans-30" x="127.246094"/>
       <use xlink:href="#DejaVuSans-30" x="190.869141"/>
      </g>
     </g>
    </g>
    <g id="ytick_3">
     <g id="line2d_10">
      <g>
       <use xlink:href="#mdb599f9bd3" x="57.5625" y="191.146032" style="stroke: #000000; stroke-width: 0.8"/>
      </g>
     </g>
     <g id="text_11">
      <!-- 4000 -->
      <g transform="translate(25.1125 194.945251)scale(0.1 -0.1)">
       <use xlink:href="#DejaVuSans-34"/>
       <use xlink:href="#DejaVuSans-30" x="63.623047"/>
       <use xlink:href="#DejaVuSans-30" x="127.246094"/>
       <use xlink:href="#DejaVuSans-30" x="190.869141"/>
      </g>
     </g>
    </g>
    <g id="ytick_4">
     <g id="line2d_11">
      <g>
       <use xlink:href="#mdb599f9bd3" x="57.5625" y="139.231548" style="stroke: #000000; stroke-width: 0.8"/>
      </g>
     </g>
     <g id="text_12">
      <!-- 6000 -->
      <g transform="translate(25.1125 143.030767)scale(0.1 -0.1)">
       <use xlink:href="#DejaVuSans-36"/>
       <use xlink:href="#DejaVuSans-30" x="63.623047"/>
       <use xlink:href="#DejaVuSans-30" x="127.246094"/>
       <use xlink:href="#DejaVuSans-30" x="190.869141"/>
      </g>
     </g>
    </g>
    <g id="ytick_5">
     <g id="line2d_12">
      <g>
       <use xlink:href="#mdb599f9bd3" x="57.5625" y="87.317064" style="stroke: #000000; stroke-width: 0.8"/>
      </g>
     </g>
     <g id="text_13">
      <!-- 8000 -->
      <g transform="translate(25.1125 91.116282)scale(0.1 -0.1)">
       <defs>
        <path id="DejaVuSans-38" d="M 2034 2216 
Q 1584 2216 1326 1975 
Q 1069 1734 1069 1313 
Q 1069 891 1326 650 
Q 1584 409 2034 409 
Q 2484 409 2743 651 
Q 3003 894 3003 1313 
Q 3003 1734 2745 1975 
Q 2488 2216 2034 2216 
z
M 1403 2484 
Q 997 2584 770 2862 
Q 544 3141 544 3541 
Q 544 4100 942 4425 
Q 1341 4750 2034 4750 
Q 2731 4750 3128 4425 
Q 3525 4100 3525 3541 
Q 3525 3141 3298 2862 
Q 3072 2584 2669 2484 
Q 3125 2378 3379 2068 
Q 3634 1759 3634 1313 
Q 3634 634 3220 271 
Q 2806 -91 2034 -91 
Q 1263 -91 848 271 
Q 434 634 434 1313 
Q 434 1759 690 2068 
Q 947 2378 1403 2484 
z
M 1172 3481 
Q 1172 3119 1398 2916 
Q 1625 2713 2034 2713 
Q 2441 2713 2670 2916 
Q 2900 3119 2900 3481 
Q 2900 3844 2670 4047 
Q 2441 4250 2034 4250 
Q 1625 4250 1398 4047 
Q 1172 3844 1172 3481 
z
" transform="scale(0.015625)"/>
       </defs>
       <use xlink:href="#DejaVuSans-38"/>
       <use xlink:href="#DejaVuSans-30" x="63.623047"/>
       <use xlink:href="#DejaVuSans-30" x="127.246094"/>
       <use xlink:href="#DejaVuSans-30" x="190.869141"/>
      </g>
     </g>
    </g>
    <g id="text_14">
     <!-- Trust Score -->
     <g transform="translate(19.032812 201.921875)rotate(-90)scale(0.1 -0.1)">
      <defs>
       <path id="DejaVuSans-72" d="M 2631 2963 
Q 2534 3019 2420 3045 
Q 2306 3072 2169 3072 
Q 1681 3072 1420 2755 
Q 1159 2438 1159 1844 
L 1159 0 
L 581 0 
L 581 3500 
L 1159 3500 
L 1159 2956 
Q 1341 3275 1631 3429 
Q 1922 3584 2338 3584 
Q 2397 3584 2469 3576 
Q 2541 3569 2628 3553 
L 2631 2963 
z
" transform="scale(0.015625)"/>
       <path id="DejaVuSans-75" d="M 544 1381 
L 544 3500 
L 1119 3500 
L 1119 1403 
Q 1119 906 1312 657 
Q 1506 409 1894 409 
Q 2359 409 2629 706 
Q 2900 1003 2900 1516 
L 2900 3500 
L 3475 3500 
L 3475 0 
L 2900 0 
L 2900 538 
Q 2691 219 2414 64 
Q 2138 -91 1772 -91 
Q 1169 -91 856 284 
Q 544 659 544 1381 
z
M 1991 3584 
L 1991 3584 
z
" transform="scale(0.015625)"/>
       <path id="DejaVuSans-74" d="M 1172 4494 
L 1172 3500 
L 2356 3500 
L 2356 3053 
L 1172 3053 
L 1172 1153 
Q 1172 725 1289 603 
Q 1406 481 1766 481 
L 2356 481 
L 2356 0 
L 1766 0 
Q 1100 0 847 248 
Q 594 497 594 1153 
L 594 3053 
L 172 3053 
L 172 3500 
L 594 3500 
L 594 4494 
L 1172 4494 
z
" transform="scale(0.015625)"/>
       <path id="DejaVuSans-53" d="M 3425 4513 
L 3425 3897 
Q 3066 4069 2747 4153 
Q 2428 4238 2131 4238 
Q 1616 4238 1336 4038 
Q 1056 3838 1056 3469 
Q 1056 3159 1242 3001 
Q 1428 2844 1947 2747 
L 2328 2669 
Q 3034 2534 3370 2195 
Q 3706 1856 3706 1288 
Q 3706 609 3251 259 
Q 2797 -91 1919 -91 
Q 1588 -91 1214 -16 
Q 841 59 441 206 
L 441 856 
Q 825 641 1194 531 
Q 1563 422 1919 422 
Q 2459 422 2753 634 
Q 3047 847 3047 1241 
Q 3047 1584 2836 1778 
Q 2625 1972 2144 2069 
L 1759 2144 
Q 1053 2284 737 2584 
Q 422 2884 422 3419 
Q 422 4038 858 4394 
Q 1294 4750 2059 4750 
Q 2388 4750 2728 4690 
Q 3069 4631 3425 4513 
z
" transform="scale(0.015625)"/>
       <path id="DejaVuSans-63" d="M 3122 3366 
L 3122 2828 
Q 2878 2963 2633 3030 
Q 2388 3097 2138 3097 
Q 1578 3097 1268 2742 
Q 959 2388 959 1747 
Q 959 1106 1268 751 
Q 1578 397 2138 397 
Q 2388 397 2633 464 
Q 2878 531 3122 666 
L 3122 134 
Q 2881 22 2623 -34 
Q 2366 -91 2075 -91 
Q 1284 -91 818 406 
Q 353 903 353 1747 
Q 353 2603 823 3093 
Q 1294 3584 2113 3584 
Q 2378 3584 2631 3529 
Q 2884 3475 3122 3366 
z
" transform="scale(0.015625)"/>
       <path id="DejaVuSans-6f" d="M 1959 3097 
Q 1497 3097 1228 2736 
Q 959 2375 959 1747 
Q 959 1119 1226 758 
Q 1494 397 1959 397 
Q 2419 397 2687 759 
Q 2956 1122 2956 1747 
Q 2956 2369 2687 2733 
Q 2419 3097 1959 3097 
z
M 1959 3584 
Q 2709 3584 3137 3096 
Q 3566 2609 3566 1747 
Q 3566 888 3137 398 
Q 2709 -91 1959 -91 
Q 1206 -91 779 398 
Q 353 888 353 1747 
Q 353 2609 779 3096 
Q 1206 3584 1959 3584 
z
" transform="scale(0.015625)"/>
      </defs>
      <use xlink:href="#DejaVuSans-54"/>
      <use xlink:href="#DejaVuSans-72" x="46.333984"/>
      <use xlink:href="#DejaVuSans-75" x="87.447266"/>
      <use xlink:href="#DejaVuSans-73" x="150.826172"/>
      <use xlink:href="#DejaVuSans-74" x="202.925781"/>
      <use xlink:href="#DejaVuSans-20" x="242.134766"/>
      <use xlink:href="#DejaVuSans-53" x="273.921875"/>
      <use xlink:href="#DejaVuSans-63" x="337.398438"/>
      <use xlink:href="#DejaVuSans-6f" x="392.378906"/>
      <use xlink:href="#DejaVuSans-72" x="453.560547"/>
      <use xlink:href="#DejaVuSans-65" x="492.423828"/>
     </g>
    </g>
   </g>
   <g id="line2d_13">
    <path d="M 73.784659 294.975 
L 190.285988 294.876365 
L 191.668383 294.685684 
L 192.953667 294.237513 
L 193.975294 293.672285 
L 195.232242 292.701201 
L 195.655072 292.250604 
L 197.308335 289.550359 
L 198.027972 287.594389 
L 198.714313 285.242828 
L 200.542041 277.320342 
L 201.346217 273.078805 
L 202.452536 265.325631 
L 203.781825 252.365385 
L 205.10622 236.267584 
L 206.720368 211.194241 
L 207.049276 205.389216 
L 207.638229 199.049422 
L 209.885025 161.065951 
L 212.369979 157.883334 
L 213.096669 153.303792 
L 213.844194 150.567713 
L 214.925496 148.221904 
L 216.932434 144.897036 
L 218.837422 140.296193 
L 219.558332 138.524475 
L 219.940346 137.927459 
L 220.311111 137.647773 
L 220.718627 137.676599 
L 221.111541 138.056511 
L 221.452788 138.770972 
L 222.176007 141.150152 
L 222.874583 144.669144 
L 223.590721 149.160979 
L 225.918393 167.072357 
L 229.292424 199.599946 
L 229.928532 203.448805 
L 231.386138 218.750612 
L 234.374561 248.60331 
L 235.451346 258.069591 
L 236.594555 266.028428 
L 238.065246 274.7078 
L 239.11454 279.80725 
L 240.179099 283.585237 
L 240.527213 284.545543 
L 241.488284 286.068784 
L 242.2037 287.096911 
L 242.936511 287.811643 
L 243.674075 288.176764 
L 244.424324 288.340017 
L 246.951395 288.523605 
L 247.702448 289.042048 
L 248.452975 289.816588 
L 249.5629 291.272095 
L 252.000828 291.659316 
L 253.160655 291.901959 
L 255.218545 292.29099 
L 256.657293 292.49536 
L 257.468969 292.832647 
L 259.865493 294.092606 
L 260.99027 294.362771 
L 262.521894 294.436623 
L 270.51803 294.385529 
L 274.165476 294.517232 
L 282.762877 294.560274 
L 287.62768 294.655272 
L 293.772198 294.799584 
L 310.070231 294.295172 
L 311.457606 293.785896 
L 312.613517 292.75881 
L 313.001998 292.297254 
L 314.816391 288.928384 
L 315.899181 286.059049 
L 316.234344 284.964118 
L 319.429816 283.132 
L 321.251615 273.303548 
L 321.896664 269.299407 
L 322.461754 267.251514 
L 325.387985 249.397502 
L 328.565553 235.566018 
L 329.486993 232.146689 
L 330.123446 230.283074 
L 331.687557 227.526331 
L 332.429921 226.738196 
L 333.415087 226.421192 
L 334.10774 226.511492 
L 334.761782 226.999792 
L 335.434668 227.818324 
L 336.405834 229.543285 
L 337.768565 232.610146 
L 338.457809 234.348369 
L 339.38861 236.158837 
L 341.473565 241.540129 
L 342.764528 245.412929 
L 343.092896 246.461051 
L 343.608755 247.574939 
L 344.635291 251.45745 
L 345.922723 257.659498 
L 346.904036 262.524341 
L 347.665247 265.501115 
L 348.636367 269.387088 
L 349.704913 272.528609 
L 350.794158 274.837581 
L 351.770264 276.520764 
L 352.102544 276.950679 
L 353.044769 277.529347 
L 353.987687 277.949409 
L 355.990535 278.374872 
L 356.425814 278.415853 
L 359.496301 278.339987 
L 361.458074 277.871752 
L 362.098374 278.088262 
L 362.762146 278.592598 
L 363.4074 279.355919 
L 366.562014 283.687577 
L 367.54331 284.613836 
L 368.274337 285.034543 
L 368.975077 285.220095 
L 369.309224 285.207612 
L 371.9622 284.888367 
L 373.428611 283.746854 
L 374.460506 283.265381 
L 375.116251 283.173107 
L 379.519515 283.250135 
L 381.157266 282.818801 
L 382.407049 282.389201 
L 385.361561 281.506023 
L 386.496793 281.375904 
L 387.452864 281.450891 
L 388.198463 281.732517 
L 388.929143 282.218101 
L 391.296468 284.350698 
L 392.059013 284.550847 
L 395.355463 284.689327 
L 396.646194 285.035361 
L 397.852721 285.163763 
L 398.227841 285.188084 
L 398.227841 285.188084 
" clip-path="url(#p8fd23f19d3)" style="fill: none; stroke: #ff0000; stroke-width: 5; stroke-linecap: square"/>
   </g>
   <g id="line2d_14">
    <path d="M 73.784659 294.975 
L 76.529702 294.96882 
L 120.276319 294.93716 
L 120.950041 294.829603 
L 121.596434 294.309574 
L 122.639688 292.743257 
L 123.479284 291.461034 
L 124.396858 290.212108 
L 126.772584 286.308994 
L 127.439252 285.810851 
L 130.861008 281.996316 
L 133.649949 279.861682 
L 136.130043 278.611581 
L 139.102967 277.829313 
L 141.464344 277.738384 
L 143.513264 278.071293 
L 144.646043 278.449372 
L 146.04885 279.161534 
L 147.485786 280.111474 
L 148.86834 281.299194 
L 150.27888 282.724692 
L 150.916032 283.11822 
L 151.712765 283.949858 
L 153.214317 285.791469 
L 154.989759 288.375316 
L 157.993759 292.882574 
L 159.20621 294.375532 
L 159.593007 294.702302 
L 160.371499 294.933953 
L 161.943778 294.975 
L 190.285988 294.870762 
L 191.668383 294.658489 
L 192.953667 294.200855 
L 193.975294 293.624964 
L 195.232242 292.658746 
L 195.990603 291.660853 
L 196.350299 291.049489 
L 196.941047 290.32165 
L 197.668715 288.575491 
L 198.388921 286.414126 
L 199.365146 282.474173 
L 201.346217 273.101763 
L 202.452536 265.780982 
L 207.049276 228.075146 
L 207.638229 225.450412 
L 209.885025 210.68372 
L 212.369979 208.10399 
L 213.468588 200.77959 
L 215.603487 188.483304 
L 216.932434 182.282777 
L 217.935104 178.730649 
L 218.491997 177.766078 
L 219.187867 176.087161 
L 219.940346 174.897755 
L 220.718627 174.106786 
L 221.452788 173.800239 
L 222.176007 173.953108 
L 222.523802 174.173554 
L 223.233791 175.114884 
L 223.935633 176.486003 
L 225.918393 181.375689 
L 226.968614 185.333416 
L 229.292424 194.441241 
L 229.928532 195.871574 
L 232.883427 206.281382 
L 233.632787 208.180813 
L 234.374561 209.41637 
L 235.079832 210.09398 
L 235.451346 210.164271 
L 235.827185 209.971181 
L 236.594555 208.849023 
L 237.347096 206.724614 
L 238.065246 203.767274 
L 238.768292 199.812922 
L 239.82426 191.653989 
L 240.527213 185.173905 
L 241.110692 181.437195 
L 242.2037 169.282213 
L 244.848394 138.417196 
L 246.157133 127.941107 
L 247.322335 120.836683 
L 248.069813 118.003464 
L 248.452975 117.275837 
L 248.823411 116.890307 
L 249.205571 116.882168 
L 249.918335 117.633245 
L 250.335808 118.334198 
L 251.162809 121.001667 
L 252.000828 124.740676 
L 252.428665 127.041738 
L 253.160655 129.685413 
L 254.029239 135.628203 
L 255.218545 145.482725 
L 257.0555 162.604846 
L 258.312845 171.769756 
L 259.481139 178.968892 
L 260.247903 182.272016 
L 260.618096 183.436018 
L 260.99027 184.213909 
L 261.370446 184.533262 
L 261.757682 184.587817 
L 262.149336 184.198702 
L 262.521894 183.350018 
L 262.900304 181.964942 
L 263.638013 177.844768 
L 264.426884 171.804987 
L 265.176512 168.034841 
L 266.44053 156.146233 
L 271.77202 102.796088 
L 272.723237 94.867134 
L 273.152726 91.057154 
L 273.737938 87.366618 
L 274.892905 76.84253 
L 275.612651 70.556826 
L 276.778092 62.571936 
L 277.180014 60.381713 
L 277.876482 58.435466 
L 278.998727 54.485361 
L 279.358168 53.777876 
L 279.707834 53.475 
L 280.054408 53.606768 
L 280.406667 54.149209 
L 280.776024 54.968459 
L 281.177659 56.23964 
L 281.976173 60.533201 
L 282.762877 66.80477 
L 283.572607 75.186665 
L 284.374145 85.871945 
L 285.451035 105.4597 
L 288.354517 164.46006 
L 288.712408 171.927156 
L 289.290544 179.339026 
L 291.835244 227.230681 
L 292.646531 238.898783 
L 295.189052 268.693877 
L 297.557418 283.542303 
L 298.273906 286.157972 
L 298.987291 287.961576 
L 299.690231 289.011455 
L 300.04479 289.33474 
L 301.007832 289.619339 
L 301.698806 289.605349 
L 303.898942 289.172623 
L 305.654805 289.653044 
L 310.841009 291.070884 
L 312.269233 291.319478 
L 316.234344 292.168021 
L 319.429816 292.341735 
L 323.786823 293.379718 
L 326.505816 294.061672 
L 329.184155 294.455627 
L 331.32504 294.581698 
L 335.752581 294.586923 
L 341.473565 294.396004 
L 344.296099 294.084014 
L 346.577587 293.544116 
L 348.982783 292.700946 
L 350.794158 291.905577 
L 353.503956 290.501904 
L 355.570178 289.403831 
L 356.425814 288.791455 
L 358.849962 288.431135 
L 360.822389 286.298621 
L 362.762146 284.506641 
L 364.732818 283.015909 
L 365.598602 282.572939 
L 367.54331 281.410451 
L 369.309224 280.697901 
L 371.9622 280.521593 
L 374.130622 279.579283 
L 375.650187 279.049695 
L 379.147794 278.01151 
L 382.862457 277.047434 
L 385.361561 276.078351 
L 388.929143 274.328486 
L 390.611839 273.278941 
L 392.405036 272.258339 
L 395.734557 271.860094 
L 397.468653 270.109485 
L 398.227841 269.201761 
L 398.227841 269.201761 
" clip-path="url(#p8fd23f19d3)" style="fill: none; stroke: #0000ff; stroke-width: 5; stroke-linecap: square"/>
   </g>
   <g id="line2d_15">
    <path d="M 74.125437 294.975 
L 190.285988 294.870303 
L 191.668383 294.672273 
L 192.953667 294.226435 
L 193.975294 293.675851 
L 195.232242 292.743257 
L 195.655072 292.293142 
L 197.308335 289.619743 
L 198.027972 287.664497 
L 198.714313 285.349279 
L 199.712377 281.049178 
L 200.952383 275.430584 
L 201.717024 270.824015 
L 202.452536 265.570377 
L 203.781825 252.774356 
L 205.10622 236.915991 
L 206.720368 212.157294 
L 207.049276 206.417165 
L 207.638229 200.060171 
L 209.137418 172.297102 
L 209.885025 157.100513 
L 212.731107 152.253266 
L 213.468588 145.54991 
L 213.844194 143.500995 
L 214.594441 141.124604 
L 214.925496 140.425049 
L 215.262256 140.067408 
L 215.603487 139.949315 
L 215.941732 140.021933 
L 216.591864 140.538849 
L 217.935104 141.781545 
L 218.491997 141.744995 
L 218.837422 141.447911 
L 219.187867 140.821043 
L 219.558332 139.898004 
L 220.311111 136.984566 
L 221.111541 132.511467 
L 223.590721 112.155307 
L 224.274972 109.142238 
L 224.628447 108.43484 
L 225.179637 108.540402 
L 225.56661 109.21899 
L 225.918393 110.444025 
L 226.623114 114.198934 
L 227.706968 122.487713 
L 228.897673 132.790785 
L 229.292424 136.418139 
L 229.928532 140.103648 
L 232.141191 162.29423 
L 236.18701 203.852878 
L 240.179099 237.184187 
L 240.527213 239.348101 
L 241.110692 241.315036 
L 242.2037 246.256762 
L 242.936511 248.685395 
L 243.674075 250.577044 
L 244.424324 251.901296 
L 244.848394 252.388597 
L 245.729775 252.924037 
L 246.157133 253.075683 
L 246.573868 253.06709 
L 247.322335 252.722179 
L 248.069813 251.876775 
L 249.205571 250.280596 
L 249.918335 249.087452 
L 250.335808 248.812612 
L 250.751397 248.781474 
L 251.162809 249.081435 
L 251.575152 249.779994 
L 252.000828 250.883295 
L 252.428665 252.309341 
L 253.160655 253.925247 
L 253.62628 255.844035 
L 254.838814 262.896846 
L 256.657293 275.042172 
L 257.468969 278.248638 
L 257.877138 279.321037 
L 258.312845 280.103257 
L 258.722292 280.592821 
L 259.100008 280.857223 
L 259.481139 280.922108 
L 260.247903 280.553568 
L 261.757682 279.024616 
L 262.900304 277.623695 
L 264.004713 276.206163 
L 264.426884 275.831489 
L 265.622114 275.154664 
L 266.44053 274.697205 
L 267.251912 274.55626 
L 269.7382 274.521892 
L 270.51803 274.247508 
L 272.297002 273.153177 
L 275.612651 270.390757 
L 276.393765 269.944825 
L 277.180014 269.677276 
L 278.998727 269.493423 
L 280.776024 269.636728 
L 281.976173 269.553164 
L 283.159511 269.269176 
L 286.157143 268.311721 
L 287.62768 268.22698 
L 289.290544 268.519329 
L 292.646531 269.215059 
L 293.772198 269.066518 
L 296.08574 268.762386 
L 297.557418 268.802947 
L 298.987291 269.023697 
L 301.007832 269.563017 
L 304.621352 270.923861 
L 309.698294 271.662256 
L 313.001998 272.096017 
L 314.816391 272.072545 
L 316.234344 271.870068 
L 319.429816 271.501625 
L 320.175134 270.606053 
L 320.921746 269.300162 
L 321.896664 267.287603 
L 323.1268 266.449727 
L 323.786823 266.573868 
L 324.439292 267.133202 
L 325.387985 268.376884 
L 326.505816 269.938155 
L 328.870399 273.187385 
L 329.805144 273.868023 
L 330.123446 273.894615 
L 330.584425 273.814997 
L 331.32504 273.260422 
L 333.415087 271.312024 
L 334.10774 270.957317 
L 334.761782 270.972776 
L 335.434668 271.24076 
L 336.737926 272.349923 
L 338.457809 273.962075 
L 339.38861 274.350309 
L 340.101183 274.48553 
L 341.139971 274.422593 
L 343.092896 274.112955 
L 343.943195 274.257977 
L 344.635291 274.556134 
L 345.606205 275.262507 
L 347.983436 277.498123 
L 350.06535 279.714459 
L 352.550155 281.992669 
L 355.15259 283.393587 
L 356.425814 283.583077 
L 361.136808 283.699743 
L 361.773048 283.915256 
L 362.423845 284.369762 
L 363.084213 285.14413 
L 363.726892 286.204349 
L 366.244042 290.899401 
L 366.880863 291.879651 
L 367.54331 292.563035 
L 368.637266 293.19114 
L 369.309224 293.356317 
L 375.116251 293.505165 
L 376.632448 293.695859 
L 380.707548 294.500431 
L 398.227841 294.661185 
L 398.227841 294.661185 
" clip-path="url(#p8fd23f19d3)" style="fill: none; stroke: #800080; stroke-width: 5; stroke-linecap: square"/>
   </g>
   <g id="patch_3">
    <path d="M 57.5625 307.05 
L 57.5625 41.4 
" style="fill: none; stroke: #000000; stroke-width: 0.8; stroke-linejoin: miter; stroke-linecap: square"/>
   </g>
   <g id="patch_4">
    <path d="M 414.45 307.05 
L 414.45 41.4 
" style="fill: none; stroke: #000000; stroke-width: 0.8; stroke-linejoin: miter; stroke-linecap: square"/>
   </g>
   <g id="patch_5">
    <path d="M 57.5625 307.05 
L 414.45 307.05 
" style="fill: none; stroke: #000000; stroke-width: 0.8; stroke-linejoin: miter; stroke-linecap: square"/>
   </g>
   <g id="patch_6">
    <path d="M 57.5625 41.4 
L 414.45 41.4 
" style="fill: none; stroke: #000000; stroke-width: 0.8; stroke-linejoin: miter; stroke-linecap: square"/>
   </g>
   <g id="legend_1">
    <g id="patch_7">
     <path d="M 348.6875 93.434375 
L 407.45 93.434375 
Q 409.45 93.434375 409.45 91.434375 
L 409.45 48.4 
Q 409.45 46.4 407.45 46.4 
L 348.6875 46.4 
Q 346.6875 46.4 346.6875 48.4 
L 346.6875 91.434375 
Q 346.6875 93.434375 348.6875 93.434375 
z
" style="fill: #ffffff; opacity: 0.8; stroke: #cccccc; stroke-linejoin: miter"/>
    </g>
    <g id="line2d_16">
     <path d="M 350.6875 54.498437 
L 360.6875 54.498437 
L 370.6875 54.498437 
" style="fill: none; stroke: #ff0000; stroke-width: 5; stroke-linecap: square"/>
    </g>
    <g id="text_15">
     <!-- Car 1 -->
     <g transform="translate(378.6875 57.998437)scale(0.1 -0.1)">
      <defs>
       <path id="DejaVuSans-43" d="M 4122 4306 
L 4122 3641 
Q 3803 3938 3442 4084 
Q 3081 4231 2675 4231 
Q 1875 4231 1450 3742 
Q 1025 3253 1025 2328 
Q 1025 1406 1450 917 
Q 1875 428 2675 428 
Q 3081 428 3442 575 
Q 3803 722 4122 1019 
L 4122 359 
Q 3791 134 3420 21 
Q 3050 -91 2638 -91 
Q 1578 -91 968 557 
Q 359 1206 359 2328 
Q 359 3453 968 4101 
Q 1578 4750 2638 4750 
Q 3056 4750 3426 4639 
Q 3797 4528 4122 4306 
z
" transform="scale(0.015625)"/>
       <path id="DejaVuSans-61" d="M 2194 1759 
Q 1497 1759 1228 1600 
Q 959 1441 959 1056 
Q 959 750 1161 570 
Q 1363 391 1709 391 
Q 2188 391 2477 730 
Q 2766 1069 2766 1631 
L 2766 1759 
L 2194 1759 
z
M 3341 1997 
L 3341 0 
L 2766 0 
L 2766 531 
Q 2569 213 2275 61 
Q 1981 -91 1556 -91 
Q 1019 -91 701 211 
Q 384 513 384 1019 
Q 384 1609 779 1909 
Q 1175 2209 1959 2209 
L 2766 2209 
L 2766 2266 
Q 2766 2663 2505 2880 
Q 2244 3097 1772 3097 
Q 1472 3097 1187 3025 
Q 903 2953 641 2809 
L 641 3341 
Q 956 3463 1253 3523 
Q 1550 3584 1831 3584 
Q 2591 3584 2966 3190 
Q 3341 2797 3341 1997 
z
" transform="scale(0.015625)"/>
      </defs>
      <use xlink:href="#DejaVuSans-43"/>
      <use xlink:href="#DejaVuSans-61" x="69.824219"/>
      <use xlink:href="#DejaVuSans-72" x="131.103516"/>
      <use xlink:href="#DejaVuSans-20" x="172.216797"/>
      <use xlink:href="#DejaVuSans-31" x="204.003906"/>
     </g>
    </g>
    <g id="line2d_17">
     <path d="M 350.6875 69.176562 
L 360.6875 69.176562 
L 370.6875 69.176562 
" style="fill: none; stroke: #0000ff; stroke-width: 5; stroke-linecap: square"/>
    </g>
    <g id="text_16">
     <!-- Car 2 -->
     <g transform="translate(378.6875 72.676562)scale(0.1 -0.1)">
      <use xlink:href="#DejaVuSans-43"/>
      <use xlink:href="#DejaVuSans-61" x="69.824219"/>
      <use xlink:href="#DejaVuSans-72" x="131.103516"/>
      <use xlink:href="#DejaVuSans-20" x="172.216797"/>
      <use xlink:href="#DejaVuSans-32" x="204.003906"/>
     </g>
    </g>
    <g id="line2d_18">
     <path d="M 350.6875 83.854687 
L 360.6875 83.854687 
L 370.6875 83.854687 
" style="fill: none; stroke: #800080; stroke-width: 5; stroke-linecap: square"/>
    </g>
    <g id="text_17">
     <!-- Car 0 -->
     <g transform="translate(378.6875 87.354687)scale(0.1 -0.1)">
      <use xlink:href="#DejaVuSans-43"/>
      <use xlink:href="#DejaVuSans-61" x="69.824219"/>
      <use xlink:href="#DejaVuSans-72" x="131.103516"/>
      <use xlink:href="#DejaVuSans-20" x="172.216797"/>
      <use xlink:href="#DejaVuSans-30" x="204.003906"/>
     </g>
    </g>
   </g>
  </g>
 </g>
 <defs>
  <clipPath id="p8fd23f19d3">
   <rect x="57.5625" y="41.4" width="356.8875" height="265.65"/>
  </clipPath>
 </defs>
</svg>
