<?xml version="1.0" encoding="utf-8" standalone="no"?>
<!DOCTYPE svg PUBLIC "-//W3C//DTD SVG 1.1//EN"
  "http://www.w3.org/Graphics/SVG/1.1/DTD/svg11.dtd">
<svg xmlns:xlink="http://www.w3.org/1999/xlink" width="460.5pt" height="345pt" viewBox="0 0 460.5 345" xmlns="http://www.w3.org/2000/svg" version="1.1">
 <metadata>
  <rdf:RDF xmlns:dc="http://purl.org/dc/elements/1.1/" xmlns:cc="http://creativecommons.org/ns#" xmlns:rdf="http://www.w3.org/1999/02/22-rdf-syntax-ns#">
   <cc:Work>
    <dc:type rdf:resource="http://purl.org/dc/dcmitype/StillImage"/>
    <dc:date>2024-07-25T10:51:51.660396</dc:date>
    <dc:format>image/svg+xml</dc:format>
    <dc:creator>
     <cc:Agent>
      <dc:title>Matplotlib v3.5.1, https://matplotlib.org/</dc:title>
     </cc:Agent>
    </dc:creator>
   </cc:Work>
  </rdf:RDF>
 </metadata>
 <defs>
  <style type="text/css">*{stroke-linejoin: round; stroke-linecap: butt}</style>
 </defs>
 <g id="figure_1">
  <g id="patch_1">
   <path d="M 0 345 
L 460.5 345 
L 460.5 0 
L 0 0 
z
" style="fill: #ffffff"/>
  </g>
  <g id="axes_1">
   <g id="patch_2">
    <path d="M 57.5625 307.05 
L 414.45 307.05 
L 414.45 41.4 
L 57.5625 41.4 
z
" style="fill: #ffffff"/>
   </g>
   <g id="matplotlib.axis_1">
    <g id="xtick_1">
     <g id="line2d_1">
      <defs>
       <path id="m2e0b826e31" d="M 0 0 
L 0 3.5 
" style="stroke: #000000; stroke-width: 0.8"/>
      </defs>
      <g>
       <use xlink:href="#m2e0b826e31" x="73.784659" y="307.05" style="stroke: #000000; stroke-width: 0.8"/>
      </g>
     </g>
     <g id="text_1">
      <!-- 0 -->
      <g transform="translate(70.603409 321.648438)scale(0.1 -0.1)">
       <defs>
        <path id="DejaVuSans-30" d="M 2034 4250 
Q 1547 4250 1301 3770 
Q 1056 3291 1056 2328 
Q 1056 1369 1301 889 
Q 1547 409 2034 409 
Q 2525 409 2770 889 
Q 3016 1369 3016 2328 
Q 3016 3291 2770 3770 
Q 2525 4250 2034 4250 
z
M 2034 4750 
Q 2819 4750 3233 4129 
Q 3647 3509 3647 2328 
Q 3647 1150 3233 529 
Q 2819 -91 2034 -91 
Q 1250 -91 836 529 
Q 422 1150 422 2328 
Q 422 3509 836 4129 
Q 1250 4750 2034 4750 
z
" transform="scale(0.015625)"/>
       </defs>
       <use xlink:href="#DejaVuSans-30"/>
      </g>
     </g>
    </g>
    <g id="xtick_2">
     <g id="line2d_2">
      <g>
       <use xlink:href="#m2e0b826e31" x="127.84779" y="307.05" style="stroke: #000000; stroke-width: 0.8"/>
      </g>
     </g>
     <g id="text_2">
      <!-- 20 -->
      <g transform="translate(121.48529 321.648438)scale(0.1 -0.1)">
       <defs>
        <path id="DejaVuSans-32" d="M 1228 531 
L 3431 531 
L 3431 0 
L 469 0 
L 469 531 
Q 828 903 1448 1529 
Q 2069 2156 2228 2338 
Q 2531 2678 2651 2914 
Q 2772 3150 2772 3378 
Q 2772 3750 2511 3984 
Q 2250 4219 1831 4219 
Q 1534 4219 1204 4116 
Q 875 4013 500 3803 
L 500 4441 
Q 881 4594 1212 4672 
Q 1544 4750 1819 4750 
Q 2544 4750 2975 4387 
Q 3406 4025 3406 3419 
Q 3406 3131 3298 2873 
Q 3191 2616 2906 2266 
Q 2828 2175 2409 1742 
Q 1991 1309 1228 531 
z
" transform="scale(0.015625)"/>
       </defs>
       <use xlink:href="#DejaVuSans-32"/>
       <use xlink:href="#DejaVuSans-30" x="63.623047"/>
      </g>
     </g>
    </g>
    <g id="xtick_3">
     <g id="line2d_3">
      <g>
       <use xlink:href="#m2e0b826e31" x="181.910921" y="307.05" style="stroke: #000000; stroke-width: 0.8"/>
      </g>
     </g>
     <g id="text_3">
      <!-- 40 -->
      <g transform="translate(175.548421 321.648438)scale(0.1 -0.1)">
       <defs>
        <path id="DejaVuSans-34" d="M 2419 4116 
L 825 1625 
L 2419 1625 
L 2419 4116 
z
M 2253 4666 
L 3047 4666 
L 3047 1625 
L 3713 1625 
L 3713 1100 
L 3047 1100 
L 3047 0 
L 2419 0 
L 2419 1100 
L 313 1100 
L 313 1709 
L 2253 4666 
z
" transform="scale(0.015625)"/>
       </defs>
       <use xlink:href="#DejaVuSans-34"/>
       <use xlink:href="#DejaVuSans-30" x="63.623047"/>
      </g>
     </g>
    </g>
    <g id="xtick_4">
     <g id="line2d_4">
      <g>
       <use xlink:href="#m2e0b826e31" x="235.974051" y="307.05" style="stroke: #000000; stroke-width: 0.8"/>
      </g>
     </g>
     <g id="text_4">
      <!-- 60 -->
      <g transform="translate(229.611551 321.648438)scale(0.1 -0.1)">
       <defs>
        <path id="DejaVuSans-36" d="M 2113 2584 
Q 1688 2584 1439 2293 
Q 1191 2003 1191 1497 
Q 1191 994 1439 701 
Q 1688 409 2113 409 
Q 2538 409 2786 701 
Q 3034 994 3034 1497 
Q 3034 2003 2786 2293 
Q 2538 2584 2113 2584 
z
M 3366 4563 
L 3366 3988 
Q 3128 4100 2886 4159 
Q 2644 4219 2406 4219 
Q 1781 4219 1451 3797 
Q 1122 3375 1075 2522 
Q 1259 2794 1537 2939 
Q 1816 3084 2150 3084 
Q 2853 3084 3261 2657 
Q 3669 2231 3669 1497 
Q 3669 778 3244 343 
Q 2819 -91 2113 -91 
Q 1303 -91 875 529 
Q 447 1150 447 2328 
Q 447 3434 972 4092 
Q 1497 4750 2381 4750 
Q 2619 4750 2861 4703 
Q 3103 4656 3366 4563 
z
" transform="scale(0.015625)"/>
       </defs>
       <use xlink:href="#DejaVuSans-36"/>
       <use xlink:href="#DejaVuSans-30" x="63.623047"/>
      </g>
     </g>
    </g>
    <g id="xtick_5">
     <g id="line2d_5">
      <g>
       <use xlink:href="#m2e0b826e31" x="290.037182" y="307.05" style="stroke: #000000; stroke-width: 0.8"/>
      </g>
     </g>
     <g id="text_5">
      <!-- 80 -->
      <g transform="translate(283.674682 321.648438)scale(0.1 -0.1)">
       <defs>
        <path id="DejaVuSans-38" d="M 2034 2216 
Q 1584 2216 1326 1975 
Q 1069 1734 1069 1313 
Q 1069 891 1326 650 
Q 1584 409 2034 409 
Q 2484 409 2743 651 
Q 3003 894 3003 1313 
Q 3003 1734 2745 1975 
Q 2488 2216 2034 2216 
z
M 1403 2484 
Q 997 2584 770 2862 
Q 544 3141 544 3541 
Q 544 4100 942 4425 
Q 1341 4750 2034 4750 
Q 2731 4750 3128 4425 
Q 3525 4100 3525 3541 
Q 3525 3141 3298 2862 
Q 3072 2584 2669 2484 
Q 3125 2378 3379 2068 
Q 3634 1759 3634 1313 
Q 3634 634 3220 271 
Q 2806 -91 2034 -91 
Q 1263 -91 848 271 
Q 434 634 434 1313 
Q 434 1759 690 2068 
Q 947 2378 1403 2484 
z
M 1172 3481 
Q 1172 3119 1398 2916 
Q 1625 2713 2034 2713 
Q 2441 2713 2670 2916 
Q 2900 3119 2900 3481 
Q 2900 3844 2670 4047 
Q 2441 4250 2034 4250 
Q 1625 4250 1398 4047 
Q 1172 3844 1172 3481 
z
" transform="scale(0.015625)"/>
       </defs>
       <use xlink:href="#DejaVuSans-38"/>
       <use xlink:href="#DejaVuSans-30" x="63.623047"/>
      </g>
     </g>
    </g>
    <g id="xtick_6">
     <g id="line2d_6">
      <g>
       <use xlink:href="#m2e0b826e31" x="344.100313" y="307.05" style="stroke: #000000; stroke-width: 0.8"/>
      </g>
     </g>
     <g id="text_6">
      <!-- 100 -->
      <g transform="translate(334.556563 321.648438)scale(0.1 -0.1)">
       <defs>
        <path id="DejaVuSans-31" d="M 794 531 
L 1825 531 
L 1825 4091 
L 703 3866 
L 703 4441 
L 1819 4666 
L 2450 4666 
L 2450 531 
L 3481 531 
L 3481 0 
L 794 0 
L 794 531 
z
" transform="scale(0.015625)"/>
       </defs>
       <use xlink:href="#DejaVuSans-31"/>
       <use xlink:href="#DejaVuSans-30" x="63.623047"/>
       <use xlink:href="#DejaVuSans-30" x="127.246094"/>
      </g>
     </g>
    </g>
    <g id="xtick_7">
     <g id="line2d_7">
      <g>
       <use xlink:href="#m2e0b826e31" x="398.163444" y="307.05" style="stroke: #000000; stroke-width: 0.8"/>
      </g>
     </g>
     <g id="text_7">
      <!-- 120 -->
      <g transform="translate(388.619694 321.648438)scale(0.1 -0.1)">
       <use xlink:href="#DejaVuSans-31"/>
       <use xlink:href="#DejaVuSans-32" x="63.623047"/>
       <use xlink:href="#DejaVuSans-30" x="127.246094"/>
      </g>
     </g>
    </g>
    <g id="text_8">
     <!-- Time (s) -->
     <g transform="translate(215.677344 335.326563)scale(0.1 -0.1)">
      <defs>
       <path id="DejaVuSans-54" d="M -19 4666 
L 3928 4666 
L 3928 4134 
L 2272 4134 
L 2272 0 
L 1638 0 
L 1638 4134 
L -19 4134 
L -19 4666 
z
" transform="scale(0.015625)"/>
       <path id="DejaVuSans-69" d="M 603 3500 
L 1178 3500 
L 1178 0 
L 603 0 
L 603 3500 
z
M 603 4863 
L 1178 4863 
L 1178 4134 
L 603 4134 
L 603 4863 
z
" transform="scale(0.015625)"/>
       <path id="DejaVuSans-6d" d="M 3328 2828 
Q 3544 3216 3844 3400 
Q 4144 3584 4550 3584 
Q 5097 3584 5394 3201 
Q 5691 2819 5691 2113 
L 5691 0 
L 5113 0 
L 5113 2094 
Q 5113 2597 4934 2840 
Q 4756 3084 4391 3084 
Q 3944 3084 3684 2787 
Q 3425 2491 3425 1978 
L 3425 0 
L 2847 0 
L 2847 2094 
Q 2847 2600 2669 2842 
Q 2491 3084 2119 3084 
Q 1678 3084 1418 2786 
Q 1159 2488 1159 1978 
L 1159 0 
L 581 0 
L 581 3500 
L 1159 3500 
L 1159 2956 
Q 1356 3278 1631 3431 
Q 1906 3584 2284 3584 
Q 2666 3584 2933 3390 
Q 3200 3197 3328 2828 
z
" transform="scale(0.015625)"/>
       <path id="DejaVuSans-65" d="M 3597 1894 
L 3597 1613 
L 953 1613 
Q 991 1019 1311 708 
Q 1631 397 2203 397 
Q 2534 397 2845 478 
Q 3156 559 3463 722 
L 3463 178 
Q 3153 47 2828 -22 
Q 2503 -91 2169 -91 
Q 1331 -91 842 396 
Q 353 884 353 1716 
Q 353 2575 817 3079 
Q 1281 3584 2069 3584 
Q 2775 3584 3186 3129 
Q 3597 2675 3597 1894 
z
M 3022 2063 
Q 3016 2534 2758 2815 
Q 2500 3097 2075 3097 
Q 1594 3097 1305 2825 
Q 1016 2553 972 2059 
L 3022 2063 
z
" transform="scale(0.015625)"/>
       <path id="DejaVuSans-20" transform="scale(0.015625)"/>
       <path id="DejaVuSans-28" d="M 1984 4856 
Q 1566 4138 1362 3434 
Q 1159 2731 1159 2009 
Q 1159 1288 1364 580 
Q 1569 -128 1984 -844 
L 1484 -844 
Q 1016 -109 783 600 
Q 550 1309 550 2009 
Q 550 2706 781 3412 
Q 1013 4119 1484 4856 
L 1984 4856 
z
" transform="scale(0.015625)"/>
       <path id="DejaVuSans-73" d="M 2834 3397 
L 2834 2853 
Q 2591 2978 2328 3040 
Q 2066 3103 1784 3103 
Q 1356 3103 1142 2972 
Q 928 2841 928 2578 
Q 928 2378 1081 2264 
Q 1234 2150 1697 2047 
L 1894 2003 
Q 2506 1872 2764 1633 
Q 3022 1394 3022 966 
Q 3022 478 2636 193 
Q 2250 -91 1575 -91 
Q 1294 -91 989 -36 
Q 684 19 347 128 
L 347 722 
Q 666 556 975 473 
Q 1284 391 1588 391 
Q 1994 391 2212 530 
Q 2431 669 2431 922 
Q 2431 1156 2273 1281 
Q 2116 1406 1581 1522 
L 1381 1569 
Q 847 1681 609 1914 
Q 372 2147 372 2553 
Q 372 3047 722 3315 
Q 1072 3584 1716 3584 
Q 2034 3584 2315 3537 
Q 2597 3491 2834 3397 
z
" transform="scale(0.015625)"/>
       <path id="DejaVuSans-29" d="M 513 4856 
L 1013 4856 
Q 1481 4119 1714 3412 
Q 1947 2706 1947 2009 
Q 1947 1309 1714 600 
Q 1481 -109 1013 -844 
L 513 -844 
Q 928 -128 1133 580 
Q 1338 1288 1338 2009 
Q 1338 2731 1133 3434 
Q 928 4138 513 4856 
z
" transform="scale(0.015625)"/>
      </defs>
      <use xlink:href="#DejaVuSans-54"/>
      <use xlink:href="#DejaVuSans-69" x="57.958984"/>
      <use xlink:href="#DejaVuSans-6d" x="85.742188"/>
      <use xlink:href="#DejaVuSans-65" x="183.154297"/>
      <use xlink:href="#DejaVuSans-20" x="244.677734"/>
      <use xlink:href="#DejaVuSans-28" x="276.464844"/>
      <use xlink:href="#DejaVuSans-73" x="315.478516"/>
      <use xlink:href="#DejaVuSans-29" x="367.578125"/>
     </g>
    </g>
   </g>
   <g id="matplotlib.axis_2">
    <g id="ytick_1">
     <g id="line2d_8">
      <defs>
       <path id="m66ac932563" d="M 0 0 
L -3.5 0 
" style="stroke: #000000; stroke-width: 0.8"/>
      </defs>
      <g>
       <use xlink:href="#m66ac932563" x="57.5625" y="294.975" style="stroke: #000000; stroke-width: 0.8"/>
      </g>
     </g>
     <g id="text_9">
      <!-- 0 -->
      <g transform="translate(44.2 298.774219)scale(0.1 -0.1)">
       <use xlink:href="#DejaVuSans-30"/>
      </g>
     </g>
    </g>
    <g id="ytick_2">
     <g id="line2d_9">
      <g>
       <use xlink:href="#m66ac932563" x="57.5625" y="251.737373" style="stroke: #000000; stroke-width: 0.8"/>
      </g>
     </g>
     <g id="text_10">
      <!-- 10000 -->
      <g transform="translate(18.75 255.536592)scale(0.1 -0.1)">
       <use xlink:href="#DejaVuSans-31"/>
       <use xlink:href="#DejaVuSans-30" x="63.623047"/>
       <use xlink:href="#DejaVuSans-30" x="127.246094"/>
       <use xlink:href="#DejaVuSans-30" x="190.869141"/>
       <use xlink:href="#DejaVuSans-30" x="254.492188"/>
      </g>
     </g>
    </g>
    <g id="ytick_3">
     <g id="line2d_10">
      <g>
       <use xlink:href="#m66ac932563" x="57.5625" y="208.499746" style="stroke: #000000; stroke-width: 0.8"/>
      </g>
     </g>
     <g id="text_11">
      <!-- 20000 -->
      <g transform="translate(18.75 212.298965)scale(0.1 -0.1)">
       <use xlink:href="#DejaVuSans-32"/>
       <use xlink:href="#DejaVuSans-30" x="63.623047"/>
       <use xlink:href="#DejaVuSans-30" x="127.246094"/>
       <use xlink:href="#DejaVuSans-30" x="190.869141"/>
       <use xlink:href="#DejaVuSans-30" x="254.492188"/>
      </g>
     </g>
    </g>
    <g id="ytick_4">
     <g id="line2d_11">
      <g>
       <use xlink:href="#m66ac932563" x="57.5625" y="165.262119" style="stroke: #000000; stroke-width: 0.8"/>
      </g>
     </g>
     <g id="text_12">
      <!-- 30000 -->
      <g transform="translate(18.75 169.061338)scale(0.1 -0.1)">
       <defs>
        <path id="DejaVuSans-33" d="M 2597 2516 
Q 3050 2419 3304 2112 
Q 3559 1806 3559 1356 
Q 3559 666 3084 287 
Q 2609 -91 1734 -91 
Q 1441 -91 1130 -33 
Q 819 25 488 141 
L 488 750 
Q 750 597 1062 519 
Q 1375 441 1716 441 
Q 2309 441 2620 675 
Q 2931 909 2931 1356 
Q 2931 1769 2642 2001 
Q 2353 2234 1838 2234 
L 1294 2234 
L 1294 2753 
L 1863 2753 
Q 2328 2753 2575 2939 
Q 2822 3125 2822 3475 
Q 2822 3834 2567 4026 
Q 2313 4219 1838 4219 
Q 1578 4219 1281 4162 
Q 984 4106 628 3988 
L 628 4550 
Q 988 4650 1302 4700 
Q 1616 4750 1894 4750 
Q 2613 4750 3031 4423 
Q 3450 4097 3450 3541 
Q 3450 3153 3228 2886 
Q 3006 2619 2597 2516 
z
" transform="scale(0.015625)"/>
       </defs>
       <use xlink:href="#DejaVuSans-33"/>
       <use xlink:href="#DejaVuSans-30" x="63.623047"/>
       <use xlink:href="#DejaVuSans-30" x="127.246094"/>
       <use xlink:href="#DejaVuSans-30" x="190.869141"/>
       <use xlink:href="#DejaVuSans-30" x="254.492188"/>
      </g>
     </g>
    </g>
    <g id="ytick_5">
     <g id="line2d_12">
      <g>
       <use xlink:href="#m66ac932563" x="57.5625" y="122.024492" style="stroke: #000000; stroke-width: 0.8"/>
      </g>
     </g>
     <g id="text_13">
      <!-- 40000 -->
      <g transform="translate(18.75 125.823711)scale(0.1 -0.1)">
       <use xlink:href="#DejaVuSans-34"/>
       <use xlink:href="#DejaVuSans-30" x="63.623047"/>
       <use xlink:href="#DejaVuSans-30" x="127.246094"/>
       <use xlink:href="#DejaVuSans-30" x="190.869141"/>
       <use xlink:href="#DejaVuSans-30" x="254.492188"/>
      </g>
     </g>
    </g>
    <g id="ytick_6">
     <g id="line2d_13">
      <g>
       <use xlink:href="#m66ac932563" x="57.5625" y="78.786865" style="stroke: #000000; stroke-width: 0.8"/>
      </g>
     </g>
     <g id="text_14">
      <!-- 50000 -->
      <g transform="translate(18.75 82.586084)scale(0.1 -0.1)">
       <defs>
        <path id="DejaVuSans-35" d="M 691 4666 
L 3169 4666 
L 3169 4134 
L 1269 4134 
L 1269 2991 
Q 1406 3038 1543 3061 
Q 1681 3084 1819 3084 
Q 2600 3084 3056 2656 
Q 3513 2228 3513 1497 
Q 3513 744 3044 326 
Q 2575 -91 1722 -91 
Q 1428 -91 1123 -41 
Q 819 9 494 109 
L 494 744 
Q 775 591 1075 516 
Q 1375 441 1709 441 
Q 2250 441 2565 725 
Q 2881 1009 2881 1497 
Q 2881 1984 2565 2268 
Q 2250 2553 1709 2553 
Q 1456 2553 1204 2497 
Q 953 2441 691 2322 
L 691 4666 
z
" transform="scale(0.015625)"/>
       </defs>
       <use xlink:href="#DejaVuSans-35"/>
       <use xlink:href="#DejaVuSans-30" x="63.623047"/>
       <use xlink:href="#DejaVuSans-30" x="127.246094"/>
       <use xlink:href="#DejaVuSans-30" x="190.869141"/>
       <use xlink:href="#DejaVuSans-30" x="254.492188"/>
      </g>
     </g>
    </g>
    <g id="text_15">
     <!-- Trust Score -->
     <g transform="translate(12.670312 201.921875)rotate(-90)scale(0.1 -0.1)">
      <defs>
       <path id="DejaVuSans-72" d="M 2631 2963 
Q 2534 3019 2420 3045 
Q 2306 3072 2169 3072 
Q 1681 3072 1420 2755 
Q 1159 2438 1159 1844 
L 1159 0 
L 581 0 
L 581 3500 
L 1159 3500 
L 1159 2956 
Q 1341 3275 1631 3429 
Q 1922 3584 2338 3584 
Q 2397 3584 2469 3576 
Q 2541 3569 2628 3553 
L 2631 2963 
z
" transform="scale(0.015625)"/>
       <path id="DejaVuSans-75" d="M 544 1381 
L 544 3500 
L 1119 3500 
L 1119 1403 
Q 1119 906 1312 657 
Q 1506 409 1894 409 
Q 2359 409 2629 706 
Q 2900 1003 2900 1516 
L 2900 3500 
L 3475 3500 
L 3475 0 
L 2900 0 
L 2900 538 
Q 2691 219 2414 64 
Q 2138 -91 1772 -91 
Q 1169 -91 856 284 
Q 544 659 544 1381 
z
M 1991 3584 
L 1991 3584 
z
" transform="scale(0.015625)"/>
       <path id="DejaVuSans-74" d="M 1172 4494 
L 1172 3500 
L 2356 3500 
L 2356 3053 
L 1172 3053 
L 1172 1153 
Q 1172 725 1289 603 
Q 1406 481 1766 481 
L 2356 481 
L 2356 0 
L 1766 0 
Q 1100 0 847 248 
Q 594 497 594 1153 
L 594 3053 
L 172 3053 
L 172 3500 
L 594 3500 
L 594 4494 
L 1172 4494 
z
" transform="scale(0.015625)"/>
       <path id="DejaVuSans-53" d="M 3425 4513 
L 3425 3897 
Q 3066 4069 2747 4153 
Q 2428 4238 2131 4238 
Q 1616 4238 1336 4038 
Q 1056 3838 1056 3469 
Q 1056 3159 1242 3001 
Q 1428 2844 1947 2747 
L 2328 2669 
Q 3034 2534 3370 2195 
Q 3706 1856 3706 1288 
Q 3706 609 3251 259 
Q 2797 -91 1919 -91 
Q 1588 -91 1214 -16 
Q 841 59 441 206 
L 441 856 
Q 825 641 1194 531 
Q 1563 422 1919 422 
Q 2459 422 2753 634 
Q 3047 847 3047 1241 
Q 3047 1584 2836 1778 
Q 2625 1972 2144 2069 
L 1759 2144 
Q 1053 2284 737 2584 
Q 422 2884 422 3419 
Q 422 4038 858 4394 
Q 1294 4750 2059 4750 
Q 2388 4750 2728 4690 
Q 3069 4631 3425 4513 
z
" transform="scale(0.015625)"/>
       <path id="DejaVuSans-63" d="M 3122 3366 
L 3122 2828 
Q 2878 2963 2633 3030 
Q 2388 3097 2138 3097 
Q 1578 3097 1268 2742 
Q 959 2388 959 1747 
Q 959 1106 1268 751 
Q 1578 397 2138 397 
Q 2388 397 2633 464 
Q 2878 531 3122 666 
L 3122 134 
Q 2881 22 2623 -34 
Q 2366 -91 2075 -91 
Q 1284 -91 818 406 
Q 353 903 353 1747 
Q 353 2603 823 3093 
Q 1294 3584 2113 3584 
Q 2378 3584 2631 3529 
Q 2884 3475 3122 3366 
z
" transform="scale(0.015625)"/>
       <path id="DejaVuSans-6f" d="M 1959 3097 
Q 1497 3097 1228 2736 
Q 959 2375 959 1747 
Q 959 1119 1226 758 
Q 1494 397 1959 397 
Q 2419 397 2687 759 
Q 2956 1122 2956 1747 
Q 2956 2369 2687 2733 
Q 2419 3097 1959 3097 
z
M 1959 3584 
Q 2709 3584 3137 3096 
Q 3566 2609 3566 1747 
Q 3566 888 3137 398 
Q 2709 -91 1959 -91 
Q 1206 -91 779 398 
Q 353 888 353 1747 
Q 353 2609 779 3096 
Q 1206 3584 1959 3584 
z
" transform="scale(0.015625)"/>
      </defs>
      <use xlink:href="#DejaVuSans-54"/>
      <use xlink:href="#DejaVuSans-72" x="46.333984"/>
      <use xlink:href="#DejaVuSans-75" x="87.447266"/>
      <use xlink:href="#DejaVuSans-73" x="150.826172"/>
      <use xlink:href="#DejaVuSans-74" x="202.925781"/>
      <use xlink:href="#DejaVuSans-20" x="242.134766"/>
      <use xlink:href="#DejaVuSans-53" x="273.921875"/>
      <use xlink:href="#DejaVuSans-63" x="337.398438"/>
      <use xlink:href="#DejaVuSans-6f" x="392.378906"/>
      <use xlink:href="#DejaVuSans-72" x="453.560547"/>
      <use xlink:href="#DejaVuSans-65" x="492.423828"/>
     </g>
    </g>
   </g>
   <g id="line2d_14">
    <path d="M 73.784659 294.975 
L 110.564166 294.892956 
L 111.527012 294.676943 
L 112.373891 294.250451 
L 113.047737 293.699718 
L 113.845812 292.852651 
L 114.414482 291.949192 
L 115.084834 290.372369 
L 116.338319 286.903648 
L 117.053323 283.622181 
L 118.131802 277.168952 
L 118.846328 271.707928 
L 120.387379 270.487708 
L 120.773175 268.795137 
L 121.178207 267.915856 
L 121.584982 267.523087 
L 122.289309 267.43997 
L 123.31347 267.52669 
L 123.665666 267.324883 
L 124.167434 266.68666 
L 124.658884 265.503288 
L 124.839345 264.966093 
L 126.354183 263.645977 
L 127.145884 258.926877 
L 127.70716 257.862311 
L 127.967127 257.705476 
L 128.201462 257.812969 
L 128.623229 258.483041 
L 129.314486 260.173073 
L 130.978706 265.889688 
L 131.726554 267.653858 
L 132.834841 270.006192 
L 133.789022 272.487864 
L 135.234372 278.107242 
L 135.769768 279.846285 
L 136.40438 281.208901 
L 137.716847 283.377902 
L 138.261125 283.895686 
L 138.946306 284.239435 
L 139.877203 284.256305 
L 140.619416 283.972406 
L 141.262993 283.5812 
L 141.585862 283.653651 
L 141.907294 284.04207 
L 142.286681 284.801619 
L 144.155882 289.575141 
L 144.308817 289.765683 
L 145.043692 290.027285 
L 145.697992 289.826097 
L 146.562626 289.492958 
L 146.929912 289.394455 
L 147.286518 289.54151 
L 147.807966 290.196727 
L 148.295455 290.996304 
L 149.24809 291.750705 
L 149.710033 291.725408 
L 150.324674 291.525433 
L 151.433175 291.128932 
L 152.150322 291.259258 
L 154.052021 291.830531 
L 157.809662 291.712071 
L 159.015642 291.658732 
L 162.012946 291.435677 
L 172.379799 291.042824 
L 174.03274 289.92159 
L 174.582789 290.027732 
L 175.743503 290.626627 
L 176.844159 291.179664 
L 177.373708 291.220141 
L 178.134076 291.026795 
L 179.337694 290.594852 
L 180.31676 290.589056 
L 181.664102 290.627647 
L 182.588048 290.462875 
L 184.626886 289.905741 
L 185.566984 290.037522 
L 187.191099 290.628659 
L 191.379522 292.162608 
L 192.619035 292.246922 
L 193.144087 292.513427 
L 195.223806 294.032266 
L 195.72962 294.084405 
L 198.670815 294.079561 
L 202.622234 294.404755 
L 204.446488 294.389692 
L 206.517405 294.122138 
L 207.158683 293.424358 
L 208.123296 292.012713 
L 211.201515 286.821549 
L 212.389373 285.247011 
L 213.205468 284.537392 
L 213.839085 284.230155 
L 214.655009 284.136144 
L 215.569012 284.231032 
L 216.473381 284.624496 
L 217.481661 285.427934 
L 219.960364 287.702264 
L 221.164606 288.372593 
L 224.181452 289.994284 
L 225.75126 290.112929 
L 227.912067 290.017664 
L 229.068588 289.62525 
L 229.256454 289.542826 
L 230.815529 289.329714 
L 231.591451 289.21991 
L 232.258397 289.316356 
L 234.596171 289.921556 
L 235.437623 289.868769 
L 236.328397 289.723287 
L 238.078544 289.545514 
L 238.924272 289.367844 
L 239.575869 289.459347 
L 240.75147 289.870363 
L 241.701136 290.181677 
L 243.405232 290.0382 
L 244.247477 289.938004 
L 244.986925 290.055657 
L 247.340594 290.702033 
L 248.492652 290.768896 
L 249.019907 290.974146 
L 250.698098 291.103909 
L 252.206746 291.480666 
L 253.428309 291.221974 
L 254.79302 290.856367 
L 257.841852 290.941954 
L 258.783642 290.911593 
L 259.939305 290.607666 
L 261.400996 289.859317 
L 262.206303 289.727651 
L 263.816867 289.709463 
L 265.344189 289.448321 
L 266.131161 289.134246 
L 267.073576 288.798304 
L 267.749447 288.76722 
L 268.469113 288.969275 
L 270.315857 289.811706 
L 271.126509 289.856414 
L 272.224972 289.656917 
L 274.189638 289.014425 
L 275.376146 288.455668 
L 276.519161 287.879751 
L 279.574076 287.168547 
L 280.634714 287.133234 
L 282.10327 287.383948 
L 283.090116 287.71711 
L 285.204889 288.620067 
L 286.147227 288.693545 
L 286.709281 288.534827 
L 287.345017 288.173792 
L 289.013535 286.832131 
L 290.770079 286.896953 
L 291.793167 287.280591 
L 293.561328 288.184111 
L 294.618846 288.473131 
L 297.885876 289.056503 
L 299.009248 288.953037 
L 305.044286 287.987917 
L 305.853448 287.618554 
L 306.577046 287.598694 
L 307.206358 287.857888 
L 307.853418 288.464953 
L 308.574674 289.497511 
L 308.762177 289.79609 
L 310.180553 290.003292 
L 310.486008 290.332789 
L 311.046656 290.589175 
L 312.299836 290.969233 
L 312.811928 290.950314 
L 313.512598 290.659963 
L 313.853039 290.413922 
L 315.228656 290.04022 
L 317.033064 286.359843 
L 317.513992 285.773754 
L 317.998383 285.497978 
L 318.536742 285.523423 
L 320.084206 285.66465 
L 320.778533 286.17125 
L 321.462032 286.423384 
L 322.431013 286.604357 
L 323.114849 286.563345 
L 324.802502 286.431207 
L 326.071875 286.041457 
L 326.824352 286.006578 
L 328.841306 285.941314 
L 330.092518 285.799305 
L 331.292349 285.971012 
L 332.380569 286.024257 
L 333.483676 285.76196 
L 333.666294 285.692663 
L 335.475512 285.480453 
L 336.247572 285.115009 
L 337.173663 284.825835 
L 337.820947 284.722709 
L 338.630408 285.273896 
L 339.181216 285.963737 
L 340.183783 287.767881 
L 341.075613 289.322969 
L 341.448569 289.837114 
L 343.16042 289.843765 
L 343.828275 290.074156 
L 345.49367 290.208203 
L 346.30277 290.447037 
L 347.06417 290.652228 
L 348.395808 291.294122 
L 349.106965 291.689054 
L 350.432773 292.072258 
L 351.582615 292.443546 
L 354.525811 293.786523 
L 359.458541 294.263262 
L 368.62385 294.592748 
L 369.5623 294.391095 
L 370.612392 293.895525 
L 371.739913 292.895905 
L 372.44525 291.970179 
L 375.934779 287.017139 
L 376.508213 286.45122 
L 377.604102 285.72651 
L 379.102384 284.588833 
L 379.944754 283.522903 
L 380.646539 282.291886 
L 381.74937 279.796631 
L 382.3728 277.624682 
L 383.776316 272.558195 
L 384.113192 271.985214 
L 384.448757 271.799105 
L 384.790321 271.97248 
L 385.122023 272.491442 
L 385.875691 274.408466 
L 386.83083 277.075065 
L 387.31009 277.829443 
L 390.115659 275.084969 
L 390.474949 270.44587 
L 390.829547 267.165947 
L 392.564511 266.738977 
L 393.000253 265.794922 
L 393.381797 264.522244 
L 393.947502 261.598007 
L 394.321669 258.721514 
L 394.321669 258.721514 
" clip-path="url(#pca2cd5f693)" style="fill: none; stroke: #800080; stroke-width: 5; stroke-linecap: square"/>
   </g>
   <g id="line2d_15">
    <path d="M 73.784659 294.975 
L 110.798678 294.866419 
L 111.699534 294.620162 
L 112.549077 294.154556 
L 113.233569 293.539607 
L 113.845812 292.869703 
L 114.414482 291.963521 
L 115.084834 290.373659 
L 116.338319 286.906049 
L 117.053323 283.570002 
L 118.323456 275.932825 
L 118.846328 272.526102 
L 120.203867 271.919073 
L 120.570443 271.064205 
L 120.976102 270.647216 
L 121.584982 270.383482 
L 122.458449 270.183932 
L 122.969853 269.826433 
L 123.488536 269.02934 
L 124.658884 266.680926 
L 124.839345 266.55083 
L 126.354183 266.793449 
L 126.949126 267.852521 
L 127.145884 268.267478 
L 127.70716 269.120587 
L 129.314486 271.943679 
L 130.259274 274.461847 
L 131.165473 277.83358 
L 133.246439 285.30675 
L 133.789022 286.451985 
L 134.479631 288.576181 
L 135.769768 291.335769 
L 136.619584 292.283318 
L 137.357195 292.864496 
L 138.074778 293.071658 
L 140.459643 293.307689 
L 140.935275 293.445584 
L 141.585862 293.508511 
L 143.308566 293.921084 
L 143.953562 293.997427 
L 144.89087 294.381245 
L 145.346159 294.525728 
L 148.295455 294.778092 
L 150.167613 294.83559 
L 153.887042 294.83507 
L 157.656748 294.809555 
L 163.793713 294.265192 
L 167.5908 294.394916 
L 169.978156 294.425687 
L 172.379799 294.017669 
L 175.541532 290.371973 
L 177.894224 288.208067 
L 178.644052 287.577525 
L 179.52891 286.91231 
L 180.788801 286.329931 
L 182.963612 285.721989 
L 183.941209 285.706688 
L 184.780294 285.905462 
L 185.726751 286.392368 
L 186.495165 287.093447 
L 187.498925 288.258069 
L 188.35862 289.226727 
L 189.032165 289.887406 
L 190.046437 290.577779 
L 190.674831 290.789968 
L 191.73332 290.766297 
L 192.799833 290.711694 
L 194.056472 290.926988 
L 196.05849 291.269609 
L 199.703678 291.387966 
L 201.07602 291.282497 
L 202.953123 291.382766 
L 204.66166 291.346642 
L 208.280634 290.958583 
L 210.8477 291.177553 
L 213.839085 291.074877 
L 215.319851 291.13623 
L 218.794654 291.095427 
L 221.512889 291.129514 
L 223.46881 291.237921 
L 225.299842 291.291888 
L 227.174382 291.161124 
L 227.709978 290.963195 
L 228.462428 290.991081 
L 229.256454 291.136076 
L 230.815529 290.974849 
L 232.258397 290.344563 
L 232.939821 290.339536 
L 235.603599 290.889422 
L 236.328397 290.73299 
L 238.924272 290.821597 
L 239.965815 290.936236 
L 240.75147 290.769916 
L 241.701136 290.355356 
L 243.241018 290.551157 
L 244.247477 291.073859 
L 246.103517 291.619149 
L 246.620133 291.454507 
L 248.152076 290.540895 
L 249.019907 290.488326 
L 251.364125 290.596072 
L 253.098159 290.815718 
L 254.395725 290.950359 
L 254.79302 291.027973 
L 257.302178 291.1672 
L 259.597709 291.388452 
L 260.829273 291.440846 
L 262.392802 291.725561 
L 264.40346 291.650127 
L 265.344189 291.199763 
L 266.131161 290.853785 
L 266.719487 290.795314 
L 267.240827 290.991217 
L 267.929906 291.256288 
L 268.81679 291.295166 
L 269.93152 291.308572 
L 272.572707 291.960643 
L 279.974598 292.188213 
L 285.204889 292.79348 
L 285.971922 293.432724 
L 286.521298 293.848272 
L 286.944347 293.960071 
L 287.561375 293.858977 
L 288.400889 293.448323 
L 289.013535 293.060687 
L 290.359394 292.633977 
L 291.184873 290.515624 
L 291.972179 287.834916 
L 292.908345 284.57831 
L 293.761418 282.592141 
L 294.156308 281.934454 
L 295.030592 281.255794 
L 295.563726 281.121606 
L 296.391462 281.218359 
L 297.361617 281.367812 
L 299.621663 281.463888 
L 301.601343 282.164413 
L 303.010103 282.175382 
L 303.492454 282.414703 
L 304.713167 282.599506 
L 305.540085 283.701503 
L 306.104291 284.371541 
L 306.73293 285.032425 
L 307.206358 285.280934 
L 307.678094 285.325181 
L 308.388403 285.125211 
L 308.762177 284.993419 
L 310.335484 285.096767 
L 310.793546 285.486015 
L 311.216958 285.92189 
L 312.149476 287.678904 
L 312.636183 288.456548 
L 313.155547 288.911277 
L 313.685462 289.001071 
L 315.412639 288.623877 
L 316.242764 287.402686 
L 316.877294 285.364532 
L 318.18342 280.681071 
L 318.536742 279.857023 
L 320.244737 279.875625 
L 320.778533 280.308434 
L 321.642927 281.469305 
L 322.587083 283.336457 
L 322.931159 283.595956 
L 323.114849 283.646831 
L 324.802502 283.533442 
L 326.071875 283.023666 
L 326.824352 282.593512 
L 328.171794 282.273377 
L 330.092518 279.055065 
L 330.76102 278.411972 
L 331.567493 277.964516 
L 332.057304 277.793786 
L 333.666294 277.619585 
L 337.658729 277.584869 
L 338.157595 277.898512 
L 339.002386 278.99544 
L 339.518343 280.306628 
L 341.075613 284.865865 
L 341.829804 286.463104 
L 342.503775 287.847549 
L 342.997694 288.614723 
L 343.323253 288.869376 
L 343.828275 288.907331 
L 345.158037 288.71947 
L 346.142341 288.140948 
L 346.682083 288.236342 
L 348.395808 288.94851 
L 349.106965 288.630089 
L 350.602521 287.769271 
L 351.092234 287.824698 
L 352.630042 288.347825 
L 353.476319 288.196722 
L 354.322587 288.009008 
L 354.91803 288.214774 
L 356.945522 289.371273 
L 358.102577 289.501208 
L 359.101017 289.698222 
L 361.458789 290.456395 
L 362.282078 290.295091 
L 363.409761 289.807489 
L 363.909826 289.40024 
L 365.461405 289.202176 
L 367.045154 287.731198 
L 368.417969 286.327085 
L 369.744077 285.349919 
L 370.443281 285.083506 
L 371.337405 284.834693 
L 372.621762 284.780392 
L 374.302248 284.752109 
L 375.326393 284.695315 
L 376.275517 284.963926 
L 377.196995 285.388812 
L 377.971769 285.993071 
L 379.944754 287.718728 
L 380.646539 287.941903 
L 381.525971 287.935779 
L 382.571353 287.726942 
L 383.102081 287.442252 
L 383.776316 286.849091 
L 384.957166 285.700555 
L 385.482736 285.577883 
L 386.263418 285.696532 
L 387.31009 285.901337 
L 390.474949 285.983987 
L 390.829547 286.145504 
L 392.564511 286.278291 
L 394.533687 287.386458 
L 396.159772 287.917133 
L 397.503423 288.662527 
L 398.227841 289.149683 
L 398.227841 289.149683 
" clip-path="url(#pca2cd5f693)" style="fill: none; stroke: #ff0000; stroke-width: 5; stroke-linecap: square"/>
   </g>
   <g id="line2d_16">
    <path d="M 73.784659 294.975 
L 111.527012 294.864931 
L 115.084834 294.734536 
L 115.826244 294.4272 
L 116.338319 294.112505 
L 116.881014 293.405379 
L 117.612031 291.989737 
L 118.323456 289.801241 
L 118.846328 287.748017 
L 120.203867 286.530781 
L 122.633797 269.415335 
L 123.998936 257.817021 
L 124.839345 252.2535 
L 126.114515 251.521821 
L 126.949126 249.423274 
L 127.145884 249.091778 
L 127.967127 248.63944 
L 128.408753 248.702983 
L 128.86621 249.027433 
L 129.314486 249.562415 
L 130.079317 251.140919 
L 131.165473 254.266549 
L 132.291004 257.801874 
L 133.789022 263.389001 
L 135.769768 274.41944 
L 136.40438 276.475285 
L 137.357195 278.599954 
L 137.716847 278.94044 
L 138.074778 279.020608 
L 138.619844 278.724001 
L 139.681842 277.416018 
L 140.619416 275.497901 
L 141.262993 274.262708 
L 141.742494 273.741088 
L 142.098056 273.656157 
L 142.463618 273.818161 
L 142.823064 274.182872 
L 143.308566 275.154542 
L 143.792225 276.587016 
L 145.195532 281.755048 
L 145.697992 283.551798 
L 148.131923 289.679345 
L 148.572671 290.344329 
L 149.710033 292.254454 
L 150.167613 292.681702 
L 150.951522 293.533285 
L 151.614298 293.960099 
L 152.520795 294.221462 
L 153.556648 294.273227 
L 154.786372 294.113179 
L 157.020987 293.627237 
L 159.59053 292.803306 
L 160.897903 292.101678 
L 164.92926 289.083469 
L 165.765768 288.699311 
L 167.5908 288.076295 
L 168.998465 287.988268 
L 170.185655 288.169035 
L 170.842939 288.319156 
L 172.546411 288.445012 
L 173.85367 288.901307 
L 175.932417 290.015315 
L 178.472359 291.653285 
L 179.52891 292.323394 
L 180.535835 292.688455 
L 182.963612 293.034185 
L 185.245066 293.092576 
L 189.557482 292.881108 
L 191.73332 292.585162 
L 195.563441 291.961977 
L 203.336641 291.449382 
L 206.680185 291.236008 
L 208.784307 290.814385 
L 212.223252 290.247275 
L 214.655009 289.697283 
L 216.294784 289.39134 
L 219.625389 288.599702 
L 221.871499 287.831778 
L 223.135764 287.384241 
L 224.181452 287.342157 
L 225.120887 287.438465 
L 225.75126 287.570563 
L 227.709978 287.725389 
L 229.256454 288.104232 
L 231.255154 288.240037 
L 234.596171 288.961422 
L 236.328397 289.433826 
L 238.078544 289.553146 
L 239.575869 290.080187 
L 240.552828 290.674386 
L 241.330063 291.082826 
L 241.701136 291.084697 
L 243.076769 290.166271 
L 243.56787 286.385907 
L 244.062521 281.001774 
L 244.804505 270.828838 
L 245.739143 253.13431 
L 246.445321 234.812082 
L 248.152076 182.376972 
L 249.019907 150.08999 
L 250.448878 142.887852 
L 251.541365 109.910438 
L 252.376355 83.472546 
L 253.098159 67.943023 
L 253.629161 62.269009 
L 254.192195 56.276054 
L 254.583803 54.054873 
L 254.79302 53.475 
L 256.420851 54.017817 
L 256.763208 55.972805 
L 257.302178 61.054018 
L 257.841852 68.568124 
L 258.783642 85.787108 
L 258.97477 89.851879 
L 259.375345 94.15852 
L 259.76987 103.326059 
L 261.206861 147.641011 
L 262.392802 186.866896 
L 263.615342 193.598803 
L 265.023051 237.27677 
L 265.543565 248.04748 
L 265.921444 255.638894 
L 266.898225 265.293064 
L 267.409709 268.81596 
L 267.929906 270.94075 
L 268.469113 271.978701 
L 268.81679 272.222311 
L 269.184821 272.216047 
L 269.747877 271.942987 
L 270.530832 271.533552 
L 271.32753 271.466628 
L 271.687044 271.608242 
L 272.224972 272.161064 
L 273.496265 276.080685 
L 275.157825 281.246166 
L 276.273555 283.331294 
L 276.519161 283.507298 
L 277.056208 283.087641 
L 278.093643 281.33539 
L 279.376323 278.542861 
L 280.203225 276.731011 
L 281.321585 274.907976 
L 282.364186 273.909838 
L 283.090116 273.517734 
L 283.679139 273.459123 
L 284.334977 273.675296 
L 285.009216 274.227325 
L 285.600466 275.099345 
L 286.147227 276.211434 
L 288.214692 280.936419 
L 289.013535 282.926447 
L 290.359394 283.406649 
L 292.156549 287.326835 
L 292.908345 288.705539 
L 294.156308 290.244769 
L 296.030063 291.620928 
L 297.187197 292.09999 
L 298.062126 292.173405 
L 298.856662 292.052075 
L 300.562362 291.456371 
L 302.499311 290.811615 
L 303.492454 290.682203 
L 307.520645 290.625538 
L 310.639436 291.233585 
L 312.45132 291.894284 
L 313.853039 292.335245 
L 315.412639 292.482709 
L 318.536742 293.368228 
L 320.244737 293.538211 
L 321.462032 293.749838 
L 323.114849 293.958878 
L 326.668433 293.937493 
L 326.824352 293.891435 
L 327.988978 293.758543 
L 328.685046 293.072649 
L 329.468111 291.869237 
L 330.244387 290.25477 
L 331.734264 286.6037 
L 332.885793 282.035123 
L 333.666294 278.879364 
L 335.028964 277.784593 
L 335.475512 275.558291 
L 336.735639 267.69958 
L 337.173663 265.545316 
L 338.157595 259.574628 
L 339.348221 254.563259 
L 340.183783 251.397676 
L 340.516643 250.577349 
L 341.075613 249.9047 
L 341.448569 249.738907 
L 341.829804 249.875559 
L 342.503775 250.600273 
L 342.997694 251.900537 
L 343.659701 254.464915 
L 343.828275 255.234793 
L 345.158037 255.920995 
L 345.823595 258.327246 
L 347.481999 265.391789 
L 347.899033 266.316282 
L 348.731829 270.332612 
L 349.602667 274.110934 
L 351.74615 284.010254 
L 352.435286 286.352574 
L 352.814456 287.168599 
L 353.30922 287.500595 
L 353.476319 287.456196 
L 353.640846 287.249731 
L 353.96642 286.283571 
L 354.322587 284.555977 
L 354.91803 279.944052 
L 355.506753 273.557849 
L 358.487009 232.294809 
L 358.936093 227.30341 
L 359.632355 218.091149 
L 361.130613 204.609597 
L 361.781397 200.752563 
L 362.282078 199.011727 
L 362.613026 198.307672 
L 363.226902 197.735108 
L 363.738209 197.798521 
L 363.909826 197.849801 
L 365.461405 197.457218 
L 367.825205 193.492602 
L 368.62385 191.452462 
L 369.378122 188.619607 
L 370.612392 182.648492 
L 371.54005 177.031396 
L 372.44525 173.045021 
L 372.993899 171.866589 
L 373.365006 171.558328 
L 373.552549 171.552352 
L 373.741134 171.672612 
L 374.124988 172.341309 
L 374.468317 173.607079 
L 374.985209 176.732204 
L 375.934779 185.027351 
L 376.508213 191.247371 
L 377.008842 195.608467 
L 379.102384 221.146267 
L 380.837793 245.865202 
L 381.21802 250.340706 
L 381.74937 254.481312 
L 383.603085 268.891819 
L 384.279993 271.429186 
L 384.62431 272.130302 
L 385.291442 272.933507 
L 385.680256 273.043445 
L 386.070951 272.705262 
L 386.461572 271.900311 
L 387.31009 268.894722 
L 389.032339 267.499165 
L 390.287794 256.683713 
L 390.287794 256.683713 
" clip-path="url(#pca2cd5f693)" style="fill: none; stroke: #0000ff; stroke-width: 5; stroke-linecap: square"/>
   </g>
   <g id="patch_3">
    <path d="M 57.5625 307.05 
L 57.5625 41.4 
" style="fill: none; stroke: #000000; stroke-width: 0.8; stroke-linejoin: miter; stroke-linecap: square"/>
   </g>
   <g id="patch_4">
    <path d="M 414.45 307.05 
L 414.45 41.4 
" style="fill: none; stroke: #000000; stroke-width: 0.8; stroke-linejoin: miter; stroke-linecap: square"/>
   </g>
   <g id="patch_5">
    <path d="M 57.5625 307.05 
L 414.45 307.05 
" style="fill: none; stroke: #000000; stroke-width: 0.8; stroke-linejoin: miter; stroke-linecap: square"/>
   </g>
   <g id="patch_6">
    <path d="M 57.5625 41.4 
L 414.45 41.4 
" style="fill: none; stroke: #000000; stroke-width: 0.8; stroke-linejoin: miter; stroke-linecap: square"/>
   </g>
   <g id="legend_1">
    <g id="patch_7">
     <path d="M 348.6875 93.434375 
L 407.45 93.434375 
Q 409.45 93.434375 409.45 91.434375 
L 409.45 48.4 
Q 409.45 46.4 407.45 46.4 
L 348.6875 46.4 
Q 346.6875 46.4 346.6875 48.4 
L 346.6875 91.434375 
Q 346.6875 93.434375 348.6875 93.434375 
z
" style="fill: #ffffff; opacity: 0.8; stroke: #cccccc; stroke-linejoin: miter"/>
    </g>
    <g id="line2d_17">
     <path d="M 350.6875 54.498437 
L 360.6875 54.498437 
L 370.6875 54.498437 
" style="fill: none; stroke: #800080; stroke-width: 5; stroke-linecap: square"/>
    </g>
    <g id="text_16">
     <!-- Car 0 -->
     <g transform="translate(378.6875 57.998437)scale(0.1 -0.1)">
      <defs>
       <path id="DejaVuSans-43" d="M 4122 4306 
L 4122 3641 
Q 3803 3938 3442 4084 
Q 3081 4231 2675 4231 
Q 1875 4231 1450 3742 
Q 1025 3253 1025 2328 
Q 1025 1406 1450 917 
Q 1875 428 2675 428 
Q 3081 428 3442 575 
Q 3803 722 4122 1019 
L 4122 359 
Q 3791 134 3420 21 
Q 3050 -91 2638 -91 
Q 1578 -91 968 557 
Q 359 1206 359 2328 
Q 359 3453 968 4101 
Q 1578 4750 2638 4750 
Q 3056 4750 3426 4639 
Q 3797 4528 4122 4306 
z
" transform="scale(0.015625)"/>
       <path id="DejaVuSans-61" d="M 2194 1759 
Q 1497 1759 1228 1600 
Q 959 1441 959 1056 
Q 959 750 1161 570 
Q 1363 391 1709 391 
Q 2188 391 2477 730 
Q 2766 1069 2766 1631 
L 2766 1759 
L 2194 1759 
z
M 3341 1997 
L 3341 0 
L 2766 0 
L 2766 531 
Q 2569 213 2275 61 
Q 1981 -91 1556 -91 
Q 1019 -91 701 211 
Q 384 513 384 1019 
Q 384 1609 779 1909 
Q 1175 2209 1959 2209 
L 2766 2209 
L 2766 2266 
Q 2766 2663 2505 2880 
Q 2244 3097 1772 3097 
Q 1472 3097 1187 3025 
Q 903 2953 641 2809 
L 641 3341 
Q 956 3463 1253 3523 
Q 1550 3584 1831 3584 
Q 2591 3584 2966 3190 
Q 3341 2797 3341 1997 
z
" transform="scale(0.015625)"/>
      </defs>
      <use xlink:href="#DejaVuSans-43"/>
      <use xlink:href="#DejaVuSans-61" x="69.824219"/>
      <use xlink:href="#DejaVuSans-72" x="131.103516"/>
      <use xlink:href="#DejaVuSans-20" x="172.216797"/>
      <use xlink:href="#DejaVuSans-30" x="204.003906"/>
     </g>
    </g>
    <g id="line2d_18">
     <path d="M 350.6875 69.176562 
L 360.6875 69.176562 
L 370.6875 69.176562 
" style="fill: none; stroke: #ff0000; stroke-width: 5; stroke-linecap: square"/>
    </g>
    <g id="text_17">
     <!-- Car 1 -->
     <g transform="translate(378.6875 72.676562)scale(0.1 -0.1)">
      <use xlink:href="#DejaVuSans-43"/>
      <use xlink:href="#DejaVuSans-61" x="69.824219"/>
      <use xlink:href="#DejaVuSans-72" x="131.103516"/>
      <use xlink:href="#DejaVuSans-20" x="172.216797"/>
      <use xlink:href="#DejaVuSans-31" x="204.003906"/>
     </g>
    </g>
    <g id="line2d_19">
     <path d="M 350.6875 83.854687 
L 360.6875 83.854687 
L 370.6875 83.854687 
" style="fill: none; stroke: #0000ff; stroke-width: 5; stroke-linecap: square"/>
    </g>
    <g id="text_18">
     <!-- Car 2 -->
     <g transform="translate(378.6875 87.354687)scale(0.1 -0.1)">
      <use xlink:href="#DejaVuSans-43"/>
      <use xlink:href="#DejaVuSans-61" x="69.824219"/>
      <use xlink:href="#DejaVuSans-72" x="131.103516"/>
      <use xlink:href="#DejaVuSans-20" x="172.216797"/>
      <use xlink:href="#DejaVuSans-32" x="204.003906"/>
     </g>
    </g>
   </g>
  </g>
 </g>
 <defs>
  <clipPath id="pca2cd5f693">
   <rect x="57.5625" y="41.4" width="356.8875" height="265.65"/>
  </clipPath>
 </defs>
</svg>
