<?xml version="1.0" encoding="utf-8" standalone="no"?>
<!DOCTYPE svg PUBLIC "-//W3C//DTD SVG 1.1//EN"
  "http://www.w3.org/Graphics/SVG/1.1/DTD/svg11.dtd">
<svg xmlns:xlink="http://www.w3.org/1999/xlink" width="1387.5pt" height="750.75pt" viewBox="0 0 1387.5 750.75" xmlns="http://www.w3.org/2000/svg" version="1.1">
 <metadata>
  <rdf:RDF xmlns:dc="http://purl.org/dc/elements/1.1/" xmlns:cc="http://creativecommons.org/ns#" xmlns:rdf="http://www.w3.org/1999/02/22-rdf-syntax-ns#">
   <cc:Work>
    <dc:type rdf:resource="http://purl.org/dc/dcmitype/StillImage"/>
    <dc:date>2024-07-22T12:29:21.530080</dc:date>
    <dc:format>image/svg+xml</dc:format>
    <dc:creator>
     <cc:Agent>
      <dc:title>Matplotlib v3.5.1, https://matplotlib.org/</dc:title>
     </cc:Agent>
    </dc:creator>
   </cc:Work>
  </rdf:RDF>
 </metadata>
 <defs>
  <style type="text/css">*{stroke-linejoin: round; stroke-linecap: butt}</style>
 </defs>
 <g id="figure_1">
  <g id="patch_1">
   <path d="M 0 750.75 
L 1387.5 750.75 
L 1387.5 0 
L 0 0 
z
" style="fill: #ffffff"/>
  </g>
  <g id="axes_1">
   <g id="patch_2">
    <path d="M 173.4375 668.1675 
L 1248.75 668.1675 
L 1248.75 90.09 
L 173.4375 90.09 
z
" style="fill: #ffffff"/>
   </g>
   <g id="matplotlib.axis_1">
    <g id="xtick_1">
     <g id="line2d_1">
      <defs>
       <path id="mf8ee0422cf" d="M 0 0 
L 0 3.5 
" style="stroke: #000000; stroke-width: 0.8"/>
      </defs>
      <g>
       <use xlink:href="#mf8ee0422cf" x="222.315341" y="668.1675" style="stroke: #000000; stroke-width: 0.8"/>
      </g>
     </g>
     <g id="text_1">
      <!-- 0 -->
      <g transform="translate(219.134091 682.765938)scale(0.1 -0.1)">
       <defs>
        <path id="DejaVuSans-30" d="M 2034 4250 
Q 1547 4250 1301 3770 
Q 1056 3291 1056 2328 
Q 1056 1369 1301 889 
Q 1547 409 2034 409 
Q 2525 409 2770 889 
Q 3016 1369 3016 2328 
Q 3016 3291 2770 3770 
Q 2525 4250 2034 4250 
z
M 2034 4750 
Q 2819 4750 3233 4129 
Q 3647 3509 3647 2328 
Q 3647 1150 3233 529 
Q 2819 -91 2034 -91 
Q 1250 -91 836 529 
Q 422 1150 422 2328 
Q 422 3509 836 4129 
Q 1250 4750 2034 4750 
z
" transform="scale(0.015625)"/>
       </defs>
       <use xlink:href="#DejaVuSans-30"/>
      </g>
     </g>
    </g>
    <g id="xtick_2">
     <g id="line2d_2">
      <g>
       <use xlink:href="#mf8ee0422cf" x="382.63273" y="668.1675" style="stroke: #000000; stroke-width: 0.8"/>
      </g>
     </g>
     <g id="text_2">
      <!-- 50 -->
      <g transform="translate(376.27023 682.765938)scale(0.1 -0.1)">
       <defs>
        <path id="DejaVuSans-35" d="M 691 4666 
L 3169 4666 
L 3169 4134 
L 1269 4134 
L 1269 2991 
Q 1406 3038 1543 3061 
Q 1681 3084 1819 3084 
Q 2600 3084 3056 2656 
Q 3513 2228 3513 1497 
Q 3513 744 3044 326 
Q 2575 -91 1722 -91 
Q 1428 -91 1123 -41 
Q 819 9 494 109 
L 494 744 
Q 775 591 1075 516 
Q 1375 441 1709 441 
Q 2250 441 2565 725 
Q 2881 1009 2881 1497 
Q 2881 1984 2565 2268 
Q 2250 2553 1709 2553 
Q 1456 2553 1204 2497 
Q 953 2441 691 2322 
L 691 4666 
z
" transform="scale(0.015625)"/>
       </defs>
       <use xlink:href="#DejaVuSans-35"/>
       <use xlink:href="#DejaVuSans-30" x="63.623047"/>
      </g>
     </g>
    </g>
    <g id="xtick_3">
     <g id="line2d_3">
      <g>
       <use xlink:href="#mf8ee0422cf" x="542.95012" y="668.1675" style="stroke: #000000; stroke-width: 0.8"/>
      </g>
     </g>
     <g id="text_3">
      <!-- 100 -->
      <g transform="translate(533.40637 682.765938)scale(0.1 -0.1)">
       <defs>
        <path id="DejaVuSans-31" d="M 794 531 
L 1825 531 
L 1825 4091 
L 703 3866 
L 703 4441 
L 1819 4666 
L 2450 4666 
L 2450 531 
L 3481 531 
L 3481 0 
L 794 0 
L 794 531 
z
" transform="scale(0.015625)"/>
       </defs>
       <use xlink:href="#DejaVuSans-31"/>
       <use xlink:href="#DejaVuSans-30" x="63.623047"/>
       <use xlink:href="#DejaVuSans-30" x="127.246094"/>
      </g>
     </g>
    </g>
    <g id="xtick_4">
     <g id="line2d_4">
      <g>
       <use xlink:href="#mf8ee0422cf" x="703.267509" y="668.1675" style="stroke: #000000; stroke-width: 0.8"/>
      </g>
     </g>
     <g id="text_4">
      <!-- 150 -->
      <g transform="translate(693.723759 682.765938)scale(0.1 -0.1)">
       <use xlink:href="#DejaVuSans-31"/>
       <use xlink:href="#DejaVuSans-35" x="63.623047"/>
       <use xlink:href="#DejaVuSans-30" x="127.246094"/>
      </g>
     </g>
    </g>
    <g id="xtick_5">
     <g id="line2d_5">
      <g>
       <use xlink:href="#mf8ee0422cf" x="863.584898" y="668.1675" style="stroke: #000000; stroke-width: 0.8"/>
      </g>
     </g>
     <g id="text_5">
      <!-- 200 -->
      <g transform="translate(854.041148 682.765938)scale(0.1 -0.1)">
       <defs>
        <path id="DejaVuSans-32" d="M 1228 531 
L 3431 531 
L 3431 0 
L 469 0 
L 469 531 
Q 828 903 1448 1529 
Q 2069 2156 2228 2338 
Q 2531 2678 2651 2914 
Q 2772 3150 2772 3378 
Q 2772 3750 2511 3984 
Q 2250 4219 1831 4219 
Q 1534 4219 1204 4116 
Q 875 4013 500 3803 
L 500 4441 
Q 881 4594 1212 4672 
Q 1544 4750 1819 4750 
Q 2544 4750 2975 4387 
Q 3406 4025 3406 3419 
Q 3406 3131 3298 2873 
Q 3191 2616 2906 2266 
Q 2828 2175 2409 1742 
Q 1991 1309 1228 531 
z
" transform="scale(0.015625)"/>
       </defs>
       <use xlink:href="#DejaVuSans-32"/>
       <use xlink:href="#DejaVuSans-30" x="63.623047"/>
       <use xlink:href="#DejaVuSans-30" x="127.246094"/>
      </g>
     </g>
    </g>
    <g id="xtick_6">
     <g id="line2d_6">
      <g>
       <use xlink:href="#mf8ee0422cf" x="1023.902287" y="668.1675" style="stroke: #000000; stroke-width: 0.8"/>
      </g>
     </g>
     <g id="text_6">
      <!-- 250 -->
      <g transform="translate(1014.358537 682.765938)scale(0.1 -0.1)">
       <use xlink:href="#DejaVuSans-32"/>
       <use xlink:href="#DejaVuSans-35" x="63.623047"/>
       <use xlink:href="#DejaVuSans-30" x="127.246094"/>
      </g>
     </g>
    </g>
    <g id="xtick_7">
     <g id="line2d_7">
      <g>
       <use xlink:href="#mf8ee0422cf" x="1184.219677" y="668.1675" style="stroke: #000000; stroke-width: 0.8"/>
      </g>
     </g>
     <g id="text_7">
      <!-- 300 -->
      <g transform="translate(1174.675927 682.765938)scale(0.1 -0.1)">
       <defs>
        <path id="DejaVuSans-33" d="M 2597 2516 
Q 3050 2419 3304 2112 
Q 3559 1806 3559 1356 
Q 3559 666 3084 287 
Q 2609 -91 1734 -91 
Q 1441 -91 1130 -33 
Q 819 25 488 141 
L 488 750 
Q 750 597 1062 519 
Q 1375 441 1716 441 
Q 2309 441 2620 675 
Q 2931 909 2931 1356 
Q 2931 1769 2642 2001 
Q 2353 2234 1838 2234 
L 1294 2234 
L 1294 2753 
L 1863 2753 
Q 2328 2753 2575 2939 
Q 2822 3125 2822 3475 
Q 2822 3834 2567 4026 
Q 2313 4219 1838 4219 
Q 1578 4219 1281 4162 
Q 984 4106 628 3988 
L 628 4550 
Q 988 4650 1302 4700 
Q 1616 4750 1894 4750 
Q 2613 4750 3031 4423 
Q 3450 4097 3450 3541 
Q 3450 3153 3228 2886 
Q 3006 2619 2597 2516 
z
" transform="scale(0.015625)"/>
       </defs>
       <use xlink:href="#DejaVuSans-33"/>
       <use xlink:href="#DejaVuSans-30" x="63.623047"/>
       <use xlink:href="#DejaVuSans-30" x="127.246094"/>
      </g>
     </g>
    </g>
    <g id="text_8">
     <!-- Time (s) -->
     <g transform="translate(690.764844 696.444062)scale(0.1 -0.1)">
      <defs>
       <path id="DejaVuSans-54" d="M -19 4666 
L 3928 4666 
L 3928 4134 
L 2272 4134 
L 2272 0 
L 1638 0 
L 1638 4134 
L -19 4134 
L -19 4666 
z
" transform="scale(0.015625)"/>
       <path id="DejaVuSans-69" d="M 603 3500 
L 1178 3500 
L 1178 0 
L 603 0 
L 603 3500 
z
M 603 4863 
L 1178 4863 
L 1178 4134 
L 603 4134 
L 603 4863 
z
" transform="scale(0.015625)"/>
       <path id="DejaVuSans-6d" d="M 3328 2828 
Q 3544 3216 3844 3400 
Q 4144 3584 4550 3584 
Q 5097 3584 5394 3201 
Q 5691 2819 5691 2113 
L 5691 0 
L 5113 0 
L 5113 2094 
Q 5113 2597 4934 2840 
Q 4756 3084 4391 3084 
Q 3944 3084 3684 2787 
Q 3425 2491 3425 1978 
L 3425 0 
L 2847 0 
L 2847 2094 
Q 2847 2600 2669 2842 
Q 2491 3084 2119 3084 
Q 1678 3084 1418 2786 
Q 1159 2488 1159 1978 
L 1159 0 
L 581 0 
L 581 3500 
L 1159 3500 
L 1159 2956 
Q 1356 3278 1631 3431 
Q 1906 3584 2284 3584 
Q 2666 3584 2933 3390 
Q 3200 3197 3328 2828 
z
" transform="scale(0.015625)"/>
       <path id="DejaVuSans-65" d="M 3597 1894 
L 3597 1613 
L 953 1613 
Q 991 1019 1311 708 
Q 1631 397 2203 397 
Q 2534 397 2845 478 
Q 3156 559 3463 722 
L 3463 178 
Q 3153 47 2828 -22 
Q 2503 -91 2169 -91 
Q 1331 -91 842 396 
Q 353 884 353 1716 
Q 353 2575 817 3079 
Q 1281 3584 2069 3584 
Q 2775 3584 3186 3129 
Q 3597 2675 3597 1894 
z
M 3022 2063 
Q 3016 2534 2758 2815 
Q 2500 3097 2075 3097 
Q 1594 3097 1305 2825 
Q 1016 2553 972 2059 
L 3022 2063 
z
" transform="scale(0.015625)"/>
       <path id="DejaVuSans-20" transform="scale(0.015625)"/>
       <path id="DejaVuSans-28" d="M 1984 4856 
Q 1566 4138 1362 3434 
Q 1159 2731 1159 2009 
Q 1159 1288 1364 580 
Q 1569 -128 1984 -844 
L 1484 -844 
Q 1016 -109 783 600 
Q 550 1309 550 2009 
Q 550 2706 781 3412 
Q 1013 4119 1484 4856 
L 1984 4856 
z
" transform="scale(0.015625)"/>
       <path id="DejaVuSans-73" d="M 2834 3397 
L 2834 2853 
Q 2591 2978 2328 3040 
Q 2066 3103 1784 3103 
Q 1356 3103 1142 2972 
Q 928 2841 928 2578 
Q 928 2378 1081 2264 
Q 1234 2150 1697 2047 
L 1894 2003 
Q 2506 1872 2764 1633 
Q 3022 1394 3022 966 
Q 3022 478 2636 193 
Q 2250 -91 1575 -91 
Q 1294 -91 989 -36 
Q 684 19 347 128 
L 347 722 
Q 666 556 975 473 
Q 1284 391 1588 391 
Q 1994 391 2212 530 
Q 2431 669 2431 922 
Q 2431 1156 2273 1281 
Q 2116 1406 1581 1522 
L 1381 1569 
Q 847 1681 609 1914 
Q 372 2147 372 2553 
Q 372 3047 722 3315 
Q 1072 3584 1716 3584 
Q 2034 3584 2315 3537 
Q 2597 3491 2834 3397 
z
" transform="scale(0.015625)"/>
       <path id="DejaVuSans-29" d="M 513 4856 
L 1013 4856 
Q 1481 4119 1714 3412 
Q 1947 2706 1947 2009 
Q 1947 1309 1714 600 
Q 1481 -109 1013 -844 
L 513 -844 
Q 928 -128 1133 580 
Q 1338 1288 1338 2009 
Q 1338 2731 1133 3434 
Q 928 4138 513 4856 
z
" transform="scale(0.015625)"/>
      </defs>
      <use xlink:href="#DejaVuSans-54"/>
      <use xlink:href="#DejaVuSans-69" x="57.958984"/>
      <use xlink:href="#DejaVuSans-6d" x="85.742188"/>
      <use xlink:href="#DejaVuSans-65" x="183.154297"/>
      <use xlink:href="#DejaVuSans-20" x="244.677734"/>
      <use xlink:href="#DejaVuSans-28" x="276.464844"/>
      <use xlink:href="#DejaVuSans-73" x="315.478516"/>
      <use xlink:href="#DejaVuSans-29" x="367.578125"/>
     </g>
    </g>
   </g>
   <g id="matplotlib.axis_2">
    <g id="ytick_1">
     <g id="line2d_8">
      <defs>
       <path id="mb76814982c" d="M 0 0 
L -3.5 0 
" style="stroke: #000000; stroke-width: 0.8"/>
      </defs>
      <g>
       <use xlink:href="#mb76814982c" x="173.4375" y="641.89125" style="stroke: #000000; stroke-width: 0.8"/>
      </g>
     </g>
     <g id="text_9">
      <!-- 0 -->
      <g transform="translate(160.075 645.690469)scale(0.1 -0.1)">
       <use xlink:href="#DejaVuSans-30"/>
      </g>
     </g>
    </g>
    <g id="ytick_2">
     <g id="line2d_9">
      <g>
       <use xlink:href="#mb76814982c" x="173.4375" y="574.031097" style="stroke: #000000; stroke-width: 0.8"/>
      </g>
     </g>
     <g id="text_10">
      <!-- 5000 -->
      <g transform="translate(140.9875 577.830315)scale(0.1 -0.1)">
       <use xlink:href="#DejaVuSans-35"/>
       <use xlink:href="#DejaVuSans-30" x="63.623047"/>
       <use xlink:href="#DejaVuSans-30" x="127.246094"/>
       <use xlink:href="#DejaVuSans-30" x="190.869141"/>
      </g>
     </g>
    </g>
    <g id="ytick_3">
     <g id="line2d_10">
      <g>
       <use xlink:href="#mb76814982c" x="173.4375" y="506.170943" style="stroke: #000000; stroke-width: 0.8"/>
      </g>
     </g>
     <g id="text_11">
      <!-- 10000 -->
      <g transform="translate(134.625 509.970162)scale(0.1 -0.1)">
       <use xlink:href="#DejaVuSans-31"/>
       <use xlink:href="#DejaVuSans-30" x="63.623047"/>
       <use xlink:href="#DejaVuSans-30" x="127.246094"/>
       <use xlink:href="#DejaVuSans-30" x="190.869141"/>
       <use xlink:href="#DejaVuSans-30" x="254.492188"/>
      </g>
     </g>
    </g>
    <g id="ytick_4">
     <g id="line2d_11">
      <g>
       <use xlink:href="#mb76814982c" x="173.4375" y="438.31079" style="stroke: #000000; stroke-width: 0.8"/>
      </g>
     </g>
     <g id="text_12">
      <!-- 15000 -->
      <g transform="translate(134.625 442.110009)scale(0.1 -0.1)">
       <use xlink:href="#DejaVuSans-31"/>
       <use xlink:href="#DejaVuSans-35" x="63.623047"/>
       <use xlink:href="#DejaVuSans-30" x="127.246094"/>
       <use xlink:href="#DejaVuSans-30" x="190.869141"/>
       <use xlink:href="#DejaVuSans-30" x="254.492188"/>
      </g>
     </g>
    </g>
    <g id="ytick_5">
     <g id="line2d_12">
      <g>
       <use xlink:href="#mb76814982c" x="173.4375" y="370.450637" style="stroke: #000000; stroke-width: 0.8"/>
      </g>
     </g>
     <g id="text_13">
      <!-- 20000 -->
      <g transform="translate(134.625 374.249855)scale(0.1 -0.1)">
       <use xlink:href="#DejaVuSans-32"/>
       <use xlink:href="#DejaVuSans-30" x="63.623047"/>
       <use xlink:href="#DejaVuSans-30" x="127.246094"/>
       <use xlink:href="#DejaVuSans-30" x="190.869141"/>
       <use xlink:href="#DejaVuSans-30" x="254.492188"/>
      </g>
     </g>
    </g>
    <g id="ytick_6">
     <g id="line2d_13">
      <g>
       <use xlink:href="#mb76814982c" x="173.4375" y="302.590483" style="stroke: #000000; stroke-width: 0.8"/>
      </g>
     </g>
     <g id="text_14">
      <!-- 25000 -->
      <g transform="translate(134.625 306.389702)scale(0.1 -0.1)">
       <use xlink:href="#DejaVuSans-32"/>
       <use xlink:href="#DejaVuSans-35" x="63.623047"/>
       <use xlink:href="#DejaVuSans-30" x="127.246094"/>
       <use xlink:href="#DejaVuSans-30" x="190.869141"/>
       <use xlink:href="#DejaVuSans-30" x="254.492188"/>
      </g>
     </g>
    </g>
    <g id="ytick_7">
     <g id="line2d_14">
      <g>
       <use xlink:href="#mb76814982c" x="173.4375" y="234.73033" style="stroke: #000000; stroke-width: 0.8"/>
      </g>
     </g>
     <g id="text_15">
      <!-- 30000 -->
      <g transform="translate(134.625 238.529549)scale(0.1 -0.1)">
       <use xlink:href="#DejaVuSans-33"/>
       <use xlink:href="#DejaVuSans-30" x="63.623047"/>
       <use xlink:href="#DejaVuSans-30" x="127.246094"/>
       <use xlink:href="#DejaVuSans-30" x="190.869141"/>
       <use xlink:href="#DejaVuSans-30" x="254.492188"/>
      </g>
     </g>
    </g>
    <g id="ytick_8">
     <g id="line2d_15">
      <g>
       <use xlink:href="#mb76814982c" x="173.4375" y="166.870177" style="stroke: #000000; stroke-width: 0.8"/>
      </g>
     </g>
     <g id="text_16">
      <!-- 35000 -->
      <g transform="translate(134.625 170.669395)scale(0.1 -0.1)">
       <use xlink:href="#DejaVuSans-33"/>
       <use xlink:href="#DejaVuSans-35" x="63.623047"/>
       <use xlink:href="#DejaVuSans-30" x="127.246094"/>
       <use xlink:href="#DejaVuSans-30" x="190.869141"/>
       <use xlink:href="#DejaVuSans-30" x="254.492188"/>
      </g>
     </g>
    </g>
    <g id="ytick_9">
     <g id="line2d_16">
      <g>
       <use xlink:href="#mb76814982c" x="173.4375" y="99.010023" style="stroke: #000000; stroke-width: 0.8"/>
      </g>
     </g>
     <g id="text_17">
      <!-- 40000 -->
      <g transform="translate(134.625 102.809242)scale(0.1 -0.1)">
       <defs>
        <path id="DejaVuSans-34" d="M 2419 4116 
L 825 1625 
L 2419 1625 
L 2419 4116 
z
M 2253 4666 
L 3047 4666 
L 3047 1625 
L 3713 1625 
L 3713 1100 
L 3047 1100 
L 3047 0 
L 2419 0 
L 2419 1100 
L 313 1100 
L 313 1709 
L 2253 4666 
z
" transform="scale(0.015625)"/>
       </defs>
       <use xlink:href="#DejaVuSans-34"/>
       <use xlink:href="#DejaVuSans-30" x="63.623047"/>
       <use xlink:href="#DejaVuSans-30" x="127.246094"/>
       <use xlink:href="#DejaVuSans-30" x="190.869141"/>
       <use xlink:href="#DejaVuSans-30" x="254.492188"/>
      </g>
     </g>
    </g>
    <g id="text_18">
     <!-- Trust Score -->
     <g transform="translate(128.545312 406.825625)rotate(-90)scale(0.1 -0.1)">
      <defs>
       <path id="DejaVuSans-72" d="M 2631 2963 
Q 2534 3019 2420 3045 
Q 2306 3072 2169 3072 
Q 1681 3072 1420 2755 
Q 1159 2438 1159 1844 
L 1159 0 
L 581 0 
L 581 3500 
L 1159 3500 
L 1159 2956 
Q 1341 3275 1631 3429 
Q 1922 3584 2338 3584 
Q 2397 3584 2469 3576 
Q 2541 3569 2628 3553 
L 2631 2963 
z
" transform="scale(0.015625)"/>
       <path id="DejaVuSans-75" d="M 544 1381 
L 544 3500 
L 1119 3500 
L 1119 1403 
Q 1119 906 1312 657 
Q 1506 409 1894 409 
Q 2359 409 2629 706 
Q 2900 1003 2900 1516 
L 2900 3500 
L 3475 3500 
L 3475 0 
L 2900 0 
L 2900 538 
Q 2691 219 2414 64 
Q 2138 -91 1772 -91 
Q 1169 -91 856 284 
Q 544 659 544 1381 
z
M 1991 3584 
L 1991 3584 
z
" transform="scale(0.015625)"/>
       <path id="DejaVuSans-74" d="M 1172 4494 
L 1172 3500 
L 2356 3500 
L 2356 3053 
L 1172 3053 
L 1172 1153 
Q 1172 725 1289 603 
Q 1406 481 1766 481 
L 2356 481 
L 2356 0 
L 1766 0 
Q 1100 0 847 248 
Q 594 497 594 1153 
L 594 3053 
L 172 3053 
L 172 3500 
L 594 3500 
L 594 4494 
L 1172 4494 
z
" transform="scale(0.015625)"/>
       <path id="DejaVuSans-53" d="M 3425 4513 
L 3425 3897 
Q 3066 4069 2747 4153 
Q 2428 4238 2131 4238 
Q 1616 4238 1336 4038 
Q 1056 3838 1056 3469 
Q 1056 3159 1242 3001 
Q 1428 2844 1947 2747 
L 2328 2669 
Q 3034 2534 3370 2195 
Q 3706 1856 3706 1288 
Q 3706 609 3251 259 
Q 2797 -91 1919 -91 
Q 1588 -91 1214 -16 
Q 841 59 441 206 
L 441 856 
Q 825 641 1194 531 
Q 1563 422 1919 422 
Q 2459 422 2753 634 
Q 3047 847 3047 1241 
Q 3047 1584 2836 1778 
Q 2625 1972 2144 2069 
L 1759 2144 
Q 1053 2284 737 2584 
Q 422 2884 422 3419 
Q 422 4038 858 4394 
Q 1294 4750 2059 4750 
Q 2388 4750 2728 4690 
Q 3069 4631 3425 4513 
z
" transform="scale(0.015625)"/>
       <path id="DejaVuSans-63" d="M 3122 3366 
L 3122 2828 
Q 2878 2963 2633 3030 
Q 2388 3097 2138 3097 
Q 1578 3097 1268 2742 
Q 959 2388 959 1747 
Q 959 1106 1268 751 
Q 1578 397 2138 397 
Q 2388 397 2633 464 
Q 2878 531 3122 666 
L 3122 134 
Q 2881 22 2623 -34 
Q 2366 -91 2075 -91 
Q 1284 -91 818 406 
Q 353 903 353 1747 
Q 353 2603 823 3093 
Q 1294 3584 2113 3584 
Q 2378 3584 2631 3529 
Q 2884 3475 3122 3366 
z
" transform="scale(0.015625)"/>
       <path id="DejaVuSans-6f" d="M 1959 3097 
Q 1497 3097 1228 2736 
Q 959 2375 959 1747 
Q 959 1119 1226 758 
Q 1494 397 1959 397 
Q 2419 397 2687 759 
Q 2956 1122 2956 1747 
Q 2956 2369 2687 2733 
Q 2419 3097 1959 3097 
z
M 1959 3584 
Q 2709 3584 3137 3096 
Q 3566 2609 3566 1747 
Q 3566 888 3137 398 
Q 2709 -91 1959 -91 
Q 1206 -91 779 398 
Q 353 888 353 1747 
Q 353 2609 779 3096 
Q 1206 3584 1959 3584 
z
" transform="scale(0.015625)"/>
      </defs>
      <use xlink:href="#DejaVuSans-54"/>
      <use xlink:href="#DejaVuSans-72" x="46.333984"/>
      <use xlink:href="#DejaVuSans-75" x="87.447266"/>
      <use xlink:href="#DejaVuSans-73" x="150.826172"/>
      <use xlink:href="#DejaVuSans-74" x="202.925781"/>
      <use xlink:href="#DejaVuSans-20" x="242.134766"/>
      <use xlink:href="#DejaVuSans-53" x="273.921875"/>
      <use xlink:href="#DejaVuSans-63" x="337.398438"/>
      <use xlink:href="#DejaVuSans-6f" x="392.378906"/>
      <use xlink:href="#DejaVuSans-72" x="453.560547"/>
      <use xlink:href="#DejaVuSans-65" x="492.423828"/>
     </g>
    </g>
   </g>
   <g id="line2d_17">
    <path d="M 222.315341 641.89125 
L 247.464751 641.781029 
L 248.470898 641.498895 
L 249.115647 641.130565 
L 249.728635 640.560452 
L 250.526835 639.401021 
L 251.000026 638.400447 
L 251.994414 635.545524 
L 252.278114 634.273796 
L 252.89594 632.581557 
L 253.455628 630.509117 
L 254.212105 626.454873 
L 255.338866 618.711894 
L 256.17887 610.8725 
L 256.964799 600.946131 
L 257.753622 589.093349 
L 258.029039 584.663855 
L 259.751637 582.20242 
L 260.278392 579.440356 
L 260.545303 578.681654 
L 260.811752 578.316975 
L 261.077368 578.151841 
L 261.608793 578.301699 
L 262.403262 579.051411 
L 263.208071 579.789446 
L 263.750465 579.864445 
L 264.019804 579.615026 
L 264.280264 579.198006 
L 264.79173 577.553291 
L 265.337009 574.675088 
L 265.901033 570.209987 
L 266.455074 564.199904 
L 267.592538 548.699636 
L 268.738828 540.560687 
L 269.376437 538.133686 
L 269.673692 537.621709 
L 269.963855 537.475188 
L 270.248923 537.513869 
L 270.547262 537.731153 
L 273.640365 541.697536 
L 274.198938 542.868809 
L 275.110098 545.787817 
L 276.093671 549.980965 
L 280.912587 576.956261 
L 282.791443 588.13001 
L 283.586853 591.732052 
L 284.40224 594.140594 
L 284.940748 595.072451 
L 285.216838 595.333482 
L 285.900258 595.490815 
L 286.477442 595.174878 
L 287.329033 594.069891 
L 288.44996 592.329946 
L 288.717723 592.583204 
L 288.984502 593.18002 
L 289.248023 594.155408 
L 289.761326 597.536654 
L 290.532415 605.268965 
L 292.068376 622.912805 
L 292.576346 627.012279 
L 293.092884 629.74663 
L 293.358541 630.699201 
L 293.982964 631.682421 
L 294.23509 631.816485 
L 294.499326 631.746315 
L 295.016681 631.244233 
L 297.377333 628.02629 
L 297.891933 627.927339 
L 298.660018 628.1505 
L 299.188006 628.260195 
L 299.723716 628.163107 
L 300.245124 627.849946 
L 302.510552 626.136521 
L 303.05598 625.93389 
L 303.855316 625.921402 
L 304.654192 626.00931 
L 305.455364 625.873321 
L 306.265032 625.494115 
L 307.859644 624.64317 
L 308.656177 624.446173 
L 311.310723 624.33694 
L 314.977727 623.49708 
L 316.975714 623.330817 
L 319.129568 622.896106 
L 322.011669 622.52154 
L 323.145997 622.151389 
L 325.420477 621.919342 
L 327.243239 620.471301 
L 327.813621 620.365769 
L 328.706279 620.526868 
L 330.705579 620.383591 
L 332.44154 619.838683 
L 333.30864 619.929167 
L 334.164253 620.257373 
L 335.33258 621.048707 
L 338.04364 623.346187 
L 339.483676 624.621949 
L 340.621964 625.91662 
L 342.052523 627.986321 
L 343.476776 629.972058 
L 344.731057 631.315981 
L 348.80035 635.690188 
L 350.238616 636.686479 
L 352.848897 638.02433 
L 354.097552 638.554543 
L 355.748915 639.133934 
L 357.36777 639.369512 
L 358.722611 639.353889 
L 359.26621 639.166672 
L 360.080154 638.488067 
L 360.893591 637.405132 
L 362.088819 635.190841 
L 362.914607 632.962392 
L 364.276099 628.360853 
L 366.762822 619.270049 
L 368.710087 613.559563 
L 369.799596 610.910012 
L 371.049942 608.720051 
L 372.150456 607.03674 
L 372.961386 606.133902 
L 373.803922 605.565754 
L 374.617388 605.300304 
L 375.44721 605.303919 
L 376.001294 605.479057 
L 376.860282 606.015307 
L 377.968726 607.142149 
L 380.640893 610.500691 
L 382.861074 613.74677 
L 384.264136 616.153702 
L 385.657597 618.298686 
L 386.791515 619.561043 
L 388.095092 620.243093 
L 389.506144 620.546567 
L 391.197854 620.693822 
L 393.466536 620.693657 
L 395.147685 620.859538 
L 396.978594 621.016251 
L 398.385787 620.836831 
L 400.616977 620.282288 
L 401.730207 620.437088 
L 403.949839 621.000063 
L 406.615383 621.079468 
L 408.88577 621.336862 
L 410.041005 621.137715 
L 412.66557 620.679984 
L 414.531076 620.79606 
L 417.392019 620.981282 
L 422.109115 620.519664 
L 423.000861 620.070936 
L 424.433855 618.817242 
L 431.189297 612.471783 
L 435.500453 608.947882 
L 436.63562 608.389764 
L 437.777368 608.05646 
L 440.531253 607.606244 
L 441.982587 607.692311 
L 443.72689 608.145525 
L 444.90301 608.59411 
L 445.764946 609.197683 
L 446.929988 610.450609 
L 448.226253 612.155316 
L 449.999771 615.038834 
L 450.894764 616.15226 
L 452.060157 617.106726 
L 453.515331 618.01789 
L 454.709032 618.431632 
L 455.873906 618.424329 
L 458.060337 618.15967 
L 459.814013 618.252804 
L 462.730256 618.55949 
L 464.189073 618.779826 
L 466.958015 618.940285 
L 469.917489 619.114768 
L 471.977685 618.852568 
L 474.042022 618.990646 
L 476.245784 619.210589 
L 478.579819 619.504968 
L 481.235678 619.580888 
L 484.889512 619.462559 
L 485.458335 619.702138 
L 486.319745 620.370029 
L 488.022823 622.40266 
L 490.000557 625.034334 
L 497.466315 633.808918 
L 499.434708 635.881854 
L 500.822911 637.078309 
L 501.784729 637.767438 
L 504.01269 639.322635 
L 505.393129 639.971364 
L 507.044436 640.4767 
L 508.981935 640.756573 
L 511.352926 640.846171 
L 514.689018 640.784097 
L 516.906381 640.501959 
L 520.913332 639.91994 
L 522.863042 639.943196 
L 525.365617 640.262502 
L 529.437957 640.820887 
L 531.136123 640.833817 
L 533.406432 640.580932 
L 536.704023 640.188632 
L 538.698041 640.06202 
L 539.270357 639.8142 
L 539.839909 639.344781 
L 540.4109 638.661887 
L 541.258786 637.17841 
L 542.106222 635.180997 
L 543.230494 631.695295 
L 547.049734 618.950098 
L 548.177726 615.974915 
L 549.322428 613.550916 
L 550.469585 611.545081 
L 551.894661 609.546422 
L 552.871278 608.592348 
L 555.44665 606.250172 
L 556.599829 605.50256 
L 557.176334 605.291034 
L 557.740882 605.244151 
L 558.598436 605.414014 
L 559.45565 605.7549 
L 560.304759 606.333057 
L 561.29093 607.297735 
L 562.195773 608.821144 
L 563.346547 611.476839 
L 564.208412 613.347911 
L 564.778885 614.259206 
L 565.06446 614.499531 
L 565.354654 614.570995 
L 565.637042 614.445441 
L 565.926994 614.075502 
L 566.821911 612.069053 
L 567.396757 610.736385 
L 567.684217 610.238682 
L 567.973276 609.975253 
L 568.255712 609.965646 
L 568.54083 610.092506 
L 569.124609 610.757479 
L 570.403742 612.451784 
L 571.01367 613.062312 
L 571.587245 613.351573 
L 572.163844 613.386357 
L 572.757672 613.232824 
L 574.196329 612.724497 
L 575.055062 612.810431 
L 576.812292 613.204622 
L 577.962603 613.213426 
L 579.256583 612.986094 
L 580.43013 612.628159 
L 581.294011 612.448187 
L 583.315667 612.600451 
L 585.330482 612.676202 
L 586.763395 612.754213 
L 588.928446 613.250575 
L 590.388093 613.565287 
L 590.975396 613.863087 
L 591.849945 614.512331 
L 592.716741 615.221064 
L 593.305431 615.49594 
L 593.891728 615.379016 
L 594.478612 614.897327 
L 595.357086 613.683747 
L 596.241408 612.321246 
L 597.5431 611.104469 
L 597.840005 611.145246 
L 598.129389 611.344785 
L 598.712526 612.520169 
L 600.167215 616.709951 
L 600.755918 617.574695 
L 601.348564 617.838486 
L 601.644895 617.747427 
L 602.230109 617.212686 
L 603.679261 615.670495 
L 604.314326 615.480917 
L 605.190214 615.609701 
L 606.494817 615.72861 
L 607.364818 615.512229 
L 608.256118 614.953442 
L 609.41394 613.822108 
L 611.175098 611.834939 
L 611.748807 611.107367 
L 613.498996 610.690958 
L 614.503186 609.416238 
L 615.102907 608.682499 
L 615.70808 608.246193 
L 616.29408 608.130685 
L 616.881888 608.316684 
L 617.494005 608.686049 
L 618.368221 609.548466 
L 620.710485 609.52914 
L 621.585048 609.215044 
L 621.882471 609.245155 
L 622.459702 609.698548 
L 624.062729 611.769114 
L 624.9525 612.858073 
L 625.533814 613.282846 
L 625.824983 613.338486 
L 626.115861 613.261134 
L 626.702419 612.806285 
L 627.870551 611.615577 
L 628.443804 611.360994 
L 629.027251 611.374834 
L 629.910445 611.851079 
L 632.665066 613.931689 
L 634.139977 614.805086 
L 635.014939 615.673406 
L 636.487065 617.54424 
L 637.072113 617.988573 
L 637.653932 618.040889 
L 638.243418 617.824307 
L 640.328105 616.529103 
L 641.610751 616.379678 
L 642.800059 616.175822 
L 644.251304 615.583726 
L 645.407788 614.993905 
L 646.878553 613.942913 
L 647.46435 613.868879 
L 648.047679 614.173907 
L 648.933122 615.09669 
L 649.815609 616.037114 
L 650.224109 615.691221 
L 651.867123 613.503963 
L 652.169655 613.297566 
L 652.490707 613.286099 
L 652.832736 613.45385 
L 653.135734 613.848783 
L 653.745448 615.194793 
L 654.654356 617.492056 
L 655.279546 618.444496 
L 655.582623 618.70541 
L 655.887727 618.80968 
L 656.192557 618.749864 
L 657.098299 618.13281 
L 658.008444 617.449872 
L 658.615541 617.233235 
L 659.229001 617.203157 
L 659.957641 617.344476 
L 661.169801 617.730739 
L 661.773259 617.741076 
L 662.393128 617.560281 
L 663.900386 616.87091 
L 664.803148 616.72189 
L 666.306485 616.736685 
L 667.20279 617.036626 
L 668.097155 617.664797 
L 669.445144 618.89324 
L 671.280904 621.161008 
L 677.447014 629.673057 
L 677.76405 630.138235 
L 678.576642 631.060541 
L 681.363244 634.523119 
L 682.884485 636.064606 
L 684.795115 637.696283 
L 686.328445 638.739733 
L 687.63302 639.360641 
L 690.030369 640.314499 
L 691.209719 640.549415 
L 693.290658 640.693174 
L 697.587003 640.746079 
L 703.553196 640.834567 
L 707.25072 641.314964 
L 710.515836 641.705017 
L 713.539202 641.83398 
L 717.916357 641.784764 
L 718.807208 641.587853 
L 719.412264 641.288432 
L 720.325547 640.492937 
L 721.232706 639.281599 
L 722.1409 637.631678 
L 723.367898 634.71094 
L 726.535869 626.482259 
L 728.052291 623.102494 
L 729.263066 620.855636 
L 731.095097 618.18824 
L 731.99965 617.213693 
L 732.930954 616.492119 
L 735.786132 615.088943 
L 740.36624 612.502299 
L 740.97956 612.025942 
L 741.584751 611.38908 
L 742.625434 609.836363 
L 743.5768 607.309273 
L 745.704226 601.067707 
L 746.003974 600.716007 
L 746.311534 600.584407 
L 746.620238 600.679902 
L 746.929354 601.002008 
L 747.533447 602.159507 
L 749.01848 605.859627 
L 749.605939 606.889509 
L 750.195921 607.404213 
L 750.789811 607.424441 
L 751.378222 607.156098 
L 754.769255 605.381058 
L 756.532583 604.825427 
L 757.416069 604.774248 
L 758.317645 604.922185 
L 760.111546 605.353822 
L 760.845784 605.344151 
L 763.515089 604.996583 
L 764.400392 605.294338 
L 765.586618 605.985213 
L 767.060649 606.865694 
L 768.256819 607.409262 
L 771.378175 608.234898 
L 771.989031 608.798406 
L 773.200255 610.609536 
L 774.095518 611.840067 
L 775.010718 612.547006 
L 776.497582 613.513133 
L 777.119652 614.174709 
L 778.600655 616.435375 
L 779.620814 617.068286 
L 779.922005 617.057137 
L 780.514926 616.687612 
L 781.418924 615.666584 
L 782.006215 615.039721 
L 782.597443 614.768874 
L 783.193516 614.951741 
L 783.785739 615.431878 
L 784.980895 616.542245 
L 785.575776 616.788572 
L 786.166103 616.71514 
L 786.75625 616.41236 
L 788.375417 615.205852 
L 790.488936 613.493886 
L 791.96419 612.357266 
L 793.148445 611.796905 
L 794.045232 611.624992 
L 795.222499 611.612091 
L 798.039124 611.699965 
L 798.93362 611.937734 
L 800.109486 612.647634 
L 801.575832 613.602056 
L 802.463025 613.833744 
L 803.054712 613.828893 
L 804.822602 613.658296 
L 806.11714 612.905896 
L 806.726502 612.782466 
L 807.346397 612.910151 
L 808.233177 613.388473 
L 809.412402 614.01004 
L 810.302587 614.142848 
L 811.499696 614.2432 
L 812.105493 614.555542 
L 812.716291 615.062456 
L 813.624322 616.263431 
L 814.818604 618.087971 
L 815.858397 618.935032 
L 816.458251 619.054656 
L 817.052666 618.971469 
L 819.162408 618.19279 
L 820.069915 618.251434 
L 821.86938 618.531116 
L 822.794735 618.418838 
L 824.415931 617.928485 
L 825.655757 617.577608 
L 826.86336 617.498342 
L 828.670246 617.562527 
L 831.093424 616.724369 
L 831.697552 616.766577 
L 832.622465 617.126108 
L 833.639916 617.516563 
L 834.568787 617.766565 
L 835.190503 617.789687 
L 836.121944 617.169044 
L 837.350938 616.312869 
L 837.968368 616.174436 
L 838.587562 616.250033 
L 839.199074 616.521654 
L 841.04165 617.660117 
L 841.65799 617.799059 
L 842.566366 617.779825 
L 844.529672 617.521367 
L 845.760753 617.740614 
L 846.681596 618.154139 
L 847.606955 618.816458 
L 849.133023 620.223349 
L 850.976572 622.348169 
L 854.85516 627.580612 
L 856.730432 630.104088 
L 860.258024 634.287307 
L 861.55575 635.668691 
L 862.63989 636.536664 
L 866.13195 639.206173 
L 867.397222 640.02198 
L 868.352869 640.431213 
L 869.628424 640.739762 
L 872.647858 641.326843 
L 874.231773 641.633809 
L 876.468907 641.725026 
L 881.822596 641.774174 
L 900.545273 641.599972 
L 901.761427 641.199962 
L 905.097983 639.899112 
L 905.395525 639.836742 
L 910.082366 639.744567 
L 911.604682 639.444558 
L 913.423502 638.789978 
L 914.941899 637.991039 
L 917.069469 636.779856 
L 918.079755 636.411858 
L 919.286592 636.124131 
L 921.076947 635.971906 
L 925.903256 635.799355 
L 929.657406 635.466011 
L 931.749389 635.507571 
L 932.951383 635.809057 
L 933.84814 636.231896 
L 935.372844 637.207705 
L 937.300986 638.47979 
L 937.916591 638.718856 
L 939.432364 638.844487 
L 942.738303 638.738985 
L 943.637573 638.395369 
L 944.548222 637.676748 
L 945.14495 636.930309 
L 947.079811 636.067289 
L 948.897378 630.390675 
L 950.69527 629.34019 
L 952.199256 623.726866 
L 953.703723 617.27355 
L 954.735992 613.337247 
L 958.977453 595.587676 
L 959.879551 590.15262 
L 961.087312 581.304922 
L 962.90549 567.429233 
L 963.512331 563.350447 
L 964.241056 559.64735 
L 965.156487 554.784758 
L 966.943991 553.31371 
L 967.846678 549.827505 
L 968.444488 548.677311 
L 968.755471 548.493784 
L 969.065708 548.593563 
L 969.368489 548.89501 
L 969.664893 549.421448 
L 970.252217 551.128442 
L 971.119448 554.821202 
L 972.281022 560.839878 
L 973.265702 565.870606 
L 975.003245 567.666911 
L 975.874862 573.962245 
L 978.791911 596.788701 
L 979.653495 601.214084 
L 980.528893 604.310962 
L 981.107196 605.870576 
L 982.962471 606.463914 
L 983.250277 606.400413 
L 983.822875 605.933356 
L 984.40719 605.055839 
L 984.991523 604.019296 
L 986.450118 602.825182 
L 987.027543 601.889014 
L 989.03983 598.042833 
L 989.912483 597.072909 
L 990.587043 596.762877 
L 991.170449 596.683131 
L 992.063105 596.780432 
L 993.227678 596.892319 
L 995.248659 596.655186 
L 995.841872 597.006502 
L 996.420491 597.72704 
L 996.993895 598.84515 
L 998.157477 601.938127 
L 999.049233 604.318243 
L 999.742411 604.470318 
L 1000.337459 604.370206 
L 1000.91662 604.159985 
L 1001.487692 604.224934 
L 1001.780833 604.358258 
L 1002.379678 604.998102 
L 1004.403616 607.887436 
L 1005.274635 608.519147 
L 1005.859908 608.758052 
L 1006.152103 608.977465 
L 1006.724309 609.82438 
L 1008.571977 613.058385 
L 1009.160979 613.637382 
L 1009.74198 613.760336 
L 1010.323791 613.696868 
L 1012.047953 613.146573 
L 1012.629198 613.590886 
L 1014.362287 615.426681 
L 1014.934565 615.554471 
L 1015.513412 615.382032 
L 1017.057814 614.505184 
L 1017.965049 614.034978 
L 1018.836388 613.759733 
L 1019.994222 613.66952 
L 1021.735392 613.846151 
L 1022.881805 614.316395 
L 1023.737559 614.77429 
L 1025.184278 615.633655 
L 1026.159536 616.065602 
L 1027.065361 616.310715 
L 1028.79542 616.683658 
L 1031.698338 617.717019 
L 1034.019408 618.778527 
L 1034.703194 618.860079 
L 1035.286586 618.712411 
L 1035.89519 618.289464 
L 1036.473391 617.675098 
L 1037.361262 616.311435 
L 1038.519698 613.994662 
L 1040.57032 609.237275 
L 1043.162479 602.749615 
L 1044.169069 601.031449 
L 1045.332102 599.28857 
L 1046.49809 597.999067 
L 1047.363224 597.425632 
L 1047.939329 597.319999 
L 1048.514924 597.421136 
L 1049.37621 597.90582 
L 1050.240137 598.735653 
L 1051.686447 600.482816 
L 1053.556841 603.042539 
L 1053.849421 603.546683 
L 1055.559178 604.037092 
L 1056.73177 606.112417 
L 1059.940721 612.271027 
L 1060.806693 613.652927 
L 1061.496615 614.468787 
L 1062.696611 615.843918 
L 1063.573726 616.488952 
L 1064.458047 616.850241 
L 1065.329254 616.851333 
L 1066.222793 616.440049 
L 1067.691543 615.819182 
L 1068.582739 615.91394 
L 1069.489862 616.247035 
L 1070.496412 616.564824 
L 1071.406969 616.677314 
L 1072.611111 616.569441 
L 1073.807459 616.558209 
L 1074.996451 616.878843 
L 1075.904033 617.008351 
L 1076.506986 616.907506 
L 1077.40282 616.548958 
L 1079.644263 616.27449 
L 1080.848096 615.99546 
L 1081.73694 616.091879 
L 1082.639038 616.430057 
L 1084.133907 617.083888 
L 1084.754424 617.165097 
L 1085.665705 617.008767 
L 1088.034955 616.467749 
L 1089.361046 615.893086 
L 1089.961832 616.09676 
L 1090.854458 616.837089 
L 1091.735639 617.631639 
L 1092.324824 617.957802 
L 1093.207859 618.077345 
L 1095.264685 617.601298 
L 1096.445096 617.895144 
L 1098.017054 618.426827 
L 1099.211872 618.581468 
L 1101.578687 618.557224 
L 1103.047503 618.312467 
L 1106.393225 617.747679 
L 1108.479383 617.778487 
L 1111.122778 617.915867 
L 1113.198 617.848995 
L 1113.78852 618.196827 
L 1114.380313 618.77409 
L 1117.743696 622.682012 
L 1118.916618 623.551413 
L 1119.509248 624.313482 
L 1120.404134 625.940122 
L 1122.471368 629.786404 
L 1123.35641 630.901855 
L 1126.767341 634.271687 
L 1127.955171 635.442855 
L 1129.137966 636.344212 
L 1130.922801 637.348793 
L 1132.995182 638.223151 
L 1134.860204 638.375984 
L 1136.629302 639.169349 
L 1137.805373 639.47611 
L 1138.692843 639.588789 
L 1141.686339 639.481182 
L 1148.307427 639.041984 
L 1156.065517 638.986058 
L 1158.628607 638.861585 
L 1159.589878 638.615605 
L 1160.229089 638.255481 
L 1160.862524 637.709958 
L 1161.974264 636.345474 
L 1162.963368 634.370175 
L 1163.920188 631.827884 
L 1165.528758 626.75287 
L 1169.051078 615.437432 
L 1170.332113 612.013218 
L 1170.972478 610.635935 
L 1173.064664 608.035885 
L 1174.020138 607.276662 
L 1174.982952 606.483939 
L 1175.612858 605.659764 
L 1176.570262 603.895438 
L 1177.194407 602.404219 
L 1177.815534 600.375623 
L 1178.444618 597.547567 
L 1179.396427 591.679255 
L 1180.640235 583.938035 
L 1181.72004 580.747264 
L 1182.039873 580.270843 
L 1182.355323 580.060481 
L 1182.66939 580.109262 
L 1182.98796 580.437776 
L 1183.62722 581.698301 
L 1184.911025 585.062635 
L 1187.102384 585.295297 
L 1187.414831 585.132186 
L 1188.056886 584.339789 
L 1188.700653 582.884516 
L 1190.700153 578.120195 
L 1191.336969 577.172569 
L 1191.656049 577.001789 
L 1192.289947 577.102621 
L 1192.607668 577.160841 
L 1192.925898 577.055178 
L 1193.244536 576.612223 
L 1195.457411 571.818204 
L 1195.772304 570.439286 
L 1196.402154 566.144255 
L 1197.033207 560.057589 
L 1198.924317 540.374832 
L 1199.55463 536.41681 
L 1199.872159 535.261509 
L 1199.872159 535.261509 
" clip-path="url(#pa0c082f03f)" style="fill: none; stroke: #800080; stroke-width: 2; stroke-linecap: square"/>
   </g>
   <g id="line2d_18">
    <path d="M 222.315341 641.89125 
L 247.288463 641.786684 
L 248.299491 641.524861 
L 248.966176 641.183943 
L 249.728635 640.472625 
L 250.526835 639.2793 
L 251.000026 638.215143 
L 251.85122 635.904471 
L 252.278114 633.977034 
L 252.632679 633.152766 
L 253.455628 630.131155 
L 254.212105 626.055739 
L 255.338866 618.251651 
L 256.17887 610.316159 
L 256.964799 600.511911 
L 258.029039 587.763557 
L 259.751637 586.556258 
L 260.545303 584.164079 
L 261.608793 581.534332 
L 262.403262 578.504188 
L 263.479599 574.122742 
L 264.019804 572.642598 
L 264.538288 571.877921 
L 264.79173 571.748574 
L 265.052607 571.762138 
L 265.630919 572.110572 
L 266.17568 572.7956 
L 267.026467 574.212579 
L 268.738828 577.572001 
L 269.376437 579.435837 
L 270.248923 582.784176 
L 271.410457 588.034116 
L 272.815131 595.304069 
L 275.424288 608.990399 
L 276.382905 613.539034 
L 276.663593 615.04226 
L 277.360334 617.939655 
L 278.297816 622.134899 
L 279.491545 627.12327 
L 281.448148 634.265537 
L 282.524969 637.048778 
L 283.326679 638.262617 
L 283.864774 638.714092 
L 284.40224 638.932605 
L 285.216838 638.980686 
L 286.185544 639.065725 
L 286.762031 639.362527 
L 287.611535 640.196528 
L 288.179351 640.71535 
L 289.503054 640.815745 
L 291.810018 641.114837 
L 292.835327 641.336536 
L 294.23509 641.244833 
L 298.660018 640.698735 
L 300.771162 640.590378 
L 303.32213 640.737603 
L 307.326951 640.954843 
L 314.414439 641.041993 
L 314.977727 640.829233 
L 315.547535 640.44404 
L 316.125683 639.763552 
L 316.687412 638.853989 
L 317.542675 637.028792 
L 319.129568 632.860196 
L 323.145997 619.353433 
L 325.136174 618.513723 
L 326.553968 614.637365 
L 326.837621 613.96391 
L 328.706279 611.2486 
L 330.414723 610.740914 
L 332.156276 607.552188 
L 332.734122 607.176751 
L 333.30864 607.149463 
L 334.164253 607.412678 
L 335.33258 607.728372 
L 336.016341 607.682649 
L 337.761412 607.422405 
L 338.345911 607.644122 
L 339.20037 608.250998 
L 340.621964 609.589297 
L 342.622273 611.947519 
L 346.207663 616.408959 
L 347.059086 616.948199 
L 348.214957 617.237754 
L 349.090606 617.515994 
L 350.816707 618.372385 
L 351.68881 618.343405 
L 353.826318 617.93546 
L 354.377926 617.995413 
L 355.748915 618.292505 
L 356.556359 618.082652 
L 357.36777 617.758822 
L 357.913319 617.715899 
L 358.45373 617.846067 
L 358.992225 618.108831 
L 359.538479 617.564256 
L 360.617168 616.275384 
L 361.16319 616.131563 
L 361.812485 616.519259 
L 362.36565 617.291944 
L 363.46764 619.004556 
L 364.007015 619.454191 
L 364.545343 619.544593 
L 366.490737 619.172562 
L 367.054891 619.340013 
L 369.799596 620.807325 
L 371.876843 621.109439 
L 373.803922 621.611579 
L 374.894393 621.631845 
L 376.552355 621.558194 
L 377.691522 621.808912 
L 378.626272 622.082195 
L 379.495685 622.130748 
L 380.640893 621.963831 
L 381.7451 621.824393 
L 382.574284 621.912104 
L 384.547828 622.37393 
L 385.940649 622.19278 
L 387.494871 621.825134 
L 388.939389 621.621515 
L 392.910039 621.595021 
L 395.147685 621.459188 
L 395.825525 621.689831 
L 396.407466 622.118069 
L 399.226348 624.925533 
L 400.3418 625.935128 
L 403.120801 628.747225 
L 405.765017 631.098522 
L 407.739152 633.159171 
L 411.796744 636.727486 
L 412.66557 637.317572 
L 414.818824 638.10212 
L 416.255158 638.324082 
L 417.951831 638.240697 
L 420.54868 638.080176 
L 427.300381 638.050132 
L 429.903212 638.139582 
L 432.057282 638.427898 
L 435.781685 639.094252 
L 437.490782 639.082554 
L 440.822313 638.927487 
L 442.269969 639.107503 
L 444.018035 639.564786 
L 446.053354 640.297562 
L 447.808525 640.910397 
L 448.814603 640.902911 
L 449.423265 640.67591 
L 449.999771 640.260912 
L 450.601627 639.604181 
L 451.18562 638.716855 
L 452.060157 636.83458 
L 453.830904 632.003147 
L 456.455166 624.47668 
L 456.744152 623.724861 
L 457.463423 622.323872 
L 458.644893 619.863074 
L 459.814013 617.890877 
L 460.990357 616.463639 
L 462.730256 614.750711 
L 464.777311 613.049838 
L 469.024917 610.10698 
L 470.207691 609.737374 
L 471.387636 609.70424 
L 472.274136 609.916238 
L 473.452284 610.522172 
L 474.34084 611.334392 
L 475.953299 613.647066 
L 477.416211 615.870221 
L 478.287527 616.754365 
L 480.067696 617.997898 
L 480.939857 618.417408 
L 481.524209 618.438777 
L 482.395724 618.274673 
L 483.572841 617.900465 
L 484.586812 617.87263 
L 486.876347 618.397386 
L 488.022823 617.977558 
L 489.167734 617.557572 
L 490.000557 617.611627 
L 492.626954 618.262844 
L 494.077093 618.452189 
L 495.194721 618.690449 
L 499.7108 619.335556 
L 502.064651 619.835122 
L 505.93695 619.996621 
L 509.930682 620.441142 
L 510.509162 620.233548 
L 511.074561 619.807013 
L 511.903844 618.790162 
L 514.39486 614.968307 
L 516.076654 613.037675 
L 517.731567 611.029903 
L 522.31094 608.165934 
L 523.418578 607.726326 
L 525.365617 607.262439 
L 526.586928 607.144391 
L 527.160218 607.191715 
L 528.030771 607.477303 
L 531.703199 609.274288 
L 532.830762 610.327952 
L 535.819275 613.914416 
L 538.126787 617.057957 
L 539.270357 617.899793 
L 540.700114 618.766352 
L 541.821062 619.680439 
L 542.385228 619.914081 
L 542.9447 619.918642 
L 543.911967 619.707293 
L 545.071539 619.39603 
L 545.909827 619.459368 
L 547.049734 619.651831 
L 548.177726 619.60568 
L 550.469585 619.107808 
L 553.453534 619.005278 
L 556.3138 618.612055 
L 557.740882 618.746002 
L 558.598436 618.550408 
L 560.589364 618.059929 
L 561.590211 618.246361 
L 563.059194 618.794971 
L 563.635082 618.597258 
L 564.208412 617.844097 
L 564.778885 616.591408 
L 565.637042 614.479133 
L 565.926994 614.134228 
L 566.217553 614.034109 
L 566.536988 614.128399 
L 567.110544 614.809168 
L 568.830433 617.450892 
L 569.420906 617.787835 
L 569.7093 617.798603 
L 570.403742 617.390835 
L 571.587245 616.357502 
L 572.163844 616.128631 
L 572.757672 616.193271 
L 573.613305 616.543934 
L 574.48652 616.883399 
L 576.524046 617.401705 
L 577.386094 618.148063 
L 578.247914 619.243475 
L 587.053227 631.0026 
L 588.037466 631.819187 
L 589.220638 632.946647 
L 590.682318 634.704623 
L 592.136675 636.53296 
L 592.716741 636.996196 
L 593.305431 637.256067 
L 594.478612 637.393903 
L 595.652604 637.510962 
L 596.241408 637.790968 
L 596.646377 638.045711 
L 598.422589 639.943108 
L 599.001598 640.166711 
L 599.8747 640.205228 
L 602.521954 640.224893 
L 605.592515 640.605297 
L 607.958532 641.007395 
L 610.28795 641.174517 
L 614.0972 641.189719 
L 620.414617 641.138637 
L 624.062729 641.252945 
L 626.407385 641.250453 
L 628.159216 640.996845 
L 629.027251 640.660788 
L 629.910445 640.053269 
L 630.788182 639.099581 
L 631.665958 637.761418 
L 633.266799 634.515167 
L 635.305459 628.805348 
L 639.422475 616.348213 
L 640.910486 612.818733 
L 641.610751 611.686287 
L 642.800059 609.835859 
L 643.960891 608.462578 
L 644.828716 607.70552 
L 645.697103 607.388905 
L 646.878553 607.308522 
L 648.343596 607.41302 
L 649.227684 607.601898 
L 650.933491 608.460242 
L 652.832736 609.819205 
L 658.925129 614.911266 
L 659.651894 615.319365 
L 661.773259 616.589026 
L 662.393128 616.678043 
L 663.297084 616.495695 
L 665.103236 615.848308 
L 666.605203 615.617153 
L 667.20279 615.66171 
L 668.097155 615.954929 
L 669.445144 616.453515 
L 670.970982 616.839634 
L 672.186775 616.945016 
L 677.447014 617.151156 
L 678.576642 617.276167 
L 679.541098 617.29933 
L 686.621499 616.310371 
L 689.136652 616.237843 
L 690.322033 616.314274 
L 691.209719 616.032627 
L 691.80472 615.571964 
L 692.406204 614.808235 
L 694.189802 611.955005 
L 695.370483 610.739234 
L 696.987345 608.974778 
L 699.675981 605.352109 
L 702.067026 602.517282 
L 703.254374 601.282129 
L 704.140693 600.647911 
L 705.037571 600.302803 
L 706.34573 600.083882 
L 707.834358 600.105312 
L 708.434977 600.274887 
L 709.324112 600.764187 
L 713.227672 603.753006 
L 716.383415 606.703041 
L 717.304524 607.824802 
L 718.210928 609.245379 
L 719.412264 611.216456 
L 720.019864 611.854501 
L 720.925373 612.350321 
L 721.834234 612.79986 
L 722.740662 613.509414 
L 723.672173 614.413324 
L 724.710979 614.903155 
L 725.625737 614.885696 
L 727.442455 614.567468 
L 728.353123 614.630675 
L 729.263066 614.833475 
L 731.697486 615.443804 
L 732.930954 615.565098 
L 733.958087 615.7844 
L 735.478021 616.233861 
L 736.404443 616.315394 
L 737.930792 615.998557 
L 739.147893 615.659901 
L 740.058386 615.707607 
L 740.97956 616.023365 
L 741.584751 616.163765 
L 742.189105 616.092835 
L 744.488891 615.724552 
L 745.395263 615.856401 
L 746.620238 616.03599 
L 749.605939 616.089972 
L 751.791607 616.347319 
L 752.70261 616.392703 
L 755.352691 616.797148 
L 755.941425 617.068139 
L 756.532583 617.555235 
L 758.317645 619.744484 
L 762.344331 624.668044 
L 764.400392 627.770998 
L 766.178946 630.344502 
L 767.356638 631.80668 
L 769.435916 634.049254 
L 770.144873 634.669582 
L 772.289936 636.785519 
L 773.793568 637.796194 
L 776.200646 639.20394 
L 777.119652 639.526583 
L 778.600655 639.778242 
L 782.896654 639.910888 
L 786.166103 639.9819 
L 789.585018 639.981028 
L 794.92789 639.945422 
L 801.575832 639.99001 
L 807.346397 639.70615 
L 808.526866 639.411407 
L 809.706435 638.885269 
L 810.594517 638.329733 
L 811.499696 637.524368 
L 812.406589 636.449766 
L 813.318569 635.006953 
L 817.052666 628.104896 
L 819.162408 623.719765 
L 820.976638 619.863543 
L 821.86938 618.442791 
L 822.794735 617.397246 
L 823.698155 616.708024 
L 825.964833 615.369776 
L 828.066507 613.409093 
L 828.97697 612.898422 
L 829.578791 612.685065 
L 831.093424 612.459742 
L 832.02041 611.98635 
L 833.639916 610.839913 
L 834.262801 610.59268 
L 834.883333 610.582083 
L 835.190503 610.683194 
L 835.80824 611.244553 
L 836.73972 612.649705 
L 837.350938 613.589037 
L 837.66335 613.884241 
L 837.968368 614.011162 
L 838.273343 613.952613 
L 838.587562 613.644198 
L 838.900156 613.121239 
L 839.812828 610.678489 
L 840.418985 608.996367 
L 840.726601 608.399516 
L 841.04165 608.037891 
L 841.35396 607.938005 
L 841.65799 608.086475 
L 841.961195 608.415431 
L 842.992597 610.241046 
L 843.607197 611.477393 
L 843.923361 611.887 
L 844.223279 612.016003 
L 844.529672 611.8895 
L 844.844517 611.320765 
L 845.460868 608.88353 
L 847.294542 598.919571 
L 847.606955 598.117292 
L 847.910826 597.737921 
L 848.216703 597.757119 
L 848.527249 598.11422 
L 849.133023 599.365823 
L 850.353675 601.98312 
L 850.976572 602.577975 
L 851.584466 602.677395 
L 852.943332 602.379983 
L 853.264074 602.466077 
L 853.894141 603.004159 
L 854.545481 603.905474 
L 855.48097 605.385449 
L 856.104815 605.953415 
L 856.419651 606.038361 
L 857.044933 605.843894 
L 857.706229 605.29348 
L 858.671379 604.32782 
L 859.309055 603.910087 
L 859.941377 603.712438 
L 860.913261 603.825966 
L 862.325382 604.428708 
L 863.284249 605.256749 
L 864.87192 607.1188 
L 865.188097 607.15481 
L 865.505573 606.956276 
L 866.13195 606.124821 
L 867.071886 604.571505 
L 867.397222 604.302035 
L 867.712649 604.277963 
L 868.031938 604.514601 
L 868.352869 604.999172 
L 868.993223 606.501407 
L 869.946651 608.776858 
L 870.5965 609.662696 
L 871.236228 609.988595 
L 872.011902 609.906861 
L 872.647858 609.731159 
L 872.964256 609.743574 
L 873.27969 609.8946 
L 873.596353 610.250246 
L 873.914578 610.804052 
L 874.231773 611.705991 
L 874.547603 613.000675 
L 875.824881 619.823064 
L 876.468907 621.369453 
L 876.79384 621.69629 
L 877.435742 621.870133 
L 879.294452 622.094779 
L 879.893396 622.361942 
L 880.206351 622.726284 
L 880.505863 623.3379 
L 881.519125 626.510712 
L 882.43195 629.702856 
L 883.033365 630.936012 
L 883.634315 631.664774 
L 884.837824 632.544491 
L 885.442598 633.072305 
L 886.348982 634.262368 
L 887.577914 635.967648 
L 888.468586 636.828603 
L 889.36394 637.423553 
L 892.843166 639.062995 
L 895.57819 640.031834 
L 896.190813 640.199051 
L 897.412379 640.261205 
L 897.701858 640.102518 
L 897.998362 639.543996 
L 898.29358 638.595813 
L 898.592138 636.888205 
L 899.183116 630.913765 
L 899.6221 626.538203 
L 900.85002 605.925759 
L 901.761427 592.001631 
L 902.365075 585.457492 
L 902.973308 581.25502 
L 903.281934 580.140064 
L 903.577235 579.530666 
L 904.19123 579.000479 
L 904.79095 578.421539 
L 905.395525 577.361027 
L 906.908187 576.638655 
L 907.513228 574.712184 
L 908.113041 572.069379 
L 909.777821 564.042787 
L 910.391639 561.790551 
L 911.303827 559.430131 
L 911.907465 557.456332 
L 912.815216 553.111866 
L 913.423502 550.52144 
L 914.035251 548.933732 
L 914.634307 548.118895 
L 915.243432 547.87095 
L 915.850787 547.992957 
L 917.667689 548.793376 
L 919.286592 548.876302 
L 919.875386 549.210614 
L 920.477368 549.914448 
L 923.205095 553.900541 
L 924.105811 554.563455 
L 925.310318 555.408211 
L 926.805951 556.75982 
L 927.833951 557.184398 
L 928.458861 557.149972 
L 929.058422 556.831398 
L 929.960137 555.856794 
L 930.256364 555.856295 
L 930.553829 556.406872 
L 930.847396 557.729404 
L 931.146035 559.915786 
L 931.749389 566.975867 
L 932.951383 585.79037 
L 933.84814 598.895879 
L 934.45848 605.120009 
L 935.08021 608.616038 
L 935.372844 609.30592 
L 935.671986 609.484249 
L 936.385326 609.002557 
L 937.606201 607.32846 
L 937.916591 607.317623 
L 938.214597 607.749463 
L 938.516275 608.500546 
L 938.842781 609.731017 
L 939.432364 613.353972 
L 940.637027 621.469677 
L 941.240035 624.062412 
L 941.53667 624.767104 
L 941.835697 625.012888 
L 942.141118 624.902398 
L 942.738303 624.174168 
L 943.935574 622.194341 
L 944.548222 621.312994 
L 945.14495 620.804631 
L 947.996597 620.508679 
L 948.897378 620.699306 
L 950.69527 620.611026 
L 951.293056 620.082155 
L 952.803438 618.108051 
L 953.406315 617.744754 
L 953.703723 617.724305 
L 954.321876 617.995913 
L 955.040013 618.386083 
L 955.664619 618.694457 
L 956.268557 618.77423 
L 957.480657 618.406582 
L 958.673577 617.915264 
L 959.575662 617.782669 
L 960.483798 617.840522 
L 961.695895 617.911562 
L 963.206546 617.670028 
L 964.545044 617.414452 
L 967.248268 617.274012 
L 967.846678 616.909383 
L 968.755471 616.181563 
L 969.368489 615.998356 
L 969.960626 616.148865 
L 970.829199 616.722609 
L 971.705327 617.314305 
L 972.567951 617.576978 
L 973.265702 617.502736 
L 975.588324 617.341131 
L 976.163602 617.552966 
L 977.918759 618.517274 
L 978.499429 618.565981 
L 979.366831 618.298819 
L 980.528893 617.83659 
L 981.107196 617.804304 
L 983.250277 617.551078 
L 984.40719 616.378905 
L 984.698481 616.234127 
L 985.273853 616.294973 
L 986.154307 616.576903 
L 987.027543 617.020942 
L 987.895892 617.719141 
L 992.063105 622.268376 
L 997.870557 630.084461 
L 999.049233 631.201066 
L 999.742411 631.467341 
L 1000.337459 631.474792 
L 1001.204622 631.130956 
L 1002.379678 630.666462 
L 1003.538703 630.133622 
L 1004.119455 629.554319 
L 1004.980231 628.367807 
L 1006.724309 625.963348 
L 1008.264366 624.097591 
L 1010.03241 621.018104 
L 1010.895476 619.722784 
L 1012.336847 618.203042 
L 1013.209457 617.528435 
L 1016.376743 615.559846 
L 1017.354999 614.967688 
L 1018.548673 614.406003 
L 1022.014967 613.12518 
L 1023.161727 612.933858 
L 1024.020957 613.022046 
L 1024.895071 613.282857 
L 1027.065361 614.401369 
L 1029.084705 615.879931 
L 1029.953116 616.526263 
L 1030.528222 616.83079 
L 1031.112939 616.820636 
L 1031.698338 616.535413 
L 1032.266642 616.020624 
L 1033.136768 614.873605 
L 1034.703194 612.126827 
L 1036.187654 608.081367 
L 1037.049886 605.866886 
L 1037.935369 604.387241 
L 1038.519698 603.904536 
L 1039.100243 603.776388 
L 1039.67923 603.904953 
L 1041.150063 604.477655 
L 1041.724541 604.319433 
L 1042.015024 604.113015 
L 1042.595205 603.278643 
L 1044.458542 599.523826 
L 1044.750471 599.28657 
L 1045.037995 599.203941 
L 1045.332102 599.326074 
L 1045.91814 600.07702 
L 1047.939329 603.625654 
L 1048.224164 603.810288 
L 1048.514924 603.841507 
L 1049.093562 603.603686 
L 1050.240137 602.666022 
L 1050.525247 602.585371 
L 1050.812604 602.619853 
L 1051.104882 602.837554 
L 1051.686447 603.651368 
L 1051.972767 604.148099 
L 1052.950079 605.171899 
L 1053.259479 605.27298 
L 1053.556841 605.18732 
L 1053.849421 604.926769 
L 1055.559178 604.18843 
L 1056.144509 602.953183 
L 1056.73177 602.22405 
L 1057.313737 601.905714 
L 1058.185496 601.784376 
L 1059.650946 601.690589 
L 1060.519431 601.323222 
L 1063.573726 599.704368 
L 1064.163859 599.53904 
L 1065.039451 599.520605 
L 1065.626424 599.767775 
L 1066.811886 600.532744 
L 1067.400333 600.529853 
L 1067.98423 600.236035 
L 1069.179561 599.464239 
L 1069.784819 599.333529 
L 1070.496412 599.492661 
L 1071.102821 600.017693 
L 1071.705229 600.907142 
L 1074.105672 605.020765 
L 1074.996451 606.325002 
L 1076.208634 607.867147 
L 1076.806797 608.992271 
L 1077.40282 610.641012 
L 1079.319804 611.671746 
L 1080.554518 615.289994 
L 1081.145558 616.065526 
L 1081.443863 616.16394 
L 1081.73694 616.07879 
L 1082.043781 615.802739 
L 1082.639038 614.742824 
L 1083.543714 612.557469 
L 1084.133907 611.293517 
L 1084.439366 610.960369 
L 1084.754424 610.848196 
L 1085.959852 611.092996 
L 1087.44249 610.712937 
L 1088.034955 609.378413 
L 1088.76322 607.406498 
L 1089.361046 605.779275 
L 1089.961832 604.795792 
L 1090.254174 604.538709 
L 1090.550863 604.434864 
L 1091.154332 604.584841 
L 1093.207859 606.152294 
L 1094.388581 607.419499 
L 1095.264685 608.760185 
L 1097.033608 611.879498 
L 1098.623368 613.644454 
L 1099.511027 614.097114 
L 1100.103392 614.161816 
L 1100.687119 614.043116 
L 1101.281947 613.698623 
L 1101.874175 613.153621 
L 1102.753517 612.028211 
L 1105.707375 607.587476 
L 1106.393225 607.074678 
L 1106.987936 606.818218 
L 1107.591896 606.741199 
L 1108.190091 606.945396 
L 1108.767817 607.451986 
L 1109.352525 608.298706 
L 1110.230397 610.361653 
L 1112.309716 616.220838 
L 1112.898414 617.293983 
L 1113.78852 618.273209 
L 1114.672897 618.852525 
L 1115.654209 619.086429 
L 1116.556435 618.931203 
L 1117.148316 618.631533 
L 1118.037129 617.71306 
L 1119.214625 616.067389 
L 1120.404134 614.243588 
L 1121.001331 613.625316 
L 1121.589915 613.311258 
L 1122.471368 613.164095 
L 1123.35641 613.20222 
L 1123.962824 613.410501 
L 1124.668208 613.860078 
L 1125.582028 614.88721 
L 1126.465917 616.284968 
L 1128.848182 620.226457 
L 1130.328497 622.276733 
L 1130.922801 622.868562 
L 1131.82187 623.382489 
L 1132.995182 623.766674 
L 1135.44901 623.714846 
L 1136.629302 623.53682 
L 1137.21938 623.729193 
L 1138.692843 624.651196 
L 1140.4989 624.581105 
L 1140.790183 624.399174 
L 1141.976604 623.222401 
L 1142.698755 623.272564 
L 1144.847784 624.310641 
L 1145.471679 624.287446 
L 1146.103824 623.818701 
L 1146.749962 622.899567 
L 1147.986104 620.863164 
L 1148.942025 619.812709 
L 1150.545178 618.233007 
L 1151.957168 616.353998 
L 1152.597731 615.263203 
L 1154.16651 614.728382 
L 1154.788466 613.888745 
L 1155.42763 613.325011 
L 1156.065517 613.015196 
L 1157.346569 612.828295 
L 1160.550562 612.79022 
L 1162.648212 612.621805 
L 1163.280199 612.905653 
L 1164.880773 613.827845 
L 1165.528758 613.776782 
L 1166.166094 613.406816 
L 1167.764065 612.233387 
L 1168.40623 612.098959 
L 1168.730929 612.119601 
L 1169.367904 611.775985 
L 1170.972478 610.287373 
L 1171.742351 610.147714 
L 1172.107722 610.271522 
L 1172.751126 610.802389 
L 1173.381611 611.529193 
L 1173.701473 611.357992 
L 1174.341412 610.618563 
L 1175.612858 608.516228 
L 1175.930698 608.260576 
L 1176.250067 608.244823 
L 1176.570262 608.489888 
L 1176.884832 608.955667 
L 1178.762989 612.850253 
L 1179.081821 613.066731 
L 1179.396427 613.092687 
L 1180.014419 612.833325 
L 1181.72004 611.731403 
L 1182.355323 611.573335 
L 1183.309405 611.670934 
L 1184.911025 612.072326 
L 1186.787417 611.465513 
L 1187.414831 609.584076 
L 1188.056886 607.774853 
L 1188.37967 607.399271 
L 1188.700653 607.49117 
L 1189.015635 607.958263 
L 1190.264793 611.132429 
L 1191.01693 611.838323 
L 1191.336969 611.856609 
L 1191.656049 611.68818 
L 1192.289947 610.921873 
L 1193.562596 609.096398 
L 1194.198461 608.589146 
L 1195.147362 608.302018 
L 1196.402154 608.05018 
L 1197.033207 607.761542 
L 1197.989997 607.03232 
L 1198.924317 606.436116 
L 1199.55463 606.344457 
L 1199.872159 606.409929 
L 1199.872159 606.409929 
" clip-path="url(#pa0c082f03f)" style="fill: none; stroke: #ff0000; stroke-width: 2; stroke-linecap: square"/>
   </g>
   <g id="line2d_19">
    <path d="M 857.044933 641.89125 
L 857.706229 635.304291 
L 858.35024 625.037502 
L 858.671379 622.77414 
L 858.991703 622.240888 
L 859.309055 622.622117 
L 860.258024 626.631599 
L 863.918331 618.045603 
L 864.556355 608.02098 
L 865.505573 589.711283 
L 866.441065 578.631301 
L 896.190813 573.74072 
L 896.502935 566.212197 
L 897.105667 543.880585 
L 897.701858 513.420788 
L 899.183116 427.480776 
L 900.545273 378.896888 
L 900.85002 372.876637 
L 901.159793 369.056284 
L 901.466932 367.291693 
L 901.761427 367.125636 
L 902.06528 368.309188 
L 902.667422 372.991097 
L 903.577235 380.714903 
L 904.19123 383.710021 
L 904.485714 384.665233 
L 904.79095 385.193359 
L 905.395525 385.561576 
L 906.908187 384.71307 
L 907.513228 383.33681 
L 908.113041 382.571914 
L 908.421832 382.44093 
L 908.83904 382.512793 
L 909.166927 382.716936 
L 910.082366 383.947088 
L 910.9957 385.168564 
L 914.035251 387.790517 
L 915.243432 388.411724 
L 915.544057 388.756791 
L 916.151216 389.939221 
L 917.069469 392.538683 
L 920.477368 403.974058 
L 920.775078 404.644327 
L 921.076947 404.952735 
L 921.37143 404.933888 
L 921.668188 404.283315 
L 921.991763 406.974711 
L 922.294062 408.125296 
L 922.61006 407.913082 
L 922.909392 406.814439 
L 923.205095 405.121177 
L 924.4002 393.143072 
L 924.698745 391.894045 
L 925.008794 391.748706 
L 925.310318 393.053119 
L 925.607153 392.876052 
L 926.206612 391.437781 
L 926.503229 391.516267 
L 926.805951 392.443002 
L 927.219462 394.315773 
L 927.532267 397.201763 
L 927.833951 403.310378 
L 929.361309 418.851977 
L 929.960137 427.065806 
L 930.553829 437.552119 
L 932.951383 487.45213 
L 933.544151 495.93792 
L 934.156987 501.56297 
L 934.45848 503.32471 
L 934.775609 504.112131 
L 935.08021 503.849265 
L 935.372844 502.63462 
L 935.671986 500.270862 
L 936.694109 487.257917 
L 938.214597 456.985812 
L 939.136468 439.726472 
L 940.031554 426.656305 
L 940.934955 416.826053 
L 941.53667 412.781841 
L 941.835697 411.948775 
L 942.141118 411.80638 
L 942.439523 412.353492 
L 943.041583 414.638307 
L 943.637573 418.222169 
L 944.548222 425.390267 
L 945.14495 431.511109 
L 947.079811 434.866671 
L 947.694466 440.102586 
L 948.296913 442.838038 
L 948.601575 443.135392 
L 948.897378 442.723485 
L 950.387365 443.011895 
L 950.995299 443.690092 
L 951.59708 444.899778 
L 952.504853 447.325235 
L 954.015484 455.110883 
L 954.321876 455.450285 
L 954.735992 455.331443 
L 956.268557 452.618569 
L 956.873545 451.092837 
L 957.175177 449.706121 
L 957.779198 445.195325 
L 958.377934 439.039186 
L 959.575662 425.777752 
L 960.483798 418.001873 
L 961.391329 412.263602 
L 962.297453 408.264279 
L 962.90549 406.397507 
L 963.927925 403.816272 
L 964.545044 400.613449 
L 965.156487 396.819679 
L 966.943991 394.619073 
L 967.544726 388.614078 
L 968.444488 376.778671 
L 969.664893 360.587872 
L 970.252217 356.87287 
L 970.544219 356.618067 
L 970.829199 357.514024 
L 971.119448 359.973703 
L 971.705327 368.387465 
L 973.265702 398.788495 
L 975.003245 401.959305 
L 975.874862 409.411764 
L 976.449504 413.301174 
L 979.079072 438.947518 
L 979.943871 452.147256 
L 981.107196 475.229768 
L 983.250277 476.650988 
L 983.531679 476.186282 
L 983.822875 474.941757 
L 984.40719 470.599195 
L 985.273853 461.215434 
L 986.450118 443.90463 
L 988.752142 405.988663 
L 989.625494 395.510924 
L 990.19523 389.892039 
L 991.476929 381.787714 
L 991.773748 380.843699 
L 992.063105 380.589066 
L 992.350995 381.017378 
L 992.6439 382.179993 
L 993.227678 385.892847 
L 994.084353 393.296714 
L 995.545318 406.711529 
L 996.420491 412.629684 
L 996.993895 415.076474 
L 997.28721 415.408663 
L 997.578086 415.384007 
L 997.870557 415.144662 
L 998.157477 415.216217 
L 998.444088 415.963221 
L 998.752737 417.108717 
L 999.440949 421.179359 
L 1000.029217 427.627887 
L 1000.91662 439.775322 
L 1002.379678 460.72567 
L 1002.957441 465.403648 
L 1003.246722 466.683848 
L 1003.538703 466.671757 
L 1003.830159 465.892043 
L 1004.119455 464.680507 
L 1004.687361 459.721425 
L 1005.569731 450.564305 
L 1006.152103 448.341246 
L 1006.438484 447.506541 
L 1006.724309 447.045898 
L 1007.014529 446.916007 
L 1007.301548 447.196423 
L 1007.582589 448.012629 
L 1008.264366 451.719338 
L 1008.862109 457.566668 
L 1010.323791 473.068415 
L 1011.760032 485.179641 
L 1012.047953 488.570868 
L 1013.209457 492.924655 
L 1013.780495 495.167953 
L 1014.362287 498.108206 
L 1014.934565 502.667639 
L 1015.513412 509.526991 
L 1016.091339 518.683721 
L 1017.965049 553.232704 
L 1018.548673 562.609353 
L 1019.123849 569.264822 
L 1019.702493 573.20198 
L 1020.279003 575.100207 
L 1020.856072 575.96368 
L 1021.154327 576.061431 
L 1021.449773 575.81953 
L 1022.014967 574.445497 
L 1022.881805 571.657096 
L 1023.737559 568.474851 
L 1024.895071 564.134246 
L 1025.473919 562.724869 
L 1026.159536 562.245611 
L 1026.457486 562.306584 
L 1026.776487 562.53731 
L 1027.355914 563.498173 
L 1027.649593 563.945759 
L 1027.938728 564.013711 
L 1028.227118 563.891945 
L 1028.508776 563.376292 
L 1028.79542 562.583416 
L 1029.66779 558.717821 
L 1030.528222 553.407872 
L 1031.404935 547.746906 
L 1032.266642 543.95061 
L 1033.136768 540.031545 
L 1033.709495 535.148179 
L 1034.703194 524.312582 
L 1035.600821 512.470499 
L 1036.758329 498.733056 
L 1037.361262 494.074509 
L 1038.231519 489.277916 
L 1038.519698 488.286917 
L 1038.809155 487.773148 
L 1039.100243 487.965627 
L 1039.392847 489.139772 
L 1039.964566 493.671177 
L 1041.150063 505.071551 
L 1042.015024 512.505491 
L 1043.162479 519.409805 
L 1043.566784 521.242083 
L 1045.037995 531.305949 
L 1045.91814 536.767977 
L 1046.49809 539.211053 
L 1047.652394 543.79019 
L 1048.514924 546.85941 
L 1049.37621 548.215584 
L 1049.953141 549.029302 
L 1050.525247 550.214165 
L 1051.104882 551.827223 
L 1052.371718 556.571714 
L 1053.556841 563.123483 
L 1053.849421 564.951745 
L 1055.559178 566.660723 
L 1056.443994 572.408119 
L 1058.185496 586.714913 
L 1058.767012 588.937997 
L 1059.063455 589.5809 
L 1059.352778 589.509737 
L 1059.650946 588.896471 
L 1059.940721 587.380432 
L 1060.519431 581.907696 
L 1061.204225 571.251819 
L 1062.107998 546.385635 
L 1063.285188 504.12238 
L 1065.039451 437.281006 
L 1065.91577 410.34546 
L 1066.811886 388.605579 
L 1067.691543 373.309264 
L 1068.282797 365.545465 
L 1068.886883 360.322373 
L 1069.179561 358.832074 
L 1069.489862 358.008239 
L 1069.784819 357.627526 
L 1070.18674 357.732684 
L 1070.496412 358.003221 
L 1071.102821 358.959987 
L 1071.705229 360.773895 
L 1073.213536 367.178446 
L 1074.105672 372.087991 
L 1076.208634 385.667433 
L 1077.40282 395.821978 
L 1079.319804 398.790085 
L 1081.443863 418.881655 
L 1082.342473 435.223256 
L 1083.839342 469.777834 
L 1085.959852 522.673551 
L 1087.44249 528.934508 
L 1088.034955 539.913778 
L 1088.76322 546.888201 
L 1089.659884 555.491407 
L 1091.154332 566.922397 
L 1091.735639 570.577183 
L 1092.324824 572.762757 
L 1092.622986 573.465966 
L 1092.911824 573.707334 
L 1093.207859 573.546524 
L 1093.501808 573.211737 
L 1094.091304 571.918644 
L 1095.854911 567.676602 
L 1096.445096 566.73949 
L 1096.741212 566.540391 
L 1097.033608 566.522623 
L 1097.434071 566.81902 
L 1098.017054 568.020395 
L 1098.623368 569.898348 
L 1101.281947 578.886913 
L 1102.166282 580.718489 
L 1102.753517 581.438971 
L 1103.340016 581.744419 
L 1104.224607 581.787456 
L 1106.686031 581.468748 
L 1107.295407 581.078563 
L 1107.899003 580.401431 
L 1109.352525 578.242047 
L 1109.639679 578.057279 
L 1109.936249 578.032792 
L 1110.230397 578.213921 
L 1110.821219 579.564204 
L 1111.42661 581.905038 
L 1112.015159 585.69999 
L 1113.49188 598.473552 
L 1114.963611 611.461685 
L 1115.654209 614.357161 
L 1115.949144 614.891389 
L 1116.256122 614.842408 
L 1116.556435 614.137407 
L 1117.148316 611.119462 
L 1117.743696 604.879409 
L 1118.619461 592.755324 
L 1119.509248 577.391884 
L 1120.404134 558.000541 
L 1121.589915 527.595215 
L 1123.062009 491.556268 
L 1123.962824 473.928783 
L 1124.668208 461.060712 
L 1125.87477 437.242471 
L 1126.767341 423.038634 
L 1127.669439 412.950804 
L 1128.255862 408.061614 
L 1129.137966 402.748461 
L 1129.727449 400.172371 
L 1130.028572 399.418858 
L 1130.328497 399.207523 
L 1130.627191 399.577949 
L 1130.922801 400.730617 
L 1131.226531 402.731846 
L 1131.82187 409.207215 
L 1132.708042 424.18609 
L 1132.995182 429.694936 
L 1134.570924 435.01776 
L 1135.748338 453.619899 
L 1136.629302 464.003188 
L 1137.21938 467.943831 
L 1137.515758 468.694532 
L 1137.805373 468.804759 
L 1138.102317 467.893656 
L 1138.396501 465.966786 
L 1138.692843 462.879106 
L 1140.194693 454.762061 
L 1141.090087 423.800891 
L 1143.618395 328.303692 
L 1145.785172 249.38949 
L 1147.67756 190.259179 
L 1148.627604 165.353948 
L 1149.594675 144.762541 
L 1150.545178 129.189 
L 1151.177441 122.018426 
L 1151.503572 119.471066 
L 1152.276189 116.652979 
L 1152.597731 116.36625 
L 1154.16651 117.291228 
L 1154.473984 119.089254 
L 1155.109361 125.251894 
L 1155.746292 134.789149 
L 1156.704316 153.617115 
L 1158.307734 191.184121 
L 1159.271099 220.295098 
L 1161.186576 283.456336 
L 1161.974264 302.290595 
L 1166.48623 425.004261 
L 1167.443449 446.64822 
L 1168.40623 462.645811 
L 1169.051078 464.23054 
L 1170.009952 465.723344 
L 1170.332113 466.013724 
L 1170.972478 466.11203 
L 1171.422214 465.980517 
L 1173.064664 464.914068 
L 1173.381611 464.957875 
L 1173.701473 466.333032 
L 1174.341412 470.427047 
L 1175.296629 478.894597 
L 1177.194407 496.546221 
L 1177.815534 499.955355 
L 1180.014419 507.746589 
L 1180.325787 508.404062 
L 1180.640235 508.643588 
L 1181.080379 508.640923 
L 1181.402375 508.845518 
L 1181.72004 509.559633 
L 1182.039873 510.855231 
L 1182.66939 514.283349 
L 1182.98796 515.398999 
L 1183.309405 515.744321 
L 1183.62722 515.22202 
L 1183.947575 513.883911 
L 1184.582381 509.669792 
L 1184.911025 507.270394 
L 1186.787417 505.614914 
L 1187.414831 503.111539 
L 1189.015635 499.020359 
L 1189.642901 496.42296 
L 1190.264793 493.206288 
L 1190.700153 490.648042 
L 1191.336969 484.038718 
L 1192.925898 462.677489 
L 1193.562596 453.113194 
L 1194.198461 439.835059 
L 1194.198461 439.835059 
" clip-path="url(#pa0c082f03f)" style="fill: none; stroke: #0000ff; stroke-width: 2; stroke-linecap: square"/>
   </g>
   <g id="patch_3">
    <path d="M 173.4375 668.1675 
L 173.4375 90.09 
" style="fill: none; stroke: #000000; stroke-width: 0.8; stroke-linejoin: miter; stroke-linecap: square"/>
   </g>
   <g id="patch_4">
    <path d="M 1248.75 668.1675 
L 1248.75 90.09 
" style="fill: none; stroke: #000000; stroke-width: 0.8; stroke-linejoin: miter; stroke-linecap: square"/>
   </g>
   <g id="patch_5">
    <path d="M 173.4375 668.1675 
L 1248.75 668.1675 
" style="fill: none; stroke: #000000; stroke-width: 0.8; stroke-linejoin: miter; stroke-linecap: square"/>
   </g>
   <g id="patch_6">
    <path d="M 173.4375 90.09 
L 1248.75 90.09 
" style="fill: none; stroke: #000000; stroke-width: 0.8; stroke-linejoin: miter; stroke-linecap: square"/>
   </g>
   <g id="legend_1">
    <g id="patch_7">
     <path d="M 1182.9875 142.124375 
L 1241.75 142.124375 
Q 1243.75 142.124375 1243.75 140.124375 
L 1243.75 97.09 
Q 1243.75 95.09 1241.75 95.09 
L 1182.9875 95.09 
Q 1180.9875 95.09 1180.9875 97.09 
L 1180.9875 140.124375 
Q 1180.9875 142.124375 1182.9875 142.124375 
z
" style="fill: #ffffff; opacity: 0.8; stroke: #cccccc; stroke-linejoin: miter"/>
    </g>
    <g id="line2d_20">
     <path d="M 1184.9875 103.188437 
L 1194.9875 103.188437 
L 1204.9875 103.188437 
" style="fill: none; stroke: #800080; stroke-width: 2; stroke-linecap: square"/>
    </g>
    <g id="text_19">
     <!-- Car 0 -->
     <g transform="translate(1212.9875 106.688437)scale(0.1 -0.1)">
      <defs>
       <path id="DejaVuSans-43" d="M 4122 4306 
L 4122 3641 
Q 3803 3938 3442 4084 
Q 3081 4231 2675 4231 
Q 1875 4231 1450 3742 
Q 1025 3253 1025 2328 
Q 1025 1406 1450 917 
Q 1875 428 2675 428 
Q 3081 428 3442 575 
Q 3803 722 4122 1019 
L 4122 359 
Q 3791 134 3420 21 
Q 3050 -91 2638 -91 
Q 1578 -91 968 557 
Q 359 1206 359 2328 
Q 359 3453 968 4101 
Q 1578 4750 2638 4750 
Q 3056 4750 3426 4639 
Q 3797 4528 4122 4306 
z
" transform="scale(0.015625)"/>
       <path id="DejaVuSans-61" d="M 2194 1759 
Q 1497 1759 1228 1600 
Q 959 1441 959 1056 
Q 959 750 1161 570 
Q 1363 391 1709 391 
Q 2188 391 2477 730 
Q 2766 1069 2766 1631 
L 2766 1759 
L 2194 1759 
z
M 3341 1997 
L 3341 0 
L 2766 0 
L 2766 531 
Q 2569 213 2275 61 
Q 1981 -91 1556 -91 
Q 1019 -91 701 211 
Q 384 513 384 1019 
Q 384 1609 779 1909 
Q 1175 2209 1959 2209 
L 2766 2209 
L 2766 2266 
Q 2766 2663 2505 2880 
Q 2244 3097 1772 3097 
Q 1472 3097 1187 3025 
Q 903 2953 641 2809 
L 641 3341 
Q 956 3463 1253 3523 
Q 1550 3584 1831 3584 
Q 2591 3584 2966 3190 
Q 3341 2797 3341 1997 
z
" transform="scale(0.015625)"/>
      </defs>
      <use xlink:href="#DejaVuSans-43"/>
      <use xlink:href="#DejaVuSans-61" x="69.824219"/>
      <use xlink:href="#DejaVuSans-72" x="131.103516"/>
      <use xlink:href="#DejaVuSans-20" x="172.216797"/>
      <use xlink:href="#DejaVuSans-30" x="204.003906"/>
     </g>
    </g>
    <g id="line2d_21">
     <path d="M 1184.9875 117.866562 
L 1194.9875 117.866562 
L 1204.9875 117.866562 
" style="fill: none; stroke: #ff0000; stroke-width: 2; stroke-linecap: square"/>
    </g>
    <g id="text_20">
     <!-- Car 1 -->
     <g transform="translate(1212.9875 121.366562)scale(0.1 -0.1)">
      <use xlink:href="#DejaVuSans-43"/>
      <use xlink:href="#DejaVuSans-61" x="69.824219"/>
      <use xlink:href="#DejaVuSans-72" x="131.103516"/>
      <use xlink:href="#DejaVuSans-20" x="172.216797"/>
      <use xlink:href="#DejaVuSans-31" x="204.003906"/>
     </g>
    </g>
    <g id="line2d_22">
     <path d="M 1184.9875 132.544688 
L 1194.9875 132.544688 
L 1204.9875 132.544688 
" style="fill: none; stroke: #0000ff; stroke-width: 2; stroke-linecap: square"/>
    </g>
    <g id="text_21">
     <!-- Car 2 -->
     <g transform="translate(1212.9875 136.044688)scale(0.1 -0.1)">
      <use xlink:href="#DejaVuSans-43"/>
      <use xlink:href="#DejaVuSans-61" x="69.824219"/>
      <use xlink:href="#DejaVuSans-72" x="131.103516"/>
      <use xlink:href="#DejaVuSans-20" x="172.216797"/>
      <use xlink:href="#DejaVuSans-32" x="204.003906"/>
     </g>
    </g>
   </g>
  </g>
 </g>
 <defs>
  <clipPath id="pa0c082f03f">
   <rect x="173.4375" y="90.09" width="1075.3125" height="578.0775"/>
  </clipPath>
 </defs>
</svg>
