<?xml version="1.0" encoding="utf-8" standalone="no"?>
<!DOCTYPE svg PUBLIC "-//W3C//DTD SVG 1.1//EN"
  "http://www.w3.org/Graphics/SVG/1.1/DTD/svg11.dtd">
<svg xmlns:xlink="http://www.w3.org/1999/xlink" width="460.5pt" height="345pt" viewBox="0 0 460.5 345" xmlns="http://www.w3.org/2000/svg" version="1.1">
 <metadata>
  <rdf:RDF xmlns:dc="http://purl.org/dc/elements/1.1/" xmlns:cc="http://creativecommons.org/ns#" xmlns:rdf="http://www.w3.org/1999/02/22-rdf-syntax-ns#">
   <cc:Work>
    <dc:type rdf:resource="http://purl.org/dc/dcmitype/StillImage"/>
    <dc:date>2024-07-25T10:49:17.116106</dc:date>
    <dc:format>image/svg+xml</dc:format>
    <dc:creator>
     <cc:Agent>
      <dc:title>Matplotlib v3.5.1, https://matplotlib.org/</dc:title>
     </cc:Agent>
    </dc:creator>
   </cc:Work>
  </rdf:RDF>
 </metadata>
 <defs>
  <style type="text/css">*{stroke-linejoin: round; stroke-linecap: butt}</style>
 </defs>
 <g id="figure_1">
  <g id="patch_1">
   <path d="M 0 345 
L 460.5 345 
L 460.5 0 
L 0 0 
z
" style="fill: #ffffff"/>
  </g>
  <g id="axes_1">
   <g id="patch_2">
    <path d="M 57.5625 307.05 
L 414.45 307.05 
L 414.45 41.4 
L 57.5625 41.4 
z
" style="fill: #ffffff"/>
   </g>
   <g id="matplotlib.axis_1">
    <g id="xtick_1">
     <g id="line2d_1">
      <defs>
       <path id="m3315d842ac" d="M 0 0 
L 0 3.5 
" style="stroke: #000000; stroke-width: 0.8"/>
      </defs>
      <g>
       <use xlink:href="#m3315d842ac" x="73.784659" y="307.05" style="stroke: #000000; stroke-width: 0.8"/>
      </g>
     </g>
     <g id="text_1">
      <!-- 0 -->
      <g transform="translate(70.603409 321.648438)scale(0.1 -0.1)">
       <defs>
        <path id="DejaVuSans-30" d="M 2034 4250 
Q 1547 4250 1301 3770 
Q 1056 3291 1056 2328 
Q 1056 1369 1301 889 
Q 1547 409 2034 409 
Q 2525 409 2770 889 
Q 3016 1369 3016 2328 
Q 3016 3291 2770 3770 
Q 2525 4250 2034 4250 
z
M 2034 4750 
Q 2819 4750 3233 4129 
Q 3647 3509 3647 2328 
Q 3647 1150 3233 529 
Q 2819 -91 2034 -91 
Q 1250 -91 836 529 
Q 422 1150 422 2328 
Q 422 3509 836 4129 
Q 1250 4750 2034 4750 
z
" transform="scale(0.015625)"/>
       </defs>
       <use xlink:href="#DejaVuSans-30"/>
      </g>
     </g>
    </g>
    <g id="xtick_2">
     <g id="line2d_2">
      <g>
       <use xlink:href="#m3315d842ac" x="124.753484" y="307.05" style="stroke: #000000; stroke-width: 0.8"/>
      </g>
     </g>
     <g id="text_2">
      <!-- 10 -->
      <g transform="translate(118.390984 321.648438)scale(0.1 -0.1)">
       <defs>
        <path id="DejaVuSans-31" d="M 794 531 
L 1825 531 
L 1825 4091 
L 703 3866 
L 703 4441 
L 1819 4666 
L 2450 4666 
L 2450 531 
L 3481 531 
L 3481 0 
L 794 0 
L 794 531 
z
" transform="scale(0.015625)"/>
       </defs>
       <use xlink:href="#DejaVuSans-31"/>
       <use xlink:href="#DejaVuSans-30" x="63.623047"/>
      </g>
     </g>
    </g>
    <g id="xtick_3">
     <g id="line2d_3">
      <g>
       <use xlink:href="#m3315d842ac" x="175.722309" y="307.05" style="stroke: #000000; stroke-width: 0.8"/>
      </g>
     </g>
     <g id="text_3">
      <!-- 20 -->
      <g transform="translate(169.359809 321.648438)scale(0.1 -0.1)">
       <defs>
        <path id="DejaVuSans-32" d="M 1228 531 
L 3431 531 
L 3431 0 
L 469 0 
L 469 531 
Q 828 903 1448 1529 
Q 2069 2156 2228 2338 
Q 2531 2678 2651 2914 
Q 2772 3150 2772 3378 
Q 2772 3750 2511 3984 
Q 2250 4219 1831 4219 
Q 1534 4219 1204 4116 
Q 875 4013 500 3803 
L 500 4441 
Q 881 4594 1212 4672 
Q 1544 4750 1819 4750 
Q 2544 4750 2975 4387 
Q 3406 4025 3406 3419 
Q 3406 3131 3298 2873 
Q 3191 2616 2906 2266 
Q 2828 2175 2409 1742 
Q 1991 1309 1228 531 
z
" transform="scale(0.015625)"/>
       </defs>
       <use xlink:href="#DejaVuSans-32"/>
       <use xlink:href="#DejaVuSans-30" x="63.623047"/>
      </g>
     </g>
    </g>
    <g id="xtick_4">
     <g id="line2d_4">
      <g>
       <use xlink:href="#m3315d842ac" x="226.691134" y="307.05" style="stroke: #000000; stroke-width: 0.8"/>
      </g>
     </g>
     <g id="text_4">
      <!-- 30 -->
      <g transform="translate(220.328634 321.648438)scale(0.1 -0.1)">
       <defs>
        <path id="DejaVuSans-33" d="M 2597 2516 
Q 3050 2419 3304 2112 
Q 3559 1806 3559 1356 
Q 3559 666 3084 287 
Q 2609 -91 1734 -91 
Q 1441 -91 1130 -33 
Q 819 25 488 141 
L 488 750 
Q 750 597 1062 519 
Q 1375 441 1716 441 
Q 2309 441 2620 675 
Q 2931 909 2931 1356 
Q 2931 1769 2642 2001 
Q 2353 2234 1838 2234 
L 1294 2234 
L 1294 2753 
L 1863 2753 
Q 2328 2753 2575 2939 
Q 2822 3125 2822 3475 
Q 2822 3834 2567 4026 
Q 2313 4219 1838 4219 
Q 1578 4219 1281 4162 
Q 984 4106 628 3988 
L 628 4550 
Q 988 4650 1302 4700 
Q 1616 4750 1894 4750 
Q 2613 4750 3031 4423 
Q 3450 4097 3450 3541 
Q 3450 3153 3228 2886 
Q 3006 2619 2597 2516 
z
" transform="scale(0.015625)"/>
       </defs>
       <use xlink:href="#DejaVuSans-33"/>
       <use xlink:href="#DejaVuSans-30" x="63.623047"/>
      </g>
     </g>
    </g>
    <g id="xtick_5">
     <g id="line2d_5">
      <g>
       <use xlink:href="#m3315d842ac" x="277.659959" y="307.05" style="stroke: #000000; stroke-width: 0.8"/>
      </g>
     </g>
     <g id="text_5">
      <!-- 40 -->
      <g transform="translate(271.297459 321.648438)scale(0.1 -0.1)">
       <defs>
        <path id="DejaVuSans-34" d="M 2419 4116 
L 825 1625 
L 2419 1625 
L 2419 4116 
z
M 2253 4666 
L 3047 4666 
L 3047 1625 
L 3713 1625 
L 3713 1100 
L 3047 1100 
L 3047 0 
L 2419 0 
L 2419 1100 
L 313 1100 
L 313 1709 
L 2253 4666 
z
" transform="scale(0.015625)"/>
       </defs>
       <use xlink:href="#DejaVuSans-34"/>
       <use xlink:href="#DejaVuSans-30" x="63.623047"/>
      </g>
     </g>
    </g>
    <g id="xtick_6">
     <g id="line2d_6">
      <g>
       <use xlink:href="#m3315d842ac" x="328.628784" y="307.05" style="stroke: #000000; stroke-width: 0.8"/>
      </g>
     </g>
     <g id="text_6">
      <!-- 50 -->
      <g transform="translate(322.266284 321.648438)scale(0.1 -0.1)">
       <defs>
        <path id="DejaVuSans-35" d="M 691 4666 
L 3169 4666 
L 3169 4134 
L 1269 4134 
L 1269 2991 
Q 1406 3038 1543 3061 
Q 1681 3084 1819 3084 
Q 2600 3084 3056 2656 
Q 3513 2228 3513 1497 
Q 3513 744 3044 326 
Q 2575 -91 1722 -91 
Q 1428 -91 1123 -41 
Q 819 9 494 109 
L 494 744 
Q 775 591 1075 516 
Q 1375 441 1709 441 
Q 2250 441 2565 725 
Q 2881 1009 2881 1497 
Q 2881 1984 2565 2268 
Q 2250 2553 1709 2553 
Q 1456 2553 1204 2497 
Q 953 2441 691 2322 
L 691 4666 
z
" transform="scale(0.015625)"/>
       </defs>
       <use xlink:href="#DejaVuSans-35"/>
       <use xlink:href="#DejaVuSans-30" x="63.623047"/>
      </g>
     </g>
    </g>
    <g id="xtick_7">
     <g id="line2d_7">
      <g>
       <use xlink:href="#m3315d842ac" x="379.597609" y="307.05" style="stroke: #000000; stroke-width: 0.8"/>
      </g>
     </g>
     <g id="text_7">
      <!-- 60 -->
      <g transform="translate(373.235109 321.648438)scale(0.1 -0.1)">
       <defs>
        <path id="DejaVuSans-36" d="M 2113 2584 
Q 1688 2584 1439 2293 
Q 1191 2003 1191 1497 
Q 1191 994 1439 701 
Q 1688 409 2113 409 
Q 2538 409 2786 701 
Q 3034 994 3034 1497 
Q 3034 2003 2786 2293 
Q 2538 2584 2113 2584 
z
M 3366 4563 
L 3366 3988 
Q 3128 4100 2886 4159 
Q 2644 4219 2406 4219 
Q 1781 4219 1451 3797 
Q 1122 3375 1075 2522 
Q 1259 2794 1537 2939 
Q 1816 3084 2150 3084 
Q 2853 3084 3261 2657 
Q 3669 2231 3669 1497 
Q 3669 778 3244 343 
Q 2819 -91 2113 -91 
Q 1303 -91 875 529 
Q 447 1150 447 2328 
Q 447 3434 972 4092 
Q 1497 4750 2381 4750 
Q 2619 4750 2861 4703 
Q 3103 4656 3366 4563 
z
" transform="scale(0.015625)"/>
       </defs>
       <use xlink:href="#DejaVuSans-36"/>
       <use xlink:href="#DejaVuSans-30" x="63.623047"/>
      </g>
     </g>
    </g>
    <g id="text_8">
     <!-- Time (s) -->
     <g transform="translate(215.677344 335.326563)scale(0.1 -0.1)">
      <defs>
       <path id="DejaVuSans-54" d="M -19 4666 
L 3928 4666 
L 3928 4134 
L 2272 4134 
L 2272 0 
L 1638 0 
L 1638 4134 
L -19 4134 
L -19 4666 
z
" transform="scale(0.015625)"/>
       <path id="DejaVuSans-69" d="M 603 3500 
L 1178 3500 
L 1178 0 
L 603 0 
L 603 3500 
z
M 603 4863 
L 1178 4863 
L 1178 4134 
L 603 4134 
L 603 4863 
z
" transform="scale(0.015625)"/>
       <path id="DejaVuSans-6d" d="M 3328 2828 
Q 3544 3216 3844 3400 
Q 4144 3584 4550 3584 
Q 5097 3584 5394 3201 
Q 5691 2819 5691 2113 
L 5691 0 
L 5113 0 
L 5113 2094 
Q 5113 2597 4934 2840 
Q 4756 3084 4391 3084 
Q 3944 3084 3684 2787 
Q 3425 2491 3425 1978 
L 3425 0 
L 2847 0 
L 2847 2094 
Q 2847 2600 2669 2842 
Q 2491 3084 2119 3084 
Q 1678 3084 1418 2786 
Q 1159 2488 1159 1978 
L 1159 0 
L 581 0 
L 581 3500 
L 1159 3500 
L 1159 2956 
Q 1356 3278 1631 3431 
Q 1906 3584 2284 3584 
Q 2666 3584 2933 3390 
Q 3200 3197 3328 2828 
z
" transform="scale(0.015625)"/>
       <path id="DejaVuSans-65" d="M 3597 1894 
L 3597 1613 
L 953 1613 
Q 991 1019 1311 708 
Q 1631 397 2203 397 
Q 2534 397 2845 478 
Q 3156 559 3463 722 
L 3463 178 
Q 3153 47 2828 -22 
Q 2503 -91 2169 -91 
Q 1331 -91 842 396 
Q 353 884 353 1716 
Q 353 2575 817 3079 
Q 1281 3584 2069 3584 
Q 2775 3584 3186 3129 
Q 3597 2675 3597 1894 
z
M 3022 2063 
Q 3016 2534 2758 2815 
Q 2500 3097 2075 3097 
Q 1594 3097 1305 2825 
Q 1016 2553 972 2059 
L 3022 2063 
z
" transform="scale(0.015625)"/>
       <path id="DejaVuSans-20" transform="scale(0.015625)"/>
       <path id="DejaVuSans-28" d="M 1984 4856 
Q 1566 4138 1362 3434 
Q 1159 2731 1159 2009 
Q 1159 1288 1364 580 
Q 1569 -128 1984 -844 
L 1484 -844 
Q 1016 -109 783 600 
Q 550 1309 550 2009 
Q 550 2706 781 3412 
Q 1013 4119 1484 4856 
L 1984 4856 
z
" transform="scale(0.015625)"/>
       <path id="DejaVuSans-73" d="M 2834 3397 
L 2834 2853 
Q 2591 2978 2328 3040 
Q 2066 3103 1784 3103 
Q 1356 3103 1142 2972 
Q 928 2841 928 2578 
Q 928 2378 1081 2264 
Q 1234 2150 1697 2047 
L 1894 2003 
Q 2506 1872 2764 1633 
Q 3022 1394 3022 966 
Q 3022 478 2636 193 
Q 2250 -91 1575 -91 
Q 1294 -91 989 -36 
Q 684 19 347 128 
L 347 722 
Q 666 556 975 473 
Q 1284 391 1588 391 
Q 1994 391 2212 530 
Q 2431 669 2431 922 
Q 2431 1156 2273 1281 
Q 2116 1406 1581 1522 
L 1381 1569 
Q 847 1681 609 1914 
Q 372 2147 372 2553 
Q 372 3047 722 3315 
Q 1072 3584 1716 3584 
Q 2034 3584 2315 3537 
Q 2597 3491 2834 3397 
z
" transform="scale(0.015625)"/>
       <path id="DejaVuSans-29" d="M 513 4856 
L 1013 4856 
Q 1481 4119 1714 3412 
Q 1947 2706 1947 2009 
Q 1947 1309 1714 600 
Q 1481 -109 1013 -844 
L 513 -844 
Q 928 -128 1133 580 
Q 1338 1288 1338 2009 
Q 1338 2731 1133 3434 
Q 928 4138 513 4856 
z
" transform="scale(0.015625)"/>
      </defs>
      <use xlink:href="#DejaVuSans-54"/>
      <use xlink:href="#DejaVuSans-69" x="57.958984"/>
      <use xlink:href="#DejaVuSans-6d" x="85.742188"/>
      <use xlink:href="#DejaVuSans-65" x="183.154297"/>
      <use xlink:href="#DejaVuSans-20" x="244.677734"/>
      <use xlink:href="#DejaVuSans-28" x="276.464844"/>
      <use xlink:href="#DejaVuSans-73" x="315.478516"/>
      <use xlink:href="#DejaVuSans-29" x="367.578125"/>
     </g>
    </g>
   </g>
   <g id="matplotlib.axis_2">
    <g id="ytick_1">
     <g id="line2d_8">
      <defs>
       <path id="mf191a14164" d="M 0 0 
L -3.5 0 
" style="stroke: #000000; stroke-width: 0.8"/>
      </defs>
      <g>
       <use xlink:href="#mf191a14164" x="57.5625" y="294.975" style="stroke: #000000; stroke-width: 0.8"/>
      </g>
     </g>
     <g id="text_9">
      <!-- 0 -->
      <g transform="translate(44.2 298.774219)scale(0.1 -0.1)">
       <use xlink:href="#DejaVuSans-30"/>
      </g>
     </g>
    </g>
    <g id="ytick_2">
     <g id="line2d_9">
      <g>
       <use xlink:href="#mf191a14164" x="57.5625" y="257.455002" style="stroke: #000000; stroke-width: 0.8"/>
      </g>
     </g>
     <g id="text_10">
      <!-- 2000 -->
      <g transform="translate(25.1125 261.254221)scale(0.1 -0.1)">
       <use xlink:href="#DejaVuSans-32"/>
       <use xlink:href="#DejaVuSans-30" x="63.623047"/>
       <use xlink:href="#DejaVuSans-30" x="127.246094"/>
       <use xlink:href="#DejaVuSans-30" x="190.869141"/>
      </g>
     </g>
    </g>
    <g id="ytick_3">
     <g id="line2d_10">
      <g>
       <use xlink:href="#mf191a14164" x="57.5625" y="219.935005" style="stroke: #000000; stroke-width: 0.8"/>
      </g>
     </g>
     <g id="text_11">
      <!-- 4000 -->
      <g transform="translate(25.1125 223.734224)scale(0.1 -0.1)">
       <use xlink:href="#DejaVuSans-34"/>
       <use xlink:href="#DejaVuSans-30" x="63.623047"/>
       <use xlink:href="#DejaVuSans-30" x="127.246094"/>
       <use xlink:href="#DejaVuSans-30" x="190.869141"/>
      </g>
     </g>
    </g>
    <g id="ytick_4">
     <g id="line2d_11">
      <g>
       <use xlink:href="#mf191a14164" x="57.5625" y="182.415007" style="stroke: #000000; stroke-width: 0.8"/>
      </g>
     </g>
     <g id="text_12">
      <!-- 6000 -->
      <g transform="translate(25.1125 186.214226)scale(0.1 -0.1)">
       <use xlink:href="#DejaVuSans-36"/>
       <use xlink:href="#DejaVuSans-30" x="63.623047"/>
       <use xlink:href="#DejaVuSans-30" x="127.246094"/>
       <use xlink:href="#DejaVuSans-30" x="190.869141"/>
      </g>
     </g>
    </g>
    <g id="ytick_5">
     <g id="line2d_12">
      <g>
       <use xlink:href="#mf191a14164" x="57.5625" y="144.89501" style="stroke: #000000; stroke-width: 0.8"/>
      </g>
     </g>
     <g id="text_13">
      <!-- 8000 -->
      <g transform="translate(25.1125 148.694228)scale(0.1 -0.1)">
       <defs>
        <path id="DejaVuSans-38" d="M 2034 2216 
Q 1584 2216 1326 1975 
Q 1069 1734 1069 1313 
Q 1069 891 1326 650 
Q 1584 409 2034 409 
Q 2484 409 2743 651 
Q 3003 894 3003 1313 
Q 3003 1734 2745 1975 
Q 2488 2216 2034 2216 
z
M 1403 2484 
Q 997 2584 770 2862 
Q 544 3141 544 3541 
Q 544 4100 942 4425 
Q 1341 4750 2034 4750 
Q 2731 4750 3128 4425 
Q 3525 4100 3525 3541 
Q 3525 3141 3298 2862 
Q 3072 2584 2669 2484 
Q 3125 2378 3379 2068 
Q 3634 1759 3634 1313 
Q 3634 634 3220 271 
Q 2806 -91 2034 -91 
Q 1263 -91 848 271 
Q 434 634 434 1313 
Q 434 1759 690 2068 
Q 947 2378 1403 2484 
z
M 1172 3481 
Q 1172 3119 1398 2916 
Q 1625 2713 2034 2713 
Q 2441 2713 2670 2916 
Q 2900 3119 2900 3481 
Q 2900 3844 2670 4047 
Q 2441 4250 2034 4250 
Q 1625 4250 1398 4047 
Q 1172 3844 1172 3481 
z
" transform="scale(0.015625)"/>
       </defs>
       <use xlink:href="#DejaVuSans-38"/>
       <use xlink:href="#DejaVuSans-30" x="63.623047"/>
       <use xlink:href="#DejaVuSans-30" x="127.246094"/>
       <use xlink:href="#DejaVuSans-30" x="190.869141"/>
      </g>
     </g>
    </g>
    <g id="ytick_6">
     <g id="line2d_13">
      <g>
       <use xlink:href="#mf191a14164" x="57.5625" y="107.375012" style="stroke: #000000; stroke-width: 0.8"/>
      </g>
     </g>
     <g id="text_14">
      <!-- 10000 -->
      <g transform="translate(18.75 111.174231)scale(0.1 -0.1)">
       <use xlink:href="#DejaVuSans-31"/>
       <use xlink:href="#DejaVuSans-30" x="63.623047"/>
       <use xlink:href="#DejaVuSans-30" x="127.246094"/>
       <use xlink:href="#DejaVuSans-30" x="190.869141"/>
       <use xlink:href="#DejaVuSans-30" x="254.492188"/>
      </g>
     </g>
    </g>
    <g id="ytick_7">
     <g id="line2d_14">
      <g>
       <use xlink:href="#mf191a14164" x="57.5625" y="69.855014" style="stroke: #000000; stroke-width: 0.8"/>
      </g>
     </g>
     <g id="text_15">
      <!-- 12000 -->
      <g transform="translate(18.75 73.654233)scale(0.1 -0.1)">
       <use xlink:href="#DejaVuSans-31"/>
       <use xlink:href="#DejaVuSans-32" x="63.623047"/>
       <use xlink:href="#DejaVuSans-30" x="127.246094"/>
       <use xlink:href="#DejaVuSans-30" x="190.869141"/>
       <use xlink:href="#DejaVuSans-30" x="254.492188"/>
      </g>
     </g>
    </g>
    <g id="text_16">
     <!-- Trust Score -->
     <g transform="translate(12.670312 201.921875)rotate(-90)scale(0.1 -0.1)">
      <defs>
       <path id="DejaVuSans-72" d="M 2631 2963 
Q 2534 3019 2420 3045 
Q 2306 3072 2169 3072 
Q 1681 3072 1420 2755 
Q 1159 2438 1159 1844 
L 1159 0 
L 581 0 
L 581 3500 
L 1159 3500 
L 1159 2956 
Q 1341 3275 1631 3429 
Q 1922 3584 2338 3584 
Q 2397 3584 2469 3576 
Q 2541 3569 2628 3553 
L 2631 2963 
z
" transform="scale(0.015625)"/>
       <path id="DejaVuSans-75" d="M 544 1381 
L 544 3500 
L 1119 3500 
L 1119 1403 
Q 1119 906 1312 657 
Q 1506 409 1894 409 
Q 2359 409 2629 706 
Q 2900 1003 2900 1516 
L 2900 3500 
L 3475 3500 
L 3475 0 
L 2900 0 
L 2900 538 
Q 2691 219 2414 64 
Q 2138 -91 1772 -91 
Q 1169 -91 856 284 
Q 544 659 544 1381 
z
M 1991 3584 
L 1991 3584 
z
" transform="scale(0.015625)"/>
       <path id="DejaVuSans-74" d="M 1172 4494 
L 1172 3500 
L 2356 3500 
L 2356 3053 
L 1172 3053 
L 1172 1153 
Q 1172 725 1289 603 
Q 1406 481 1766 481 
L 2356 481 
L 2356 0 
L 1766 0 
Q 1100 0 847 248 
Q 594 497 594 1153 
L 594 3053 
L 172 3053 
L 172 3500 
L 594 3500 
L 594 4494 
L 1172 4494 
z
" transform="scale(0.015625)"/>
       <path id="DejaVuSans-53" d="M 3425 4513 
L 3425 3897 
Q 3066 4069 2747 4153 
Q 2428 4238 2131 4238 
Q 1616 4238 1336 4038 
Q 1056 3838 1056 3469 
Q 1056 3159 1242 3001 
Q 1428 2844 1947 2747 
L 2328 2669 
Q 3034 2534 3370 2195 
Q 3706 1856 3706 1288 
Q 3706 609 3251 259 
Q 2797 -91 1919 -91 
Q 1588 -91 1214 -16 
Q 841 59 441 206 
L 441 856 
Q 825 641 1194 531 
Q 1563 422 1919 422 
Q 2459 422 2753 634 
Q 3047 847 3047 1241 
Q 3047 1584 2836 1778 
Q 2625 1972 2144 2069 
L 1759 2144 
Q 1053 2284 737 2584 
Q 422 2884 422 3419 
Q 422 4038 858 4394 
Q 1294 4750 2059 4750 
Q 2388 4750 2728 4690 
Q 3069 4631 3425 4513 
z
" transform="scale(0.015625)"/>
       <path id="DejaVuSans-63" d="M 3122 3366 
L 3122 2828 
Q 2878 2963 2633 3030 
Q 2388 3097 2138 3097 
Q 1578 3097 1268 2742 
Q 959 2388 959 1747 
Q 959 1106 1268 751 
Q 1578 397 2138 397 
Q 2388 397 2633 464 
Q 2878 531 3122 666 
L 3122 134 
Q 2881 22 2623 -34 
Q 2366 -91 2075 -91 
Q 1284 -91 818 406 
Q 353 903 353 1747 
Q 353 2603 823 3093 
Q 1294 3584 2113 3584 
Q 2378 3584 2631 3529 
Q 2884 3475 3122 3366 
z
" transform="scale(0.015625)"/>
       <path id="DejaVuSans-6f" d="M 1959 3097 
Q 1497 3097 1228 2736 
Q 959 2375 959 1747 
Q 959 1119 1226 758 
Q 1494 397 1959 397 
Q 2419 397 2687 759 
Q 2956 1122 2956 1747 
Q 2956 2369 2687 2733 
Q 2419 3097 1959 3097 
z
M 1959 3584 
Q 2709 3584 3137 3096 
Q 3566 2609 3566 1747 
Q 3566 888 3137 398 
Q 2709 -91 1959 -91 
Q 1206 -91 779 398 
Q 353 888 353 1747 
Q 353 2609 779 3096 
Q 1206 3584 1959 3584 
z
" transform="scale(0.015625)"/>
      </defs>
      <use xlink:href="#DejaVuSans-54"/>
      <use xlink:href="#DejaVuSans-72" x="46.333984"/>
      <use xlink:href="#DejaVuSans-75" x="87.447266"/>
      <use xlink:href="#DejaVuSans-73" x="150.826172"/>
      <use xlink:href="#DejaVuSans-74" x="202.925781"/>
      <use xlink:href="#DejaVuSans-20" x="242.134766"/>
      <use xlink:href="#DejaVuSans-53" x="273.921875"/>
      <use xlink:href="#DejaVuSans-63" x="337.398438"/>
      <use xlink:href="#DejaVuSans-6f" x="392.378906"/>
      <use xlink:href="#DejaVuSans-72" x="453.560547"/>
      <use xlink:href="#DejaVuSans-65" x="492.423828"/>
     </g>
    </g>
   </g>
   <g id="line2d_15">
    <path d="M 73.784659 294.975 
L 142.792091 294.89455 
L 144.187458 294.688806 
L 145.181445 294.350836 
L 146.009397 293.962241 
L 146.929453 293.147937 
L 147.590349 292.42093 
L 148.581944 290.928519 
L 150.289794 287.175466 
L 150.699757 286.179555 
L 152.436635 279.485707 
L 153.897164 271.524986 
L 154.660796 266.463501 
L 156.691133 249.985955 
L 158.856095 221.591655 
L 162.336833 164.492989 
L 163.218808 156.757819 
L 165.912044 153.81025 
L 166.977627 145.249896 
L 167.552195 142.338823 
L 168.60375 134.494406 
L 168.939252 132.396337 
L 169.350901 130.551935 
L 170.499691 126.887088 
L 170.843393 126.200836 
L 171.219631 125.745189 
L 171.589839 125.517257 
L 171.979115 125.512122 
L 172.357568 125.68894 
L 172.733633 126.008104 
L 173.451844 127.042913 
L 174.455717 129.430801 
L 175.170929 131.550098 
L 176.264168 135.641733 
L 177.003218 139.10899 
L 179.14193 151.106633 
L 180.430791 163.840554 
L 182.375905 185.859027 
L 183.428841 197.279991 
L 184.454244 208.432747 
L 185.979489 226.803275 
L 186.652558 233.971899 
L 191.007086 267.834908 
L 191.68597 272.151506 
L 193.049518 279.011857 
L 194.071532 282.376846 
L 194.719283 283.892389 
L 195.307412 284.682418 
L 195.981675 285.059852 
L 196.669838 285.052122 
L 197.380159 284.742768 
L 198.604246 283.960603 
L 199.396344 283.352754 
L 200.351224 282.735552 
L 201.449345 281.906315 
L 202.184914 281.625713 
L 202.973518 281.300757 
L 203.758947 280.766385 
L 205.552125 279.29028 
L 206.229837 278.974464 
L 206.924335 278.874297 
L 207.607841 278.974785 
L 210.158861 279.78855 
L 211.069594 279.757573 
L 212.402461 279.328574 
L 215.478008 278.372765 
L 216.921386 278.385268 
L 219.39368 278.612963 
L 221.184978 278.489308 
L 224.306295 278.271205 
L 225.668017 278.230797 
L 227.304862 277.975078 
L 232.027839 277.115125 
L 234.081426 276.963461 
L 236.055802 277.328005 
L 237.434887 277.604804 
L 238.627798 277.633701 
L 239.763711 277.45311 
L 241.389128 277.006332 
L 242.773699 276.893412 
L 244.669728 276.948324 
L 246.814505 277.079697 
L 250.177842 276.685367 
L 253.060987 276.340684 
L 257.948893 276.183549 
L 260.985563 275.291117 
L 262.855165 274.770735 
L 264.252663 274.602691 
L 266.931117 274.91045 
L 268.483719 275.192382 
L 269.59227 275.251565 
L 272.550573 275.203329 
L 273.933527 275.372107 
L 277.840572 276.146086 
L 278.963757 276.800868 
L 280.503886 277.916234 
L 287.983246 284.744995 
L 289.527762 286.401023 
L 290.23426 287.065955 
L 292.002638 288.993261 
L 293.24826 290.084913 
L 294.189327 290.756496 
L 295.817882 291.650806 
L 296.939674 292.091124 
L 298.122737 292.47884 
L 301.132882 293.376082 
L 303.380204 293.850122 
L 305.709168 294.053912 
L 316.949404 294.469429 
L 318.281984 294.334896 
L 319.325927 294.083828 
L 319.983331 293.66681 
L 320.869066 292.814276 
L 322.358402 291.026399 
L 323.170446 289.758265 
L 324.219352 287.427434 
L 325.225758 284.546315 
L 326.173296 281.376078 
L 327.313497 277.926036 
L 329.543677 270.915997 
L 330.141688 269.805468 
L 333.553029 260.79179 
L 334.828663 258.326196 
L 335.8876 256.912412 
L 336.945134 255.902482 
L 337.584841 255.413187 
L 338.516368 254.947757 
L 339.673889 254.839991 
L 341.032127 254.977426 
L 342.108015 255.353202 
L 344.732493 256.775635 
L 348.136292 258.789193 
L 348.81691 259.644779 
L 349.652355 260.833777 
L 351.450775 263.945062 
L 351.876391 264.848013 
L 352.550166 265.746772 
L 354.1506 268.830651 
L 355.858986 270.620523 
L 356.25838 270.904023 
L 357.041471 271.09989 
L 357.383237 270.997872 
L 357.784913 270.731052 
L 358.235312 270.102912 
L 358.630852 269.1554 
L 359.079222 267.661141 
L 360.308385 260.642408 
L 361.4792 251.881435 
L 361.4792 251.881435 
" clip-path="url(#pfc0eba8afd)" style="fill: none; stroke: #800080; stroke-width: 5; stroke-linecap: square"/>
   </g>
   <g id="line2d_16">
    <path d="M 73.784659 294.975 
L 85.361865 294.893383 
L 85.880983 294.71006 
L 86.549554 294.089194 
L 140.832041 293.756821 
L 141.75485 293.299479 
L 142.449021 293.059719 
L 143.483209 292.993692 
L 146.623553 293.134797 
L 147.263554 292.953058 
L 147.906986 292.61499 
L 149.204427 291.799714 
L 150.99049 291.291748 
L 151.707526 290.748995 
L 152.073222 290.373177 
L 152.782608 289.215022 
L 153.515324 287.640268 
L 154.277925 285.59201 
L 155.024553 282.812975 
L 156.691133 274.843004 
L 158.520123 259.808845 
L 159.53387 248.062151 
L 160.972596 228.640785 
L 162.006809 212.063536 
L 162.756536 201.23984 
L 163.218808 196.330059 
L 165.543631 193.777079 
L 166.27598 189.911458 
L 169.350901 177.098804 
L 169.801519 175.095371 
L 172.357568 159.843773 
L 173.100344 156.818389 
L 173.771831 154.878543 
L 174.100216 154.29086 
L 174.455717 153.944964 
L 174.811936 153.82822 
L 175.170929 153.90141 
L 175.522307 154.161862 
L 176.264168 155.184731 
L 177.003218 156.693694 
L 177.376096 157.736187 
L 178.777953 163.348991 
L 179.457757 168.696379 
L 180.724848 180.508811 
L 182.015754 193.194438 
L 184.454244 215.993694 
L 185.655141 228.254911 
L 186.652558 236.690649 
L 187.495477 242.915511 
L 191.68597 276.818582 
L 193.049518 284.367513 
L 194.071532 288.091568 
L 195.00775 290.118012 
L 195.307412 290.537559 
L 195.981675 291.065666 
L 196.669838 291.292386 
L 199.396344 291.536965 
L 199.976028 291.748947 
L 200.696399 292.339825 
L 201.449345 292.980471 
L 203.758947 293.033929 
L 205.200242 293.132154 
L 206.552864 293.186299 
L 207.607841 293.518413 
L 208.946652 294.037265 
L 210.158861 294.236055 
L 213.471293 294.432097 
L 222.989386 294.789212 
L 240.763665 294.480498 
L 248.830799 293.175596 
L 250.865819 292.68322 
L 251.94094 292.265884 
L 253.060987 291.542053 
L 254.463434 290.447132 
L 255.598735 288.876782 
L 256.967823 286.271014 
L 257.948893 283.889033 
L 259.273394 280.273932 
L 260.343838 277.276465 
L 261.735827 273.203965 
L 264.581858 265.782676 
L 265.334894 264.987216 
L 266.202662 263.50481 
L 267.30958 261.575306 
L 268.052277 260.486287 
L 269.59227 259.010669 
L 270.751053 258.474707 
L 271.860709 258.368838 
L 272.550573 258.435254 
L 273.933527 258.864248 
L 277.474309 260.420121 
L 280.503886 262.033996 
L 284.158485 264.691399 
L 285.55237 266.045187 
L 286.864652 267.555335 
L 287.686773 268.312494 
L 288.902557 269.610347 
L 289.527762 270.079648 
L 292.296301 271.458648 
L 293.546171 271.636174 
L 295.17865 271.86508 
L 296.12759 272.125293 
L 298.122737 273.017937 
L 301.132882 275.182794 
L 301.897104 275.482664 
L 303.01932 275.52415 
L 304.11493 275.30928 
L 306.050707 274.80059 
L 307.142166 274.726617 
L 309.26497 274.848904 
L 310.563462 274.830403 
L 312.333002 274.618228 
L 313.351883 274.428159 
L 315.028801 274.39921 
L 317.85634 274.557597 
L 319.325927 274.350957 
L 321.194708 273.803432 
L 322.744263 273.626608 
L 323.868866 273.663969 
L 325.50179 273.860129 
L 327.313497 274.177879 
L 329.543677 274.381952 
L 334.179912 274.491031 
L 335.185493 274.860359 
L 338.213653 276.376034 
L 339.331917 276.511087 
L 341.032127 276.499973 
L 342.463122 276.425812 
L 343.98493 276.634401 
L 345.505911 276.910002 
L 347.350875 276.97441 
L 348.81691 276.809418 
L 350.073587 276.471494 
L 350.921672 276.060345 
L 351.450775 275.6524 
L 352.550166 274.35007 
L 353.391019 272.345166 
L 355.079428 266.721324 
L 356.25838 262.838972 
L 357.041471 261.378732 
L 357.383237 261.029546 
L 357.784913 260.909488 
L 358.630852 261.110695 
L 358.630852 261.110695 
" clip-path="url(#pfc0eba8afd)" style="fill: none; stroke: #ff0000; stroke-width: 5; stroke-linecap: square"/>
   </g>
   <g id="line2d_17">
    <path d="M 73.784659 294.975 
L 142.792091 294.886642 
L 144.187458 294.675469 
L 145.181445 294.33933 
L 146.009397 293.952207 
L 146.929453 293.140714 
L 147.590349 292.398449 
L 148.581944 290.910353 
L 149.518698 288.810042 
L 150.99049 284.970141 
L 152.073222 281.016291 
L 153.142774 275.684576 
L 154.277925 269.093298 
L 155.024553 263.562191 
L 155.732199 257.324033 
L 156.321901 253.739666 
L 157.39361 241.209135 
L 158.157393 231.649677 
L 158.856095 221.154096 
L 160.620473 189.594813 
L 162.336833 155.755817 
L 163.218808 144.749364 
L 165.543631 142.019132 
L 166.27598 137.942213 
L 166.977627 135.418402 
L 167.909879 134.64588 
L 168.263573 134.703132 
L 168.60375 135.033104 
L 169.350901 136.431288 
L 169.801519 137.506384 
L 170.499691 140.192814 
L 173.451844 153.947245 
L 174.455717 159.191442 
L 175.522307 164.034652 
L 176.264168 166.495653 
L 177.003218 168.264314 
L 177.376096 168.901231 
L 177.744095 169.276266 
L 178.204976 169.472461 
L 179.14193 169.063431 
L 180.125576 168.045413 
L 180.724848 167.229135 
L 183.11521 162.987018 
L 184.454244 159.226082 
L 186.296152 152.920291 
L 188.308786 145.881854 
L 189.572726 140.300868 
L 190.664124 133.920511 
L 192.042154 123.039264 
L 192.717955 116.786714 
L 196.997838 72.824423 
L 198.166167 64.731877 
L 199.396344 58.234586 
L 201.050544 53.780335 
L 201.449345 53.475 
L 201.800616 54.675623 
L 202.609217 58.679816 
L 203.351624 64.636978 
L 204.121341 73.108614 
L 204.508857 78.061663 
L 206.229837 110.016283 
L 208.254618 156.840892 
L 209.29482 175.723913 
L 210.560257 188.174639 
L 211.7092 193.268766 
L 212.024466 193.317017 
L 212.402461 192.469324 
L 212.841677 190.862557 
L 213.471293 185.828836 
L 214.113646 178.478155 
L 215.893406 153.869204 
L 216.921386 137.288579 
L 217.265777 131.657989 
L 217.742051 126.090479 
L 219.029189 104.533355 
L 220.474293 85.628194 
L 221.184978 77.561004 
L 221.711169 73.92493 
L 222.670265 64.884473 
L 223.312281 60.512978 
L 223.974175 57.633732 
L 224.306295 56.834645 
L 224.646228 56.42673 
L 224.978476 56.499875 
L 225.332102 56.943028 
L 225.668017 57.759401 
L 226.509311 60.882363 
L 226.936921 63.198474 
L 227.660707 69.034011 
L 228.382269 76.893542 
L 229.464346 91.958153 
L 230.912102 116.069229 
L 232.027839 135.981837 
L 232.620649 142.855045 
L 237.026421 224.671857 
L 238.627798 242.38924 
L 239.378088 249.483072 
L 241.071404 261.983911 
L 241.712523 265.212504 
L 242.403791 267.48749 
L 242.773699 268.290948 
L 243.747105 269.227226 
L 244.256661 269.386485 
L 244.669728 269.366882 
L 245.035684 269.185819 
L 245.747259 268.447031 
L 246.492661 267.224107 
L 248.15103 263.707517 
L 249.164041 262.110779 
L 249.828955 261.368363 
L 250.503314 260.886485 
L 251.229499 260.737724 
L 251.94094 260.926241 
L 252.673045 261.388336 
L 253.475976 262.094303 
L 253.853414 262.527662 
L 254.463434 263.004636 
L 255.246777 264.09705 
L 256.283494 265.960661 
L 258.29201 270.147656 
L 260.343838 274.304189 
L 261.31171 276.150956 
L 263.232157 278.55786 
L 264.581858 279.693744 
L 266.570266 280.016853 
L 270.751053 280.440172 
L 272.919507 280.868173 
L 282.091387 283.442567 
L 288.281062 284.348537 
L 298.841492 286.787363 
L 301.897104 287.106507 
L 304.11493 287.10684 
L 306.406254 286.935101 
L 308.966701 286.534405 
L 312.673955 285.488732 
L 319.697167 281.986102 
L 321.5643 280.382027 
L 323.521819 279.082317 
L 326.882011 276.623713 
L 328.842968 275.359185 
L 329.543677 274.861151 
L 330.537738 274.29494 
L 334.828663 271.090088 
L 338.516368 269.19648 
L 341.751001 267.992759 
L 343.263404 267.4448 
L 345.505911 266.772607 
L 347.715556 266.278603 
L 349.652355 266.043112 
L 351.876391 265.899429 
L 353.7901 266.019112 
L 357.041471 266.869045 
L 359.079222 267.830512 
L 360.308385 268.627982 
L 361.124082 269.19987 
L 362.490053 270.567268 
L 363.859245 271.957994 
L 364.460531 272.328191 
L 366.571535 274.599172 
L 367.957809 276.106961 
L 369.467712 277.57725 
L 370.286988 278.330032 
L 371.030086 279.06932 
L 374.580655 282.556156 
L 375.421278 283.311518 
L 376.061501 283.685136 
L 378.859447 286.63806 
L 382.940761 290.011606 
L 384.549181 291.32712 
L 385.983028 292.214309 
L 386.373217 292.41776 
L 387.454296 292.793053 
L 389.709143 293.737433 
L 391.836851 294.342134 
L 393.798712 294.666989 
L 397.059884 294.924339 
L 398.227841 294.953231 
L 398.227841 294.953231 
" clip-path="url(#pfc0eba8afd)" style="fill: none; stroke: #0000ff; stroke-width: 5; stroke-linecap: square"/>
   </g>
   <g id="patch_3">
    <path d="M 57.5625 307.05 
L 57.5625 41.4 
" style="fill: none; stroke: #000000; stroke-width: 0.8; stroke-linejoin: miter; stroke-linecap: square"/>
   </g>
   <g id="patch_4">
    <path d="M 414.45 307.05 
L 414.45 41.4 
" style="fill: none; stroke: #000000; stroke-width: 0.8; stroke-linejoin: miter; stroke-linecap: square"/>
   </g>
   <g id="patch_5">
    <path d="M 57.5625 307.05 
L 414.45 307.05 
" style="fill: none; stroke: #000000; stroke-width: 0.8; stroke-linejoin: miter; stroke-linecap: square"/>
   </g>
   <g id="patch_6">
    <path d="M 57.5625 41.4 
L 414.45 41.4 
" style="fill: none; stroke: #000000; stroke-width: 0.8; stroke-linejoin: miter; stroke-linecap: square"/>
   </g>
   <g id="legend_1">
    <g id="patch_7">
     <path d="M 348.6875 93.434375 
L 407.45 93.434375 
Q 409.45 93.434375 409.45 91.434375 
L 409.45 48.4 
Q 409.45 46.4 407.45 46.4 
L 348.6875 46.4 
Q 346.6875 46.4 346.6875 48.4 
L 346.6875 91.434375 
Q 346.6875 93.434375 348.6875 93.434375 
z
" style="fill: #ffffff; opacity: 0.8; stroke: #cccccc; stroke-linejoin: miter"/>
    </g>
    <g id="line2d_18">
     <path d="M 350.6875 54.498437 
L 360.6875 54.498437 
L 370.6875 54.498437 
" style="fill: none; stroke: #800080; stroke-width: 5; stroke-linecap: square"/>
    </g>
    <g id="text_17">
     <!-- Car 0 -->
     <g transform="translate(378.6875 57.998437)scale(0.1 -0.1)">
      <defs>
       <path id="DejaVuSans-43" d="M 4122 4306 
L 4122 3641 
Q 3803 3938 3442 4084 
Q 3081 4231 2675 4231 
Q 1875 4231 1450 3742 
Q 1025 3253 1025 2328 
Q 1025 1406 1450 917 
Q 1875 428 2675 428 
Q 3081 428 3442 575 
Q 3803 722 4122 1019 
L 4122 359 
Q 3791 134 3420 21 
Q 3050 -91 2638 -91 
Q 1578 -91 968 557 
Q 359 1206 359 2328 
Q 359 3453 968 4101 
Q 1578 4750 2638 4750 
Q 3056 4750 3426 4639 
Q 3797 4528 4122 4306 
z
" transform="scale(0.015625)"/>
       <path id="DejaVuSans-61" d="M 2194 1759 
Q 1497 1759 1228 1600 
Q 959 1441 959 1056 
Q 959 750 1161 570 
Q 1363 391 1709 391 
Q 2188 391 2477 730 
Q 2766 1069 2766 1631 
L 2766 1759 
L 2194 1759 
z
M 3341 1997 
L 3341 0 
L 2766 0 
L 2766 531 
Q 2569 213 2275 61 
Q 1981 -91 1556 -91 
Q 1019 -91 701 211 
Q 384 513 384 1019 
Q 384 1609 779 1909 
Q 1175 2209 1959 2209 
L 2766 2209 
L 2766 2266 
Q 2766 2663 2505 2880 
Q 2244 3097 1772 3097 
Q 1472 3097 1187 3025 
Q 903 2953 641 2809 
L 641 3341 
Q 956 3463 1253 3523 
Q 1550 3584 1831 3584 
Q 2591 3584 2966 3190 
Q 3341 2797 3341 1997 
z
" transform="scale(0.015625)"/>
      </defs>
      <use xlink:href="#DejaVuSans-43"/>
      <use xlink:href="#DejaVuSans-61" x="69.824219"/>
      <use xlink:href="#DejaVuSans-72" x="131.103516"/>
      <use xlink:href="#DejaVuSans-20" x="172.216797"/>
      <use xlink:href="#DejaVuSans-30" x="204.003906"/>
     </g>
    </g>
    <g id="line2d_19">
     <path d="M 350.6875 69.176562 
L 360.6875 69.176562 
L 370.6875 69.176562 
" style="fill: none; stroke: #ff0000; stroke-width: 5; stroke-linecap: square"/>
    </g>
    <g id="text_18">
     <!-- Car 1 -->
     <g transform="translate(378.6875 72.676562)scale(0.1 -0.1)">
      <use xlink:href="#DejaVuSans-43"/>
      <use xlink:href="#DejaVuSans-61" x="69.824219"/>
      <use xlink:href="#DejaVuSans-72" x="131.103516"/>
      <use xlink:href="#DejaVuSans-20" x="172.216797"/>
      <use xlink:href="#DejaVuSans-31" x="204.003906"/>
     </g>
    </g>
    <g id="line2d_20">
     <path d="M 350.6875 83.854687 
L 360.6875 83.854687 
L 370.6875 83.854687 
" style="fill: none; stroke: #0000ff; stroke-width: 5; stroke-linecap: square"/>
    </g>
    <g id="text_19">
     <!-- Car 2 -->
     <g transform="translate(378.6875 87.354687)scale(0.1 -0.1)">
      <use xlink:href="#DejaVuSans-43"/>
      <use xlink:href="#DejaVuSans-61" x="69.824219"/>
      <use xlink:href="#DejaVuSans-72" x="131.103516"/>
      <use xlink:href="#DejaVuSans-20" x="172.216797"/>
      <use xlink:href="#DejaVuSans-32" x="204.003906"/>
     </g>
    </g>
   </g>
  </g>
 </g>
 <defs>
  <clipPath id="pfc0eba8afd">
   <rect x="57.5625" y="41.4" width="356.8875" height="265.65"/>
  </clipPath>
 </defs>
</svg>
