%TF.GenerationSoftware,KiCad,Pcbnew,7.0.9*%
%TF.CreationDate,2024-06-27T12:47:17-04:00*%
%TF.ProjectId,PCBAdas,50434241-6461-4732-9e6b-696361645f70,rev?*%
%TF.SameCoordinates,Original*%
%TF.FileFunction,Copper,L1,Top*%
%TF.FilePolarity,Positive*%
%FSLAX46Y46*%
G04 Gerber Fmt 4.6, Leading zero omitted, Abs format (unit mm)*
G04 Created by KiCad (PCBNEW 7.0.9) date 2024-06-27 12:47:17*
%MOMM*%
%LPD*%
G01*
G04 APERTURE LIST*
%ADD10C,0.300000*%
%TA.AperFunction,NonConductor*%
%ADD11C,0.300000*%
%TD*%
%ADD12C,0.250000*%
%TA.AperFunction,NonConductor*%
%ADD13C,0.250000*%
%TD*%
%TA.AperFunction,ComponentPad*%
%ADD14C,1.803400*%
%TD*%
%TA.AperFunction,ComponentPad*%
%ADD15R,1.910000X1.910000*%
%TD*%
%TA.AperFunction,ComponentPad*%
%ADD16C,1.910000*%
%TD*%
%TA.AperFunction,ComponentPad*%
%ADD17C,1.600000*%
%TD*%
%TA.AperFunction,ComponentPad*%
%ADD18O,1.600000X1.600000*%
%TD*%
%TA.AperFunction,ComponentPad*%
%ADD19C,5.600000*%
%TD*%
%TA.AperFunction,ComponentPad*%
%ADD20R,2.000000X1.905000*%
%TD*%
%TA.AperFunction,ComponentPad*%
%ADD21O,2.000000X1.905000*%
%TD*%
%TA.AperFunction,ComponentPad*%
%ADD22R,2.200000X2.200000*%
%TD*%
%TA.AperFunction,ComponentPad*%
%ADD23O,2.200000X2.200000*%
%TD*%
%TA.AperFunction,Conductor*%
%ADD24C,0.700000*%
%TD*%
%TA.AperFunction,Conductor*%
%ADD25C,0.250000*%
%TD*%
G04 APERTURE END LIST*
D10*
D11*
X179712257Y-98576917D02*
X179712257Y-97862632D01*
X180140828Y-98719774D02*
X178640828Y-98219774D01*
X178640828Y-98219774D02*
X180140828Y-97719774D01*
X180140828Y-97219775D02*
X179140828Y-97219775D01*
X179426542Y-97219775D02*
X179283685Y-97148346D01*
X179283685Y-97148346D02*
X179212257Y-97076918D01*
X179212257Y-97076918D02*
X179140828Y-96934060D01*
X179140828Y-96934060D02*
X179140828Y-96791203D01*
X180140828Y-95648347D02*
X178640828Y-95648347D01*
X180069400Y-95648347D02*
X180140828Y-95791204D01*
X180140828Y-95791204D02*
X180140828Y-96076918D01*
X180140828Y-96076918D02*
X180069400Y-96219775D01*
X180069400Y-96219775D02*
X179997971Y-96291204D01*
X179997971Y-96291204D02*
X179855114Y-96362632D01*
X179855114Y-96362632D02*
X179426542Y-96362632D01*
X179426542Y-96362632D02*
X179283685Y-96291204D01*
X179283685Y-96291204D02*
X179212257Y-96219775D01*
X179212257Y-96219775D02*
X179140828Y-96076918D01*
X179140828Y-96076918D02*
X179140828Y-95791204D01*
X179140828Y-95791204D02*
X179212257Y-95648347D01*
X179140828Y-94291204D02*
X180140828Y-94291204D01*
X179140828Y-94934061D02*
X179926542Y-94934061D01*
X179926542Y-94934061D02*
X180069400Y-94862632D01*
X180069400Y-94862632D02*
X180140828Y-94719775D01*
X180140828Y-94719775D02*
X180140828Y-94505489D01*
X180140828Y-94505489D02*
X180069400Y-94362632D01*
X180069400Y-94362632D02*
X179997971Y-94291204D01*
X180140828Y-93576918D02*
X179140828Y-93576918D01*
X178640828Y-93576918D02*
X178712257Y-93648346D01*
X178712257Y-93648346D02*
X178783685Y-93576918D01*
X178783685Y-93576918D02*
X178712257Y-93505489D01*
X178712257Y-93505489D02*
X178640828Y-93576918D01*
X178640828Y-93576918D02*
X178783685Y-93576918D01*
X179140828Y-92862632D02*
X180140828Y-92862632D01*
X179283685Y-92862632D02*
X179212257Y-92791203D01*
X179212257Y-92791203D02*
X179140828Y-92648346D01*
X179140828Y-92648346D02*
X179140828Y-92434060D01*
X179140828Y-92434060D02*
X179212257Y-92291203D01*
X179212257Y-92291203D02*
X179355114Y-92219775D01*
X179355114Y-92219775D02*
X180140828Y-92219775D01*
X180140828Y-91291203D02*
X180069400Y-91434060D01*
X180069400Y-91434060D02*
X179997971Y-91505489D01*
X179997971Y-91505489D02*
X179855114Y-91576917D01*
X179855114Y-91576917D02*
X179426542Y-91576917D01*
X179426542Y-91576917D02*
X179283685Y-91505489D01*
X179283685Y-91505489D02*
X179212257Y-91434060D01*
X179212257Y-91434060D02*
X179140828Y-91291203D01*
X179140828Y-91291203D02*
X179140828Y-91076917D01*
X179140828Y-91076917D02*
X179212257Y-90934060D01*
X179212257Y-90934060D02*
X179283685Y-90862632D01*
X179283685Y-90862632D02*
X179426542Y-90791203D01*
X179426542Y-90791203D02*
X179855114Y-90791203D01*
X179855114Y-90791203D02*
X179997971Y-90862632D01*
X179997971Y-90862632D02*
X180069400Y-90934060D01*
X180069400Y-90934060D02*
X180140828Y-91076917D01*
X180140828Y-91076917D02*
X180140828Y-91291203D01*
X180069400Y-89076917D02*
X180140828Y-88934060D01*
X180140828Y-88934060D02*
X180140828Y-88648346D01*
X180140828Y-88648346D02*
X180069400Y-88505489D01*
X180069400Y-88505489D02*
X179926542Y-88434060D01*
X179926542Y-88434060D02*
X179855114Y-88434060D01*
X179855114Y-88434060D02*
X179712257Y-88505489D01*
X179712257Y-88505489D02*
X179640828Y-88648346D01*
X179640828Y-88648346D02*
X179640828Y-88862632D01*
X179640828Y-88862632D02*
X179569400Y-89005489D01*
X179569400Y-89005489D02*
X179426542Y-89076917D01*
X179426542Y-89076917D02*
X179355114Y-89076917D01*
X179355114Y-89076917D02*
X179212257Y-89005489D01*
X179212257Y-89005489D02*
X179140828Y-88862632D01*
X179140828Y-88862632D02*
X179140828Y-88648346D01*
X179140828Y-88648346D02*
X179212257Y-88505489D01*
X179140828Y-87148346D02*
X180140828Y-87148346D01*
X179140828Y-87791203D02*
X179926542Y-87791203D01*
X179926542Y-87791203D02*
X180069400Y-87719774D01*
X180069400Y-87719774D02*
X180140828Y-87576917D01*
X180140828Y-87576917D02*
X180140828Y-87362631D01*
X180140828Y-87362631D02*
X180069400Y-87219774D01*
X180069400Y-87219774D02*
X179997971Y-87148346D01*
X179140828Y-86434060D02*
X180640828Y-86434060D01*
X179212257Y-86434060D02*
X179140828Y-86291203D01*
X179140828Y-86291203D02*
X179140828Y-86005488D01*
X179140828Y-86005488D02*
X179212257Y-85862631D01*
X179212257Y-85862631D02*
X179283685Y-85791203D01*
X179283685Y-85791203D02*
X179426542Y-85719774D01*
X179426542Y-85719774D02*
X179855114Y-85719774D01*
X179855114Y-85719774D02*
X179997971Y-85791203D01*
X179997971Y-85791203D02*
X180069400Y-85862631D01*
X180069400Y-85862631D02*
X180140828Y-86005488D01*
X180140828Y-86005488D02*
X180140828Y-86291203D01*
X180140828Y-86291203D02*
X180069400Y-86434060D01*
X179140828Y-85076917D02*
X180640828Y-85076917D01*
X179212257Y-85076917D02*
X179140828Y-84934060D01*
X179140828Y-84934060D02*
X179140828Y-84648345D01*
X179140828Y-84648345D02*
X179212257Y-84505488D01*
X179212257Y-84505488D02*
X179283685Y-84434060D01*
X179283685Y-84434060D02*
X179426542Y-84362631D01*
X179426542Y-84362631D02*
X179855114Y-84362631D01*
X179855114Y-84362631D02*
X179997971Y-84434060D01*
X179997971Y-84434060D02*
X180069400Y-84505488D01*
X180069400Y-84505488D02*
X180140828Y-84648345D01*
X180140828Y-84648345D02*
X180140828Y-84934060D01*
X180140828Y-84934060D02*
X180069400Y-85076917D01*
X180140828Y-83505488D02*
X180069400Y-83648345D01*
X180069400Y-83648345D02*
X179926542Y-83719774D01*
X179926542Y-83719774D02*
X178640828Y-83719774D01*
X179140828Y-83076917D02*
X180140828Y-82719774D01*
X179140828Y-82362631D02*
X180140828Y-82719774D01*
X180140828Y-82719774D02*
X180497971Y-82862631D01*
X180497971Y-82862631D02*
X180569400Y-82934060D01*
X180569400Y-82934060D02*
X180640828Y-83076917D01*
D10*
D11*
X157963082Y-121649400D02*
X158177368Y-121720828D01*
X158177368Y-121720828D02*
X158534510Y-121720828D01*
X158534510Y-121720828D02*
X158677368Y-121649400D01*
X158677368Y-121649400D02*
X158748796Y-121577971D01*
X158748796Y-121577971D02*
X158820225Y-121435114D01*
X158820225Y-121435114D02*
X158820225Y-121292257D01*
X158820225Y-121292257D02*
X158748796Y-121149400D01*
X158748796Y-121149400D02*
X158677368Y-121077971D01*
X158677368Y-121077971D02*
X158534510Y-121006542D01*
X158534510Y-121006542D02*
X158248796Y-120935114D01*
X158248796Y-120935114D02*
X158105939Y-120863685D01*
X158105939Y-120863685D02*
X158034510Y-120792257D01*
X158034510Y-120792257D02*
X157963082Y-120649400D01*
X157963082Y-120649400D02*
X157963082Y-120506542D01*
X157963082Y-120506542D02*
X158034510Y-120363685D01*
X158034510Y-120363685D02*
X158105939Y-120292257D01*
X158105939Y-120292257D02*
X158248796Y-120220828D01*
X158248796Y-120220828D02*
X158605939Y-120220828D01*
X158605939Y-120220828D02*
X158820225Y-120292257D01*
X160034510Y-121649400D02*
X159891653Y-121720828D01*
X159891653Y-121720828D02*
X159605939Y-121720828D01*
X159605939Y-121720828D02*
X159463081Y-121649400D01*
X159463081Y-121649400D02*
X159391653Y-121506542D01*
X159391653Y-121506542D02*
X159391653Y-120935114D01*
X159391653Y-120935114D02*
X159463081Y-120792257D01*
X159463081Y-120792257D02*
X159605939Y-120720828D01*
X159605939Y-120720828D02*
X159891653Y-120720828D01*
X159891653Y-120720828D02*
X160034510Y-120792257D01*
X160034510Y-120792257D02*
X160105939Y-120935114D01*
X160105939Y-120935114D02*
X160105939Y-121077971D01*
X160105939Y-121077971D02*
X159391653Y-121220828D01*
X160748795Y-121720828D02*
X160748795Y-120720828D01*
X160748795Y-121006542D02*
X160820224Y-120863685D01*
X160820224Y-120863685D02*
X160891653Y-120792257D01*
X160891653Y-120792257D02*
X161034510Y-120720828D01*
X161034510Y-120720828D02*
X161177367Y-120720828D01*
X161534509Y-120720828D02*
X161891652Y-121720828D01*
X161891652Y-121720828D02*
X162248795Y-120720828D01*
X163034509Y-121720828D02*
X162891652Y-121649400D01*
X162891652Y-121649400D02*
X162820223Y-121577971D01*
X162820223Y-121577971D02*
X162748795Y-121435114D01*
X162748795Y-121435114D02*
X162748795Y-121006542D01*
X162748795Y-121006542D02*
X162820223Y-120863685D01*
X162820223Y-120863685D02*
X162891652Y-120792257D01*
X162891652Y-120792257D02*
X163034509Y-120720828D01*
X163034509Y-120720828D02*
X163248795Y-120720828D01*
X163248795Y-120720828D02*
X163391652Y-120792257D01*
X163391652Y-120792257D02*
X163463081Y-120863685D01*
X163463081Y-120863685D02*
X163534509Y-121006542D01*
X163534509Y-121006542D02*
X163534509Y-121435114D01*
X163534509Y-121435114D02*
X163463081Y-121577971D01*
X163463081Y-121577971D02*
X163391652Y-121649400D01*
X163391652Y-121649400D02*
X163248795Y-121720828D01*
X163248795Y-121720828D02*
X163034509Y-121720828D01*
X165963081Y-121649400D02*
X165820223Y-121720828D01*
X165820223Y-121720828D02*
X165534509Y-121720828D01*
X165534509Y-121720828D02*
X165391652Y-121649400D01*
X165391652Y-121649400D02*
X165320223Y-121577971D01*
X165320223Y-121577971D02*
X165248795Y-121435114D01*
X165248795Y-121435114D02*
X165248795Y-121006542D01*
X165248795Y-121006542D02*
X165320223Y-120863685D01*
X165320223Y-120863685D02*
X165391652Y-120792257D01*
X165391652Y-120792257D02*
X165534509Y-120720828D01*
X165534509Y-120720828D02*
X165820223Y-120720828D01*
X165820223Y-120720828D02*
X165963081Y-120792257D01*
X166820223Y-121720828D02*
X166677366Y-121649400D01*
X166677366Y-121649400D02*
X166605937Y-121577971D01*
X166605937Y-121577971D02*
X166534509Y-121435114D01*
X166534509Y-121435114D02*
X166534509Y-121006542D01*
X166534509Y-121006542D02*
X166605937Y-120863685D01*
X166605937Y-120863685D02*
X166677366Y-120792257D01*
X166677366Y-120792257D02*
X166820223Y-120720828D01*
X166820223Y-120720828D02*
X167034509Y-120720828D01*
X167034509Y-120720828D02*
X167177366Y-120792257D01*
X167177366Y-120792257D02*
X167248795Y-120863685D01*
X167248795Y-120863685D02*
X167320223Y-121006542D01*
X167320223Y-121006542D02*
X167320223Y-121435114D01*
X167320223Y-121435114D02*
X167248795Y-121577971D01*
X167248795Y-121577971D02*
X167177366Y-121649400D01*
X167177366Y-121649400D02*
X167034509Y-121720828D01*
X167034509Y-121720828D02*
X166820223Y-121720828D01*
X167963080Y-120720828D02*
X167963080Y-121720828D01*
X167963080Y-120863685D02*
X168034509Y-120792257D01*
X168034509Y-120792257D02*
X168177366Y-120720828D01*
X168177366Y-120720828D02*
X168391652Y-120720828D01*
X168391652Y-120720828D02*
X168534509Y-120792257D01*
X168534509Y-120792257D02*
X168605938Y-120935114D01*
X168605938Y-120935114D02*
X168605938Y-121720828D01*
X169105938Y-120720828D02*
X169677366Y-120720828D01*
X169320223Y-120220828D02*
X169320223Y-121506542D01*
X169320223Y-121506542D02*
X169391652Y-121649400D01*
X169391652Y-121649400D02*
X169534509Y-121720828D01*
X169534509Y-121720828D02*
X169677366Y-121720828D01*
X170177366Y-121720828D02*
X170177366Y-120720828D01*
X170177366Y-121006542D02*
X170248795Y-120863685D01*
X170248795Y-120863685D02*
X170320224Y-120792257D01*
X170320224Y-120792257D02*
X170463081Y-120720828D01*
X170463081Y-120720828D02*
X170605938Y-120720828D01*
X171320223Y-121720828D02*
X171177366Y-121649400D01*
X171177366Y-121649400D02*
X171105937Y-121577971D01*
X171105937Y-121577971D02*
X171034509Y-121435114D01*
X171034509Y-121435114D02*
X171034509Y-121006542D01*
X171034509Y-121006542D02*
X171105937Y-120863685D01*
X171105937Y-120863685D02*
X171177366Y-120792257D01*
X171177366Y-120792257D02*
X171320223Y-120720828D01*
X171320223Y-120720828D02*
X171534509Y-120720828D01*
X171534509Y-120720828D02*
X171677366Y-120792257D01*
X171677366Y-120792257D02*
X171748795Y-120863685D01*
X171748795Y-120863685D02*
X171820223Y-121006542D01*
X171820223Y-121006542D02*
X171820223Y-121435114D01*
X171820223Y-121435114D02*
X171748795Y-121577971D01*
X171748795Y-121577971D02*
X171677366Y-121649400D01*
X171677366Y-121649400D02*
X171534509Y-121720828D01*
X171534509Y-121720828D02*
X171320223Y-121720828D01*
X172677366Y-121720828D02*
X172534509Y-121649400D01*
X172534509Y-121649400D02*
X172463080Y-121506542D01*
X172463080Y-121506542D02*
X172463080Y-120220828D01*
D12*
D13*
X155294949Y-85258904D02*
X155771139Y-85258904D01*
X155199711Y-85544619D02*
X155533044Y-84544619D01*
X155533044Y-84544619D02*
X155866377Y-85544619D01*
X156199711Y-85544619D02*
X156199711Y-84544619D01*
X156199711Y-84544619D02*
X156437806Y-84544619D01*
X156437806Y-84544619D02*
X156580663Y-84592238D01*
X156580663Y-84592238D02*
X156675901Y-84687476D01*
X156675901Y-84687476D02*
X156723520Y-84782714D01*
X156723520Y-84782714D02*
X156771139Y-84973190D01*
X156771139Y-84973190D02*
X156771139Y-85116047D01*
X156771139Y-85116047D02*
X156723520Y-85306523D01*
X156723520Y-85306523D02*
X156675901Y-85401761D01*
X156675901Y-85401761D02*
X156580663Y-85497000D01*
X156580663Y-85497000D02*
X156437806Y-85544619D01*
X156437806Y-85544619D02*
X156199711Y-85544619D01*
X157152092Y-85258904D02*
X157628282Y-85258904D01*
X157056854Y-85544619D02*
X157390187Y-84544619D01*
X157390187Y-84544619D02*
X157723520Y-85544619D01*
X158009235Y-85497000D02*
X158152092Y-85544619D01*
X158152092Y-85544619D02*
X158390187Y-85544619D01*
X158390187Y-85544619D02*
X158485425Y-85497000D01*
X158485425Y-85497000D02*
X158533044Y-85449380D01*
X158533044Y-85449380D02*
X158580663Y-85354142D01*
X158580663Y-85354142D02*
X158580663Y-85258904D01*
X158580663Y-85258904D02*
X158533044Y-85163666D01*
X158533044Y-85163666D02*
X158485425Y-85116047D01*
X158485425Y-85116047D02*
X158390187Y-85068428D01*
X158390187Y-85068428D02*
X158199711Y-85020809D01*
X158199711Y-85020809D02*
X158104473Y-84973190D01*
X158104473Y-84973190D02*
X158056854Y-84925571D01*
X158056854Y-84925571D02*
X158009235Y-84830333D01*
X158009235Y-84830333D02*
X158009235Y-84735095D01*
X158009235Y-84735095D02*
X158056854Y-84639857D01*
X158056854Y-84639857D02*
X158104473Y-84592238D01*
X158104473Y-84592238D02*
X158199711Y-84544619D01*
X158199711Y-84544619D02*
X158437806Y-84544619D01*
X158437806Y-84544619D02*
X158580663Y-84592238D01*
X159913997Y-85544619D02*
X159818759Y-85497000D01*
X159818759Y-85497000D02*
X159771140Y-85449380D01*
X159771140Y-85449380D02*
X159723521Y-85354142D01*
X159723521Y-85354142D02*
X159723521Y-85068428D01*
X159723521Y-85068428D02*
X159771140Y-84973190D01*
X159771140Y-84973190D02*
X159818759Y-84925571D01*
X159818759Y-84925571D02*
X159913997Y-84877952D01*
X159913997Y-84877952D02*
X160056854Y-84877952D01*
X160056854Y-84877952D02*
X160152092Y-84925571D01*
X160152092Y-84925571D02*
X160199711Y-84973190D01*
X160199711Y-84973190D02*
X160247330Y-85068428D01*
X160247330Y-85068428D02*
X160247330Y-85354142D01*
X160247330Y-85354142D02*
X160199711Y-85449380D01*
X160199711Y-85449380D02*
X160152092Y-85497000D01*
X160152092Y-85497000D02*
X160056854Y-85544619D01*
X160056854Y-85544619D02*
X159913997Y-85544619D01*
X160675902Y-84877952D02*
X160675902Y-85544619D01*
X160675902Y-84973190D02*
X160723521Y-84925571D01*
X160723521Y-84925571D02*
X160818759Y-84877952D01*
X160818759Y-84877952D02*
X160961616Y-84877952D01*
X160961616Y-84877952D02*
X161056854Y-84925571D01*
X161056854Y-84925571D02*
X161104473Y-85020809D01*
X161104473Y-85020809D02*
X161104473Y-85544619D01*
X162771140Y-85544619D02*
X162771140Y-85020809D01*
X162771140Y-85020809D02*
X162723521Y-84925571D01*
X162723521Y-84925571D02*
X162628283Y-84877952D01*
X162628283Y-84877952D02*
X162437807Y-84877952D01*
X162437807Y-84877952D02*
X162342569Y-84925571D01*
X162771140Y-85497000D02*
X162675902Y-85544619D01*
X162675902Y-85544619D02*
X162437807Y-85544619D01*
X162437807Y-85544619D02*
X162342569Y-85497000D01*
X162342569Y-85497000D02*
X162294950Y-85401761D01*
X162294950Y-85401761D02*
X162294950Y-85306523D01*
X162294950Y-85306523D02*
X162342569Y-85211285D01*
X162342569Y-85211285D02*
X162437807Y-85163666D01*
X162437807Y-85163666D02*
X162675902Y-85163666D01*
X162675902Y-85163666D02*
X162771140Y-85116047D01*
X163866379Y-84544619D02*
X164437807Y-84544619D01*
X164152093Y-85544619D02*
X164152093Y-84544619D01*
X164771141Y-85544619D02*
X164771141Y-84877952D01*
X164771141Y-85068428D02*
X164818760Y-84973190D01*
X164818760Y-84973190D02*
X164866379Y-84925571D01*
X164866379Y-84925571D02*
X164961617Y-84877952D01*
X164961617Y-84877952D02*
X165056855Y-84877952D01*
X165771141Y-85497000D02*
X165675903Y-85544619D01*
X165675903Y-85544619D02*
X165485427Y-85544619D01*
X165485427Y-85544619D02*
X165390189Y-85497000D01*
X165390189Y-85497000D02*
X165342570Y-85401761D01*
X165342570Y-85401761D02*
X165342570Y-85020809D01*
X165342570Y-85020809D02*
X165390189Y-84925571D01*
X165390189Y-84925571D02*
X165485427Y-84877952D01*
X165485427Y-84877952D02*
X165675903Y-84877952D01*
X165675903Y-84877952D02*
X165771141Y-84925571D01*
X165771141Y-84925571D02*
X165818760Y-85020809D01*
X165818760Y-85020809D02*
X165818760Y-85116047D01*
X165818760Y-85116047D02*
X165342570Y-85211285D01*
X166675903Y-85544619D02*
X166675903Y-85020809D01*
X166675903Y-85020809D02*
X166628284Y-84925571D01*
X166628284Y-84925571D02*
X166533046Y-84877952D01*
X166533046Y-84877952D02*
X166342570Y-84877952D01*
X166342570Y-84877952D02*
X166247332Y-84925571D01*
X166675903Y-85497000D02*
X166580665Y-85544619D01*
X166580665Y-85544619D02*
X166342570Y-85544619D01*
X166342570Y-85544619D02*
X166247332Y-85497000D01*
X166247332Y-85497000D02*
X166199713Y-85401761D01*
X166199713Y-85401761D02*
X166199713Y-85306523D01*
X166199713Y-85306523D02*
X166247332Y-85211285D01*
X166247332Y-85211285D02*
X166342570Y-85163666D01*
X166342570Y-85163666D02*
X166580665Y-85163666D01*
X166580665Y-85163666D02*
X166675903Y-85116047D01*
X167580665Y-85544619D02*
X167580665Y-84544619D01*
X167580665Y-85497000D02*
X167485427Y-85544619D01*
X167485427Y-85544619D02*
X167294951Y-85544619D01*
X167294951Y-85544619D02*
X167199713Y-85497000D01*
X167199713Y-85497000D02*
X167152094Y-85449380D01*
X167152094Y-85449380D02*
X167104475Y-85354142D01*
X167104475Y-85354142D02*
X167104475Y-85068428D01*
X167104475Y-85068428D02*
X167152094Y-84973190D01*
X167152094Y-84973190D02*
X167199713Y-84925571D01*
X167199713Y-84925571D02*
X167294951Y-84877952D01*
X167294951Y-84877952D02*
X167485427Y-84877952D01*
X167485427Y-84877952D02*
X167580665Y-84925571D01*
X168056856Y-85544619D02*
X168056856Y-84877952D01*
X168056856Y-84973190D02*
X168104475Y-84925571D01*
X168104475Y-84925571D02*
X168199713Y-84877952D01*
X168199713Y-84877952D02*
X168342570Y-84877952D01*
X168342570Y-84877952D02*
X168437808Y-84925571D01*
X168437808Y-84925571D02*
X168485427Y-85020809D01*
X168485427Y-85020809D02*
X168485427Y-85544619D01*
X168485427Y-85020809D02*
X168533046Y-84925571D01*
X168533046Y-84925571D02*
X168628284Y-84877952D01*
X168628284Y-84877952D02*
X168771141Y-84877952D01*
X168771141Y-84877952D02*
X168866380Y-84925571D01*
X168866380Y-84925571D02*
X168913999Y-85020809D01*
X168913999Y-85020809D02*
X168913999Y-85544619D01*
X169390189Y-85544619D02*
X169390189Y-84877952D01*
X169390189Y-84544619D02*
X169342570Y-84592238D01*
X169342570Y-84592238D02*
X169390189Y-84639857D01*
X169390189Y-84639857D02*
X169437808Y-84592238D01*
X169437808Y-84592238D02*
X169390189Y-84544619D01*
X169390189Y-84544619D02*
X169390189Y-84639857D01*
X170009236Y-85544619D02*
X169913998Y-85497000D01*
X169913998Y-85497000D02*
X169866379Y-85401761D01*
X169866379Y-85401761D02*
X169866379Y-84544619D01*
X170533046Y-85544619D02*
X170437808Y-85497000D01*
X170437808Y-85497000D02*
X170390189Y-85401761D01*
X170390189Y-85401761D02*
X170390189Y-84544619D01*
X155342568Y-86154619D02*
X155342568Y-86964142D01*
X155342568Y-86964142D02*
X155390187Y-87059380D01*
X155390187Y-87059380D02*
X155437806Y-87107000D01*
X155437806Y-87107000D02*
X155533044Y-87154619D01*
X155533044Y-87154619D02*
X155723520Y-87154619D01*
X155723520Y-87154619D02*
X155818758Y-87107000D01*
X155818758Y-87107000D02*
X155866377Y-87059380D01*
X155866377Y-87059380D02*
X155913996Y-86964142D01*
X155913996Y-86964142D02*
X155913996Y-86154619D01*
X156390187Y-86487952D02*
X156390187Y-87154619D01*
X156390187Y-86583190D02*
X156437806Y-86535571D01*
X156437806Y-86535571D02*
X156533044Y-86487952D01*
X156533044Y-86487952D02*
X156675901Y-86487952D01*
X156675901Y-86487952D02*
X156771139Y-86535571D01*
X156771139Y-86535571D02*
X156818758Y-86630809D01*
X156818758Y-86630809D02*
X156818758Y-87154619D01*
X157294949Y-87154619D02*
X157294949Y-86487952D01*
X157294949Y-86154619D02*
X157247330Y-86202238D01*
X157247330Y-86202238D02*
X157294949Y-86249857D01*
X157294949Y-86249857D02*
X157342568Y-86202238D01*
X157342568Y-86202238D02*
X157294949Y-86154619D01*
X157294949Y-86154619D02*
X157294949Y-86249857D01*
X157675901Y-86487952D02*
X157913996Y-87154619D01*
X157913996Y-87154619D02*
X158152091Y-86487952D01*
X158913996Y-87107000D02*
X158818758Y-87154619D01*
X158818758Y-87154619D02*
X158628282Y-87154619D01*
X158628282Y-87154619D02*
X158533044Y-87107000D01*
X158533044Y-87107000D02*
X158485425Y-87011761D01*
X158485425Y-87011761D02*
X158485425Y-86630809D01*
X158485425Y-86630809D02*
X158533044Y-86535571D01*
X158533044Y-86535571D02*
X158628282Y-86487952D01*
X158628282Y-86487952D02*
X158818758Y-86487952D01*
X158818758Y-86487952D02*
X158913996Y-86535571D01*
X158913996Y-86535571D02*
X158961615Y-86630809D01*
X158961615Y-86630809D02*
X158961615Y-86726047D01*
X158961615Y-86726047D02*
X158485425Y-86821285D01*
X159390187Y-87154619D02*
X159390187Y-86487952D01*
X159390187Y-86678428D02*
X159437806Y-86583190D01*
X159437806Y-86583190D02*
X159485425Y-86535571D01*
X159485425Y-86535571D02*
X159580663Y-86487952D01*
X159580663Y-86487952D02*
X159675901Y-86487952D01*
X159961616Y-87107000D02*
X160056854Y-87154619D01*
X160056854Y-87154619D02*
X160247330Y-87154619D01*
X160247330Y-87154619D02*
X160342568Y-87107000D01*
X160342568Y-87107000D02*
X160390187Y-87011761D01*
X160390187Y-87011761D02*
X160390187Y-86964142D01*
X160390187Y-86964142D02*
X160342568Y-86868904D01*
X160342568Y-86868904D02*
X160247330Y-86821285D01*
X160247330Y-86821285D02*
X160104473Y-86821285D01*
X160104473Y-86821285D02*
X160009235Y-86773666D01*
X160009235Y-86773666D02*
X159961616Y-86678428D01*
X159961616Y-86678428D02*
X159961616Y-86630809D01*
X159961616Y-86630809D02*
X160009235Y-86535571D01*
X160009235Y-86535571D02*
X160104473Y-86487952D01*
X160104473Y-86487952D02*
X160247330Y-86487952D01*
X160247330Y-86487952D02*
X160342568Y-86535571D01*
X160818759Y-87154619D02*
X160818759Y-86487952D01*
X160818759Y-86154619D02*
X160771140Y-86202238D01*
X160771140Y-86202238D02*
X160818759Y-86249857D01*
X160818759Y-86249857D02*
X160866378Y-86202238D01*
X160866378Y-86202238D02*
X160818759Y-86154619D01*
X160818759Y-86154619D02*
X160818759Y-86249857D01*
X161152092Y-86487952D02*
X161533044Y-86487952D01*
X161294949Y-86154619D02*
X161294949Y-87011761D01*
X161294949Y-87011761D02*
X161342568Y-87107000D01*
X161342568Y-87107000D02*
X161437806Y-87154619D01*
X161437806Y-87154619D02*
X161533044Y-87154619D01*
X161771140Y-86487952D02*
X162009235Y-87154619D01*
X162247330Y-86487952D02*
X162009235Y-87154619D01*
X162009235Y-87154619D02*
X161913997Y-87392714D01*
X161913997Y-87392714D02*
X161866378Y-87440333D01*
X161866378Y-87440333D02*
X161771140Y-87487952D01*
X163533045Y-87154619D02*
X163437807Y-87107000D01*
X163437807Y-87107000D02*
X163390188Y-87059380D01*
X163390188Y-87059380D02*
X163342569Y-86964142D01*
X163342569Y-86964142D02*
X163342569Y-86678428D01*
X163342569Y-86678428D02*
X163390188Y-86583190D01*
X163390188Y-86583190D02*
X163437807Y-86535571D01*
X163437807Y-86535571D02*
X163533045Y-86487952D01*
X163533045Y-86487952D02*
X163675902Y-86487952D01*
X163675902Y-86487952D02*
X163771140Y-86535571D01*
X163771140Y-86535571D02*
X163818759Y-86583190D01*
X163818759Y-86583190D02*
X163866378Y-86678428D01*
X163866378Y-86678428D02*
X163866378Y-86964142D01*
X163866378Y-86964142D02*
X163818759Y-87059380D01*
X163818759Y-87059380D02*
X163771140Y-87107000D01*
X163771140Y-87107000D02*
X163675902Y-87154619D01*
X163675902Y-87154619D02*
X163533045Y-87154619D01*
X164152093Y-86487952D02*
X164533045Y-86487952D01*
X164294950Y-87154619D02*
X164294950Y-86297476D01*
X164294950Y-86297476D02*
X164342569Y-86202238D01*
X164342569Y-86202238D02*
X164437807Y-86154619D01*
X164437807Y-86154619D02*
X164533045Y-86154619D01*
X165533046Y-86154619D02*
X165771141Y-87154619D01*
X165771141Y-87154619D02*
X165961617Y-86440333D01*
X165961617Y-86440333D02*
X166152093Y-87154619D01*
X166152093Y-87154619D02*
X166390189Y-86154619D01*
X167199712Y-87154619D02*
X167199712Y-86630809D01*
X167199712Y-86630809D02*
X167152093Y-86535571D01*
X167152093Y-86535571D02*
X167056855Y-86487952D01*
X167056855Y-86487952D02*
X166866379Y-86487952D01*
X166866379Y-86487952D02*
X166771141Y-86535571D01*
X167199712Y-87107000D02*
X167104474Y-87154619D01*
X167104474Y-87154619D02*
X166866379Y-87154619D01*
X166866379Y-87154619D02*
X166771141Y-87107000D01*
X166771141Y-87107000D02*
X166723522Y-87011761D01*
X166723522Y-87011761D02*
X166723522Y-86916523D01*
X166723522Y-86916523D02*
X166771141Y-86821285D01*
X166771141Y-86821285D02*
X166866379Y-86773666D01*
X166866379Y-86773666D02*
X167104474Y-86773666D01*
X167104474Y-86773666D02*
X167199712Y-86726047D01*
X167533046Y-86487952D02*
X167913998Y-86487952D01*
X167675903Y-86154619D02*
X167675903Y-87011761D01*
X167675903Y-87011761D02*
X167723522Y-87107000D01*
X167723522Y-87107000D02*
X167818760Y-87154619D01*
X167818760Y-87154619D02*
X167913998Y-87154619D01*
X168628284Y-87107000D02*
X168533046Y-87154619D01*
X168533046Y-87154619D02*
X168342570Y-87154619D01*
X168342570Y-87154619D02*
X168247332Y-87107000D01*
X168247332Y-87107000D02*
X168199713Y-87011761D01*
X168199713Y-87011761D02*
X168199713Y-86630809D01*
X168199713Y-86630809D02*
X168247332Y-86535571D01*
X168247332Y-86535571D02*
X168342570Y-86487952D01*
X168342570Y-86487952D02*
X168533046Y-86487952D01*
X168533046Y-86487952D02*
X168628284Y-86535571D01*
X168628284Y-86535571D02*
X168675903Y-86630809D01*
X168675903Y-86630809D02*
X168675903Y-86726047D01*
X168675903Y-86726047D02*
X168199713Y-86821285D01*
X169104475Y-87154619D02*
X169104475Y-86487952D01*
X169104475Y-86678428D02*
X169152094Y-86583190D01*
X169152094Y-86583190D02*
X169199713Y-86535571D01*
X169199713Y-86535571D02*
X169294951Y-86487952D01*
X169294951Y-86487952D02*
X169390189Y-86487952D01*
X169866380Y-87154619D02*
X169771142Y-87107000D01*
X169771142Y-87107000D02*
X169723523Y-87011761D01*
X169723523Y-87011761D02*
X169723523Y-86154619D01*
X170390190Y-87154619D02*
X170294952Y-87107000D01*
X170294952Y-87107000D02*
X170247333Y-87059380D01*
X170247333Y-87059380D02*
X170199714Y-86964142D01*
X170199714Y-86964142D02*
X170199714Y-86678428D01*
X170199714Y-86678428D02*
X170247333Y-86583190D01*
X170247333Y-86583190D02*
X170294952Y-86535571D01*
X170294952Y-86535571D02*
X170390190Y-86487952D01*
X170390190Y-86487952D02*
X170533047Y-86487952D01*
X170533047Y-86487952D02*
X170628285Y-86535571D01*
X170628285Y-86535571D02*
X170675904Y-86583190D01*
X170675904Y-86583190D02*
X170723523Y-86678428D01*
X170723523Y-86678428D02*
X170723523Y-86964142D01*
X170723523Y-86964142D02*
X170675904Y-87059380D01*
X170675904Y-87059380D02*
X170628285Y-87107000D01*
X170628285Y-87107000D02*
X170533047Y-87154619D01*
X170533047Y-87154619D02*
X170390190Y-87154619D01*
X171294952Y-87154619D02*
X171199714Y-87107000D01*
X171199714Y-87107000D02*
X171152095Y-87059380D01*
X171152095Y-87059380D02*
X171104476Y-86964142D01*
X171104476Y-86964142D02*
X171104476Y-86678428D01*
X171104476Y-86678428D02*
X171152095Y-86583190D01*
X171152095Y-86583190D02*
X171199714Y-86535571D01*
X171199714Y-86535571D02*
X171294952Y-86487952D01*
X171294952Y-86487952D02*
X171437809Y-86487952D01*
X171437809Y-86487952D02*
X171533047Y-86535571D01*
X171533047Y-86535571D02*
X171580666Y-86583190D01*
X171580666Y-86583190D02*
X171628285Y-86678428D01*
X171628285Y-86678428D02*
X171628285Y-86964142D01*
X171628285Y-86964142D02*
X171580666Y-87059380D01*
X171580666Y-87059380D02*
X171533047Y-87107000D01*
X171533047Y-87107000D02*
X171437809Y-87154619D01*
X171437809Y-87154619D02*
X171294952Y-87154619D01*
X155628282Y-87764619D02*
X155628282Y-88478904D01*
X155628282Y-88478904D02*
X155580663Y-88621761D01*
X155580663Y-88621761D02*
X155485425Y-88717000D01*
X155485425Y-88717000D02*
X155342568Y-88764619D01*
X155342568Y-88764619D02*
X155247330Y-88764619D01*
X156533044Y-88097952D02*
X156533044Y-88764619D01*
X156104473Y-88097952D02*
X156104473Y-88621761D01*
X156104473Y-88621761D02*
X156152092Y-88717000D01*
X156152092Y-88717000D02*
X156247330Y-88764619D01*
X156247330Y-88764619D02*
X156390187Y-88764619D01*
X156390187Y-88764619D02*
X156485425Y-88717000D01*
X156485425Y-88717000D02*
X156533044Y-88669380D01*
X157009235Y-88097952D02*
X157009235Y-88764619D01*
X157009235Y-88193190D02*
X157056854Y-88145571D01*
X157056854Y-88145571D02*
X157152092Y-88097952D01*
X157152092Y-88097952D02*
X157294949Y-88097952D01*
X157294949Y-88097952D02*
X157390187Y-88145571D01*
X157390187Y-88145571D02*
X157437806Y-88240809D01*
X157437806Y-88240809D02*
X157437806Y-88764619D01*
X158294949Y-88717000D02*
X158199711Y-88764619D01*
X158199711Y-88764619D02*
X158009235Y-88764619D01*
X158009235Y-88764619D02*
X157913997Y-88717000D01*
X157913997Y-88717000D02*
X157866378Y-88621761D01*
X157866378Y-88621761D02*
X157866378Y-88240809D01*
X157866378Y-88240809D02*
X157913997Y-88145571D01*
X157913997Y-88145571D02*
X158009235Y-88097952D01*
X158009235Y-88097952D02*
X158199711Y-88097952D01*
X158199711Y-88097952D02*
X158294949Y-88145571D01*
X158294949Y-88145571D02*
X158342568Y-88240809D01*
X158342568Y-88240809D02*
X158342568Y-88336047D01*
X158342568Y-88336047D02*
X157866378Y-88431285D01*
X159485426Y-87859857D02*
X159533045Y-87812238D01*
X159533045Y-87812238D02*
X159628283Y-87764619D01*
X159628283Y-87764619D02*
X159866378Y-87764619D01*
X159866378Y-87764619D02*
X159961616Y-87812238D01*
X159961616Y-87812238D02*
X160009235Y-87859857D01*
X160009235Y-87859857D02*
X160056854Y-87955095D01*
X160056854Y-87955095D02*
X160056854Y-88050333D01*
X160056854Y-88050333D02*
X160009235Y-88193190D01*
X160009235Y-88193190D02*
X159437807Y-88764619D01*
X159437807Y-88764619D02*
X160056854Y-88764619D01*
X160675902Y-87764619D02*
X160771140Y-87764619D01*
X160771140Y-87764619D02*
X160866378Y-87812238D01*
X160866378Y-87812238D02*
X160913997Y-87859857D01*
X160913997Y-87859857D02*
X160961616Y-87955095D01*
X160961616Y-87955095D02*
X161009235Y-88145571D01*
X161009235Y-88145571D02*
X161009235Y-88383666D01*
X161009235Y-88383666D02*
X160961616Y-88574142D01*
X160961616Y-88574142D02*
X160913997Y-88669380D01*
X160913997Y-88669380D02*
X160866378Y-88717000D01*
X160866378Y-88717000D02*
X160771140Y-88764619D01*
X160771140Y-88764619D02*
X160675902Y-88764619D01*
X160675902Y-88764619D02*
X160580664Y-88717000D01*
X160580664Y-88717000D02*
X160533045Y-88669380D01*
X160533045Y-88669380D02*
X160485426Y-88574142D01*
X160485426Y-88574142D02*
X160437807Y-88383666D01*
X160437807Y-88383666D02*
X160437807Y-88145571D01*
X160437807Y-88145571D02*
X160485426Y-87955095D01*
X160485426Y-87955095D02*
X160533045Y-87859857D01*
X160533045Y-87859857D02*
X160580664Y-87812238D01*
X160580664Y-87812238D02*
X160675902Y-87764619D01*
X161390188Y-87859857D02*
X161437807Y-87812238D01*
X161437807Y-87812238D02*
X161533045Y-87764619D01*
X161533045Y-87764619D02*
X161771140Y-87764619D01*
X161771140Y-87764619D02*
X161866378Y-87812238D01*
X161866378Y-87812238D02*
X161913997Y-87859857D01*
X161913997Y-87859857D02*
X161961616Y-87955095D01*
X161961616Y-87955095D02*
X161961616Y-88050333D01*
X161961616Y-88050333D02*
X161913997Y-88193190D01*
X161913997Y-88193190D02*
X161342569Y-88764619D01*
X161342569Y-88764619D02*
X161961616Y-88764619D01*
X162818759Y-88097952D02*
X162818759Y-88764619D01*
X162580664Y-87717000D02*
X162342569Y-88431285D01*
X162342569Y-88431285D02*
X162961616Y-88431285D01*
D10*
D11*
X157068346Y-80439171D02*
X156068346Y-80439171D01*
X156068346Y-80439171D02*
X156711203Y-78939171D01*
X155425489Y-79010600D02*
X155425489Y-78939171D01*
X155425489Y-78939171D02*
X155496918Y-78796314D01*
X155496918Y-78796314D02*
X155568346Y-78724885D01*
X154854060Y-80296314D02*
X154782632Y-80367742D01*
X154782632Y-80367742D02*
X154639775Y-80439171D01*
X154639775Y-80439171D02*
X154282632Y-80439171D01*
X154282632Y-80439171D02*
X154139775Y-80367742D01*
X154139775Y-80367742D02*
X154068346Y-80296314D01*
X154068346Y-80296314D02*
X153996917Y-80153457D01*
X153996917Y-80153457D02*
X153996917Y-80010600D01*
X153996917Y-80010600D02*
X154068346Y-79796314D01*
X154068346Y-79796314D02*
X154925489Y-78939171D01*
X154925489Y-78939171D02*
X153996917Y-78939171D01*
X153568346Y-80439171D02*
X153068346Y-78939171D01*
X153068346Y-78939171D02*
X152568346Y-80439171D01*
D10*
D11*
X147519171Y-89454510D02*
X149019171Y-89454510D01*
X149019171Y-89454510D02*
X147947742Y-89954510D01*
X147947742Y-89954510D02*
X149019171Y-90454510D01*
X149019171Y-90454510D02*
X147519171Y-90454510D01*
X147519171Y-91383082D02*
X147590600Y-91240225D01*
X147590600Y-91240225D02*
X147662028Y-91168796D01*
X147662028Y-91168796D02*
X147804885Y-91097368D01*
X147804885Y-91097368D02*
X148233457Y-91097368D01*
X148233457Y-91097368D02*
X148376314Y-91168796D01*
X148376314Y-91168796D02*
X148447742Y-91240225D01*
X148447742Y-91240225D02*
X148519171Y-91383082D01*
X148519171Y-91383082D02*
X148519171Y-91597368D01*
X148519171Y-91597368D02*
X148447742Y-91740225D01*
X148447742Y-91740225D02*
X148376314Y-91811654D01*
X148376314Y-91811654D02*
X148233457Y-91883082D01*
X148233457Y-91883082D02*
X147804885Y-91883082D01*
X147804885Y-91883082D02*
X147662028Y-91811654D01*
X147662028Y-91811654D02*
X147590600Y-91740225D01*
X147590600Y-91740225D02*
X147519171Y-91597368D01*
X147519171Y-91597368D02*
X147519171Y-91383082D01*
X148519171Y-92311654D02*
X148519171Y-92883082D01*
X149019171Y-92525939D02*
X147733457Y-92525939D01*
X147733457Y-92525939D02*
X147590600Y-92597368D01*
X147590600Y-92597368D02*
X147519171Y-92740225D01*
X147519171Y-92740225D02*
X147519171Y-92883082D01*
X147519171Y-93597368D02*
X147590600Y-93454511D01*
X147590600Y-93454511D02*
X147662028Y-93383082D01*
X147662028Y-93383082D02*
X147804885Y-93311654D01*
X147804885Y-93311654D02*
X148233457Y-93311654D01*
X148233457Y-93311654D02*
X148376314Y-93383082D01*
X148376314Y-93383082D02*
X148447742Y-93454511D01*
X148447742Y-93454511D02*
X148519171Y-93597368D01*
X148519171Y-93597368D02*
X148519171Y-93811654D01*
X148519171Y-93811654D02*
X148447742Y-93954511D01*
X148447742Y-93954511D02*
X148376314Y-94025940D01*
X148376314Y-94025940D02*
X148233457Y-94097368D01*
X148233457Y-94097368D02*
X147804885Y-94097368D01*
X147804885Y-94097368D02*
X147662028Y-94025940D01*
X147662028Y-94025940D02*
X147590600Y-93954511D01*
X147590600Y-93954511D02*
X147519171Y-93811654D01*
X147519171Y-93811654D02*
X147519171Y-93597368D01*
X147519171Y-94740225D02*
X148519171Y-94740225D01*
X148233457Y-94740225D02*
X148376314Y-94811654D01*
X148376314Y-94811654D02*
X148447742Y-94883083D01*
X148447742Y-94883083D02*
X148519171Y-95025940D01*
X148519171Y-95025940D02*
X148519171Y-95168797D01*
X147590600Y-96740225D02*
X147519171Y-96883082D01*
X147519171Y-96883082D02*
X147519171Y-97168796D01*
X147519171Y-97168796D02*
X147590600Y-97311653D01*
X147590600Y-97311653D02*
X147733457Y-97383082D01*
X147733457Y-97383082D02*
X147804885Y-97383082D01*
X147804885Y-97383082D02*
X147947742Y-97311653D01*
X147947742Y-97311653D02*
X148019171Y-97168796D01*
X148019171Y-97168796D02*
X148019171Y-96954511D01*
X148019171Y-96954511D02*
X148090600Y-96811653D01*
X148090600Y-96811653D02*
X148233457Y-96740225D01*
X148233457Y-96740225D02*
X148304885Y-96740225D01*
X148304885Y-96740225D02*
X148447742Y-96811653D01*
X148447742Y-96811653D02*
X148519171Y-96954511D01*
X148519171Y-96954511D02*
X148519171Y-97168796D01*
X148519171Y-97168796D02*
X148447742Y-97311653D01*
X148519171Y-98668797D02*
X147519171Y-98668797D01*
X148519171Y-98025939D02*
X147733457Y-98025939D01*
X147733457Y-98025939D02*
X147590600Y-98097368D01*
X147590600Y-98097368D02*
X147519171Y-98240225D01*
X147519171Y-98240225D02*
X147519171Y-98454511D01*
X147519171Y-98454511D02*
X147590600Y-98597368D01*
X147590600Y-98597368D02*
X147662028Y-98668797D01*
X148519171Y-99383082D02*
X147019171Y-99383082D01*
X148447742Y-99383082D02*
X148519171Y-99525940D01*
X148519171Y-99525940D02*
X148519171Y-99811654D01*
X148519171Y-99811654D02*
X148447742Y-99954511D01*
X148447742Y-99954511D02*
X148376314Y-100025940D01*
X148376314Y-100025940D02*
X148233457Y-100097368D01*
X148233457Y-100097368D02*
X147804885Y-100097368D01*
X147804885Y-100097368D02*
X147662028Y-100025940D01*
X147662028Y-100025940D02*
X147590600Y-99954511D01*
X147590600Y-99954511D02*
X147519171Y-99811654D01*
X147519171Y-99811654D02*
X147519171Y-99525940D01*
X147519171Y-99525940D02*
X147590600Y-99383082D01*
X148519171Y-100740225D02*
X147019171Y-100740225D01*
X148447742Y-100740225D02*
X148519171Y-100883083D01*
X148519171Y-100883083D02*
X148519171Y-101168797D01*
X148519171Y-101168797D02*
X148447742Y-101311654D01*
X148447742Y-101311654D02*
X148376314Y-101383083D01*
X148376314Y-101383083D02*
X148233457Y-101454511D01*
X148233457Y-101454511D02*
X147804885Y-101454511D01*
X147804885Y-101454511D02*
X147662028Y-101383083D01*
X147662028Y-101383083D02*
X147590600Y-101311654D01*
X147590600Y-101311654D02*
X147519171Y-101168797D01*
X147519171Y-101168797D02*
X147519171Y-100883083D01*
X147519171Y-100883083D02*
X147590600Y-100740225D01*
X147519171Y-102311654D02*
X147590600Y-102168797D01*
X147590600Y-102168797D02*
X147733457Y-102097368D01*
X147733457Y-102097368D02*
X149019171Y-102097368D01*
X148519171Y-102740225D02*
X147519171Y-103097368D01*
X148519171Y-103454511D02*
X147519171Y-103097368D01*
X147519171Y-103097368D02*
X147162028Y-102954511D01*
X147162028Y-102954511D02*
X147090600Y-102883082D01*
X147090600Y-102883082D02*
X147019171Y-102740225D01*
D10*
D11*
X177388346Y-80439171D02*
X176388346Y-80439171D01*
X176388346Y-80439171D02*
X177031203Y-78939171D01*
X175745489Y-79010600D02*
X175745489Y-78939171D01*
X175745489Y-78939171D02*
X175816918Y-78796314D01*
X175816918Y-78796314D02*
X175888346Y-78724885D01*
X175174060Y-80296314D02*
X175102632Y-80367742D01*
X175102632Y-80367742D02*
X174959775Y-80439171D01*
X174959775Y-80439171D02*
X174602632Y-80439171D01*
X174602632Y-80439171D02*
X174459775Y-80367742D01*
X174459775Y-80367742D02*
X174388346Y-80296314D01*
X174388346Y-80296314D02*
X174316917Y-80153457D01*
X174316917Y-80153457D02*
X174316917Y-80010600D01*
X174316917Y-80010600D02*
X174388346Y-79796314D01*
X174388346Y-79796314D02*
X175245489Y-78939171D01*
X175245489Y-78939171D02*
X174316917Y-78939171D01*
X173888346Y-80439171D02*
X173388346Y-78939171D01*
X173388346Y-78939171D02*
X172888346Y-80439171D01*
D10*
D11*
X180069400Y-116356917D02*
X180140828Y-116142632D01*
X180140828Y-116142632D02*
X180140828Y-115785489D01*
X180140828Y-115785489D02*
X180069400Y-115642632D01*
X180069400Y-115642632D02*
X179997971Y-115571203D01*
X179997971Y-115571203D02*
X179855114Y-115499774D01*
X179855114Y-115499774D02*
X179712257Y-115499774D01*
X179712257Y-115499774D02*
X179569400Y-115571203D01*
X179569400Y-115571203D02*
X179497971Y-115642632D01*
X179497971Y-115642632D02*
X179426542Y-115785489D01*
X179426542Y-115785489D02*
X179355114Y-116071203D01*
X179355114Y-116071203D02*
X179283685Y-116214060D01*
X179283685Y-116214060D02*
X179212257Y-116285489D01*
X179212257Y-116285489D02*
X179069400Y-116356917D01*
X179069400Y-116356917D02*
X178926542Y-116356917D01*
X178926542Y-116356917D02*
X178783685Y-116285489D01*
X178783685Y-116285489D02*
X178712257Y-116214060D01*
X178712257Y-116214060D02*
X178640828Y-116071203D01*
X178640828Y-116071203D02*
X178640828Y-115714060D01*
X178640828Y-115714060D02*
X178712257Y-115499774D01*
X180069400Y-114285489D02*
X180140828Y-114428346D01*
X180140828Y-114428346D02*
X180140828Y-114714061D01*
X180140828Y-114714061D02*
X180069400Y-114856918D01*
X180069400Y-114856918D02*
X179926542Y-114928346D01*
X179926542Y-114928346D02*
X179355114Y-114928346D01*
X179355114Y-114928346D02*
X179212257Y-114856918D01*
X179212257Y-114856918D02*
X179140828Y-114714061D01*
X179140828Y-114714061D02*
X179140828Y-114428346D01*
X179140828Y-114428346D02*
X179212257Y-114285489D01*
X179212257Y-114285489D02*
X179355114Y-114214061D01*
X179355114Y-114214061D02*
X179497971Y-114214061D01*
X179497971Y-114214061D02*
X179640828Y-114928346D01*
X180140828Y-113571204D02*
X179140828Y-113571204D01*
X179426542Y-113571204D02*
X179283685Y-113499775D01*
X179283685Y-113499775D02*
X179212257Y-113428347D01*
X179212257Y-113428347D02*
X179140828Y-113285489D01*
X179140828Y-113285489D02*
X179140828Y-113142632D01*
X179140828Y-112785490D02*
X180140828Y-112428347D01*
X180140828Y-112428347D02*
X179140828Y-112071204D01*
X180140828Y-111285490D02*
X180069400Y-111428347D01*
X180069400Y-111428347D02*
X179997971Y-111499776D01*
X179997971Y-111499776D02*
X179855114Y-111571204D01*
X179855114Y-111571204D02*
X179426542Y-111571204D01*
X179426542Y-111571204D02*
X179283685Y-111499776D01*
X179283685Y-111499776D02*
X179212257Y-111428347D01*
X179212257Y-111428347D02*
X179140828Y-111285490D01*
X179140828Y-111285490D02*
X179140828Y-111071204D01*
X179140828Y-111071204D02*
X179212257Y-110928347D01*
X179212257Y-110928347D02*
X179283685Y-110856919D01*
X179283685Y-110856919D02*
X179426542Y-110785490D01*
X179426542Y-110785490D02*
X179855114Y-110785490D01*
X179855114Y-110785490D02*
X179997971Y-110856919D01*
X179997971Y-110856919D02*
X180069400Y-110928347D01*
X180069400Y-110928347D02*
X180140828Y-111071204D01*
X180140828Y-111071204D02*
X180140828Y-111285490D01*
X180069400Y-109071204D02*
X180140828Y-108928347D01*
X180140828Y-108928347D02*
X180140828Y-108642633D01*
X180140828Y-108642633D02*
X180069400Y-108499776D01*
X180069400Y-108499776D02*
X179926542Y-108428347D01*
X179926542Y-108428347D02*
X179855114Y-108428347D01*
X179855114Y-108428347D02*
X179712257Y-108499776D01*
X179712257Y-108499776D02*
X179640828Y-108642633D01*
X179640828Y-108642633D02*
X179640828Y-108856919D01*
X179640828Y-108856919D02*
X179569400Y-108999776D01*
X179569400Y-108999776D02*
X179426542Y-109071204D01*
X179426542Y-109071204D02*
X179355114Y-109071204D01*
X179355114Y-109071204D02*
X179212257Y-108999776D01*
X179212257Y-108999776D02*
X179140828Y-108856919D01*
X179140828Y-108856919D02*
X179140828Y-108642633D01*
X179140828Y-108642633D02*
X179212257Y-108499776D01*
X179140828Y-107142633D02*
X180140828Y-107142633D01*
X179140828Y-107785490D02*
X179926542Y-107785490D01*
X179926542Y-107785490D02*
X180069400Y-107714061D01*
X180069400Y-107714061D02*
X180140828Y-107571204D01*
X180140828Y-107571204D02*
X180140828Y-107356918D01*
X180140828Y-107356918D02*
X180069400Y-107214061D01*
X180069400Y-107214061D02*
X179997971Y-107142633D01*
X179140828Y-106428347D02*
X180640828Y-106428347D01*
X179212257Y-106428347D02*
X179140828Y-106285490D01*
X179140828Y-106285490D02*
X179140828Y-105999775D01*
X179140828Y-105999775D02*
X179212257Y-105856918D01*
X179212257Y-105856918D02*
X179283685Y-105785490D01*
X179283685Y-105785490D02*
X179426542Y-105714061D01*
X179426542Y-105714061D02*
X179855114Y-105714061D01*
X179855114Y-105714061D02*
X179997971Y-105785490D01*
X179997971Y-105785490D02*
X180069400Y-105856918D01*
X180069400Y-105856918D02*
X180140828Y-105999775D01*
X180140828Y-105999775D02*
X180140828Y-106285490D01*
X180140828Y-106285490D02*
X180069400Y-106428347D01*
X179140828Y-105071204D02*
X180640828Y-105071204D01*
X179212257Y-105071204D02*
X179140828Y-104928347D01*
X179140828Y-104928347D02*
X179140828Y-104642632D01*
X179140828Y-104642632D02*
X179212257Y-104499775D01*
X179212257Y-104499775D02*
X179283685Y-104428347D01*
X179283685Y-104428347D02*
X179426542Y-104356918D01*
X179426542Y-104356918D02*
X179855114Y-104356918D01*
X179855114Y-104356918D02*
X179997971Y-104428347D01*
X179997971Y-104428347D02*
X180069400Y-104499775D01*
X180069400Y-104499775D02*
X180140828Y-104642632D01*
X180140828Y-104642632D02*
X180140828Y-104928347D01*
X180140828Y-104928347D02*
X180069400Y-105071204D01*
X180140828Y-103499775D02*
X180069400Y-103642632D01*
X180069400Y-103642632D02*
X179926542Y-103714061D01*
X179926542Y-103714061D02*
X178640828Y-103714061D01*
X179140828Y-103071204D02*
X180140828Y-102714061D01*
X179140828Y-102356918D02*
X180140828Y-102714061D01*
X180140828Y-102714061D02*
X180497971Y-102856918D01*
X180497971Y-102856918D02*
X180569400Y-102928347D01*
X180569400Y-102928347D02*
X180640828Y-103071204D01*
D10*
D11*
X147519171Y-112314510D02*
X149019171Y-112314510D01*
X149019171Y-112314510D02*
X149019171Y-112885939D01*
X149019171Y-112885939D02*
X148947742Y-113028796D01*
X148947742Y-113028796D02*
X148876314Y-113100225D01*
X148876314Y-113100225D02*
X148733457Y-113171653D01*
X148733457Y-113171653D02*
X148519171Y-113171653D01*
X148519171Y-113171653D02*
X148376314Y-113100225D01*
X148376314Y-113100225D02*
X148304885Y-113028796D01*
X148304885Y-113028796D02*
X148233457Y-112885939D01*
X148233457Y-112885939D02*
X148233457Y-112314510D01*
X149019171Y-113671653D02*
X147519171Y-114028796D01*
X147519171Y-114028796D02*
X148590600Y-114314510D01*
X148590600Y-114314510D02*
X147519171Y-114600225D01*
X147519171Y-114600225D02*
X149019171Y-114957368D01*
X147519171Y-115528796D02*
X149019171Y-115528796D01*
X149019171Y-115528796D02*
X147947742Y-116028796D01*
X147947742Y-116028796D02*
X149019171Y-116528796D01*
X149019171Y-116528796D02*
X147519171Y-116528796D01*
D14*
%TO.P,J8,1,Pin_1*%
%TO.N,+8V*%
X185420000Y-93980000D03*
%TO.P,J8,2,Pin_2*%
%TO.N,GND*%
X185420000Y-88980000D03*
%TD*%
%TO.P,J7,1,Pin_1*%
%TO.N,+7.5V*%
X157480000Y-73660000D03*
%TO.P,J7,2,Pin_2*%
%TO.N,GND*%
X152480000Y-73660000D03*
%TD*%
%TO.P,J6,1,Pin_1*%
%TO.N,Net-(J5-Pin_2)*%
X155020000Y-127000000D03*
%TO.P,J6,2,Pin_2*%
%TO.N,GND*%
X160020000Y-127000000D03*
%TD*%
%TO.P,J5,1,Pin_1*%
%TO.N,GND*%
X170260000Y-127000000D03*
%TO.P,J5,2,Pin_2*%
%TO.N,Net-(J5-Pin_2)*%
X175260000Y-127000000D03*
%TD*%
%TO.P,J4,1,Pin_1*%
%TO.N,Net-(J4-Pin_1)*%
X185420000Y-111760000D03*
%TO.P,J4,2,Pin_2*%
%TO.N,GND*%
X185420000Y-106760000D03*
%TD*%
%TO.P,J3,1,Pin_1*%
%TO.N,+8V*%
X177800000Y-73660000D03*
%TO.P,J3,2,Pin_2*%
%TO.N,GND*%
X172800000Y-73660000D03*
%TD*%
%TO.P,J2,1,Pin_1*%
%TO.N,+7.5V*%
X142240000Y-94060000D03*
%TO.P,J2,2,Pin_2*%
%TO.N,Net-(D1-A)*%
X142240000Y-99060000D03*
%TD*%
%TO.P,J1,1,Pin_1*%
%TO.N,Net-(J1-Pin_1)*%
X142240000Y-111840000D03*
%TO.P,J1,2,Pin_2*%
%TO.N,GND*%
X142240000Y-116840000D03*
%TD*%
D15*
%TO.P,U2,1,IN*%
%TO.N,+8V*%
X172720000Y-96520000D03*
D16*
%TO.P,U2,2,GND*%
%TO.N,GND*%
X172720000Y-99060000D03*
%TO.P,U2,3,OUT*%
%TO.N,Net-(J4-Pin_1)*%
X172720000Y-101600000D03*
%TD*%
D17*
%TO.P,R1,1*%
%TO.N,Net-(J1-Pin_1)*%
X165000000Y-110000000D03*
D18*
%TO.P,R1,2*%
%TO.N,GND*%
X172620000Y-110000000D03*
%TD*%
D19*
%TO.P,H3,1,1*%
%TO.N,GND*%
X142240000Y-71120000D03*
%TD*%
%TO.P,H1,1,1*%
%TO.N,GND*%
X142240000Y-127000000D03*
%TD*%
D20*
%TO.P,Q1,1,G*%
%TO.N,Net-(J1-Pin_1)*%
X163945000Y-104140000D03*
D21*
%TO.P,Q1,2,D*%
%TO.N,Net-(D1-A)*%
X163945000Y-101600000D03*
%TO.P,Q1,3,S*%
%TO.N,GND*%
X163945000Y-99060000D03*
%TD*%
D19*
%TO.P,H4,1,1*%
%TO.N,GND*%
X187960000Y-71120000D03*
%TD*%
%TO.P,H2,1,1*%
%TO.N,GND*%
X187960000Y-127000000D03*
%TD*%
D22*
%TO.P,D1,1,K*%
%TO.N,+7.5V*%
X152400000Y-91440000D03*
D23*
%TO.P,D1,2,A*%
%TO.N,Net-(D1-A)*%
X152400000Y-101600000D03*
%TD*%
D24*
%TO.N,Net-(J1-Pin_1)*%
X163945000Y-109945000D02*
X164000000Y-110000000D01*
D25*
X164087500Y-104282500D02*
X163945000Y-104140000D01*
D24*
X144080000Y-110000000D02*
X164000000Y-110000000D01*
X142240000Y-111840000D02*
X144080000Y-110000000D01*
X164087500Y-110000000D02*
X164087500Y-104282500D01*
%TD*%
%TA.AperFunction,Conductor*%
%TO.N,GND*%
G36*
X190501737Y-66040598D02*
G01*
X190535041Y-66042467D01*
X190615603Y-66046992D01*
X190787691Y-66057401D01*
X190794297Y-66058160D01*
X190865907Y-66070327D01*
X190930343Y-66081277D01*
X191023462Y-66098340D01*
X191079227Y-66108560D01*
X191085198Y-66109963D01*
X191222032Y-66149384D01*
X191362850Y-66193265D01*
X191368092Y-66195164D01*
X191501420Y-66250391D01*
X191634609Y-66310334D01*
X191639147Y-66312605D01*
X191712221Y-66352991D01*
X191766422Y-66382947D01*
X191766439Y-66382956D01*
X191890935Y-66458217D01*
X191894739Y-66460711D01*
X192012726Y-66544427D01*
X192015072Y-66546176D01*
X192110416Y-66620874D01*
X192128332Y-66634910D01*
X192131409Y-66637486D01*
X192239430Y-66734018D01*
X192241957Y-66736408D01*
X192343590Y-66838041D01*
X192345980Y-66840568D01*
X192442512Y-66948589D01*
X192445088Y-66951666D01*
X192533811Y-67064912D01*
X192535571Y-67067272D01*
X192619287Y-67185259D01*
X192621781Y-67189063D01*
X192697043Y-67313560D01*
X192767393Y-67440851D01*
X192769668Y-67445398D01*
X192829609Y-67578581D01*
X192884831Y-67711899D01*
X192886744Y-67717183D01*
X192909633Y-67790634D01*
X192930631Y-67858021D01*
X192970032Y-67994790D01*
X192971440Y-68000781D01*
X192998722Y-68149656D01*
X193021835Y-68285683D01*
X193022599Y-68292330D01*
X193033012Y-68464475D01*
X193039402Y-68578263D01*
X193039500Y-68581741D01*
X193039500Y-129538258D01*
X193039402Y-129541736D01*
X193033012Y-129655524D01*
X193022599Y-129827668D01*
X193021835Y-129834315D01*
X192998722Y-129970343D01*
X192971440Y-130119217D01*
X192970032Y-130125208D01*
X192930625Y-130262001D01*
X192886744Y-130402815D01*
X192884831Y-130408099D01*
X192829609Y-130541418D01*
X192769668Y-130674600D01*
X192767394Y-130679147D01*
X192697043Y-130806439D01*
X192621781Y-130930936D01*
X192619287Y-130934739D01*
X192535571Y-131052726D01*
X192533811Y-131055086D01*
X192445088Y-131168332D01*
X192442512Y-131171409D01*
X192345980Y-131279430D01*
X192343590Y-131281957D01*
X192241957Y-131383590D01*
X192239430Y-131385980D01*
X192131409Y-131482512D01*
X192128332Y-131485088D01*
X192015086Y-131573811D01*
X192012726Y-131575571D01*
X191894739Y-131659287D01*
X191890936Y-131661781D01*
X191766439Y-131737043D01*
X191639147Y-131807394D01*
X191634600Y-131809668D01*
X191501418Y-131869609D01*
X191368099Y-131924831D01*
X191362815Y-131926744D01*
X191245231Y-131963385D01*
X191221990Y-131970627D01*
X191085208Y-132010032D01*
X191079217Y-132011440D01*
X190930343Y-132038722D01*
X190794315Y-132061835D01*
X190787668Y-132062599D01*
X190615524Y-132073012D01*
X190501736Y-132079402D01*
X190498258Y-132079500D01*
X139701742Y-132079500D01*
X139698265Y-132079402D01*
X139584475Y-132073012D01*
X139412330Y-132062599D01*
X139405683Y-132061835D01*
X139269656Y-132038722D01*
X139120781Y-132011440D01*
X139114790Y-132010032D01*
X138978021Y-131970631D01*
X138910634Y-131949633D01*
X138837183Y-131926744D01*
X138831899Y-131924831D01*
X138698581Y-131869609D01*
X138565398Y-131809668D01*
X138560851Y-131807393D01*
X138433560Y-131737043D01*
X138309063Y-131661781D01*
X138305259Y-131659287D01*
X138187272Y-131575571D01*
X138184912Y-131573811D01*
X138071666Y-131485088D01*
X138068589Y-131482512D01*
X137960568Y-131385980D01*
X137958041Y-131383590D01*
X137856408Y-131281957D01*
X137854018Y-131279430D01*
X137757486Y-131171409D01*
X137754910Y-131168332D01*
X137740874Y-131150416D01*
X137666176Y-131055072D01*
X137664427Y-131052726D01*
X137580711Y-130934739D01*
X137578217Y-130930935D01*
X137502956Y-130806439D01*
X137432605Y-130679147D01*
X137430330Y-130674600D01*
X137370390Y-130541418D01*
X137315167Y-130408099D01*
X137313265Y-130402850D01*
X137269375Y-130262001D01*
X137229963Y-130125198D01*
X137228560Y-130119227D01*
X137218340Y-130063462D01*
X137201277Y-129970343D01*
X137190327Y-129905907D01*
X137178160Y-129834297D01*
X137177401Y-129827691D01*
X137166992Y-129655603D01*
X137162626Y-129577867D01*
X137160598Y-129541736D01*
X137160500Y-129538259D01*
X137160500Y-127000002D01*
X138935153Y-127000002D01*
X138954526Y-127357314D01*
X138954527Y-127357331D01*
X139012415Y-127710431D01*
X139012421Y-127710457D01*
X139108147Y-128055232D01*
X139108149Y-128055239D01*
X139240597Y-128387659D01*
X139240606Y-128387677D01*
X139408218Y-128703827D01*
X139609033Y-129000007D01*
X139736441Y-129150003D01*
X139736442Y-129150004D01*
X140942266Y-127944180D01*
X141105130Y-128134870D01*
X141295818Y-128297732D01*
X140087255Y-129506295D01*
X140087256Y-129506296D01*
X140100485Y-129518828D01*
X140100486Y-129518829D01*
X140385367Y-129735388D01*
X140385370Y-129735390D01*
X140691990Y-129919876D01*
X141016739Y-130070122D01*
X141016744Y-130070123D01*
X141355855Y-130184383D01*
X141705339Y-130261311D01*
X142061075Y-130299999D01*
X142061085Y-130300000D01*
X142418915Y-130300000D01*
X142418924Y-130299999D01*
X142774660Y-130261311D01*
X143124144Y-130184383D01*
X143463255Y-130070123D01*
X143463260Y-130070122D01*
X143788009Y-129919876D01*
X144094629Y-129735390D01*
X144094632Y-129735388D01*
X144379504Y-129518836D01*
X144392742Y-129506294D01*
X143184180Y-128297733D01*
X143374870Y-128134870D01*
X143537733Y-127944180D01*
X144743556Y-129150003D01*
X144870964Y-129000008D01*
X144870975Y-128999994D01*
X145071781Y-128703827D01*
X145239393Y-128387677D01*
X145239402Y-128387659D01*
X145371850Y-128055239D01*
X145371852Y-128055232D01*
X145467578Y-127710457D01*
X145467584Y-127710431D01*
X145525472Y-127357331D01*
X145525473Y-127357314D01*
X145544847Y-127000005D01*
X153612994Y-127000005D01*
X153632183Y-127231582D01*
X153689229Y-127456854D01*
X153782575Y-127669662D01*
X153809228Y-127710457D01*
X153909675Y-127864201D01*
X154067061Y-128035168D01*
X154067064Y-128035170D01*
X154067067Y-128035173D01*
X154250432Y-128177892D01*
X154250438Y-128177896D01*
X154250441Y-128177898D01*
X154454812Y-128288499D01*
X154674600Y-128363952D01*
X154903810Y-128402200D01*
X155136190Y-128402200D01*
X155365400Y-128363952D01*
X155585188Y-128288499D01*
X155789559Y-128177898D01*
X155790103Y-128177475D01*
X155851138Y-128129969D01*
X155972939Y-128035168D01*
X156130325Y-127864201D01*
X156257425Y-127669661D01*
X156350771Y-127456854D01*
X156407816Y-127231586D01*
X156427006Y-127000005D01*
X158613496Y-127000005D01*
X158632678Y-127231499D01*
X158689704Y-127456691D01*
X158783015Y-127669418D01*
X158867584Y-127798861D01*
X159419277Y-127247168D01*
X159429285Y-127277969D01*
X159516972Y-127416141D01*
X159636266Y-127528165D01*
X159771204Y-127602348D01*
X159219989Y-128153562D01*
X159219990Y-128153563D01*
X159250712Y-128177475D01*
X159250718Y-128177480D01*
X159455007Y-128288035D01*
X159455017Y-128288040D01*
X159674721Y-128363464D01*
X159903853Y-128401700D01*
X160136147Y-128401700D01*
X160365278Y-128363464D01*
X160584982Y-128288040D01*
X160584987Y-128288038D01*
X160789288Y-128177475D01*
X160820008Y-128153563D01*
X160820008Y-128153562D01*
X160265762Y-127599315D01*
X160334512Y-127572095D01*
X160466905Y-127475906D01*
X160571218Y-127349813D01*
X160619903Y-127246350D01*
X161172414Y-127798861D01*
X161256980Y-127669425D01*
X161256985Y-127669417D01*
X161350295Y-127456691D01*
X161407321Y-127231499D01*
X161426504Y-127000005D01*
X168853496Y-127000005D01*
X168872678Y-127231499D01*
X168929704Y-127456691D01*
X169023015Y-127669418D01*
X169107584Y-127798861D01*
X169659277Y-127247168D01*
X169669285Y-127277969D01*
X169756972Y-127416141D01*
X169876266Y-127528165D01*
X170011204Y-127602348D01*
X169459989Y-128153562D01*
X169459990Y-128153563D01*
X169490712Y-128177475D01*
X169490718Y-128177480D01*
X169695007Y-128288035D01*
X169695017Y-128288040D01*
X169914721Y-128363464D01*
X170143853Y-128401700D01*
X170376147Y-128401700D01*
X170605278Y-128363464D01*
X170824982Y-128288040D01*
X170824987Y-128288038D01*
X171029288Y-128177475D01*
X171060008Y-128153563D01*
X171060008Y-128153562D01*
X170505762Y-127599315D01*
X170574512Y-127572095D01*
X170706905Y-127475906D01*
X170811218Y-127349813D01*
X170859903Y-127246350D01*
X171412414Y-127798861D01*
X171496980Y-127669425D01*
X171496985Y-127669417D01*
X171590295Y-127456691D01*
X171647321Y-127231499D01*
X171666504Y-127000005D01*
X173852994Y-127000005D01*
X173872183Y-127231582D01*
X173929229Y-127456854D01*
X174022575Y-127669662D01*
X174049228Y-127710457D01*
X174149675Y-127864201D01*
X174307061Y-128035168D01*
X174307064Y-128035170D01*
X174307067Y-128035173D01*
X174490432Y-128177892D01*
X174490438Y-128177896D01*
X174490441Y-128177898D01*
X174694812Y-128288499D01*
X174914600Y-128363952D01*
X175143810Y-128402200D01*
X175376190Y-128402200D01*
X175605400Y-128363952D01*
X175825188Y-128288499D01*
X176029559Y-128177898D01*
X176030103Y-128177475D01*
X176091138Y-128129969D01*
X176212939Y-128035168D01*
X176370325Y-127864201D01*
X176497425Y-127669661D01*
X176590771Y-127456854D01*
X176647816Y-127231586D01*
X176667006Y-127000002D01*
X184655153Y-127000002D01*
X184674526Y-127357314D01*
X184674527Y-127357331D01*
X184732415Y-127710431D01*
X184732421Y-127710457D01*
X184828147Y-128055232D01*
X184828149Y-128055239D01*
X184960597Y-128387659D01*
X184960606Y-128387677D01*
X185128218Y-128703827D01*
X185329033Y-129000007D01*
X185456441Y-129150003D01*
X185456442Y-129150004D01*
X186662266Y-127944180D01*
X186825130Y-128134870D01*
X187015818Y-128297732D01*
X185807255Y-129506295D01*
X185807256Y-129506296D01*
X185820485Y-129518828D01*
X185820486Y-129518829D01*
X186105367Y-129735388D01*
X186105370Y-129735390D01*
X186411990Y-129919876D01*
X186736739Y-130070122D01*
X186736744Y-130070123D01*
X187075855Y-130184383D01*
X187425339Y-130261311D01*
X187781075Y-130299999D01*
X187781085Y-130300000D01*
X188138915Y-130300000D01*
X188138924Y-130299999D01*
X188494660Y-130261311D01*
X188844144Y-130184383D01*
X189183255Y-130070123D01*
X189183260Y-130070122D01*
X189508009Y-129919876D01*
X189814629Y-129735390D01*
X189814632Y-129735388D01*
X190099504Y-129518836D01*
X190112742Y-129506294D01*
X188904180Y-128297733D01*
X189094870Y-128134870D01*
X189257733Y-127944180D01*
X190463556Y-129150003D01*
X190590964Y-129000008D01*
X190590975Y-128999994D01*
X190791781Y-128703827D01*
X190959393Y-128387677D01*
X190959402Y-128387659D01*
X191091850Y-128055239D01*
X191091852Y-128055232D01*
X191187578Y-127710457D01*
X191187584Y-127710431D01*
X191245472Y-127357331D01*
X191245473Y-127357314D01*
X191264847Y-127000002D01*
X191264847Y-126999997D01*
X191245473Y-126642685D01*
X191245472Y-126642668D01*
X191187584Y-126289568D01*
X191187578Y-126289542D01*
X191091852Y-125944767D01*
X191091850Y-125944760D01*
X190959402Y-125612340D01*
X190959393Y-125612322D01*
X190791781Y-125296172D01*
X190590966Y-124999992D01*
X190463557Y-124849995D01*
X190463556Y-124849994D01*
X189257732Y-126055818D01*
X189094870Y-125865130D01*
X188904180Y-125702266D01*
X190112743Y-124493703D01*
X190112742Y-124493702D01*
X190099514Y-124481171D01*
X190099513Y-124481170D01*
X189814632Y-124264611D01*
X189814629Y-124264609D01*
X189508009Y-124080123D01*
X189183260Y-123929877D01*
X189183255Y-123929876D01*
X188844144Y-123815616D01*
X188494660Y-123738688D01*
X188138924Y-123700000D01*
X187781075Y-123700000D01*
X187425339Y-123738688D01*
X187075855Y-123815616D01*
X186736744Y-123929876D01*
X186736739Y-123929877D01*
X186411990Y-124080123D01*
X186105370Y-124264609D01*
X186105367Y-124264611D01*
X185820491Y-124481166D01*
X185807256Y-124493703D01*
X185807255Y-124493703D01*
X187015819Y-125702266D01*
X186825130Y-125865130D01*
X186662266Y-126055818D01*
X185456442Y-124849994D01*
X185456441Y-124849995D01*
X185329040Y-124999983D01*
X185329033Y-124999993D01*
X185128218Y-125296172D01*
X184960606Y-125612322D01*
X184960597Y-125612340D01*
X184828149Y-125944760D01*
X184828147Y-125944767D01*
X184732421Y-126289542D01*
X184732415Y-126289568D01*
X184674527Y-126642668D01*
X184674526Y-126642685D01*
X184655153Y-126999997D01*
X184655153Y-127000002D01*
X176667006Y-127000002D01*
X176667006Y-127000000D01*
X176663609Y-126959007D01*
X176647816Y-126768417D01*
X176647816Y-126768414D01*
X176590771Y-126543146D01*
X176497425Y-126330339D01*
X176370325Y-126135799D01*
X176212939Y-125964832D01*
X176212934Y-125964828D01*
X176212932Y-125964826D01*
X176029567Y-125822107D01*
X176029561Y-125822103D01*
X175825188Y-125711501D01*
X175825180Y-125711498D01*
X175605402Y-125636048D01*
X175376190Y-125597800D01*
X175143810Y-125597800D01*
X174914597Y-125636048D01*
X174694819Y-125711498D01*
X174694811Y-125711501D01*
X174490438Y-125822103D01*
X174490432Y-125822107D01*
X174307067Y-125964826D01*
X174307064Y-125964829D01*
X174149676Y-126135797D01*
X174149673Y-126135801D01*
X174022575Y-126330337D01*
X173929229Y-126543145D01*
X173872183Y-126768417D01*
X173852994Y-126999994D01*
X173852994Y-127000005D01*
X171666504Y-127000005D01*
X171666504Y-126999994D01*
X171647321Y-126768500D01*
X171590295Y-126543308D01*
X171496982Y-126330576D01*
X171412414Y-126201137D01*
X170860721Y-126752829D01*
X170850715Y-126722031D01*
X170763028Y-126583859D01*
X170643734Y-126471835D01*
X170508795Y-126397651D01*
X171060009Y-125846436D01*
X171060009Y-125846435D01*
X171029286Y-125822523D01*
X171029281Y-125822519D01*
X170824992Y-125711964D01*
X170824982Y-125711959D01*
X170605278Y-125636535D01*
X170376147Y-125598300D01*
X170143853Y-125598300D01*
X169914721Y-125636535D01*
X169695017Y-125711959D01*
X169695007Y-125711964D01*
X169490717Y-125822520D01*
X169490706Y-125822527D01*
X169459990Y-125846434D01*
X169459990Y-125846436D01*
X170014238Y-126400684D01*
X169945488Y-126427905D01*
X169813095Y-126524094D01*
X169708782Y-126650187D01*
X169660096Y-126753649D01*
X169107584Y-126201137D01*
X169023016Y-126330578D01*
X168929704Y-126543308D01*
X168872678Y-126768500D01*
X168853496Y-126999994D01*
X168853496Y-127000005D01*
X161426504Y-127000005D01*
X161426504Y-126999994D01*
X161407321Y-126768500D01*
X161350295Y-126543308D01*
X161256982Y-126330576D01*
X161172414Y-126201137D01*
X160620721Y-126752829D01*
X160610715Y-126722031D01*
X160523028Y-126583859D01*
X160403734Y-126471835D01*
X160268795Y-126397651D01*
X160820009Y-125846436D01*
X160820009Y-125846435D01*
X160789286Y-125822523D01*
X160789281Y-125822519D01*
X160584992Y-125711964D01*
X160584982Y-125711959D01*
X160365278Y-125636535D01*
X160136147Y-125598300D01*
X159903853Y-125598300D01*
X159674721Y-125636535D01*
X159455017Y-125711959D01*
X159455007Y-125711964D01*
X159250717Y-125822520D01*
X159250706Y-125822527D01*
X159219990Y-125846434D01*
X159219990Y-125846436D01*
X159774238Y-126400684D01*
X159705488Y-126427905D01*
X159573095Y-126524094D01*
X159468782Y-126650187D01*
X159420096Y-126753649D01*
X158867584Y-126201137D01*
X158783016Y-126330578D01*
X158689704Y-126543308D01*
X158632678Y-126768500D01*
X158613496Y-126999994D01*
X158613496Y-127000005D01*
X156427006Y-127000005D01*
X156427006Y-127000000D01*
X156423609Y-126959007D01*
X156407816Y-126768417D01*
X156407816Y-126768414D01*
X156350771Y-126543146D01*
X156257425Y-126330339D01*
X156130325Y-126135799D01*
X155972939Y-125964832D01*
X155972934Y-125964828D01*
X155972932Y-125964826D01*
X155789567Y-125822107D01*
X155789561Y-125822103D01*
X155585188Y-125711501D01*
X155585180Y-125711498D01*
X155365402Y-125636048D01*
X155136190Y-125597800D01*
X154903810Y-125597800D01*
X154674597Y-125636048D01*
X154454819Y-125711498D01*
X154454811Y-125711501D01*
X154250438Y-125822103D01*
X154250432Y-125822107D01*
X154067067Y-125964826D01*
X154067064Y-125964829D01*
X153909676Y-126135797D01*
X153909673Y-126135801D01*
X153782575Y-126330337D01*
X153689229Y-126543145D01*
X153632183Y-126768417D01*
X153612994Y-126999994D01*
X153612994Y-127000005D01*
X145544847Y-127000005D01*
X145544847Y-127000002D01*
X145544847Y-126999997D01*
X145525473Y-126642685D01*
X145525472Y-126642668D01*
X145467584Y-126289568D01*
X145467578Y-126289542D01*
X145371852Y-125944767D01*
X145371850Y-125944760D01*
X145239402Y-125612340D01*
X145239393Y-125612322D01*
X145071781Y-125296172D01*
X144870966Y-124999992D01*
X144743557Y-124849995D01*
X144743556Y-124849994D01*
X143537732Y-126055818D01*
X143374870Y-125865130D01*
X143184180Y-125702266D01*
X144392743Y-124493703D01*
X144392742Y-124493702D01*
X144379514Y-124481171D01*
X144379513Y-124481170D01*
X144094632Y-124264611D01*
X144094629Y-124264609D01*
X143788009Y-124080123D01*
X143463260Y-123929877D01*
X143463255Y-123929876D01*
X143124144Y-123815616D01*
X142774660Y-123738688D01*
X142418924Y-123700000D01*
X142061075Y-123700000D01*
X141705339Y-123738688D01*
X141355855Y-123815616D01*
X141016744Y-123929876D01*
X141016739Y-123929877D01*
X140691990Y-124080123D01*
X140385370Y-124264609D01*
X140385367Y-124264611D01*
X140100491Y-124481166D01*
X140087256Y-124493703D01*
X140087255Y-124493703D01*
X141295819Y-125702266D01*
X141105130Y-125865130D01*
X140942266Y-126055818D01*
X139736442Y-124849994D01*
X139736441Y-124849995D01*
X139609040Y-124999983D01*
X139609033Y-124999993D01*
X139408218Y-125296172D01*
X139240606Y-125612322D01*
X139240597Y-125612340D01*
X139108149Y-125944760D01*
X139108147Y-125944767D01*
X139012421Y-126289542D01*
X139012415Y-126289568D01*
X138954527Y-126642668D01*
X138954526Y-126642685D01*
X138935153Y-126999997D01*
X138935153Y-127000002D01*
X137160500Y-127000002D01*
X137160500Y-119565037D01*
X157307570Y-119565037D01*
X157307570Y-122376619D01*
X173332878Y-122376619D01*
X173332878Y-119565037D01*
X157307570Y-119565037D01*
X137160500Y-119565037D01*
X137160500Y-116840005D01*
X140833496Y-116840005D01*
X140852678Y-117071499D01*
X140909704Y-117296691D01*
X141003015Y-117509418D01*
X141087584Y-117638861D01*
X141639277Y-117087168D01*
X141649285Y-117117969D01*
X141736972Y-117256141D01*
X141856266Y-117368165D01*
X141991204Y-117442348D01*
X141439989Y-117993562D01*
X141439990Y-117993563D01*
X141470712Y-118017475D01*
X141470718Y-118017480D01*
X141675007Y-118128035D01*
X141675017Y-118128040D01*
X141894721Y-118203464D01*
X142123853Y-118241700D01*
X142356147Y-118241700D01*
X142585278Y-118203464D01*
X142804982Y-118128040D01*
X142804987Y-118128038D01*
X143009288Y-118017475D01*
X143040008Y-117993563D01*
X143040008Y-117993562D01*
X142485762Y-117439315D01*
X142554512Y-117412095D01*
X142686905Y-117315906D01*
X142791218Y-117189813D01*
X142839903Y-117086350D01*
X143392414Y-117638861D01*
X143476980Y-117509425D01*
X143476985Y-117509417D01*
X143570295Y-117296691D01*
X143627321Y-117071499D01*
X143646504Y-116840005D01*
X143646504Y-116839994D01*
X143627321Y-116608500D01*
X143570295Y-116383308D01*
X143476982Y-116170576D01*
X143392414Y-116041137D01*
X142840721Y-116592829D01*
X142830715Y-116562031D01*
X142743028Y-116423859D01*
X142623734Y-116311835D01*
X142488795Y-116237651D01*
X143040009Y-115686436D01*
X143040009Y-115686435D01*
X143009286Y-115662523D01*
X143009281Y-115662519D01*
X142804992Y-115551964D01*
X142804982Y-115551959D01*
X142585278Y-115476535D01*
X142356147Y-115438300D01*
X142123853Y-115438300D01*
X141894721Y-115476535D01*
X141675017Y-115551959D01*
X141675007Y-115551964D01*
X141470717Y-115662520D01*
X141470706Y-115662527D01*
X141439990Y-115686434D01*
X141439990Y-115686436D01*
X141994238Y-116240684D01*
X141925488Y-116267905D01*
X141793095Y-116364094D01*
X141688782Y-116490187D01*
X141640096Y-116593649D01*
X141087584Y-116041137D01*
X141003016Y-116170578D01*
X140909704Y-116383308D01*
X140852678Y-116608500D01*
X140833496Y-116839994D01*
X140833496Y-116840005D01*
X137160500Y-116840005D01*
X137160500Y-111840005D01*
X140832994Y-111840005D01*
X140852183Y-112071582D01*
X140909229Y-112296854D01*
X141002575Y-112509662D01*
X141129673Y-112704198D01*
X141129675Y-112704201D01*
X141287061Y-112875168D01*
X141287064Y-112875170D01*
X141287067Y-112875173D01*
X141470432Y-113017892D01*
X141470438Y-113017896D01*
X141470441Y-113017898D01*
X141674812Y-113128499D01*
X141894600Y-113203952D01*
X142123810Y-113242200D01*
X142356190Y-113242200D01*
X142585400Y-113203952D01*
X142805188Y-113128499D01*
X143009559Y-113017898D01*
X143192939Y-112875168D01*
X143350325Y-112704201D01*
X143477425Y-112509661D01*
X143570771Y-112296854D01*
X143627816Y-112071586D01*
X143647006Y-111840000D01*
X143636124Y-111708686D01*
X143646405Y-111658719D01*
X146863380Y-111658719D01*
X146863380Y-117184000D01*
X149674962Y-117184000D01*
X149674962Y-111658719D01*
X146863380Y-111658719D01*
X143646405Y-111658719D01*
X143650204Y-111640253D01*
X143672016Y-111610771D01*
X144395969Y-110886819D01*
X144457292Y-110853334D01*
X144483650Y-110850500D01*
X163959952Y-110850500D01*
X164026991Y-110870185D01*
X164047628Y-110886814D01*
X164160861Y-111000047D01*
X164347266Y-111130568D01*
X164553504Y-111226739D01*
X164773308Y-111285635D01*
X164935230Y-111299801D01*
X164999998Y-111305468D01*
X165000000Y-111305468D01*
X165000002Y-111305468D01*
X165056673Y-111300509D01*
X165226692Y-111285635D01*
X165446496Y-111226739D01*
X165652734Y-111130568D01*
X165839139Y-111000047D01*
X166000047Y-110839139D01*
X166130568Y-110652734D01*
X166226739Y-110446496D01*
X166285635Y-110226692D01*
X166305468Y-110000000D01*
X166285635Y-109773308D01*
X166279389Y-109749999D01*
X171341127Y-109749999D01*
X171341128Y-109750000D01*
X172304314Y-109750000D01*
X172292359Y-109761955D01*
X172234835Y-109874852D01*
X172215014Y-110000000D01*
X172234835Y-110125148D01*
X172292359Y-110238045D01*
X172304314Y-110250000D01*
X171341128Y-110250000D01*
X171393730Y-110446317D01*
X171393734Y-110446326D01*
X171489865Y-110652482D01*
X171620342Y-110838820D01*
X171781179Y-110999657D01*
X171967517Y-111130134D01*
X172173673Y-111226265D01*
X172173682Y-111226269D01*
X172369999Y-111278872D01*
X172370000Y-111278871D01*
X172370000Y-110315686D01*
X172381955Y-110327641D01*
X172494852Y-110385165D01*
X172588519Y-110400000D01*
X172651481Y-110400000D01*
X172745148Y-110385165D01*
X172858045Y-110327641D01*
X172870000Y-110315686D01*
X172870000Y-111278872D01*
X173066317Y-111226269D01*
X173066326Y-111226265D01*
X173272482Y-111130134D01*
X173458820Y-110999657D01*
X173619657Y-110838820D01*
X173750134Y-110652482D01*
X173846265Y-110446326D01*
X173846269Y-110446317D01*
X173898872Y-110250000D01*
X172935686Y-110250000D01*
X172947641Y-110238045D01*
X173005165Y-110125148D01*
X173024986Y-110000000D01*
X173005165Y-109874852D01*
X172947641Y-109761955D01*
X172935686Y-109750000D01*
X173898872Y-109750000D01*
X173898872Y-109749999D01*
X173846269Y-109553682D01*
X173846265Y-109553673D01*
X173750134Y-109347517D01*
X173619657Y-109161179D01*
X173458820Y-109000342D01*
X173272482Y-108869865D01*
X173066328Y-108773734D01*
X172870000Y-108721127D01*
X172870000Y-109684314D01*
X172858045Y-109672359D01*
X172745148Y-109614835D01*
X172651481Y-109600000D01*
X172588519Y-109600000D01*
X172494852Y-109614835D01*
X172381955Y-109672359D01*
X172370000Y-109684314D01*
X172370000Y-108721127D01*
X172173671Y-108773734D01*
X171967517Y-108869865D01*
X171781179Y-109000342D01*
X171620342Y-109161179D01*
X171489865Y-109347517D01*
X171393734Y-109553673D01*
X171393730Y-109553682D01*
X171341127Y-109749999D01*
X166279389Y-109749999D01*
X166226739Y-109553504D01*
X166130568Y-109347266D01*
X166000047Y-109160861D01*
X166000045Y-109160858D01*
X165839141Y-108999954D01*
X165652734Y-108869432D01*
X165652732Y-108869431D01*
X165446497Y-108773261D01*
X165446488Y-108773258D01*
X165226697Y-108714366D01*
X165226687Y-108714364D01*
X165051192Y-108699010D01*
X164986123Y-108673557D01*
X164945145Y-108616966D01*
X164938000Y-108575482D01*
X164938000Y-105710282D01*
X164957685Y-105643243D01*
X165010489Y-105597488D01*
X165048750Y-105586992D01*
X165052483Y-105586591D01*
X165187331Y-105536296D01*
X165302546Y-105450046D01*
X165388796Y-105334831D01*
X165439091Y-105199983D01*
X165445500Y-105140373D01*
X165445499Y-103139628D01*
X165439091Y-103080017D01*
X165388796Y-102945169D01*
X165388795Y-102945168D01*
X165388793Y-102945164D01*
X165302547Y-102829955D01*
X165302544Y-102829952D01*
X165187335Y-102743706D01*
X165187328Y-102743702D01*
X165156687Y-102732274D01*
X165100753Y-102690403D01*
X165076336Y-102624938D01*
X165091188Y-102556665D01*
X165102161Y-102539937D01*
X165213072Y-102397439D01*
X165327679Y-102185664D01*
X165405866Y-101957913D01*
X165445500Y-101720399D01*
X165445500Y-101600005D01*
X171259512Y-101600005D01*
X171279430Y-101840384D01*
X171338645Y-102074220D01*
X171387529Y-102185665D01*
X171435539Y-102295115D01*
X171567470Y-102497050D01*
X171730838Y-102674516D01*
X171730841Y-102674518D01*
X171730844Y-102674521D01*
X171921180Y-102822666D01*
X171921187Y-102822670D01*
X171921189Y-102822672D01*
X172133329Y-102937476D01*
X172361471Y-103015797D01*
X172599394Y-103055500D01*
X172599395Y-103055500D01*
X172840605Y-103055500D01*
X172840606Y-103055500D01*
X173078529Y-103015797D01*
X173306671Y-102937476D01*
X173518811Y-102822672D01*
X173709162Y-102674516D01*
X173872530Y-102497050D01*
X174004461Y-102295115D01*
X174101355Y-102074220D01*
X174160569Y-101840388D01*
X174171899Y-101703652D01*
X177985037Y-101703652D01*
X177985037Y-117012429D01*
X181296619Y-117012429D01*
X181296619Y-111760005D01*
X184012994Y-111760005D01*
X184032183Y-111991582D01*
X184089229Y-112216854D01*
X184182575Y-112429662D01*
X184309673Y-112624198D01*
X184309675Y-112624201D01*
X184467061Y-112795168D01*
X184467064Y-112795170D01*
X184467067Y-112795173D01*
X184650432Y-112937892D01*
X184650438Y-112937896D01*
X184650441Y-112937898D01*
X184854812Y-113048499D01*
X185074600Y-113123952D01*
X185303810Y-113162200D01*
X185536190Y-113162200D01*
X185765400Y-113123952D01*
X185985188Y-113048499D01*
X186189559Y-112937898D01*
X186372939Y-112795168D01*
X186530325Y-112624201D01*
X186657425Y-112429661D01*
X186750771Y-112216854D01*
X186807816Y-111991586D01*
X186820377Y-111840000D01*
X186827006Y-111760005D01*
X186827006Y-111759994D01*
X186807816Y-111528417D01*
X186807816Y-111528414D01*
X186750771Y-111303146D01*
X186657425Y-111090339D01*
X186530325Y-110895799D01*
X186372939Y-110724832D01*
X186372934Y-110724828D01*
X186372932Y-110724826D01*
X186189567Y-110582107D01*
X186189561Y-110582103D01*
X185985188Y-110471501D01*
X185985180Y-110471498D01*
X185765402Y-110396048D01*
X185536190Y-110357800D01*
X185303810Y-110357800D01*
X185074597Y-110396048D01*
X184854819Y-110471498D01*
X184854811Y-110471501D01*
X184650438Y-110582103D01*
X184650432Y-110582107D01*
X184467067Y-110724826D01*
X184467064Y-110724829D01*
X184309676Y-110895797D01*
X184309673Y-110895801D01*
X184182575Y-111090337D01*
X184089229Y-111303145D01*
X184032183Y-111528417D01*
X184012994Y-111759994D01*
X184012994Y-111760005D01*
X181296619Y-111760005D01*
X181296619Y-106760005D01*
X184013496Y-106760005D01*
X184032678Y-106991499D01*
X184089704Y-107216691D01*
X184183015Y-107429418D01*
X184267584Y-107558861D01*
X184819277Y-107007168D01*
X184829285Y-107037969D01*
X184916972Y-107176141D01*
X185036266Y-107288165D01*
X185171204Y-107362348D01*
X184619989Y-107913562D01*
X184619990Y-107913563D01*
X184650712Y-107937475D01*
X184650718Y-107937480D01*
X184855007Y-108048035D01*
X184855017Y-108048040D01*
X185074721Y-108123464D01*
X185303853Y-108161700D01*
X185536147Y-108161700D01*
X185765278Y-108123464D01*
X185984982Y-108048040D01*
X185984987Y-108048038D01*
X186189288Y-107937475D01*
X186220008Y-107913563D01*
X186220008Y-107913562D01*
X185665762Y-107359315D01*
X185734512Y-107332095D01*
X185866905Y-107235906D01*
X185971218Y-107109813D01*
X186019903Y-107006350D01*
X186572414Y-107558861D01*
X186656980Y-107429425D01*
X186656985Y-107429417D01*
X186750295Y-107216691D01*
X186807321Y-106991499D01*
X186826504Y-106760005D01*
X186826504Y-106759994D01*
X186807321Y-106528500D01*
X186750295Y-106303308D01*
X186656982Y-106090576D01*
X186572414Y-105961137D01*
X186020721Y-106512829D01*
X186010715Y-106482031D01*
X185923028Y-106343859D01*
X185803734Y-106231835D01*
X185668795Y-106157651D01*
X186220009Y-105606436D01*
X186220009Y-105606435D01*
X186189286Y-105582523D01*
X186189281Y-105582519D01*
X185984992Y-105471964D01*
X185984982Y-105471959D01*
X185765278Y-105396535D01*
X185536147Y-105358300D01*
X185303853Y-105358300D01*
X185074721Y-105396535D01*
X184855017Y-105471959D01*
X184855007Y-105471964D01*
X184650717Y-105582520D01*
X184650706Y-105582527D01*
X184619990Y-105606434D01*
X184619990Y-105606436D01*
X185174238Y-106160684D01*
X185105488Y-106187905D01*
X184973095Y-106284094D01*
X184868782Y-106410187D01*
X184820096Y-106513649D01*
X184267584Y-105961137D01*
X184183016Y-106090578D01*
X184089704Y-106303308D01*
X184032678Y-106528500D01*
X184013496Y-106759994D01*
X184013496Y-106760005D01*
X181296619Y-106760005D01*
X181296619Y-101703652D01*
X177985037Y-101703652D01*
X174171899Y-101703652D01*
X174180488Y-101600000D01*
X174160569Y-101359612D01*
X174101355Y-101125780D01*
X174004461Y-100904885D01*
X173872530Y-100702950D01*
X173709162Y-100525484D01*
X173583315Y-100427533D01*
X173542504Y-100370825D01*
X173538829Y-100301052D01*
X173556880Y-100269421D01*
X173557989Y-100251542D01*
X172955976Y-99649529D01*
X173028345Y-99620877D01*
X173158142Y-99526574D01*
X173260410Y-99402954D01*
X173310358Y-99296806D01*
X173910923Y-99897371D01*
X174004021Y-99754873D01*
X174100881Y-99534057D01*
X174160075Y-99300302D01*
X174179987Y-99060006D01*
X174179987Y-99059993D01*
X174160075Y-98819697D01*
X174100881Y-98585942D01*
X174004020Y-98365123D01*
X173872137Y-98163259D01*
X173841090Y-98129534D01*
X173810167Y-98066879D01*
X173818027Y-97997453D01*
X173862173Y-97943297D01*
X173888987Y-97929368D01*
X173917326Y-97918798D01*
X173917326Y-97918797D01*
X173917331Y-97918796D01*
X174032546Y-97832546D01*
X174118796Y-97717331D01*
X174169091Y-97582483D01*
X174175500Y-97522873D01*
X174175499Y-95517128D01*
X174169091Y-95457517D01*
X174118796Y-95322669D01*
X174118795Y-95322668D01*
X174118793Y-95322664D01*
X174032547Y-95207455D01*
X174032544Y-95207452D01*
X173917335Y-95121206D01*
X173917328Y-95121202D01*
X173782482Y-95070908D01*
X173782483Y-95070908D01*
X173722883Y-95064501D01*
X173722881Y-95064500D01*
X173722873Y-95064500D01*
X173722864Y-95064500D01*
X171717129Y-95064500D01*
X171717123Y-95064501D01*
X171657516Y-95070908D01*
X171522671Y-95121202D01*
X171522664Y-95121206D01*
X171407455Y-95207452D01*
X171407452Y-95207455D01*
X171321206Y-95322664D01*
X171321202Y-95322671D01*
X171270908Y-95457517D01*
X171264501Y-95517116D01*
X171264501Y-95517123D01*
X171264500Y-95517135D01*
X171264500Y-97522870D01*
X171264501Y-97522876D01*
X171270908Y-97582483D01*
X171321202Y-97717328D01*
X171321206Y-97717335D01*
X171407452Y-97832544D01*
X171407455Y-97832547D01*
X171522664Y-97918793D01*
X171522671Y-97918797D01*
X171551013Y-97929368D01*
X171606947Y-97971239D01*
X171631364Y-98036703D01*
X171616513Y-98104976D01*
X171598910Y-98129532D01*
X171567865Y-98163255D01*
X171435979Y-98365123D01*
X171339118Y-98585942D01*
X171279924Y-98819697D01*
X171260013Y-99059993D01*
X171260013Y-99060006D01*
X171279924Y-99300302D01*
X171339118Y-99534057D01*
X171435979Y-99754876D01*
X171529074Y-99897370D01*
X172129356Y-99297088D01*
X172140868Y-99332519D01*
X172226835Y-99467981D01*
X172343790Y-99577809D01*
X172480555Y-99652996D01*
X171882008Y-100251542D01*
X171883060Y-100268486D01*
X171897494Y-100288543D01*
X171901167Y-100358316D01*
X171866534Y-100418998D01*
X171856681Y-100427536D01*
X171730840Y-100525482D01*
X171567467Y-100702953D01*
X171435537Y-100904888D01*
X171338645Y-101125779D01*
X171279430Y-101359615D01*
X171259512Y-101599994D01*
X171259512Y-101600005D01*
X165445500Y-101600005D01*
X165445500Y-101479601D01*
X165405866Y-101242087D01*
X165327679Y-101014336D01*
X165213072Y-100802561D01*
X165065171Y-100612537D01*
X164888010Y-100449449D01*
X164888007Y-100449446D01*
X164863614Y-100433510D01*
X164818257Y-100380364D01*
X164808833Y-100311132D01*
X164838335Y-100247796D01*
X164863616Y-100225891D01*
X164887701Y-100210155D01*
X164887702Y-100210154D01*
X165064797Y-100047126D01*
X165064806Y-100047116D01*
X165212649Y-99857168D01*
X165212655Y-99857159D01*
X165327215Y-99645468D01*
X165327221Y-99645454D01*
X165405380Y-99417791D01*
X165423367Y-99310000D01*
X164439852Y-99310000D01*
X164488559Y-99172953D01*
X164498877Y-99022114D01*
X164468116Y-98874085D01*
X164434910Y-98810000D01*
X165423366Y-98810000D01*
X165423366Y-98809999D01*
X165405380Y-98702208D01*
X165327221Y-98474545D01*
X165327215Y-98474531D01*
X165212655Y-98262840D01*
X165212649Y-98262831D01*
X165064806Y-98072883D01*
X165064797Y-98072873D01*
X164887710Y-97909851D01*
X164887699Y-97909843D01*
X164686184Y-97778186D01*
X164465739Y-97681491D01*
X164465740Y-97681491D01*
X164232391Y-97622399D01*
X164195000Y-97619300D01*
X164195000Y-98568316D01*
X164166181Y-98550791D01*
X164020596Y-98510000D01*
X163907378Y-98510000D01*
X163795217Y-98525416D01*
X163695000Y-98568946D01*
X163695000Y-97619300D01*
X163694999Y-97619300D01*
X163657608Y-97622399D01*
X163424259Y-97681491D01*
X163203815Y-97778186D01*
X163002300Y-97909843D01*
X163002289Y-97909851D01*
X162825202Y-98072873D01*
X162825193Y-98072883D01*
X162677350Y-98262831D01*
X162677344Y-98262840D01*
X162562784Y-98474531D01*
X162562778Y-98474545D01*
X162484619Y-98702208D01*
X162466633Y-98809999D01*
X162466634Y-98810000D01*
X163450148Y-98810000D01*
X163401441Y-98947047D01*
X163391123Y-99097886D01*
X163421884Y-99245915D01*
X163455090Y-99310000D01*
X162466633Y-99310000D01*
X162484619Y-99417791D01*
X162562778Y-99645454D01*
X162562784Y-99645468D01*
X162677344Y-99857159D01*
X162677350Y-99857168D01*
X162825193Y-100047116D01*
X162825202Y-100047126D01*
X163002297Y-100210154D01*
X163002296Y-100210154D01*
X163026385Y-100225892D01*
X163071742Y-100279038D01*
X163081166Y-100348269D01*
X163051664Y-100411605D01*
X163026389Y-100433507D01*
X163001994Y-100449446D01*
X163001988Y-100449450D01*
X162824832Y-100612534D01*
X162824829Y-100612537D01*
X162790735Y-100656341D01*
X162676929Y-100802558D01*
X162562321Y-101014334D01*
X162562318Y-101014343D01*
X162484134Y-101242083D01*
X162444500Y-101479602D01*
X162444500Y-101720397D01*
X162484134Y-101957916D01*
X162562318Y-102185656D01*
X162562321Y-102185665D01*
X162676929Y-102397441D01*
X162676933Y-102397447D01*
X162787832Y-102539930D01*
X162813475Y-102604924D01*
X162799908Y-102673464D01*
X162751440Y-102723788D01*
X162733313Y-102732273D01*
X162702675Y-102743700D01*
X162702664Y-102743706D01*
X162587455Y-102829952D01*
X162587452Y-102829955D01*
X162501206Y-102945164D01*
X162501202Y-102945171D01*
X162450908Y-103080017D01*
X162445871Y-103126873D01*
X162444501Y-103139623D01*
X162444500Y-103139635D01*
X162444500Y-105140370D01*
X162444501Y-105140376D01*
X162450908Y-105199983D01*
X162501202Y-105334828D01*
X162501206Y-105334835D01*
X162587452Y-105450044D01*
X162587455Y-105450047D01*
X162702664Y-105536293D01*
X162702671Y-105536297D01*
X162747618Y-105553061D01*
X162837517Y-105586591D01*
X162897127Y-105593000D01*
X163113000Y-105592999D01*
X163180039Y-105612683D01*
X163225794Y-105665487D01*
X163237000Y-105716999D01*
X163237000Y-109025500D01*
X163217315Y-109092539D01*
X163164511Y-109138294D01*
X163113000Y-109149500D01*
X144117087Y-109149500D01*
X144112052Y-109149295D01*
X144056835Y-109144798D01*
X144056828Y-109144799D01*
X143976607Y-109155729D01*
X143896092Y-109164485D01*
X143895131Y-109164697D01*
X143874471Y-109169538D01*
X143873534Y-109169771D01*
X143797513Y-109197700D01*
X143720784Y-109223553D01*
X143719920Y-109223953D01*
X143700704Y-109233160D01*
X143699885Y-109233566D01*
X143631646Y-109277184D01*
X143562259Y-109318933D01*
X143561494Y-109319515D01*
X143544791Y-109332572D01*
X143544012Y-109333199D01*
X143486750Y-109390459D01*
X143427956Y-109446153D01*
X143427322Y-109446899D01*
X143413093Y-109464116D01*
X142472642Y-110404567D01*
X142411319Y-110438052D01*
X142364555Y-110439195D01*
X142356194Y-110437800D01*
X142356190Y-110437800D01*
X142123810Y-110437800D01*
X141894597Y-110476048D01*
X141674819Y-110551498D01*
X141674811Y-110551501D01*
X141470438Y-110662103D01*
X141470432Y-110662107D01*
X141287067Y-110804826D01*
X141287064Y-110804829D01*
X141129676Y-110975797D01*
X141129673Y-110975801D01*
X141002575Y-111170337D01*
X140909229Y-111383145D01*
X140852183Y-111608417D01*
X140832994Y-111839994D01*
X140832994Y-111840005D01*
X137160500Y-111840005D01*
X137160500Y-99060005D01*
X140832994Y-99060005D01*
X140852183Y-99291582D01*
X140909229Y-99516854D01*
X141002575Y-99729662D01*
X141085874Y-99857159D01*
X141129675Y-99924201D01*
X141287061Y-100095168D01*
X141287064Y-100095170D01*
X141287067Y-100095173D01*
X141470432Y-100237892D01*
X141470438Y-100237896D01*
X141470441Y-100237898D01*
X141674812Y-100348499D01*
X141894600Y-100423952D01*
X142123810Y-100462200D01*
X142356190Y-100462200D01*
X142585400Y-100423952D01*
X142805188Y-100348499D01*
X143009559Y-100237898D01*
X143024985Y-100225892D01*
X143071138Y-100189969D01*
X143192939Y-100095168D01*
X143350325Y-99924201D01*
X143477425Y-99729661D01*
X143570771Y-99516854D01*
X143627816Y-99291586D01*
X143647006Y-99060000D01*
X143647005Y-99059993D01*
X143627816Y-98828417D01*
X143627816Y-98828414D01*
X143570771Y-98603146D01*
X143477425Y-98390339D01*
X143460950Y-98365123D01*
X143350326Y-98195801D01*
X143350325Y-98195799D01*
X143192939Y-98024832D01*
X143192934Y-98024828D01*
X143192932Y-98024826D01*
X143009567Y-97882107D01*
X143009561Y-97882103D01*
X142805188Y-97771501D01*
X142805180Y-97771498D01*
X142585402Y-97696048D01*
X142356190Y-97657800D01*
X142123810Y-97657800D01*
X141894597Y-97696048D01*
X141674819Y-97771498D01*
X141674811Y-97771501D01*
X141470438Y-97882103D01*
X141470432Y-97882107D01*
X141287067Y-98024826D01*
X141287064Y-98024829D01*
X141129676Y-98195797D01*
X141129673Y-98195801D01*
X141002575Y-98390337D01*
X140909229Y-98603145D01*
X140852183Y-98828417D01*
X140832994Y-99059994D01*
X140832994Y-99060005D01*
X137160500Y-99060005D01*
X137160500Y-94060005D01*
X140832994Y-94060005D01*
X140852183Y-94291582D01*
X140909229Y-94516854D01*
X141002575Y-94729662D01*
X141129673Y-94924198D01*
X141129675Y-94924201D01*
X141287061Y-95095168D01*
X141287064Y-95095170D01*
X141287067Y-95095173D01*
X141470432Y-95237892D01*
X141470438Y-95237896D01*
X141470441Y-95237898D01*
X141674812Y-95348499D01*
X141894600Y-95423952D01*
X142123810Y-95462200D01*
X142356190Y-95462200D01*
X142585400Y-95423952D01*
X142805188Y-95348499D01*
X143009559Y-95237898D01*
X143192939Y-95095168D01*
X143350325Y-94924201D01*
X143477425Y-94729661D01*
X143570771Y-94516854D01*
X143627816Y-94291586D01*
X143647006Y-94060000D01*
X143640377Y-93980005D01*
X143627816Y-93828417D01*
X143627816Y-93828414D01*
X143570771Y-93603146D01*
X143477425Y-93390339D01*
X143350325Y-93195799D01*
X143192939Y-93024832D01*
X143192934Y-93024828D01*
X143192932Y-93024826D01*
X143009567Y-92882107D01*
X143009561Y-92882103D01*
X142805188Y-92771501D01*
X142805180Y-92771498D01*
X142585402Y-92696048D01*
X142356190Y-92657800D01*
X142123810Y-92657800D01*
X141894597Y-92696048D01*
X141674819Y-92771498D01*
X141674811Y-92771501D01*
X141470438Y-92882103D01*
X141470432Y-92882107D01*
X141287067Y-93024826D01*
X141287064Y-93024829D01*
X141287061Y-93024831D01*
X141287061Y-93024832D01*
X141272639Y-93040499D01*
X141129676Y-93195797D01*
X141129673Y-93195801D01*
X141002575Y-93390337D01*
X140909229Y-93603145D01*
X140852183Y-93828417D01*
X140832994Y-94059994D01*
X140832994Y-94060005D01*
X137160500Y-94060005D01*
X137160500Y-88799306D01*
X146363380Y-88799306D01*
X146363380Y-104107777D01*
X149674962Y-104107777D01*
X149674962Y-101600000D01*
X150794551Y-101600000D01*
X150814317Y-101851151D01*
X150873126Y-102096110D01*
X150969533Y-102328859D01*
X151101160Y-102543653D01*
X151101161Y-102543656D01*
X151101164Y-102543659D01*
X151264776Y-102735224D01*
X151375691Y-102829954D01*
X151456343Y-102898838D01*
X151456346Y-102898839D01*
X151671140Y-103030466D01*
X151790768Y-103080017D01*
X151903889Y-103126873D01*
X152148852Y-103185683D01*
X152400000Y-103205449D01*
X152651148Y-103185683D01*
X152896111Y-103126873D01*
X153128859Y-103030466D01*
X153343659Y-102898836D01*
X153535224Y-102735224D01*
X153698836Y-102543659D01*
X153830466Y-102328859D01*
X153926873Y-102096111D01*
X153985683Y-101851148D01*
X154005449Y-101600000D01*
X153985683Y-101348852D01*
X153926873Y-101103889D01*
X153889778Y-101014334D01*
X153830466Y-100871140D01*
X153698839Y-100656346D01*
X153698838Y-100656343D01*
X153661421Y-100612534D01*
X153535224Y-100464776D01*
X153408571Y-100356604D01*
X153343656Y-100301161D01*
X153343653Y-100301160D01*
X153128859Y-100169533D01*
X152896110Y-100073126D01*
X152651151Y-100014317D01*
X152400000Y-99994551D01*
X152148848Y-100014317D01*
X151903889Y-100073126D01*
X151671140Y-100169533D01*
X151456346Y-100301160D01*
X151456343Y-100301161D01*
X151264776Y-100464776D01*
X151101161Y-100656343D01*
X151101160Y-100656346D01*
X150969533Y-100871140D01*
X150873126Y-101103889D01*
X150814317Y-101348848D01*
X150794551Y-101600000D01*
X149674962Y-101600000D01*
X149674962Y-92587870D01*
X150799500Y-92587870D01*
X150799501Y-92587876D01*
X150805908Y-92647483D01*
X150856202Y-92782328D01*
X150856206Y-92782335D01*
X150942452Y-92897544D01*
X150942455Y-92897547D01*
X151057664Y-92983793D01*
X151057671Y-92983797D01*
X151192517Y-93034091D01*
X151192516Y-93034091D01*
X151199444Y-93034835D01*
X151252127Y-93040500D01*
X153547872Y-93040499D01*
X153607483Y-93034091D01*
X153742331Y-92983796D01*
X153857546Y-92897546D01*
X153943796Y-92782331D01*
X153994091Y-92647483D01*
X154000500Y-92587873D01*
X154000499Y-90292128D01*
X153994091Y-90232517D01*
X153943796Y-90097669D01*
X153943795Y-90097668D01*
X153943793Y-90097664D01*
X153857547Y-89982455D01*
X153857544Y-89982452D01*
X153742335Y-89896206D01*
X153742328Y-89896202D01*
X153607482Y-89845908D01*
X153607483Y-89845908D01*
X153547883Y-89839501D01*
X153547881Y-89839500D01*
X153547873Y-89839500D01*
X153547864Y-89839500D01*
X151252129Y-89839500D01*
X151252123Y-89839501D01*
X151192516Y-89845908D01*
X151057671Y-89896202D01*
X151057664Y-89896206D01*
X150942455Y-89982452D01*
X150942452Y-89982455D01*
X150856206Y-90097664D01*
X150856202Y-90097671D01*
X150805908Y-90232517D01*
X150799501Y-90292116D01*
X150799501Y-90292123D01*
X150799500Y-90292135D01*
X150799500Y-92587870D01*
X149674962Y-92587870D01*
X149674962Y-88799306D01*
X146363380Y-88799306D01*
X137160500Y-88799306D01*
X137160500Y-83914174D01*
X154572966Y-83914174D01*
X154572966Y-89395311D01*
X172258309Y-89395311D01*
X172258309Y-83914174D01*
X154572966Y-83914174D01*
X137160500Y-83914174D01*
X137160500Y-81709365D01*
X177985037Y-81709365D01*
X177985037Y-99372412D01*
X181296619Y-99372412D01*
X181296619Y-93980005D01*
X184012994Y-93980005D01*
X184032183Y-94211582D01*
X184089229Y-94436854D01*
X184182575Y-94649662D01*
X184309673Y-94844198D01*
X184309675Y-94844201D01*
X184467061Y-95015168D01*
X184467064Y-95015170D01*
X184467067Y-95015173D01*
X184650432Y-95157892D01*
X184650438Y-95157896D01*
X184650441Y-95157898D01*
X184854812Y-95268499D01*
X185074600Y-95343952D01*
X185303810Y-95382200D01*
X185536190Y-95382200D01*
X185765400Y-95343952D01*
X185985188Y-95268499D01*
X186189559Y-95157898D01*
X186372939Y-95015168D01*
X186530325Y-94844201D01*
X186657425Y-94649661D01*
X186750771Y-94436854D01*
X186807816Y-94211586D01*
X186820377Y-94060000D01*
X186827006Y-93980005D01*
X186827006Y-93979994D01*
X186807816Y-93748417D01*
X186807816Y-93748414D01*
X186750771Y-93523146D01*
X186657425Y-93310339D01*
X186530325Y-93115799D01*
X186372939Y-92944832D01*
X186372934Y-92944828D01*
X186372932Y-92944826D01*
X186189567Y-92802107D01*
X186189561Y-92802103D01*
X185985188Y-92691501D01*
X185985180Y-92691498D01*
X185765402Y-92616048D01*
X185536190Y-92577800D01*
X185303810Y-92577800D01*
X185074597Y-92616048D01*
X184854819Y-92691498D01*
X184854811Y-92691501D01*
X184650438Y-92802103D01*
X184650432Y-92802107D01*
X184467067Y-92944826D01*
X184467064Y-92944829D01*
X184309676Y-93115797D01*
X184309673Y-93115801D01*
X184182575Y-93310337D01*
X184089229Y-93523145D01*
X184032183Y-93748417D01*
X184012994Y-93979994D01*
X184012994Y-93980005D01*
X181296619Y-93980005D01*
X181296619Y-88980005D01*
X184013496Y-88980005D01*
X184032678Y-89211499D01*
X184089704Y-89436691D01*
X184183015Y-89649418D01*
X184267584Y-89778861D01*
X184819277Y-89227168D01*
X184829285Y-89257969D01*
X184916972Y-89396141D01*
X185036266Y-89508165D01*
X185171204Y-89582348D01*
X184619989Y-90133562D01*
X184619990Y-90133563D01*
X184650712Y-90157475D01*
X184650718Y-90157480D01*
X184855007Y-90268035D01*
X184855017Y-90268040D01*
X185074721Y-90343464D01*
X185303853Y-90381700D01*
X185536147Y-90381700D01*
X185765278Y-90343464D01*
X185984982Y-90268040D01*
X185984987Y-90268038D01*
X186189288Y-90157475D01*
X186220008Y-90133563D01*
X186220008Y-90133562D01*
X185665762Y-89579315D01*
X185734512Y-89552095D01*
X185866905Y-89455906D01*
X185971218Y-89329813D01*
X186019903Y-89226350D01*
X186572414Y-89778861D01*
X186656980Y-89649425D01*
X186656985Y-89649417D01*
X186750295Y-89436691D01*
X186807321Y-89211499D01*
X186826504Y-88980005D01*
X186826504Y-88979994D01*
X186807321Y-88748500D01*
X186750295Y-88523308D01*
X186656982Y-88310576D01*
X186572414Y-88181137D01*
X186020721Y-88732829D01*
X186010715Y-88702031D01*
X185923028Y-88563859D01*
X185803734Y-88451835D01*
X185668795Y-88377651D01*
X186220009Y-87826436D01*
X186220009Y-87826435D01*
X186189286Y-87802523D01*
X186189281Y-87802519D01*
X185984992Y-87691964D01*
X185984982Y-87691959D01*
X185765278Y-87616535D01*
X185536147Y-87578300D01*
X185303853Y-87578300D01*
X185074721Y-87616535D01*
X184855017Y-87691959D01*
X184855007Y-87691964D01*
X184650717Y-87802520D01*
X184650706Y-87802527D01*
X184619990Y-87826434D01*
X184619990Y-87826436D01*
X185174238Y-88380684D01*
X185105488Y-88407905D01*
X184973095Y-88504094D01*
X184868782Y-88630187D01*
X184820096Y-88733649D01*
X184267584Y-88181137D01*
X184183016Y-88310578D01*
X184089704Y-88523308D01*
X184032678Y-88748500D01*
X184013496Y-88979994D01*
X184013496Y-88980005D01*
X181296619Y-88980005D01*
X181296619Y-81709365D01*
X177985037Y-81709365D01*
X137160500Y-81709365D01*
X137160500Y-78074386D01*
X151915708Y-78074386D01*
X151915708Y-81094683D01*
X157724137Y-81094683D01*
X157724137Y-78074386D01*
X172235708Y-78074386D01*
X172235708Y-81094683D01*
X178044137Y-81094683D01*
X178044137Y-78074386D01*
X172235708Y-78074386D01*
X157724137Y-78074386D01*
X151915708Y-78074386D01*
X137160500Y-78074386D01*
X137160500Y-71120002D01*
X138935153Y-71120002D01*
X138954526Y-71477314D01*
X138954527Y-71477331D01*
X139012415Y-71830431D01*
X139012421Y-71830457D01*
X139108147Y-72175232D01*
X139108149Y-72175239D01*
X139240597Y-72507659D01*
X139240606Y-72507677D01*
X139408218Y-72823827D01*
X139609033Y-73120007D01*
X139736441Y-73270003D01*
X139736442Y-73270004D01*
X140942266Y-72064180D01*
X141105130Y-72254870D01*
X141295818Y-72417732D01*
X140087255Y-73626295D01*
X140087256Y-73626296D01*
X140100485Y-73638828D01*
X140100486Y-73638829D01*
X140385367Y-73855388D01*
X140385370Y-73855390D01*
X140691990Y-74039876D01*
X141016739Y-74190122D01*
X141016744Y-74190123D01*
X141355855Y-74304383D01*
X141705339Y-74381311D01*
X142061075Y-74419999D01*
X142061085Y-74420000D01*
X142418915Y-74420000D01*
X142418924Y-74419999D01*
X142774660Y-74381311D01*
X143124144Y-74304383D01*
X143463255Y-74190123D01*
X143463260Y-74190122D01*
X143788009Y-74039876D01*
X144094629Y-73855390D01*
X144094632Y-73855388D01*
X144351656Y-73660005D01*
X151073496Y-73660005D01*
X151092678Y-73891499D01*
X151149704Y-74116691D01*
X151243015Y-74329418D01*
X151327584Y-74458861D01*
X151879277Y-73907168D01*
X151889285Y-73937969D01*
X151976972Y-74076141D01*
X152096266Y-74188165D01*
X152231204Y-74262348D01*
X151679989Y-74813562D01*
X151679990Y-74813563D01*
X151710712Y-74837475D01*
X151710718Y-74837480D01*
X151915007Y-74948035D01*
X151915017Y-74948040D01*
X152134721Y-75023464D01*
X152363853Y-75061700D01*
X152596147Y-75061700D01*
X152825278Y-75023464D01*
X153044982Y-74948040D01*
X153044987Y-74948038D01*
X153249288Y-74837475D01*
X153280008Y-74813563D01*
X153280008Y-74813562D01*
X152725762Y-74259315D01*
X152794512Y-74232095D01*
X152926905Y-74135906D01*
X153031218Y-74009813D01*
X153079903Y-73906350D01*
X153632414Y-74458861D01*
X153716980Y-74329425D01*
X153716985Y-74329417D01*
X153810295Y-74116691D01*
X153867321Y-73891499D01*
X153886504Y-73660005D01*
X156072994Y-73660005D01*
X156092183Y-73891582D01*
X156149229Y-74116854D01*
X156242575Y-74329662D01*
X156326986Y-74458861D01*
X156369675Y-74524201D01*
X156527061Y-74695168D01*
X156527064Y-74695170D01*
X156527067Y-74695173D01*
X156710432Y-74837892D01*
X156710438Y-74837896D01*
X156710441Y-74837898D01*
X156914812Y-74948499D01*
X157134600Y-75023952D01*
X157363810Y-75062200D01*
X157596190Y-75062200D01*
X157825400Y-75023952D01*
X158045188Y-74948499D01*
X158249559Y-74837898D01*
X158250103Y-74837475D01*
X158311138Y-74789969D01*
X158432939Y-74695168D01*
X158590325Y-74524201D01*
X158717425Y-74329661D01*
X158810771Y-74116854D01*
X158867816Y-73891586D01*
X158887006Y-73660005D01*
X171393496Y-73660005D01*
X171412678Y-73891499D01*
X171469704Y-74116691D01*
X171563015Y-74329418D01*
X171647584Y-74458861D01*
X172199277Y-73907168D01*
X172209285Y-73937969D01*
X172296972Y-74076141D01*
X172416266Y-74188165D01*
X172551204Y-74262348D01*
X171999989Y-74813562D01*
X171999990Y-74813563D01*
X172030712Y-74837475D01*
X172030718Y-74837480D01*
X172235007Y-74948035D01*
X172235017Y-74948040D01*
X172454721Y-75023464D01*
X172683853Y-75061700D01*
X172916147Y-75061700D01*
X173145278Y-75023464D01*
X173364982Y-74948040D01*
X173364987Y-74948038D01*
X173569288Y-74837475D01*
X173600008Y-74813563D01*
X173600008Y-74813562D01*
X173045762Y-74259315D01*
X173114512Y-74232095D01*
X173246905Y-74135906D01*
X173351218Y-74009813D01*
X173399903Y-73906350D01*
X173952414Y-74458861D01*
X174036980Y-74329425D01*
X174036985Y-74329417D01*
X174130295Y-74116691D01*
X174187321Y-73891499D01*
X174206504Y-73660005D01*
X176392994Y-73660005D01*
X176412183Y-73891582D01*
X176469229Y-74116854D01*
X176562575Y-74329662D01*
X176646986Y-74458861D01*
X176689675Y-74524201D01*
X176847061Y-74695168D01*
X176847064Y-74695170D01*
X176847067Y-74695173D01*
X177030432Y-74837892D01*
X177030438Y-74837896D01*
X177030441Y-74837898D01*
X177234812Y-74948499D01*
X177454600Y-75023952D01*
X177683810Y-75062200D01*
X177916190Y-75062200D01*
X178145400Y-75023952D01*
X178365188Y-74948499D01*
X178569559Y-74837898D01*
X178570103Y-74837475D01*
X178631138Y-74789969D01*
X178752939Y-74695168D01*
X178910325Y-74524201D01*
X179037425Y-74329661D01*
X179130771Y-74116854D01*
X179187816Y-73891586D01*
X179207006Y-73660000D01*
X179205252Y-73638836D01*
X179187816Y-73428417D01*
X179187816Y-73428414D01*
X179130771Y-73203146D01*
X179037425Y-72990339D01*
X178910325Y-72795799D01*
X178752939Y-72624832D01*
X178752934Y-72624828D01*
X178752932Y-72624826D01*
X178569567Y-72482107D01*
X178569561Y-72482103D01*
X178365188Y-72371501D01*
X178365180Y-72371498D01*
X178145402Y-72296048D01*
X177916190Y-72257800D01*
X177683810Y-72257800D01*
X177454597Y-72296048D01*
X177234819Y-72371498D01*
X177234811Y-72371501D01*
X177030438Y-72482103D01*
X177030432Y-72482107D01*
X176847067Y-72624826D01*
X176847064Y-72624829D01*
X176689676Y-72795797D01*
X176689673Y-72795801D01*
X176562575Y-72990337D01*
X176469229Y-73203145D01*
X176412183Y-73428417D01*
X176392994Y-73659994D01*
X176392994Y-73660005D01*
X174206504Y-73660005D01*
X174206504Y-73659994D01*
X174187321Y-73428500D01*
X174130295Y-73203308D01*
X174036982Y-72990576D01*
X173952414Y-72861137D01*
X173400721Y-73412829D01*
X173390715Y-73382031D01*
X173303028Y-73243859D01*
X173183734Y-73131835D01*
X173048795Y-73057651D01*
X173600009Y-72506436D01*
X173600009Y-72506435D01*
X173569286Y-72482523D01*
X173569281Y-72482519D01*
X173364992Y-72371964D01*
X173364982Y-72371959D01*
X173145278Y-72296535D01*
X172916147Y-72258300D01*
X172683853Y-72258300D01*
X172454721Y-72296535D01*
X172235017Y-72371959D01*
X172235007Y-72371964D01*
X172030717Y-72482520D01*
X172030706Y-72482527D01*
X171999990Y-72506434D01*
X171999990Y-72506436D01*
X172554238Y-73060684D01*
X172485488Y-73087905D01*
X172353095Y-73184094D01*
X172248782Y-73310187D01*
X172200096Y-73413649D01*
X171647584Y-72861137D01*
X171563016Y-72990578D01*
X171469704Y-73203308D01*
X171412678Y-73428500D01*
X171393496Y-73659994D01*
X171393496Y-73660005D01*
X158887006Y-73660005D01*
X158887006Y-73660000D01*
X158885252Y-73638836D01*
X158867816Y-73428417D01*
X158867816Y-73428414D01*
X158810771Y-73203146D01*
X158717425Y-72990339D01*
X158590325Y-72795799D01*
X158432939Y-72624832D01*
X158432934Y-72624828D01*
X158432932Y-72624826D01*
X158249567Y-72482107D01*
X158249561Y-72482103D01*
X158045188Y-72371501D01*
X158045180Y-72371498D01*
X157825402Y-72296048D01*
X157596190Y-72257800D01*
X157363810Y-72257800D01*
X157134597Y-72296048D01*
X156914819Y-72371498D01*
X156914811Y-72371501D01*
X156710438Y-72482103D01*
X156710432Y-72482107D01*
X156527067Y-72624826D01*
X156527064Y-72624829D01*
X156369676Y-72795797D01*
X156369673Y-72795801D01*
X156242575Y-72990337D01*
X156149229Y-73203145D01*
X156092183Y-73428417D01*
X156072994Y-73659994D01*
X156072994Y-73660005D01*
X153886504Y-73660005D01*
X153886504Y-73659994D01*
X153867321Y-73428500D01*
X153810295Y-73203308D01*
X153716982Y-72990576D01*
X153632414Y-72861137D01*
X153080721Y-73412829D01*
X153070715Y-73382031D01*
X152983028Y-73243859D01*
X152863734Y-73131835D01*
X152728795Y-73057651D01*
X153280009Y-72506436D01*
X153280009Y-72506435D01*
X153249286Y-72482523D01*
X153249281Y-72482519D01*
X153044992Y-72371964D01*
X153044982Y-72371959D01*
X152825278Y-72296535D01*
X152596147Y-72258300D01*
X152363853Y-72258300D01*
X152134721Y-72296535D01*
X151915017Y-72371959D01*
X151915007Y-72371964D01*
X151710717Y-72482520D01*
X151710706Y-72482527D01*
X151679990Y-72506434D01*
X151679990Y-72506436D01*
X152234238Y-73060684D01*
X152165488Y-73087905D01*
X152033095Y-73184094D01*
X151928782Y-73310187D01*
X151880096Y-73413649D01*
X151327584Y-72861137D01*
X151243016Y-72990578D01*
X151149704Y-73203308D01*
X151092678Y-73428500D01*
X151073496Y-73659994D01*
X151073496Y-73660005D01*
X144351656Y-73660005D01*
X144379504Y-73638836D01*
X144392742Y-73626294D01*
X143184180Y-72417733D01*
X143374870Y-72254870D01*
X143537733Y-72064180D01*
X144743556Y-73270003D01*
X144870964Y-73120008D01*
X144870975Y-73119994D01*
X145071781Y-72823827D01*
X145239393Y-72507677D01*
X145239402Y-72507659D01*
X145371850Y-72175239D01*
X145371852Y-72175232D01*
X145467578Y-71830457D01*
X145467584Y-71830431D01*
X145525472Y-71477331D01*
X145525473Y-71477314D01*
X145544847Y-71120002D01*
X184655153Y-71120002D01*
X184674526Y-71477314D01*
X184674527Y-71477331D01*
X184732415Y-71830431D01*
X184732421Y-71830457D01*
X184828147Y-72175232D01*
X184828149Y-72175239D01*
X184960597Y-72507659D01*
X184960606Y-72507677D01*
X185128218Y-72823827D01*
X185329033Y-73120007D01*
X185456441Y-73270003D01*
X185456442Y-73270004D01*
X186662266Y-72064180D01*
X186825130Y-72254870D01*
X187015818Y-72417732D01*
X185807255Y-73626295D01*
X185807256Y-73626296D01*
X185820485Y-73638828D01*
X185820486Y-73638829D01*
X186105367Y-73855388D01*
X186105370Y-73855390D01*
X186411990Y-74039876D01*
X186736739Y-74190122D01*
X186736744Y-74190123D01*
X187075855Y-74304383D01*
X187425339Y-74381311D01*
X187781075Y-74419999D01*
X187781085Y-74420000D01*
X188138915Y-74420000D01*
X188138924Y-74419999D01*
X188494660Y-74381311D01*
X188844144Y-74304383D01*
X189183255Y-74190123D01*
X189183260Y-74190122D01*
X189508009Y-74039876D01*
X189814629Y-73855390D01*
X189814632Y-73855388D01*
X190099504Y-73638836D01*
X190112742Y-73626294D01*
X188904180Y-72417733D01*
X189094870Y-72254870D01*
X189257733Y-72064180D01*
X190463556Y-73270003D01*
X190590964Y-73120008D01*
X190590975Y-73119994D01*
X190791781Y-72823827D01*
X190959393Y-72507677D01*
X190959402Y-72507659D01*
X191091850Y-72175239D01*
X191091852Y-72175232D01*
X191187578Y-71830457D01*
X191187584Y-71830431D01*
X191245472Y-71477331D01*
X191245473Y-71477314D01*
X191264847Y-71120002D01*
X191264847Y-71119997D01*
X191245473Y-70762685D01*
X191245472Y-70762668D01*
X191187584Y-70409568D01*
X191187578Y-70409542D01*
X191091852Y-70064767D01*
X191091850Y-70064760D01*
X190959402Y-69732340D01*
X190959393Y-69732322D01*
X190791781Y-69416172D01*
X190590966Y-69119992D01*
X190463557Y-68969995D01*
X190463556Y-68969994D01*
X189257732Y-70175818D01*
X189094870Y-69985130D01*
X188904180Y-69822266D01*
X190112743Y-68613703D01*
X190112742Y-68613702D01*
X190099514Y-68601171D01*
X190099513Y-68601170D01*
X189814632Y-68384611D01*
X189814629Y-68384609D01*
X189508009Y-68200123D01*
X189183260Y-68049877D01*
X189183255Y-68049876D01*
X188844144Y-67935616D01*
X188494660Y-67858688D01*
X188138924Y-67820000D01*
X187781075Y-67820000D01*
X187425339Y-67858688D01*
X187075855Y-67935616D01*
X186736744Y-68049876D01*
X186736739Y-68049877D01*
X186411990Y-68200123D01*
X186105370Y-68384609D01*
X186105367Y-68384611D01*
X185820491Y-68601166D01*
X185807256Y-68613703D01*
X185807255Y-68613703D01*
X187015819Y-69822266D01*
X186825130Y-69985130D01*
X186662266Y-70175818D01*
X185456442Y-68969994D01*
X185456441Y-68969995D01*
X185329040Y-69119983D01*
X185329033Y-69119993D01*
X185128218Y-69416172D01*
X184960606Y-69732322D01*
X184960597Y-69732340D01*
X184828149Y-70064760D01*
X184828147Y-70064767D01*
X184732421Y-70409542D01*
X184732415Y-70409568D01*
X184674527Y-70762668D01*
X184674526Y-70762685D01*
X184655153Y-71119997D01*
X184655153Y-71120002D01*
X145544847Y-71120002D01*
X145544847Y-71119997D01*
X145525473Y-70762685D01*
X145525472Y-70762668D01*
X145467584Y-70409568D01*
X145467578Y-70409542D01*
X145371852Y-70064767D01*
X145371850Y-70064760D01*
X145239402Y-69732340D01*
X145239393Y-69732322D01*
X145071781Y-69416172D01*
X144870966Y-69119992D01*
X144743557Y-68969995D01*
X144743556Y-68969994D01*
X143537732Y-70175818D01*
X143374870Y-69985130D01*
X143184180Y-69822266D01*
X144392743Y-68613703D01*
X144392742Y-68613702D01*
X144379514Y-68601171D01*
X144379513Y-68601170D01*
X144094632Y-68384611D01*
X144094629Y-68384609D01*
X143788009Y-68200123D01*
X143463260Y-68049877D01*
X143463255Y-68049876D01*
X143124144Y-67935616D01*
X142774660Y-67858688D01*
X142418924Y-67820000D01*
X142061075Y-67820000D01*
X141705339Y-67858688D01*
X141355855Y-67935616D01*
X141016744Y-68049876D01*
X141016739Y-68049877D01*
X140691990Y-68200123D01*
X140385370Y-68384609D01*
X140385367Y-68384611D01*
X140100491Y-68601166D01*
X140087256Y-68613703D01*
X140087255Y-68613703D01*
X141295819Y-69822266D01*
X141105130Y-69985130D01*
X140942266Y-70175818D01*
X139736442Y-68969994D01*
X139736441Y-68969995D01*
X139609040Y-69119983D01*
X139609033Y-69119993D01*
X139408218Y-69416172D01*
X139240606Y-69732322D01*
X139240597Y-69732340D01*
X139108149Y-70064760D01*
X139108147Y-70064767D01*
X139012421Y-70409542D01*
X139012415Y-70409568D01*
X138954527Y-70762668D01*
X138954526Y-70762685D01*
X138935153Y-71119997D01*
X138935153Y-71120002D01*
X137160500Y-71120002D01*
X137160500Y-68581740D01*
X137160598Y-68578263D01*
X137162140Y-68550782D01*
X137166995Y-68464333D01*
X137177401Y-68292304D01*
X137178160Y-68285706D01*
X137200576Y-68153780D01*
X137201277Y-68149656D01*
X137213432Y-68083324D01*
X137228562Y-68000763D01*
X137229961Y-67994810D01*
X137269387Y-67857956D01*
X137313270Y-67717135D01*
X137315158Y-67711921D01*
X137370397Y-67578565D01*
X137430343Y-67445370D01*
X137432599Y-67440861D01*
X137502958Y-67313557D01*
X137578228Y-67189044D01*
X137580693Y-67185286D01*
X137664461Y-67067226D01*
X137666145Y-67064967D01*
X137754932Y-66951638D01*
X137757472Y-66948605D01*
X137854052Y-66840531D01*
X137856373Y-66838077D01*
X137958077Y-66736373D01*
X137960531Y-66734052D01*
X138068605Y-66637472D01*
X138071638Y-66634932D01*
X138184967Y-66546145D01*
X138187226Y-66544461D01*
X138305286Y-66460693D01*
X138309044Y-66458228D01*
X138433561Y-66382956D01*
X138560861Y-66312599D01*
X138565370Y-66310343D01*
X138698565Y-66250397D01*
X138831921Y-66195158D01*
X138837135Y-66193270D01*
X138977956Y-66149387D01*
X139114810Y-66109961D01*
X139120763Y-66108562D01*
X139203324Y-66093432D01*
X139269656Y-66081277D01*
X139317941Y-66073072D01*
X139405706Y-66058160D01*
X139412304Y-66057401D01*
X139584333Y-66046995D01*
X139670782Y-66042140D01*
X139698263Y-66040598D01*
X139701740Y-66040500D01*
X190498260Y-66040500D01*
X190501737Y-66040598D01*
G37*
%TD.AperFunction*%
%TD*%
M02*
