%TF.GenerationSoftware,KiCad,Pcbnew,7.0.9*%
%TF.CreationDate,2024-06-27T12:47:17-04:00*%
%TF.ProjectId,PCBAdas,50434241-6461-4732-9e6b-696361645f70,rev?*%
%TF.SameCoordinates,Original*%
%TF.FileFunction,Copper,L2,Bot*%
%TF.FilePolarity,Positive*%
%FSLAX46Y46*%
G04 Gerber Fmt 4.6, Leading zero omitted, Abs format (unit mm)*
G04 Created by KiCad (PCBNEW 7.0.9) date 2024-06-27 12:47:17*
%MOMM*%
%LPD*%
G01*
G04 APERTURE LIST*
%TA.AperFunction,ComponentPad*%
%ADD10C,1.803400*%
%TD*%
%TA.AperFunction,ComponentPad*%
%ADD11R,1.910000X1.910000*%
%TD*%
%TA.AperFunction,ComponentPad*%
%ADD12C,1.910000*%
%TD*%
%TA.AperFunction,ComponentPad*%
%ADD13C,1.600000*%
%TD*%
%TA.AperFunction,ComponentPad*%
%ADD14O,1.600000X1.600000*%
%TD*%
%TA.AperFunction,ComponentPad*%
%ADD15C,5.600000*%
%TD*%
%TA.AperFunction,ComponentPad*%
%ADD16R,2.000000X1.905000*%
%TD*%
%TA.AperFunction,ComponentPad*%
%ADD17O,2.000000X1.905000*%
%TD*%
%TA.AperFunction,ComponentPad*%
%ADD18R,2.200000X2.200000*%
%TD*%
%TA.AperFunction,ComponentPad*%
%ADD19O,2.200000X2.200000*%
%TD*%
%TA.AperFunction,Conductor*%
%ADD20C,2.000000*%
%TD*%
%TA.AperFunction,Conductor*%
%ADD21C,0.700000*%
%TD*%
G04 APERTURE END LIST*
D10*
%TO.P,J8,1,Pin_1*%
%TO.N,+8V*%
X185420000Y-93980000D03*
%TO.P,J8,2,Pin_2*%
%TO.N,GND*%
X185420000Y-88980000D03*
%TD*%
%TO.P,J7,1,Pin_1*%
%TO.N,+7.5V*%
X157480000Y-73660000D03*
%TO.P,J7,2,Pin_2*%
%TO.N,GND*%
X152480000Y-73660000D03*
%TD*%
%TO.P,J6,1,Pin_1*%
%TO.N,Net-(J5-Pin_2)*%
X155020000Y-127000000D03*
%TO.P,J6,2,Pin_2*%
%TO.N,GND*%
X160020000Y-127000000D03*
%TD*%
%TO.P,J5,1,Pin_1*%
%TO.N,GND*%
X170260000Y-127000000D03*
%TO.P,J5,2,Pin_2*%
%TO.N,Net-(J5-Pin_2)*%
X175260000Y-127000000D03*
%TD*%
%TO.P,J4,1,Pin_1*%
%TO.N,Net-(J4-Pin_1)*%
X185420000Y-111760000D03*
%TO.P,J4,2,Pin_2*%
%TO.N,GND*%
X185420000Y-106760000D03*
%TD*%
%TO.P,J3,1,Pin_1*%
%TO.N,+8V*%
X177800000Y-73660000D03*
%TO.P,J3,2,Pin_2*%
%TO.N,GND*%
X172800000Y-73660000D03*
%TD*%
%TO.P,J2,1,Pin_1*%
%TO.N,+7.5V*%
X142240000Y-94060000D03*
%TO.P,J2,2,Pin_2*%
%TO.N,Net-(D1-A)*%
X142240000Y-99060000D03*
%TD*%
%TO.P,J1,1,Pin_1*%
%TO.N,Net-(J1-Pin_1)*%
X142240000Y-111840000D03*
%TO.P,J1,2,Pin_2*%
%TO.N,GND*%
X142240000Y-116840000D03*
%TD*%
D11*
%TO.P,U2,1,IN*%
%TO.N,+8V*%
X172720000Y-96520000D03*
D12*
%TO.P,U2,2,GND*%
%TO.N,GND*%
X172720000Y-99060000D03*
%TO.P,U2,3,OUT*%
%TO.N,Net-(J4-Pin_1)*%
X172720000Y-101600000D03*
%TD*%
D13*
%TO.P,R1,1*%
%TO.N,Net-(J1-Pin_1)*%
X165000000Y-110000000D03*
D14*
%TO.P,R1,2*%
%TO.N,GND*%
X172620000Y-110000000D03*
%TD*%
D15*
%TO.P,H3,1,1*%
%TO.N,GND*%
X142240000Y-71120000D03*
%TD*%
%TO.P,H1,1,1*%
%TO.N,GND*%
X142240000Y-127000000D03*
%TD*%
D16*
%TO.P,Q1,1,G*%
%TO.N,Net-(J1-Pin_1)*%
X163945000Y-104140000D03*
D17*
%TO.P,Q1,2,D*%
%TO.N,Net-(D1-A)*%
X163945000Y-101600000D03*
%TO.P,Q1,3,S*%
%TO.N,GND*%
X163945000Y-99060000D03*
%TD*%
D15*
%TO.P,H4,1,1*%
%TO.N,GND*%
X187960000Y-71120000D03*
%TD*%
%TO.P,H2,1,1*%
%TO.N,GND*%
X187960000Y-127000000D03*
%TD*%
D18*
%TO.P,D1,1,K*%
%TO.N,+7.5V*%
X152400000Y-91440000D03*
D19*
%TO.P,D1,2,A*%
%TO.N,Net-(D1-A)*%
X152400000Y-101600000D03*
%TD*%
D20*
%TO.N,Net-(J4-Pin_1)*%
X182880000Y-111760000D02*
X172720000Y-101600000D01*
X185420000Y-111760000D02*
X182880000Y-111760000D01*
%TO.N,+8V*%
X172720000Y-91360000D02*
X177800000Y-86280000D01*
X172720000Y-96520000D02*
X172720000Y-91360000D01*
%TO.N,+7.5V*%
X149860000Y-93980000D02*
X152400000Y-91440000D01*
X142240000Y-93980000D02*
X149860000Y-93980000D01*
X152400000Y-91440000D02*
X152400000Y-78820000D01*
X152400000Y-78820000D02*
X157560000Y-73660000D01*
%TO.N,Net-(D1-A)*%
X142240000Y-98980000D02*
X144860000Y-101600000D01*
X144860000Y-101600000D02*
X152400000Y-101600000D01*
X152400000Y-101600000D02*
X163945000Y-101600000D01*
D21*
%TO.N,Net-(J5-Pin_2)*%
X172000000Y-121000000D02*
X175260000Y-124260000D01*
X155020000Y-121980000D02*
X156000000Y-121000000D01*
X155020000Y-127000000D02*
X155020000Y-121980000D01*
X175260000Y-124260000D02*
X175260000Y-127000000D01*
X156000000Y-121000000D02*
X172000000Y-121000000D01*
D20*
%TO.N,+8V*%
X177800000Y-86280000D02*
X185420000Y-93900000D01*
X177800000Y-73660000D02*
X177800000Y-86280000D01*
%TD*%
%TA.AperFunction,Conductor*%
%TO.N,GND*%
G36*
X190501737Y-66040598D02*
G01*
X190535041Y-66042467D01*
X190615603Y-66046992D01*
X190787691Y-66057401D01*
X190794297Y-66058160D01*
X190865907Y-66070327D01*
X190930343Y-66081277D01*
X191023462Y-66098340D01*
X191079227Y-66108560D01*
X191085198Y-66109963D01*
X191222032Y-66149384D01*
X191362850Y-66193265D01*
X191368092Y-66195164D01*
X191501420Y-66250391D01*
X191634609Y-66310334D01*
X191639147Y-66312605D01*
X191712221Y-66352991D01*
X191766422Y-66382947D01*
X191766439Y-66382956D01*
X191890935Y-66458217D01*
X191894739Y-66460711D01*
X192012726Y-66544427D01*
X192015072Y-66546176D01*
X192110416Y-66620874D01*
X192128332Y-66634910D01*
X192131409Y-66637486D01*
X192239430Y-66734018D01*
X192241957Y-66736408D01*
X192343590Y-66838041D01*
X192345980Y-66840568D01*
X192442512Y-66948589D01*
X192445088Y-66951666D01*
X192533811Y-67064912D01*
X192535571Y-67067272D01*
X192619287Y-67185259D01*
X192621781Y-67189063D01*
X192697043Y-67313560D01*
X192767393Y-67440851D01*
X192769668Y-67445398D01*
X192829609Y-67578581D01*
X192884831Y-67711899D01*
X192886744Y-67717183D01*
X192909633Y-67790634D01*
X192930631Y-67858021D01*
X192970032Y-67994790D01*
X192971440Y-68000781D01*
X192998722Y-68149656D01*
X193021835Y-68285683D01*
X193022599Y-68292330D01*
X193033012Y-68464475D01*
X193039402Y-68578263D01*
X193039500Y-68581741D01*
X193039500Y-129538258D01*
X193039402Y-129541736D01*
X193033012Y-129655524D01*
X193022599Y-129827668D01*
X193021835Y-129834315D01*
X192998722Y-129970343D01*
X192971440Y-130119217D01*
X192970032Y-130125208D01*
X192930625Y-130262001D01*
X192886744Y-130402815D01*
X192884831Y-130408099D01*
X192829609Y-130541418D01*
X192769668Y-130674600D01*
X192767394Y-130679147D01*
X192697043Y-130806439D01*
X192621781Y-130930936D01*
X192619287Y-130934739D01*
X192535571Y-131052726D01*
X192533811Y-131055086D01*
X192445088Y-131168332D01*
X192442512Y-131171409D01*
X192345980Y-131279430D01*
X192343590Y-131281957D01*
X192241957Y-131383590D01*
X192239430Y-131385980D01*
X192131409Y-131482512D01*
X192128332Y-131485088D01*
X192015086Y-131573811D01*
X192012726Y-131575571D01*
X191894739Y-131659287D01*
X191890936Y-131661781D01*
X191766439Y-131737043D01*
X191639147Y-131807394D01*
X191634600Y-131809668D01*
X191501418Y-131869609D01*
X191368099Y-131924831D01*
X191362815Y-131926744D01*
X191245231Y-131963385D01*
X191221990Y-131970627D01*
X191085208Y-132010032D01*
X191079217Y-132011440D01*
X190930343Y-132038722D01*
X190794315Y-132061835D01*
X190787668Y-132062599D01*
X190615524Y-132073012D01*
X190501736Y-132079402D01*
X190498258Y-132079500D01*
X139701742Y-132079500D01*
X139698265Y-132079402D01*
X139584475Y-132073012D01*
X139412330Y-132062599D01*
X139405683Y-132061835D01*
X139269656Y-132038722D01*
X139120781Y-132011440D01*
X139114790Y-132010032D01*
X138978021Y-131970631D01*
X138910634Y-131949633D01*
X138837183Y-131926744D01*
X138831899Y-131924831D01*
X138698581Y-131869609D01*
X138565398Y-131809668D01*
X138560851Y-131807393D01*
X138433560Y-131737043D01*
X138309063Y-131661781D01*
X138305259Y-131659287D01*
X138187272Y-131575571D01*
X138184912Y-131573811D01*
X138071666Y-131485088D01*
X138068589Y-131482512D01*
X137960568Y-131385980D01*
X137958041Y-131383590D01*
X137856408Y-131281957D01*
X137854018Y-131279430D01*
X137757486Y-131171409D01*
X137754910Y-131168332D01*
X137740874Y-131150416D01*
X137666176Y-131055072D01*
X137664427Y-131052726D01*
X137580711Y-130934739D01*
X137578217Y-130930935D01*
X137502956Y-130806439D01*
X137432605Y-130679147D01*
X137430330Y-130674600D01*
X137370390Y-130541418D01*
X137315167Y-130408099D01*
X137313265Y-130402850D01*
X137269375Y-130262001D01*
X137229963Y-130125198D01*
X137228560Y-130119227D01*
X137218340Y-130063462D01*
X137201277Y-129970343D01*
X137190327Y-129905907D01*
X137178160Y-129834297D01*
X137177401Y-129827691D01*
X137166992Y-129655603D01*
X137162626Y-129577867D01*
X137160598Y-129541736D01*
X137160500Y-129538259D01*
X137160500Y-127000002D01*
X138935153Y-127000002D01*
X138954526Y-127357314D01*
X138954527Y-127357331D01*
X139012415Y-127710431D01*
X139012421Y-127710457D01*
X139108147Y-128055232D01*
X139108149Y-128055239D01*
X139240597Y-128387659D01*
X139240606Y-128387677D01*
X139408218Y-128703827D01*
X139609033Y-129000007D01*
X139736441Y-129150003D01*
X139736442Y-129150004D01*
X140942266Y-127944180D01*
X141105130Y-128134870D01*
X141295818Y-128297732D01*
X140087255Y-129506295D01*
X140087256Y-129506296D01*
X140100485Y-129518828D01*
X140100486Y-129518829D01*
X140385367Y-129735388D01*
X140385370Y-129735390D01*
X140691990Y-129919876D01*
X141016739Y-130070122D01*
X141016744Y-130070123D01*
X141355855Y-130184383D01*
X141705339Y-130261311D01*
X142061075Y-130299999D01*
X142061085Y-130300000D01*
X142418915Y-130300000D01*
X142418924Y-130299999D01*
X142774660Y-130261311D01*
X143124144Y-130184383D01*
X143463255Y-130070123D01*
X143463260Y-130070122D01*
X143788009Y-129919876D01*
X144094629Y-129735390D01*
X144094632Y-129735388D01*
X144379504Y-129518836D01*
X144392742Y-129506294D01*
X143184180Y-128297733D01*
X143374870Y-128134870D01*
X143537733Y-127944180D01*
X144743556Y-129150003D01*
X144870964Y-129000008D01*
X144870975Y-128999994D01*
X145071781Y-128703827D01*
X145239393Y-128387677D01*
X145239402Y-128387659D01*
X145371850Y-128055239D01*
X145371852Y-128055232D01*
X145467578Y-127710457D01*
X145467584Y-127710431D01*
X145525472Y-127357331D01*
X145525473Y-127357314D01*
X145544847Y-127000005D01*
X153612994Y-127000005D01*
X153632183Y-127231582D01*
X153689229Y-127456854D01*
X153782575Y-127669662D01*
X153809228Y-127710457D01*
X153909675Y-127864201D01*
X154067061Y-128035168D01*
X154067064Y-128035170D01*
X154067067Y-128035173D01*
X154250432Y-128177892D01*
X154250438Y-128177896D01*
X154250441Y-128177898D01*
X154454812Y-128288499D01*
X154674600Y-128363952D01*
X154903810Y-128402200D01*
X155136190Y-128402200D01*
X155365400Y-128363952D01*
X155585188Y-128288499D01*
X155789559Y-128177898D01*
X155790103Y-128177475D01*
X155851138Y-128129969D01*
X155972939Y-128035168D01*
X156130325Y-127864201D01*
X156257425Y-127669661D01*
X156350771Y-127456854D01*
X156407816Y-127231586D01*
X156427006Y-127000005D01*
X158613496Y-127000005D01*
X158632678Y-127231499D01*
X158689704Y-127456691D01*
X158783015Y-127669418D01*
X158867584Y-127798861D01*
X159419277Y-127247168D01*
X159429285Y-127277969D01*
X159516972Y-127416141D01*
X159636266Y-127528165D01*
X159771204Y-127602348D01*
X159219989Y-128153562D01*
X159219990Y-128153563D01*
X159250712Y-128177475D01*
X159250718Y-128177480D01*
X159455007Y-128288035D01*
X159455017Y-128288040D01*
X159674721Y-128363464D01*
X159903853Y-128401700D01*
X160136147Y-128401700D01*
X160365278Y-128363464D01*
X160584982Y-128288040D01*
X160584987Y-128288038D01*
X160789288Y-128177475D01*
X160820008Y-128153563D01*
X160820008Y-128153562D01*
X160265762Y-127599315D01*
X160334512Y-127572095D01*
X160466905Y-127475906D01*
X160571218Y-127349813D01*
X160619903Y-127246350D01*
X161172414Y-127798861D01*
X161256980Y-127669425D01*
X161256985Y-127669417D01*
X161350295Y-127456691D01*
X161407321Y-127231499D01*
X161426504Y-127000005D01*
X168853496Y-127000005D01*
X168872678Y-127231499D01*
X168929704Y-127456691D01*
X169023015Y-127669418D01*
X169107584Y-127798861D01*
X169659277Y-127247168D01*
X169669285Y-127277969D01*
X169756972Y-127416141D01*
X169876266Y-127528165D01*
X170011204Y-127602348D01*
X169459989Y-128153562D01*
X169459990Y-128153563D01*
X169490712Y-128177475D01*
X169490718Y-128177480D01*
X169695007Y-128288035D01*
X169695017Y-128288040D01*
X169914721Y-128363464D01*
X170143853Y-128401700D01*
X170376147Y-128401700D01*
X170605278Y-128363464D01*
X170824982Y-128288040D01*
X170824987Y-128288038D01*
X171029288Y-128177475D01*
X171060008Y-128153563D01*
X171060008Y-128153562D01*
X170505762Y-127599315D01*
X170574512Y-127572095D01*
X170706905Y-127475906D01*
X170811218Y-127349813D01*
X170859903Y-127246350D01*
X171412414Y-127798861D01*
X171496980Y-127669425D01*
X171496985Y-127669417D01*
X171590295Y-127456691D01*
X171647321Y-127231499D01*
X171666504Y-127000005D01*
X171666504Y-126999994D01*
X171647321Y-126768500D01*
X171590295Y-126543308D01*
X171496982Y-126330576D01*
X171412414Y-126201137D01*
X170860721Y-126752829D01*
X170850715Y-126722031D01*
X170763028Y-126583859D01*
X170643734Y-126471835D01*
X170508795Y-126397651D01*
X171060009Y-125846436D01*
X171060009Y-125846435D01*
X171029286Y-125822523D01*
X171029281Y-125822519D01*
X170824992Y-125711964D01*
X170824982Y-125711959D01*
X170605278Y-125636535D01*
X170376147Y-125598300D01*
X170143853Y-125598300D01*
X169914721Y-125636535D01*
X169695017Y-125711959D01*
X169695007Y-125711964D01*
X169490717Y-125822520D01*
X169490706Y-125822527D01*
X169459990Y-125846434D01*
X169459990Y-125846436D01*
X170014238Y-126400684D01*
X169945488Y-126427905D01*
X169813095Y-126524094D01*
X169708782Y-126650187D01*
X169660096Y-126753649D01*
X169107584Y-126201137D01*
X169023016Y-126330578D01*
X168929704Y-126543308D01*
X168872678Y-126768500D01*
X168853496Y-126999994D01*
X168853496Y-127000005D01*
X161426504Y-127000005D01*
X161426504Y-126999994D01*
X161407321Y-126768500D01*
X161350295Y-126543308D01*
X161256982Y-126330576D01*
X161172414Y-126201137D01*
X160620721Y-126752829D01*
X160610715Y-126722031D01*
X160523028Y-126583859D01*
X160403734Y-126471835D01*
X160268795Y-126397651D01*
X160820009Y-125846436D01*
X160820009Y-125846435D01*
X160789286Y-125822523D01*
X160789281Y-125822519D01*
X160584992Y-125711964D01*
X160584982Y-125711959D01*
X160365278Y-125636535D01*
X160136147Y-125598300D01*
X159903853Y-125598300D01*
X159674721Y-125636535D01*
X159455017Y-125711959D01*
X159455007Y-125711964D01*
X159250717Y-125822520D01*
X159250706Y-125822527D01*
X159219990Y-125846434D01*
X159219990Y-125846436D01*
X159774238Y-126400684D01*
X159705488Y-126427905D01*
X159573095Y-126524094D01*
X159468782Y-126650187D01*
X159420096Y-126753649D01*
X158867584Y-126201137D01*
X158783016Y-126330578D01*
X158689704Y-126543308D01*
X158632678Y-126768500D01*
X158613496Y-126999994D01*
X158613496Y-127000005D01*
X156427006Y-127000005D01*
X156427006Y-127000000D01*
X156423609Y-126959007D01*
X156407816Y-126768417D01*
X156407816Y-126768414D01*
X156350771Y-126543146D01*
X156257425Y-126330339D01*
X156130325Y-126135799D01*
X155972939Y-125964832D01*
X155918337Y-125922333D01*
X155877524Y-125865622D01*
X155870500Y-125824480D01*
X155870500Y-122383651D01*
X155890185Y-122316612D01*
X155906819Y-122295970D01*
X156315970Y-121886819D01*
X156377293Y-121853334D01*
X156403651Y-121850500D01*
X171596349Y-121850500D01*
X171663388Y-121870185D01*
X171684030Y-121886819D01*
X174373181Y-124575970D01*
X174406666Y-124637293D01*
X174409500Y-124663651D01*
X174409500Y-125824480D01*
X174389815Y-125891519D01*
X174361663Y-125922333D01*
X174307063Y-125964830D01*
X174149676Y-126135797D01*
X174149673Y-126135801D01*
X174022575Y-126330337D01*
X173929229Y-126543145D01*
X173872183Y-126768417D01*
X173852994Y-126999994D01*
X173852994Y-127000005D01*
X173872183Y-127231582D01*
X173929229Y-127456854D01*
X174022575Y-127669662D01*
X174049228Y-127710457D01*
X174149675Y-127864201D01*
X174307061Y-128035168D01*
X174307064Y-128035170D01*
X174307067Y-128035173D01*
X174490432Y-128177892D01*
X174490438Y-128177896D01*
X174490441Y-128177898D01*
X174694812Y-128288499D01*
X174914600Y-128363952D01*
X175143810Y-128402200D01*
X175376190Y-128402200D01*
X175605400Y-128363952D01*
X175825188Y-128288499D01*
X176029559Y-128177898D01*
X176030103Y-128177475D01*
X176091138Y-128129969D01*
X176212939Y-128035168D01*
X176370325Y-127864201D01*
X176497425Y-127669661D01*
X176590771Y-127456854D01*
X176647816Y-127231586D01*
X176667006Y-127000002D01*
X184655153Y-127000002D01*
X184674526Y-127357314D01*
X184674527Y-127357331D01*
X184732415Y-127710431D01*
X184732421Y-127710457D01*
X184828147Y-128055232D01*
X184828149Y-128055239D01*
X184960597Y-128387659D01*
X184960606Y-128387677D01*
X185128218Y-128703827D01*
X185329033Y-129000007D01*
X185456441Y-129150003D01*
X185456442Y-129150004D01*
X186662266Y-127944180D01*
X186825130Y-128134870D01*
X187015818Y-128297732D01*
X185807255Y-129506295D01*
X185807256Y-129506296D01*
X185820485Y-129518828D01*
X185820486Y-129518829D01*
X186105367Y-129735388D01*
X186105370Y-129735390D01*
X186411990Y-129919876D01*
X186736739Y-130070122D01*
X186736744Y-130070123D01*
X187075855Y-130184383D01*
X187425339Y-130261311D01*
X187781075Y-130299999D01*
X187781085Y-130300000D01*
X188138915Y-130300000D01*
X188138924Y-130299999D01*
X188494660Y-130261311D01*
X188844144Y-130184383D01*
X189183255Y-130070123D01*
X189183260Y-130070122D01*
X189508009Y-129919876D01*
X189814629Y-129735390D01*
X189814632Y-129735388D01*
X190099504Y-129518836D01*
X190112742Y-129506294D01*
X188904180Y-128297733D01*
X189094870Y-128134870D01*
X189257733Y-127944180D01*
X190463556Y-129150003D01*
X190590964Y-129000008D01*
X190590975Y-128999994D01*
X190791781Y-128703827D01*
X190959393Y-128387677D01*
X190959402Y-128387659D01*
X191091850Y-128055239D01*
X191091852Y-128055232D01*
X191187578Y-127710457D01*
X191187584Y-127710431D01*
X191245472Y-127357331D01*
X191245473Y-127357314D01*
X191264847Y-127000002D01*
X191264847Y-126999997D01*
X191245473Y-126642685D01*
X191245472Y-126642668D01*
X191187584Y-126289568D01*
X191187578Y-126289542D01*
X191091852Y-125944767D01*
X191091850Y-125944760D01*
X190959402Y-125612340D01*
X190959393Y-125612322D01*
X190791781Y-125296172D01*
X190590966Y-124999992D01*
X190463557Y-124849995D01*
X190463556Y-124849994D01*
X189257732Y-126055818D01*
X189094870Y-125865130D01*
X188904180Y-125702266D01*
X190112743Y-124493703D01*
X190112742Y-124493702D01*
X190099514Y-124481171D01*
X190099513Y-124481170D01*
X189814632Y-124264611D01*
X189814629Y-124264609D01*
X189508009Y-124080123D01*
X189183260Y-123929877D01*
X189183255Y-123929876D01*
X188844144Y-123815616D01*
X188494660Y-123738688D01*
X188138924Y-123700000D01*
X187781075Y-123700000D01*
X187425339Y-123738688D01*
X187075855Y-123815616D01*
X186736744Y-123929876D01*
X186736739Y-123929877D01*
X186411990Y-124080123D01*
X186105370Y-124264609D01*
X186105367Y-124264611D01*
X185820491Y-124481166D01*
X185807256Y-124493703D01*
X185807255Y-124493703D01*
X187015819Y-125702266D01*
X186825130Y-125865130D01*
X186662266Y-126055818D01*
X185456442Y-124849994D01*
X185456441Y-124849995D01*
X185329040Y-124999983D01*
X185329033Y-124999993D01*
X185128218Y-125296172D01*
X184960606Y-125612322D01*
X184960597Y-125612340D01*
X184828149Y-125944760D01*
X184828147Y-125944767D01*
X184732421Y-126289542D01*
X184732415Y-126289568D01*
X184674527Y-126642668D01*
X184674526Y-126642685D01*
X184655153Y-126999997D01*
X184655153Y-127000002D01*
X176667006Y-127000002D01*
X176667006Y-127000000D01*
X176663609Y-126959007D01*
X176647816Y-126768417D01*
X176647816Y-126768414D01*
X176590771Y-126543146D01*
X176497425Y-126330339D01*
X176370325Y-126135799D01*
X176212939Y-125964832D01*
X176158337Y-125922333D01*
X176117524Y-125865622D01*
X176110500Y-125824480D01*
X176110500Y-124297087D01*
X176110705Y-124292052D01*
X176115201Y-124236836D01*
X176104270Y-124156607D01*
X176095514Y-124076090D01*
X176095513Y-124076088D01*
X176095513Y-124076084D01*
X176095280Y-124075026D01*
X176090497Y-124054621D01*
X176090227Y-124053532D01*
X176062299Y-123977513D01*
X176046248Y-123929877D01*
X176036444Y-123900779D01*
X176036441Y-123900775D01*
X176036441Y-123900773D01*
X176036006Y-123899831D01*
X176026895Y-123880818D01*
X176026432Y-123879884D01*
X175982822Y-123811658D01*
X175941070Y-123742264D01*
X175941068Y-123742262D01*
X175941067Y-123742260D01*
X175940455Y-123741455D01*
X175927503Y-123724889D01*
X175926803Y-123724018D01*
X175926799Y-123724011D01*
X175869557Y-123666769D01*
X175813848Y-123607957D01*
X175813108Y-123607328D01*
X175795875Y-123593087D01*
X174252220Y-122049432D01*
X172627607Y-120424818D01*
X172624204Y-120421126D01*
X172588336Y-120378899D01*
X172523891Y-120329909D01*
X172460759Y-120279162D01*
X172460758Y-120279161D01*
X172460754Y-120279158D01*
X172460748Y-120279155D01*
X172459854Y-120278583D01*
X172442019Y-120267520D01*
X172441064Y-120266946D01*
X172367560Y-120232939D01*
X172295027Y-120196966D01*
X172293981Y-120196582D01*
X172274160Y-120189602D01*
X172273164Y-120189266D01*
X172194073Y-120171858D01*
X172115494Y-120152315D01*
X172114584Y-120152191D01*
X172093506Y-120149610D01*
X172092501Y-120149501D01*
X172092497Y-120149500D01*
X172092492Y-120149500D01*
X172011531Y-120149500D01*
X171930564Y-120147306D01*
X171929520Y-120147391D01*
X171907352Y-120149500D01*
X156037087Y-120149500D01*
X156032052Y-120149295D01*
X155976835Y-120144798D01*
X155976828Y-120144799D01*
X155896607Y-120155729D01*
X155816092Y-120164485D01*
X155815131Y-120164697D01*
X155794471Y-120169538D01*
X155793534Y-120169771D01*
X155717513Y-120197700D01*
X155640784Y-120223553D01*
X155639920Y-120223953D01*
X155620721Y-120233152D01*
X155619881Y-120233569D01*
X155551659Y-120277176D01*
X155482268Y-120318927D01*
X155481489Y-120319519D01*
X155464764Y-120332595D01*
X155464013Y-120333198D01*
X155406768Y-120390442D01*
X155347956Y-120446153D01*
X155347346Y-120446871D01*
X155333091Y-120464119D01*
X154444830Y-121352380D01*
X154441127Y-121355794D01*
X154398898Y-121391665D01*
X154349909Y-121456108D01*
X154299155Y-121519249D01*
X154298649Y-121520041D01*
X154287469Y-121538066D01*
X154286944Y-121538938D01*
X154252939Y-121612439D01*
X154216963Y-121684980D01*
X154216582Y-121686017D01*
X154209580Y-121705906D01*
X154209267Y-121706833D01*
X154191858Y-121785926D01*
X154172314Y-121864513D01*
X154172191Y-121865416D01*
X154169607Y-121886516D01*
X154169500Y-121887501D01*
X154169500Y-121968468D01*
X154167306Y-122049438D01*
X154167389Y-122050447D01*
X154169500Y-122072649D01*
X154169500Y-125824480D01*
X154149815Y-125891519D01*
X154121663Y-125922333D01*
X154067063Y-125964830D01*
X153909676Y-126135797D01*
X153909673Y-126135801D01*
X153782575Y-126330337D01*
X153689229Y-126543145D01*
X153632183Y-126768417D01*
X153612994Y-126999994D01*
X153612994Y-127000005D01*
X145544847Y-127000005D01*
X145544847Y-127000002D01*
X145544847Y-126999997D01*
X145525473Y-126642685D01*
X145525472Y-126642668D01*
X145467584Y-126289568D01*
X145467578Y-126289542D01*
X145371852Y-125944767D01*
X145371850Y-125944760D01*
X145239402Y-125612340D01*
X145239393Y-125612322D01*
X145071781Y-125296172D01*
X144870966Y-124999992D01*
X144743557Y-124849995D01*
X144743556Y-124849994D01*
X143537732Y-126055818D01*
X143374870Y-125865130D01*
X143184180Y-125702266D01*
X144392743Y-124493703D01*
X144392742Y-124493702D01*
X144379514Y-124481171D01*
X144379513Y-124481170D01*
X144094632Y-124264611D01*
X144094629Y-124264609D01*
X143788009Y-124080123D01*
X143463260Y-123929877D01*
X143463255Y-123929876D01*
X143124144Y-123815616D01*
X142774660Y-123738688D01*
X142418924Y-123700000D01*
X142061075Y-123700000D01*
X141705339Y-123738688D01*
X141355855Y-123815616D01*
X141016744Y-123929876D01*
X141016739Y-123929877D01*
X140691990Y-124080123D01*
X140385370Y-124264609D01*
X140385367Y-124264611D01*
X140100491Y-124481166D01*
X140087256Y-124493703D01*
X140087255Y-124493703D01*
X141295819Y-125702266D01*
X141105130Y-125865130D01*
X140942266Y-126055818D01*
X139736442Y-124849994D01*
X139736441Y-124849995D01*
X139609040Y-124999983D01*
X139609033Y-124999993D01*
X139408218Y-125296172D01*
X139240606Y-125612322D01*
X139240597Y-125612340D01*
X139108149Y-125944760D01*
X139108147Y-125944767D01*
X139012421Y-126289542D01*
X139012415Y-126289568D01*
X138954527Y-126642668D01*
X138954526Y-126642685D01*
X138935153Y-126999997D01*
X138935153Y-127000002D01*
X137160500Y-127000002D01*
X137160500Y-116840005D01*
X140833496Y-116840005D01*
X140852678Y-117071499D01*
X140909704Y-117296691D01*
X141003015Y-117509418D01*
X141087584Y-117638861D01*
X141639277Y-117087168D01*
X141649285Y-117117969D01*
X141736972Y-117256141D01*
X141856266Y-117368165D01*
X141991204Y-117442348D01*
X141439989Y-117993562D01*
X141439990Y-117993563D01*
X141470712Y-118017475D01*
X141470718Y-118017480D01*
X141675007Y-118128035D01*
X141675017Y-118128040D01*
X141894721Y-118203464D01*
X142123853Y-118241700D01*
X142356147Y-118241700D01*
X142585278Y-118203464D01*
X142804982Y-118128040D01*
X142804987Y-118128038D01*
X143009288Y-118017475D01*
X143040008Y-117993563D01*
X143040008Y-117993562D01*
X142485762Y-117439315D01*
X142554512Y-117412095D01*
X142686905Y-117315906D01*
X142791218Y-117189813D01*
X142839903Y-117086350D01*
X143392414Y-117638861D01*
X143476980Y-117509425D01*
X143476985Y-117509417D01*
X143570295Y-117296691D01*
X143627321Y-117071499D01*
X143646504Y-116840005D01*
X143646504Y-116839994D01*
X143627321Y-116608500D01*
X143570295Y-116383308D01*
X143476982Y-116170576D01*
X143392414Y-116041137D01*
X142840721Y-116592829D01*
X142830715Y-116562031D01*
X142743028Y-116423859D01*
X142623734Y-116311835D01*
X142488795Y-116237651D01*
X143040009Y-115686436D01*
X143040009Y-115686435D01*
X143009286Y-115662523D01*
X143009281Y-115662519D01*
X142804992Y-115551964D01*
X142804982Y-115551959D01*
X142585278Y-115476535D01*
X142356147Y-115438300D01*
X142123853Y-115438300D01*
X141894721Y-115476535D01*
X141675017Y-115551959D01*
X141675007Y-115551964D01*
X141470717Y-115662520D01*
X141470706Y-115662527D01*
X141439990Y-115686434D01*
X141439990Y-115686436D01*
X141994238Y-116240684D01*
X141925488Y-116267905D01*
X141793095Y-116364094D01*
X141688782Y-116490187D01*
X141640096Y-116593649D01*
X141087584Y-116041137D01*
X141003016Y-116170578D01*
X140909704Y-116383308D01*
X140852678Y-116608500D01*
X140833496Y-116839994D01*
X140833496Y-116840005D01*
X137160500Y-116840005D01*
X137160500Y-111840005D01*
X140832994Y-111840005D01*
X140852183Y-112071582D01*
X140909229Y-112296854D01*
X141002575Y-112509662D01*
X141129673Y-112704198D01*
X141129675Y-112704201D01*
X141287061Y-112875168D01*
X141287064Y-112875170D01*
X141287067Y-112875173D01*
X141470432Y-113017892D01*
X141470438Y-113017896D01*
X141470441Y-113017898D01*
X141674812Y-113128499D01*
X141836662Y-113184062D01*
X141891972Y-113203050D01*
X141894600Y-113203952D01*
X142123810Y-113242200D01*
X142356190Y-113242200D01*
X142585400Y-113203952D01*
X142805188Y-113128499D01*
X143009559Y-113017898D01*
X143192939Y-112875168D01*
X143350325Y-112704201D01*
X143477425Y-112509661D01*
X143570771Y-112296854D01*
X143627816Y-112071586D01*
X143636344Y-111968658D01*
X143647006Y-111840005D01*
X143647006Y-111839994D01*
X143627816Y-111608417D01*
X143627816Y-111608414D01*
X143570771Y-111383146D01*
X143477425Y-111170339D01*
X143467526Y-111155188D01*
X143350326Y-110975801D01*
X143350325Y-110975799D01*
X143192939Y-110804832D01*
X143192934Y-110804828D01*
X143192932Y-110804826D01*
X143009567Y-110662107D01*
X143009561Y-110662103D01*
X142805188Y-110551501D01*
X142805180Y-110551498D01*
X142585402Y-110476048D01*
X142356190Y-110437800D01*
X142123810Y-110437800D01*
X141894597Y-110476048D01*
X141674819Y-110551498D01*
X141674811Y-110551501D01*
X141470438Y-110662103D01*
X141470432Y-110662107D01*
X141287067Y-110804826D01*
X141287064Y-110804829D01*
X141129676Y-110975797D01*
X141129673Y-110975801D01*
X141002575Y-111170337D01*
X140909229Y-111383145D01*
X140852183Y-111608417D01*
X140832994Y-111839994D01*
X140832994Y-111840005D01*
X137160500Y-111840005D01*
X137160500Y-110000001D01*
X163694532Y-110000001D01*
X163714364Y-110226686D01*
X163714366Y-110226697D01*
X163773258Y-110446488D01*
X163773261Y-110446497D01*
X163869431Y-110652732D01*
X163869432Y-110652734D01*
X163999954Y-110839141D01*
X164160858Y-111000045D01*
X164160861Y-111000047D01*
X164347266Y-111130568D01*
X164553504Y-111226739D01*
X164773308Y-111285635D01*
X164935230Y-111299801D01*
X164999998Y-111305468D01*
X165000000Y-111305468D01*
X165000002Y-111305468D01*
X165056673Y-111300509D01*
X165226692Y-111285635D01*
X165446496Y-111226739D01*
X165652734Y-111130568D01*
X165839139Y-111000047D01*
X166000047Y-110839139D01*
X166130568Y-110652734D01*
X166226739Y-110446496D01*
X166285635Y-110226692D01*
X166305468Y-110000000D01*
X166285635Y-109773308D01*
X166279389Y-109749999D01*
X171341127Y-109749999D01*
X171341128Y-109750000D01*
X172304314Y-109750000D01*
X172292359Y-109761955D01*
X172234835Y-109874852D01*
X172215014Y-110000000D01*
X172234835Y-110125148D01*
X172292359Y-110238045D01*
X172304314Y-110250000D01*
X171341128Y-110250000D01*
X171393730Y-110446317D01*
X171393734Y-110446326D01*
X171489865Y-110652482D01*
X171620342Y-110838820D01*
X171781179Y-110999657D01*
X171967517Y-111130134D01*
X172173673Y-111226265D01*
X172173682Y-111226269D01*
X172369999Y-111278872D01*
X172370000Y-111278871D01*
X172370000Y-110315686D01*
X172381955Y-110327641D01*
X172494852Y-110385165D01*
X172588519Y-110400000D01*
X172651481Y-110400000D01*
X172745148Y-110385165D01*
X172858045Y-110327641D01*
X172870000Y-110315686D01*
X172870000Y-111278872D01*
X173066317Y-111226269D01*
X173066326Y-111226265D01*
X173272482Y-111130134D01*
X173458820Y-110999657D01*
X173619657Y-110838820D01*
X173750134Y-110652482D01*
X173846265Y-110446326D01*
X173846269Y-110446317D01*
X173898872Y-110250000D01*
X172935686Y-110250000D01*
X172947641Y-110238045D01*
X173005165Y-110125148D01*
X173024986Y-110000000D01*
X173005165Y-109874852D01*
X172947641Y-109761955D01*
X172935686Y-109750000D01*
X173898872Y-109750000D01*
X173898872Y-109749999D01*
X173846269Y-109553682D01*
X173846265Y-109553673D01*
X173750134Y-109347517D01*
X173619657Y-109161179D01*
X173458820Y-109000342D01*
X173272482Y-108869865D01*
X173066328Y-108773734D01*
X172870000Y-108721127D01*
X172870000Y-109684314D01*
X172858045Y-109672359D01*
X172745148Y-109614835D01*
X172651481Y-109600000D01*
X172588519Y-109600000D01*
X172494852Y-109614835D01*
X172381955Y-109672359D01*
X172370000Y-109684314D01*
X172370000Y-108721127D01*
X172173671Y-108773734D01*
X171967517Y-108869865D01*
X171781179Y-109000342D01*
X171620342Y-109161179D01*
X171489865Y-109347517D01*
X171393734Y-109553673D01*
X171393730Y-109553682D01*
X171341127Y-109749999D01*
X166279389Y-109749999D01*
X166226739Y-109553504D01*
X166130568Y-109347266D01*
X166000047Y-109160861D01*
X166000045Y-109160858D01*
X165839141Y-108999954D01*
X165652734Y-108869432D01*
X165652732Y-108869431D01*
X165446497Y-108773261D01*
X165446488Y-108773258D01*
X165226697Y-108714366D01*
X165226693Y-108714365D01*
X165226692Y-108714365D01*
X165226691Y-108714364D01*
X165226686Y-108714364D01*
X165000002Y-108694532D01*
X164999998Y-108694532D01*
X164773313Y-108714364D01*
X164773302Y-108714366D01*
X164553511Y-108773258D01*
X164553502Y-108773261D01*
X164347267Y-108869431D01*
X164347265Y-108869432D01*
X164160858Y-108999954D01*
X163999954Y-109160858D01*
X163869432Y-109347265D01*
X163869431Y-109347267D01*
X163773261Y-109553502D01*
X163773258Y-109553511D01*
X163714366Y-109773302D01*
X163714364Y-109773313D01*
X163694532Y-109999998D01*
X163694532Y-110000001D01*
X137160500Y-110000001D01*
X137160500Y-98917779D01*
X140735643Y-98917779D01*
X140745918Y-99166234D01*
X140796951Y-99409616D01*
X140796953Y-99409623D01*
X140879385Y-99620877D01*
X140887344Y-99641274D01*
X141014634Y-99854894D01*
X141050610Y-99897371D01*
X141135100Y-99997129D01*
X141589040Y-100451068D01*
X143730392Y-102592419D01*
X143735476Y-102598177D01*
X143752258Y-102619739D01*
X143752265Y-102619747D01*
X143820933Y-102682961D01*
X143842872Y-102704900D01*
X143866554Y-102724957D01*
X143935215Y-102788164D01*
X143958089Y-102803108D01*
X143964252Y-102807704D01*
X143985102Y-102825363D01*
X143985106Y-102825366D01*
X144015679Y-102843583D01*
X144065275Y-102873137D01*
X144137600Y-102920388D01*
X144143393Y-102924173D01*
X144168418Y-102935150D01*
X144175248Y-102938665D01*
X144198727Y-102952656D01*
X144285667Y-102986580D01*
X144371119Y-103024063D01*
X144397623Y-103030774D01*
X144404920Y-103033112D01*
X144430386Y-103043050D01*
X144521725Y-103062202D01*
X144612179Y-103085108D01*
X144612183Y-103085108D01*
X144612187Y-103085109D01*
X144639406Y-103087364D01*
X144647016Y-103088473D01*
X144659727Y-103091138D01*
X144673763Y-103094081D01*
X144767009Y-103097937D01*
X144797933Y-103100500D01*
X144797934Y-103100500D01*
X144828965Y-103100500D01*
X144922221Y-103104357D01*
X144949347Y-103100975D01*
X144957019Y-103100500D01*
X151815554Y-103100500D01*
X151863006Y-103109939D01*
X151875653Y-103115177D01*
X151903889Y-103126873D01*
X152148852Y-103185683D01*
X152400000Y-103205449D01*
X152651148Y-103185683D01*
X152896111Y-103126873D01*
X152928066Y-103113636D01*
X152936994Y-103109939D01*
X152984446Y-103100500D01*
X162320500Y-103100500D01*
X162387539Y-103120185D01*
X162433294Y-103172989D01*
X162444500Y-103224500D01*
X162444500Y-105140370D01*
X162444501Y-105140376D01*
X162450908Y-105199983D01*
X162501202Y-105334828D01*
X162501206Y-105334835D01*
X162587452Y-105450044D01*
X162587455Y-105450047D01*
X162702664Y-105536293D01*
X162702671Y-105536297D01*
X162837517Y-105586591D01*
X162837516Y-105586591D01*
X162844444Y-105587335D01*
X162897127Y-105593000D01*
X164992872Y-105592999D01*
X165052483Y-105586591D01*
X165187331Y-105536296D01*
X165302546Y-105450046D01*
X165388796Y-105334831D01*
X165439091Y-105199983D01*
X165445500Y-105140373D01*
X165445499Y-103139628D01*
X165439091Y-103080017D01*
X165432446Y-103062202D01*
X165388797Y-102945171D01*
X165388793Y-102945164D01*
X165302547Y-102829955D01*
X165302544Y-102829952D01*
X165187335Y-102743706D01*
X165187328Y-102743702D01*
X165166524Y-102735943D01*
X165110590Y-102694072D01*
X165086173Y-102628607D01*
X165101025Y-102560334D01*
X165111999Y-102543605D01*
X165205474Y-102423509D01*
X165323828Y-102204810D01*
X165404571Y-101969614D01*
X165445500Y-101724335D01*
X165445500Y-101475665D01*
X165404571Y-101230386D01*
X165323828Y-100995190D01*
X165205474Y-100776491D01*
X165052738Y-100580256D01*
X164869785Y-100411836D01*
X164869782Y-100411834D01*
X164866293Y-100408622D01*
X164830303Y-100348735D01*
X164832403Y-100278897D01*
X164871927Y-100221281D01*
X164882458Y-100213581D01*
X164887703Y-100210153D01*
X165064797Y-100047126D01*
X165064806Y-100047116D01*
X165212649Y-99857168D01*
X165212655Y-99857159D01*
X165327215Y-99645468D01*
X165327221Y-99645454D01*
X165405380Y-99417791D01*
X165423367Y-99310000D01*
X164439852Y-99310000D01*
X164488559Y-99172953D01*
X164498877Y-99022114D01*
X164468116Y-98874085D01*
X164434910Y-98810000D01*
X165423366Y-98810000D01*
X165423366Y-98809999D01*
X165405380Y-98702208D01*
X165327221Y-98474545D01*
X165327215Y-98474531D01*
X165212655Y-98262840D01*
X165212649Y-98262831D01*
X165064806Y-98072883D01*
X165064797Y-98072873D01*
X164887710Y-97909851D01*
X164887699Y-97909843D01*
X164686184Y-97778186D01*
X164465739Y-97681491D01*
X164465740Y-97681491D01*
X164232391Y-97622399D01*
X164195000Y-97619300D01*
X164195000Y-98568316D01*
X164166181Y-98550791D01*
X164020596Y-98510000D01*
X163907378Y-98510000D01*
X163795217Y-98525416D01*
X163695000Y-98568946D01*
X163695000Y-97619300D01*
X163694999Y-97619300D01*
X163657608Y-97622399D01*
X163424259Y-97681491D01*
X163203815Y-97778186D01*
X163002300Y-97909843D01*
X163002289Y-97909851D01*
X162825202Y-98072873D01*
X162825193Y-98072883D01*
X162677350Y-98262831D01*
X162677344Y-98262840D01*
X162562784Y-98474531D01*
X162562778Y-98474545D01*
X162484619Y-98702208D01*
X162466633Y-98809999D01*
X162466634Y-98810000D01*
X163450148Y-98810000D01*
X163401441Y-98947047D01*
X163391123Y-99097886D01*
X163421884Y-99245915D01*
X163455090Y-99310000D01*
X162466633Y-99310000D01*
X162484619Y-99417791D01*
X162562778Y-99645454D01*
X162562784Y-99645468D01*
X162677344Y-99857159D01*
X162677346Y-99857162D01*
X162710173Y-99899337D01*
X162735816Y-99964331D01*
X162722250Y-100032871D01*
X162673782Y-100083196D01*
X162612320Y-100099500D01*
X152984446Y-100099500D01*
X152936994Y-100090061D01*
X152896118Y-100073130D01*
X152896119Y-100073130D01*
X152896111Y-100073127D01*
X152896106Y-100073125D01*
X152896101Y-100073124D01*
X152651151Y-100014317D01*
X152400000Y-99994551D01*
X152148848Y-100014317D01*
X151903898Y-100073124D01*
X151903881Y-100073130D01*
X151863006Y-100090061D01*
X151815554Y-100099500D01*
X145532889Y-100099500D01*
X145465850Y-100079815D01*
X145445208Y-100063181D01*
X143257129Y-97875100D01*
X143194825Y-97822332D01*
X143114894Y-97754634D01*
X142901274Y-97627344D01*
X142901272Y-97627343D01*
X142901270Y-97627342D01*
X142669623Y-97536953D01*
X142669616Y-97536951D01*
X142426234Y-97485918D01*
X142177782Y-97475643D01*
X142177781Y-97475643D01*
X142177779Y-97475643D01*
X141992709Y-97498711D01*
X141931018Y-97506401D01*
X141692684Y-97577356D01*
X141469291Y-97686566D01*
X141469284Y-97686570D01*
X141266901Y-97831069D01*
X141091069Y-98006901D01*
X140946570Y-98209284D01*
X140946566Y-98209291D01*
X140837356Y-98432684D01*
X140766401Y-98671018D01*
X140735643Y-98917779D01*
X137160500Y-98917779D01*
X137160500Y-94104334D01*
X140739500Y-94104334D01*
X140780429Y-94349616D01*
X140861169Y-94584802D01*
X140861172Y-94584811D01*
X140907661Y-94670715D01*
X140979526Y-94803509D01*
X141132262Y-94999744D01*
X141268724Y-95125366D01*
X141315217Y-95168166D01*
X141523393Y-95304173D01*
X141751118Y-95404063D01*
X141901710Y-95442198D01*
X141992179Y-95465108D01*
X141992181Y-95465108D01*
X141992186Y-95465109D01*
X142125376Y-95476145D01*
X142177933Y-95480500D01*
X149762981Y-95480500D01*
X149770652Y-95480975D01*
X149797779Y-95484357D01*
X149891035Y-95480500D01*
X149922067Y-95480500D01*
X149952990Y-95477937D01*
X150046237Y-95474081D01*
X150072982Y-95468472D01*
X150080582Y-95467364D01*
X150107821Y-95465108D01*
X150107824Y-95465107D01*
X150107826Y-95465107D01*
X150107829Y-95465106D01*
X150198288Y-95442198D01*
X150289614Y-95423049D01*
X150315077Y-95413112D01*
X150322374Y-95410774D01*
X150348881Y-95404063D01*
X150434335Y-95366579D01*
X150521274Y-95332656D01*
X150544761Y-95318659D01*
X150551581Y-95315149D01*
X150576607Y-95304173D01*
X150654720Y-95253139D01*
X150734894Y-95205366D01*
X150755754Y-95187697D01*
X150761894Y-95183117D01*
X150784785Y-95168164D01*
X150853435Y-95104966D01*
X150877126Y-95084902D01*
X150899078Y-95062949D01*
X150967738Y-94999744D01*
X150984530Y-94978167D01*
X150989604Y-94972422D01*
X152885208Y-93076817D01*
X152946531Y-93043333D01*
X152972889Y-93040499D01*
X153547871Y-93040499D01*
X153547872Y-93040499D01*
X153607483Y-93034091D01*
X153742331Y-92983796D01*
X153857546Y-92897546D01*
X153943796Y-92782331D01*
X153994091Y-92647483D01*
X154000500Y-92587873D01*
X154000499Y-91422220D01*
X171215642Y-91422220D01*
X171219023Y-91449342D01*
X171219500Y-91457018D01*
X171219500Y-96582065D01*
X171234891Y-96767817D01*
X171260706Y-96869759D01*
X171264500Y-96900199D01*
X171264500Y-97522870D01*
X171264501Y-97522876D01*
X171270908Y-97582483D01*
X171321202Y-97717328D01*
X171321206Y-97717335D01*
X171407452Y-97832544D01*
X171407455Y-97832547D01*
X171522664Y-97918793D01*
X171522671Y-97918797D01*
X171551013Y-97929368D01*
X171606947Y-97971239D01*
X171631364Y-98036703D01*
X171616513Y-98104976D01*
X171598910Y-98129532D01*
X171567865Y-98163255D01*
X171435979Y-98365123D01*
X171339118Y-98585942D01*
X171279924Y-98819697D01*
X171260013Y-99059993D01*
X171260013Y-99060006D01*
X171279924Y-99300302D01*
X171339118Y-99534057D01*
X171435979Y-99754876D01*
X171529074Y-99897370D01*
X172129356Y-99297088D01*
X172140868Y-99332519D01*
X172226835Y-99467981D01*
X172343790Y-99577809D01*
X172480555Y-99652996D01*
X171882008Y-100251542D01*
X171883874Y-100281592D01*
X171868380Y-100349722D01*
X171832166Y-100390191D01*
X171746901Y-100451069D01*
X171571069Y-100626901D01*
X171426570Y-100829284D01*
X171426566Y-100829291D01*
X171317356Y-101052684D01*
X171246401Y-101291018D01*
X171215643Y-101537779D01*
X171225918Y-101786234D01*
X171276951Y-102029616D01*
X171276953Y-102029623D01*
X171345312Y-102204811D01*
X171367344Y-102261274D01*
X171494634Y-102474894D01*
X171552823Y-102543598D01*
X171615100Y-102617129D01*
X181750384Y-112752412D01*
X181755473Y-112758174D01*
X181772262Y-112779744D01*
X181772264Y-112779746D01*
X181772265Y-112779747D01*
X181840921Y-112842950D01*
X181862866Y-112864894D01*
X181862874Y-112864902D01*
X181886564Y-112884966D01*
X181955215Y-112948164D01*
X181955217Y-112948165D01*
X181955218Y-112948166D01*
X181978086Y-112963106D01*
X181984250Y-112967702D01*
X182005106Y-112985366D01*
X182049037Y-113011543D01*
X182085275Y-113033137D01*
X182157600Y-113080388D01*
X182163393Y-113084173D01*
X182188418Y-113095150D01*
X182195248Y-113098665D01*
X182218727Y-113112656D01*
X182305667Y-113146580D01*
X182391119Y-113184063D01*
X182417623Y-113190774D01*
X182424920Y-113193112D01*
X182450386Y-113203050D01*
X182541725Y-113222202D01*
X182632179Y-113245108D01*
X182632183Y-113245108D01*
X182632187Y-113245109D01*
X182659406Y-113247364D01*
X182667016Y-113248473D01*
X182679727Y-113251138D01*
X182693763Y-113254081D01*
X182787009Y-113257937D01*
X182817933Y-113260500D01*
X182817934Y-113260500D01*
X182848965Y-113260500D01*
X182942221Y-113264357D01*
X182969347Y-113260975D01*
X182977019Y-113260500D01*
X185482065Y-113260500D01*
X185482067Y-113260500D01*
X185559533Y-113254081D01*
X185667813Y-113245109D01*
X185667816Y-113245108D01*
X185667821Y-113245108D01*
X185908881Y-113184063D01*
X186136607Y-113084173D01*
X186344785Y-112948164D01*
X186527738Y-112779744D01*
X186680474Y-112583509D01*
X186798828Y-112364810D01*
X186879571Y-112129614D01*
X186920500Y-111884335D01*
X186920500Y-111635665D01*
X186879571Y-111390386D01*
X186798828Y-111155190D01*
X186680474Y-110936491D01*
X186527738Y-110740256D01*
X186344785Y-110571836D01*
X186344782Y-110571833D01*
X186136606Y-110435826D01*
X185908881Y-110335936D01*
X185667824Y-110274892D01*
X185667813Y-110274890D01*
X185502548Y-110261197D01*
X185482067Y-110259500D01*
X185482065Y-110259500D01*
X183552890Y-110259500D01*
X183485851Y-110239815D01*
X183465209Y-110223181D01*
X180002033Y-106760005D01*
X184013496Y-106760005D01*
X184032678Y-106991499D01*
X184089704Y-107216691D01*
X184183015Y-107429418D01*
X184267584Y-107558861D01*
X184819277Y-107007168D01*
X184829285Y-107037969D01*
X184916972Y-107176141D01*
X185036266Y-107288165D01*
X185171204Y-107362348D01*
X184619989Y-107913562D01*
X184619990Y-107913563D01*
X184650712Y-107937475D01*
X184650718Y-107937480D01*
X184855007Y-108048035D01*
X184855017Y-108048040D01*
X185074721Y-108123464D01*
X185303853Y-108161700D01*
X185536147Y-108161700D01*
X185765278Y-108123464D01*
X185984982Y-108048040D01*
X185984987Y-108048038D01*
X186189288Y-107937475D01*
X186220008Y-107913563D01*
X186220008Y-107913562D01*
X185665762Y-107359315D01*
X185734512Y-107332095D01*
X185866905Y-107235906D01*
X185971218Y-107109813D01*
X186019903Y-107006350D01*
X186572414Y-107558861D01*
X186656980Y-107429425D01*
X186656985Y-107429417D01*
X186750295Y-107216691D01*
X186807321Y-106991499D01*
X186826504Y-106760005D01*
X186826504Y-106759994D01*
X186807321Y-106528500D01*
X186750295Y-106303308D01*
X186656982Y-106090576D01*
X186572414Y-105961137D01*
X186020721Y-106512829D01*
X186010715Y-106482031D01*
X185923028Y-106343859D01*
X185803734Y-106231835D01*
X185668795Y-106157651D01*
X186220009Y-105606436D01*
X186220009Y-105606435D01*
X186189286Y-105582523D01*
X186189281Y-105582519D01*
X185984992Y-105471964D01*
X185984982Y-105471959D01*
X185765278Y-105396535D01*
X185536147Y-105358300D01*
X185303853Y-105358300D01*
X185074721Y-105396535D01*
X184855017Y-105471959D01*
X184855007Y-105471964D01*
X184650717Y-105582520D01*
X184650706Y-105582527D01*
X184619990Y-105606434D01*
X184619990Y-105606436D01*
X185174238Y-106160684D01*
X185105488Y-106187905D01*
X184973095Y-106284094D01*
X184868782Y-106410187D01*
X184820096Y-106513649D01*
X184267584Y-105961137D01*
X184183016Y-106090578D01*
X184089704Y-106303308D01*
X184032678Y-106528500D01*
X184013496Y-106759994D01*
X184013496Y-106760005D01*
X180002033Y-106760005D01*
X173737129Y-100495100D01*
X173638818Y-100411836D01*
X173600047Y-100378998D01*
X173561614Y-100320652D01*
X173556428Y-100276694D01*
X173557989Y-100251541D01*
X172955977Y-99649529D01*
X173028345Y-99620877D01*
X173158142Y-99526574D01*
X173260410Y-99402954D01*
X173310358Y-99296806D01*
X173910923Y-99897371D01*
X174004021Y-99754873D01*
X174100881Y-99534057D01*
X174160075Y-99300302D01*
X174179987Y-99060006D01*
X174179987Y-99059993D01*
X174160075Y-98819697D01*
X174100881Y-98585942D01*
X174004020Y-98365123D01*
X173872137Y-98163259D01*
X173841090Y-98129534D01*
X173810167Y-98066879D01*
X173818027Y-97997453D01*
X173862173Y-97943297D01*
X173888987Y-97929368D01*
X173917326Y-97918798D01*
X173917326Y-97918797D01*
X173917331Y-97918796D01*
X174032546Y-97832546D01*
X174118796Y-97717331D01*
X174169091Y-97582483D01*
X174175500Y-97522873D01*
X174175499Y-96900194D01*
X174179294Y-96869754D01*
X174205106Y-96767827D01*
X174205108Y-96767821D01*
X174220500Y-96582067D01*
X174220500Y-92032889D01*
X174240185Y-91965850D01*
X174256814Y-91945213D01*
X177712319Y-88489707D01*
X177773642Y-88456223D01*
X177843334Y-88461207D01*
X177887681Y-88489708D01*
X184402871Y-95004899D01*
X184402872Y-95004899D01*
X184545098Y-95125360D01*
X184545110Y-95125369D01*
X184758726Y-95252655D01*
X184990374Y-95343045D01*
X184990381Y-95343047D01*
X184990386Y-95343049D01*
X185233763Y-95394080D01*
X185482221Y-95404357D01*
X185728981Y-95373598D01*
X185920120Y-95316694D01*
X185967314Y-95302644D01*
X186190708Y-95193433D01*
X186190709Y-95193432D01*
X186190716Y-95193429D01*
X186393095Y-95048932D01*
X186568932Y-94873095D01*
X186713429Y-94670716D01*
X186713433Y-94670708D01*
X186822644Y-94447314D01*
X186851730Y-94349614D01*
X186893598Y-94208981D01*
X186924357Y-93962221D01*
X186914080Y-93713763D01*
X186863049Y-93470386D01*
X186863047Y-93470381D01*
X186863045Y-93470374D01*
X186772655Y-93238727D01*
X186772655Y-93238726D01*
X186645369Y-93025110D01*
X186645360Y-93025098D01*
X186537328Y-92897547D01*
X186524901Y-92882874D01*
X186524899Y-92882871D01*
X182622033Y-88980005D01*
X184013496Y-88980005D01*
X184032678Y-89211499D01*
X184089704Y-89436691D01*
X184183015Y-89649418D01*
X184267584Y-89778861D01*
X184819277Y-89227168D01*
X184829285Y-89257969D01*
X184916972Y-89396141D01*
X185036266Y-89508165D01*
X185171204Y-89582348D01*
X184619989Y-90133562D01*
X184619990Y-90133563D01*
X184650712Y-90157475D01*
X184650718Y-90157480D01*
X184855007Y-90268035D01*
X184855017Y-90268040D01*
X185074721Y-90343464D01*
X185303853Y-90381700D01*
X185536147Y-90381700D01*
X185765278Y-90343464D01*
X185984982Y-90268040D01*
X185984987Y-90268038D01*
X186189288Y-90157475D01*
X186220008Y-90133563D01*
X186220008Y-90133562D01*
X185665762Y-89579315D01*
X185734512Y-89552095D01*
X185866905Y-89455906D01*
X185971218Y-89329813D01*
X186019903Y-89226350D01*
X186572414Y-89778861D01*
X186656980Y-89649425D01*
X186656985Y-89649417D01*
X186750295Y-89436691D01*
X186807321Y-89211499D01*
X186826504Y-88980005D01*
X186826504Y-88979994D01*
X186807321Y-88748500D01*
X186750295Y-88523308D01*
X186656982Y-88310576D01*
X186572414Y-88181137D01*
X186020721Y-88732829D01*
X186010715Y-88702031D01*
X185923028Y-88563859D01*
X185803734Y-88451835D01*
X185668795Y-88377651D01*
X186220009Y-87826436D01*
X186220009Y-87826435D01*
X186189286Y-87802523D01*
X186189281Y-87802519D01*
X185984992Y-87691964D01*
X185984982Y-87691959D01*
X185765278Y-87616535D01*
X185536147Y-87578300D01*
X185303853Y-87578300D01*
X185074721Y-87616535D01*
X184855017Y-87691959D01*
X184855007Y-87691964D01*
X184650717Y-87802520D01*
X184650706Y-87802527D01*
X184619990Y-87826434D01*
X184619990Y-87826436D01*
X185174238Y-88380684D01*
X185105488Y-88407905D01*
X184973095Y-88504094D01*
X184868782Y-88630187D01*
X184820096Y-88733649D01*
X184267584Y-88181137D01*
X184183016Y-88310578D01*
X184089704Y-88523308D01*
X184032678Y-88748500D01*
X184013496Y-88979994D01*
X184013496Y-88980005D01*
X182622033Y-88980005D01*
X179336819Y-85694791D01*
X179303334Y-85633468D01*
X179300500Y-85607110D01*
X179300500Y-73597935D01*
X179285109Y-73412186D01*
X179285107Y-73412175D01*
X179224063Y-73171118D01*
X179124173Y-72943393D01*
X178988166Y-72735217D01*
X178960522Y-72705188D01*
X178819744Y-72552262D01*
X178623509Y-72399526D01*
X178623507Y-72399525D01*
X178623506Y-72399524D01*
X178404811Y-72281172D01*
X178404802Y-72281169D01*
X178169616Y-72200429D01*
X177924335Y-72159500D01*
X177675665Y-72159500D01*
X177430383Y-72200429D01*
X177195197Y-72281169D01*
X177195188Y-72281172D01*
X176976493Y-72399524D01*
X176780257Y-72552261D01*
X176611833Y-72735217D01*
X176475826Y-72943393D01*
X176375936Y-73171118D01*
X176314892Y-73412175D01*
X176314890Y-73412186D01*
X176299500Y-73597935D01*
X176299500Y-85607109D01*
X176279815Y-85674148D01*
X176263181Y-85694790D01*
X171727588Y-90230382D01*
X171721827Y-90235471D01*
X171700256Y-90252262D01*
X171637049Y-90320922D01*
X171615102Y-90342869D01*
X171615098Y-90342874D01*
X171595033Y-90366564D01*
X171564641Y-90399578D01*
X171531834Y-90435216D01*
X171516892Y-90458087D01*
X171512297Y-90464250D01*
X171494635Y-90485104D01*
X171446860Y-90565278D01*
X171395828Y-90643390D01*
X171395824Y-90643397D01*
X171384853Y-90668409D01*
X171381335Y-90675244D01*
X171367348Y-90698717D01*
X171367343Y-90698726D01*
X171333420Y-90785663D01*
X171295935Y-90871123D01*
X171289226Y-90897616D01*
X171286881Y-90904935D01*
X171276953Y-90930379D01*
X171276948Y-90930395D01*
X171257801Y-91021711D01*
X171234892Y-91112175D01*
X171234890Y-91112185D01*
X171232635Y-91139408D01*
X171231526Y-91147016D01*
X171225920Y-91173750D01*
X171225919Y-91173763D01*
X171222062Y-91267009D01*
X171219500Y-91297936D01*
X171219500Y-91328964D01*
X171215642Y-91422219D01*
X171215642Y-91422220D01*
X154000499Y-91422220D01*
X154000499Y-90292128D01*
X153994091Y-90232517D01*
X153943796Y-90097669D01*
X153925233Y-90072872D01*
X153900816Y-90007408D01*
X153900500Y-89998561D01*
X153900500Y-79492890D01*
X153920185Y-79425851D01*
X153936819Y-79405209D01*
X158664900Y-74677129D01*
X158694055Y-74642704D01*
X158785366Y-74534894D01*
X158912656Y-74321274D01*
X158992484Y-74116691D01*
X159003046Y-74089623D01*
X159003048Y-74089616D01*
X159003049Y-74089614D01*
X159054081Y-73846237D01*
X159061783Y-73660005D01*
X171393496Y-73660005D01*
X171412678Y-73891499D01*
X171469704Y-74116691D01*
X171563015Y-74329418D01*
X171647584Y-74458861D01*
X172199277Y-73907168D01*
X172209285Y-73937969D01*
X172296972Y-74076141D01*
X172416266Y-74188165D01*
X172551204Y-74262348D01*
X171999989Y-74813562D01*
X171999990Y-74813563D01*
X172030712Y-74837475D01*
X172030718Y-74837480D01*
X172235007Y-74948035D01*
X172235017Y-74948040D01*
X172454721Y-75023464D01*
X172683853Y-75061700D01*
X172916147Y-75061700D01*
X173145278Y-75023464D01*
X173364982Y-74948040D01*
X173364987Y-74948038D01*
X173569288Y-74837475D01*
X173600008Y-74813563D01*
X173600008Y-74813562D01*
X173045762Y-74259315D01*
X173114512Y-74232095D01*
X173246905Y-74135906D01*
X173351218Y-74009813D01*
X173399903Y-73906350D01*
X173952414Y-74458861D01*
X174036980Y-74329425D01*
X174036985Y-74329417D01*
X174130295Y-74116691D01*
X174187321Y-73891499D01*
X174206504Y-73660005D01*
X174206504Y-73659994D01*
X174187321Y-73428500D01*
X174130295Y-73203308D01*
X174036982Y-72990576D01*
X173952414Y-72861137D01*
X173400721Y-73412829D01*
X173390715Y-73382031D01*
X173303028Y-73243859D01*
X173183734Y-73131835D01*
X173048795Y-73057651D01*
X173600009Y-72506436D01*
X173600009Y-72506435D01*
X173569286Y-72482523D01*
X173569281Y-72482519D01*
X173364992Y-72371964D01*
X173364982Y-72371959D01*
X173145278Y-72296535D01*
X172916147Y-72258300D01*
X172683853Y-72258300D01*
X172454721Y-72296535D01*
X172235017Y-72371959D01*
X172235007Y-72371964D01*
X172030717Y-72482520D01*
X172030706Y-72482527D01*
X171999990Y-72506434D01*
X171999990Y-72506436D01*
X172554238Y-73060684D01*
X172485488Y-73087905D01*
X172353095Y-73184094D01*
X172248782Y-73310187D01*
X172200096Y-73413649D01*
X171647584Y-72861137D01*
X171563016Y-72990578D01*
X171469704Y-73203308D01*
X171412678Y-73428500D01*
X171393496Y-73659994D01*
X171393496Y-73660005D01*
X159061783Y-73660005D01*
X159064357Y-73597779D01*
X159033599Y-73351019D01*
X158962644Y-73112687D01*
X158950529Y-73087905D01*
X158853433Y-72889291D01*
X158853429Y-72889284D01*
X158708930Y-72686901D01*
X158533098Y-72511069D01*
X158330715Y-72366570D01*
X158330708Y-72366566D01*
X158107315Y-72257356D01*
X157868981Y-72186401D01*
X157622221Y-72155643D01*
X157622217Y-72155643D01*
X157373765Y-72165918D01*
X157130383Y-72216951D01*
X157130376Y-72216953D01*
X156898729Y-72307342D01*
X156685107Y-72434633D01*
X156542871Y-72555100D01*
X151407588Y-77690382D01*
X151401827Y-77695471D01*
X151380256Y-77712262D01*
X151317049Y-77780922D01*
X151295102Y-77802869D01*
X151295098Y-77802874D01*
X151275033Y-77826564D01*
X151244641Y-77859578D01*
X151211834Y-77895216D01*
X151196892Y-77918087D01*
X151192297Y-77924250D01*
X151174635Y-77945104D01*
X151126860Y-78025278D01*
X151075828Y-78103390D01*
X151075824Y-78103397D01*
X151064853Y-78128409D01*
X151061335Y-78135244D01*
X151047348Y-78158717D01*
X151047343Y-78158726D01*
X151013420Y-78245663D01*
X150975935Y-78331123D01*
X150969226Y-78357616D01*
X150966881Y-78364935D01*
X150956953Y-78390379D01*
X150956948Y-78390395D01*
X150937801Y-78481711D01*
X150914892Y-78572175D01*
X150914890Y-78572185D01*
X150912635Y-78599408D01*
X150911526Y-78607016D01*
X150905920Y-78633750D01*
X150905919Y-78633763D01*
X150902062Y-78727009D01*
X150899500Y-78757936D01*
X150899500Y-78788964D01*
X150895642Y-78882219D01*
X150895642Y-78882220D01*
X150899023Y-78909342D01*
X150899500Y-78917018D01*
X150899500Y-89998561D01*
X150879815Y-90065600D01*
X150874767Y-90072872D01*
X150856204Y-90097668D01*
X150856202Y-90097671D01*
X150805908Y-90232517D01*
X150799501Y-90292116D01*
X150799501Y-90292123D01*
X150799500Y-90292135D01*
X150799500Y-90867110D01*
X150779815Y-90934149D01*
X150763181Y-90954791D01*
X149274791Y-92443181D01*
X149213468Y-92476666D01*
X149187110Y-92479500D01*
X142177933Y-92479500D01*
X142158521Y-92481108D01*
X141992186Y-92494890D01*
X141992175Y-92494892D01*
X141751118Y-92555936D01*
X141523393Y-92655826D01*
X141315217Y-92791833D01*
X141132261Y-92960257D01*
X140979524Y-93156493D01*
X140861172Y-93375188D01*
X140861169Y-93375197D01*
X140780429Y-93610383D01*
X140739500Y-93855665D01*
X140739500Y-94104334D01*
X137160500Y-94104334D01*
X137160500Y-71120002D01*
X138935153Y-71120002D01*
X138954526Y-71477314D01*
X138954527Y-71477331D01*
X139012415Y-71830431D01*
X139012421Y-71830457D01*
X139108147Y-72175232D01*
X139108149Y-72175239D01*
X139240597Y-72507659D01*
X139240606Y-72507677D01*
X139408218Y-72823827D01*
X139609033Y-73120007D01*
X139736441Y-73270003D01*
X139736442Y-73270004D01*
X140942266Y-72064180D01*
X141105130Y-72254870D01*
X141295818Y-72417732D01*
X140087255Y-73626295D01*
X140087256Y-73626296D01*
X140100485Y-73638828D01*
X140100486Y-73638829D01*
X140385367Y-73855388D01*
X140385370Y-73855390D01*
X140691990Y-74039876D01*
X141016739Y-74190122D01*
X141016744Y-74190123D01*
X141355855Y-74304383D01*
X141705339Y-74381311D01*
X142061075Y-74419999D01*
X142061085Y-74420000D01*
X142418915Y-74420000D01*
X142418924Y-74419999D01*
X142774660Y-74381311D01*
X143124144Y-74304383D01*
X143463255Y-74190123D01*
X143463260Y-74190122D01*
X143788009Y-74039876D01*
X144094629Y-73855390D01*
X144094632Y-73855388D01*
X144351656Y-73660005D01*
X151073496Y-73660005D01*
X151092678Y-73891499D01*
X151149704Y-74116691D01*
X151243015Y-74329418D01*
X151327584Y-74458861D01*
X151879277Y-73907168D01*
X151889285Y-73937969D01*
X151976972Y-74076141D01*
X152096266Y-74188165D01*
X152231204Y-74262348D01*
X151679989Y-74813562D01*
X151679990Y-74813563D01*
X151710712Y-74837475D01*
X151710718Y-74837480D01*
X151915007Y-74948035D01*
X151915017Y-74948040D01*
X152134721Y-75023464D01*
X152363853Y-75061700D01*
X152596147Y-75061700D01*
X152825278Y-75023464D01*
X153044982Y-74948040D01*
X153044987Y-74948038D01*
X153249288Y-74837475D01*
X153280008Y-74813563D01*
X153280008Y-74813562D01*
X152725762Y-74259315D01*
X152794512Y-74232095D01*
X152926905Y-74135906D01*
X153031218Y-74009813D01*
X153079903Y-73906350D01*
X153632414Y-74458861D01*
X153716980Y-74329425D01*
X153716985Y-74329417D01*
X153810295Y-74116691D01*
X153867321Y-73891499D01*
X153886504Y-73660005D01*
X153886504Y-73659994D01*
X153867321Y-73428500D01*
X153810295Y-73203308D01*
X153716982Y-72990576D01*
X153632414Y-72861137D01*
X153080721Y-73412829D01*
X153070715Y-73382031D01*
X152983028Y-73243859D01*
X152863734Y-73131835D01*
X152728795Y-73057651D01*
X153280009Y-72506436D01*
X153280009Y-72506435D01*
X153249286Y-72482523D01*
X153249281Y-72482519D01*
X153044992Y-72371964D01*
X153044982Y-72371959D01*
X152825278Y-72296535D01*
X152596147Y-72258300D01*
X152363853Y-72258300D01*
X152134721Y-72296535D01*
X151915017Y-72371959D01*
X151915007Y-72371964D01*
X151710717Y-72482520D01*
X151710706Y-72482527D01*
X151679990Y-72506434D01*
X151679990Y-72506436D01*
X152234238Y-73060684D01*
X152165488Y-73087905D01*
X152033095Y-73184094D01*
X151928782Y-73310187D01*
X151880096Y-73413649D01*
X151327584Y-72861137D01*
X151243016Y-72990578D01*
X151149704Y-73203308D01*
X151092678Y-73428500D01*
X151073496Y-73659994D01*
X151073496Y-73660005D01*
X144351656Y-73660005D01*
X144379504Y-73638836D01*
X144392742Y-73626294D01*
X143184180Y-72417733D01*
X143374870Y-72254870D01*
X143537733Y-72064180D01*
X144743556Y-73270003D01*
X144870964Y-73120008D01*
X144870975Y-73119994D01*
X145071781Y-72823827D01*
X145239393Y-72507677D01*
X145239402Y-72507659D01*
X145371850Y-72175239D01*
X145371852Y-72175232D01*
X145467578Y-71830457D01*
X145467584Y-71830431D01*
X145525472Y-71477331D01*
X145525473Y-71477314D01*
X145544847Y-71120002D01*
X184655153Y-71120002D01*
X184674526Y-71477314D01*
X184674527Y-71477331D01*
X184732415Y-71830431D01*
X184732421Y-71830457D01*
X184828147Y-72175232D01*
X184828149Y-72175239D01*
X184960597Y-72507659D01*
X184960606Y-72507677D01*
X185128218Y-72823827D01*
X185329033Y-73120007D01*
X185456441Y-73270003D01*
X185456442Y-73270004D01*
X186662266Y-72064180D01*
X186825130Y-72254870D01*
X187015818Y-72417732D01*
X185807255Y-73626295D01*
X185807256Y-73626296D01*
X185820485Y-73638828D01*
X185820486Y-73638829D01*
X186105367Y-73855388D01*
X186105370Y-73855390D01*
X186411990Y-74039876D01*
X186736739Y-74190122D01*
X186736744Y-74190123D01*
X187075855Y-74304383D01*
X187425339Y-74381311D01*
X187781075Y-74419999D01*
X187781085Y-74420000D01*
X188138915Y-74420000D01*
X188138924Y-74419999D01*
X188494660Y-74381311D01*
X188844144Y-74304383D01*
X189183255Y-74190123D01*
X189183260Y-74190122D01*
X189508009Y-74039876D01*
X189814629Y-73855390D01*
X189814632Y-73855388D01*
X190099504Y-73638836D01*
X190112742Y-73626294D01*
X188904180Y-72417733D01*
X189094870Y-72254870D01*
X189257733Y-72064180D01*
X190463556Y-73270003D01*
X190590964Y-73120008D01*
X190590975Y-73119994D01*
X190791781Y-72823827D01*
X190959393Y-72507677D01*
X190959402Y-72507659D01*
X191091850Y-72175239D01*
X191091852Y-72175232D01*
X191187578Y-71830457D01*
X191187584Y-71830431D01*
X191245472Y-71477331D01*
X191245473Y-71477314D01*
X191264847Y-71120002D01*
X191264847Y-71119997D01*
X191245473Y-70762685D01*
X191245472Y-70762668D01*
X191187584Y-70409568D01*
X191187578Y-70409542D01*
X191091852Y-70064767D01*
X191091850Y-70064760D01*
X190959402Y-69732340D01*
X190959393Y-69732322D01*
X190791781Y-69416172D01*
X190590966Y-69119992D01*
X190463557Y-68969995D01*
X190463556Y-68969994D01*
X189257732Y-70175818D01*
X189094870Y-69985130D01*
X188904180Y-69822266D01*
X190112743Y-68613703D01*
X190112742Y-68613702D01*
X190099514Y-68601171D01*
X190099513Y-68601170D01*
X189814632Y-68384611D01*
X189814629Y-68384609D01*
X189508009Y-68200123D01*
X189183260Y-68049877D01*
X189183255Y-68049876D01*
X188844144Y-67935616D01*
X188494660Y-67858688D01*
X188138924Y-67820000D01*
X187781075Y-67820000D01*
X187425339Y-67858688D01*
X187075855Y-67935616D01*
X186736744Y-68049876D01*
X186736739Y-68049877D01*
X186411990Y-68200123D01*
X186105370Y-68384609D01*
X186105367Y-68384611D01*
X185820491Y-68601166D01*
X185807256Y-68613703D01*
X185807255Y-68613703D01*
X187015819Y-69822266D01*
X186825130Y-69985130D01*
X186662266Y-70175818D01*
X185456442Y-68969994D01*
X185456441Y-68969995D01*
X185329040Y-69119983D01*
X185329033Y-69119993D01*
X185128218Y-69416172D01*
X184960606Y-69732322D01*
X184960597Y-69732340D01*
X184828149Y-70064760D01*
X184828147Y-70064767D01*
X184732421Y-70409542D01*
X184732415Y-70409568D01*
X184674527Y-70762668D01*
X184674526Y-70762685D01*
X184655153Y-71119997D01*
X184655153Y-71120002D01*
X145544847Y-71120002D01*
X145544847Y-71119997D01*
X145525473Y-70762685D01*
X145525472Y-70762668D01*
X145467584Y-70409568D01*
X145467578Y-70409542D01*
X145371852Y-70064767D01*
X145371850Y-70064760D01*
X145239402Y-69732340D01*
X145239393Y-69732322D01*
X145071781Y-69416172D01*
X144870966Y-69119992D01*
X144743557Y-68969995D01*
X144743556Y-68969994D01*
X143537732Y-70175818D01*
X143374870Y-69985130D01*
X143184180Y-69822266D01*
X144392743Y-68613703D01*
X144392742Y-68613702D01*
X144379514Y-68601171D01*
X144379513Y-68601170D01*
X144094632Y-68384611D01*
X144094629Y-68384609D01*
X143788009Y-68200123D01*
X143463260Y-68049877D01*
X143463255Y-68049876D01*
X143124144Y-67935616D01*
X142774660Y-67858688D01*
X142418924Y-67820000D01*
X142061075Y-67820000D01*
X141705339Y-67858688D01*
X141355855Y-67935616D01*
X141016744Y-68049876D01*
X141016739Y-68049877D01*
X140691990Y-68200123D01*
X140385370Y-68384609D01*
X140385367Y-68384611D01*
X140100491Y-68601166D01*
X140087256Y-68613703D01*
X140087255Y-68613703D01*
X141295819Y-69822266D01*
X141105130Y-69985130D01*
X140942266Y-70175818D01*
X139736442Y-68969994D01*
X139736441Y-68969995D01*
X139609040Y-69119983D01*
X139609033Y-69119993D01*
X139408218Y-69416172D01*
X139240606Y-69732322D01*
X139240597Y-69732340D01*
X139108149Y-70064760D01*
X139108147Y-70064767D01*
X139012421Y-70409542D01*
X139012415Y-70409568D01*
X138954527Y-70762668D01*
X138954526Y-70762685D01*
X138935153Y-71119997D01*
X138935153Y-71120002D01*
X137160500Y-71120002D01*
X137160500Y-68581740D01*
X137160598Y-68578263D01*
X137162140Y-68550782D01*
X137166995Y-68464333D01*
X137177401Y-68292304D01*
X137178160Y-68285706D01*
X137200576Y-68153780D01*
X137201277Y-68149656D01*
X137213432Y-68083324D01*
X137228562Y-68000763D01*
X137229961Y-67994810D01*
X137269387Y-67857956D01*
X137313270Y-67717135D01*
X137315158Y-67711921D01*
X137370397Y-67578565D01*
X137430343Y-67445370D01*
X137432599Y-67440861D01*
X137502958Y-67313557D01*
X137578228Y-67189044D01*
X137580693Y-67185286D01*
X137664461Y-67067226D01*
X137666145Y-67064967D01*
X137754932Y-66951638D01*
X137757472Y-66948605D01*
X137854052Y-66840531D01*
X137856373Y-66838077D01*
X137958077Y-66736373D01*
X137960531Y-66734052D01*
X138068605Y-66637472D01*
X138071638Y-66634932D01*
X138184967Y-66546145D01*
X138187226Y-66544461D01*
X138305286Y-66460693D01*
X138309044Y-66458228D01*
X138433561Y-66382956D01*
X138560861Y-66312599D01*
X138565370Y-66310343D01*
X138698565Y-66250397D01*
X138831921Y-66195158D01*
X138837135Y-66193270D01*
X138977956Y-66149387D01*
X139114810Y-66109961D01*
X139120763Y-66108562D01*
X139203324Y-66093432D01*
X139269656Y-66081277D01*
X139317941Y-66073072D01*
X139405706Y-66058160D01*
X139412304Y-66057401D01*
X139584333Y-66046995D01*
X139670782Y-66042140D01*
X139698263Y-66040598D01*
X139701740Y-66040500D01*
X190498260Y-66040500D01*
X190501737Y-66040598D01*
G37*
%TD.AperFunction*%
%TD*%
M02*
