%TF.GenerationSoftware,KiCad,Pcbnew,7.0.9*%
%TF.CreationDate,2024-06-27T12:47:17-04:00*%
%TF.ProjectId,PCBAdas,50434241-6461-4732-9e6b-696361645f70,rev?*%
%TF.SameCoordinates,Original*%
%TF.FileFunction,Legend,Top*%
%TF.FilePolarity,Positive*%
%FSLAX46Y46*%
G04 Gerber Fmt 4.6, Leading zero omitted, Abs format (unit mm)*
G04 Created by KiCad (PCBNEW 7.0.9) date 2024-06-27 12:47:17*
%MOMM*%
%LPD*%
G01*
G04 APERTURE LIST*
%ADD10C,0.150000*%
%ADD11C,0.152400*%
%ADD12C,0.508000*%
%ADD13C,0.200000*%
%ADD14C,0.120000*%
G04 APERTURE END LIST*
D10*
X184874819Y-92063333D02*
X185589104Y-92063333D01*
X185589104Y-92063333D02*
X185731961Y-92110952D01*
X185731961Y-92110952D02*
X185827200Y-92206190D01*
X185827200Y-92206190D02*
X185874819Y-92349047D01*
X185874819Y-92349047D02*
X185874819Y-92444285D01*
X185303390Y-91444285D02*
X185255771Y-91539523D01*
X185255771Y-91539523D02*
X185208152Y-91587142D01*
X185208152Y-91587142D02*
X185112914Y-91634761D01*
X185112914Y-91634761D02*
X185065295Y-91634761D01*
X185065295Y-91634761D02*
X184970057Y-91587142D01*
X184970057Y-91587142D02*
X184922438Y-91539523D01*
X184922438Y-91539523D02*
X184874819Y-91444285D01*
X184874819Y-91444285D02*
X184874819Y-91253809D01*
X184874819Y-91253809D02*
X184922438Y-91158571D01*
X184922438Y-91158571D02*
X184970057Y-91110952D01*
X184970057Y-91110952D02*
X185065295Y-91063333D01*
X185065295Y-91063333D02*
X185112914Y-91063333D01*
X185112914Y-91063333D02*
X185208152Y-91110952D01*
X185208152Y-91110952D02*
X185255771Y-91158571D01*
X185255771Y-91158571D02*
X185303390Y-91253809D01*
X185303390Y-91253809D02*
X185303390Y-91444285D01*
X185303390Y-91444285D02*
X185351009Y-91539523D01*
X185351009Y-91539523D02*
X185398628Y-91587142D01*
X185398628Y-91587142D02*
X185493866Y-91634761D01*
X185493866Y-91634761D02*
X185684342Y-91634761D01*
X185684342Y-91634761D02*
X185779580Y-91587142D01*
X185779580Y-91587142D02*
X185827200Y-91539523D01*
X185827200Y-91539523D02*
X185874819Y-91444285D01*
X185874819Y-91444285D02*
X185874819Y-91253809D01*
X185874819Y-91253809D02*
X185827200Y-91158571D01*
X185827200Y-91158571D02*
X185779580Y-91110952D01*
X185779580Y-91110952D02*
X185684342Y-91063333D01*
X185684342Y-91063333D02*
X185493866Y-91063333D01*
X185493866Y-91063333D02*
X185398628Y-91110952D01*
X185398628Y-91110952D02*
X185351009Y-91158571D01*
X185351009Y-91158571D02*
X185303390Y-91253809D01*
X155563333Y-74205180D02*
X155563333Y-73490895D01*
X155563333Y-73490895D02*
X155610952Y-73348038D01*
X155610952Y-73348038D02*
X155706190Y-73252800D01*
X155706190Y-73252800D02*
X155849047Y-73205180D01*
X155849047Y-73205180D02*
X155944285Y-73205180D01*
X155182380Y-74205180D02*
X154515714Y-74205180D01*
X154515714Y-74205180D02*
X154944285Y-73205180D01*
X156936666Y-126454819D02*
X156936666Y-127169104D01*
X156936666Y-127169104D02*
X156889047Y-127311961D01*
X156889047Y-127311961D02*
X156793809Y-127407200D01*
X156793809Y-127407200D02*
X156650952Y-127454819D01*
X156650952Y-127454819D02*
X156555714Y-127454819D01*
X157841428Y-126454819D02*
X157650952Y-126454819D01*
X157650952Y-126454819D02*
X157555714Y-126502438D01*
X157555714Y-126502438D02*
X157508095Y-126550057D01*
X157508095Y-126550057D02*
X157412857Y-126692914D01*
X157412857Y-126692914D02*
X157365238Y-126883390D01*
X157365238Y-126883390D02*
X157365238Y-127264342D01*
X157365238Y-127264342D02*
X157412857Y-127359580D01*
X157412857Y-127359580D02*
X157460476Y-127407200D01*
X157460476Y-127407200D02*
X157555714Y-127454819D01*
X157555714Y-127454819D02*
X157746190Y-127454819D01*
X157746190Y-127454819D02*
X157841428Y-127407200D01*
X157841428Y-127407200D02*
X157889047Y-127359580D01*
X157889047Y-127359580D02*
X157936666Y-127264342D01*
X157936666Y-127264342D02*
X157936666Y-127026247D01*
X157936666Y-127026247D02*
X157889047Y-126931009D01*
X157889047Y-126931009D02*
X157841428Y-126883390D01*
X157841428Y-126883390D02*
X157746190Y-126835771D01*
X157746190Y-126835771D02*
X157555714Y-126835771D01*
X157555714Y-126835771D02*
X157460476Y-126883390D01*
X157460476Y-126883390D02*
X157412857Y-126931009D01*
X157412857Y-126931009D02*
X157365238Y-127026247D01*
X172176666Y-126454819D02*
X172176666Y-127169104D01*
X172176666Y-127169104D02*
X172129047Y-127311961D01*
X172129047Y-127311961D02*
X172033809Y-127407200D01*
X172033809Y-127407200D02*
X171890952Y-127454819D01*
X171890952Y-127454819D02*
X171795714Y-127454819D01*
X173129047Y-126454819D02*
X172652857Y-126454819D01*
X172652857Y-126454819D02*
X172605238Y-126931009D01*
X172605238Y-126931009D02*
X172652857Y-126883390D01*
X172652857Y-126883390D02*
X172748095Y-126835771D01*
X172748095Y-126835771D02*
X172986190Y-126835771D01*
X172986190Y-126835771D02*
X173081428Y-126883390D01*
X173081428Y-126883390D02*
X173129047Y-126931009D01*
X173129047Y-126931009D02*
X173176666Y-127026247D01*
X173176666Y-127026247D02*
X173176666Y-127264342D01*
X173176666Y-127264342D02*
X173129047Y-127359580D01*
X173129047Y-127359580D02*
X173081428Y-127407200D01*
X173081428Y-127407200D02*
X172986190Y-127454819D01*
X172986190Y-127454819D02*
X172748095Y-127454819D01*
X172748095Y-127454819D02*
X172652857Y-127407200D01*
X172652857Y-127407200D02*
X172605238Y-127359580D01*
X184874819Y-109843333D02*
X185589104Y-109843333D01*
X185589104Y-109843333D02*
X185731961Y-109890952D01*
X185731961Y-109890952D02*
X185827200Y-109986190D01*
X185827200Y-109986190D02*
X185874819Y-110129047D01*
X185874819Y-110129047D02*
X185874819Y-110224285D01*
X185208152Y-108938571D02*
X185874819Y-108938571D01*
X184827200Y-109176666D02*
X185541485Y-109414761D01*
X185541485Y-109414761D02*
X185541485Y-108795714D01*
X175883333Y-74205180D02*
X175883333Y-73490895D01*
X175883333Y-73490895D02*
X175930952Y-73348038D01*
X175930952Y-73348038D02*
X176026190Y-73252800D01*
X176026190Y-73252800D02*
X176169047Y-73205180D01*
X176169047Y-73205180D02*
X176264285Y-73205180D01*
X175502380Y-74205180D02*
X174883333Y-74205180D01*
X174883333Y-74205180D02*
X175216666Y-73824228D01*
X175216666Y-73824228D02*
X175073809Y-73824228D01*
X175073809Y-73824228D02*
X174978571Y-73776609D01*
X174978571Y-73776609D02*
X174930952Y-73728990D01*
X174930952Y-73728990D02*
X174883333Y-73633752D01*
X174883333Y-73633752D02*
X174883333Y-73395657D01*
X174883333Y-73395657D02*
X174930952Y-73300419D01*
X174930952Y-73300419D02*
X174978571Y-73252800D01*
X174978571Y-73252800D02*
X175073809Y-73205180D01*
X175073809Y-73205180D02*
X175359523Y-73205180D01*
X175359523Y-73205180D02*
X175454761Y-73252800D01*
X175454761Y-73252800D02*
X175502380Y-73300419D01*
X142785180Y-95976666D02*
X142070895Y-95976666D01*
X142070895Y-95976666D02*
X141928038Y-95929047D01*
X141928038Y-95929047D02*
X141832800Y-95833809D01*
X141832800Y-95833809D02*
X141785180Y-95690952D01*
X141785180Y-95690952D02*
X141785180Y-95595714D01*
X142689942Y-96405238D02*
X142737561Y-96452857D01*
X142737561Y-96452857D02*
X142785180Y-96548095D01*
X142785180Y-96548095D02*
X142785180Y-96786190D01*
X142785180Y-96786190D02*
X142737561Y-96881428D01*
X142737561Y-96881428D02*
X142689942Y-96929047D01*
X142689942Y-96929047D02*
X142594704Y-96976666D01*
X142594704Y-96976666D02*
X142499466Y-96976666D01*
X142499466Y-96976666D02*
X142356609Y-96929047D01*
X142356609Y-96929047D02*
X141785180Y-96357619D01*
X141785180Y-96357619D02*
X141785180Y-96976666D01*
X142785180Y-113756666D02*
X142070895Y-113756666D01*
X142070895Y-113756666D02*
X141928038Y-113709047D01*
X141928038Y-113709047D02*
X141832800Y-113613809D01*
X141832800Y-113613809D02*
X141785180Y-113470952D01*
X141785180Y-113470952D02*
X141785180Y-113375714D01*
X141785180Y-114756666D02*
X141785180Y-114185238D01*
X141785180Y-114470952D02*
X142785180Y-114470952D01*
X142785180Y-114470952D02*
X142642323Y-114375714D01*
X142642323Y-114375714D02*
X142547085Y-114280476D01*
X142547085Y-114280476D02*
X142499466Y-114185238D01*
X171182681Y-91995324D02*
X171182681Y-93324103D01*
X171182681Y-93324103D02*
X171260844Y-93480430D01*
X171260844Y-93480430D02*
X171339008Y-93558594D01*
X171339008Y-93558594D02*
X171495335Y-93636757D01*
X171495335Y-93636757D02*
X171807989Y-93636757D01*
X171807989Y-93636757D02*
X171964316Y-93558594D01*
X171964316Y-93558594D02*
X172042479Y-93480430D01*
X172042479Y-93480430D02*
X172120643Y-93324103D01*
X172120643Y-93324103D02*
X172120643Y-91995324D01*
X172824113Y-92151651D02*
X172902277Y-92073487D01*
X172902277Y-92073487D02*
X173058604Y-91995324D01*
X173058604Y-91995324D02*
X173449421Y-91995324D01*
X173449421Y-91995324D02*
X173605748Y-92073487D01*
X173605748Y-92073487D02*
X173683912Y-92151651D01*
X173683912Y-92151651D02*
X173762075Y-92307978D01*
X173762075Y-92307978D02*
X173762075Y-92464305D01*
X173762075Y-92464305D02*
X173683912Y-92698795D01*
X173683912Y-92698795D02*
X172745950Y-93636757D01*
X172745950Y-93636757D02*
X173762075Y-93636757D01*
X168643333Y-108084819D02*
X168310000Y-107608628D01*
X168071905Y-108084819D02*
X168071905Y-107084819D01*
X168071905Y-107084819D02*
X168452857Y-107084819D01*
X168452857Y-107084819D02*
X168548095Y-107132438D01*
X168548095Y-107132438D02*
X168595714Y-107180057D01*
X168595714Y-107180057D02*
X168643333Y-107275295D01*
X168643333Y-107275295D02*
X168643333Y-107418152D01*
X168643333Y-107418152D02*
X168595714Y-107513390D01*
X168595714Y-107513390D02*
X168548095Y-107561009D01*
X168548095Y-107561009D02*
X168452857Y-107608628D01*
X168452857Y-107608628D02*
X168071905Y-107608628D01*
X169595714Y-108084819D02*
X169024286Y-108084819D01*
X169310000Y-108084819D02*
X169310000Y-107084819D01*
X169310000Y-107084819D02*
X169214762Y-107227676D01*
X169214762Y-107227676D02*
X169119524Y-107322914D01*
X169119524Y-107322914D02*
X169024286Y-107370533D01*
X141478095Y-67774819D02*
X141478095Y-66774819D01*
X141478095Y-67251009D02*
X142049523Y-67251009D01*
X142049523Y-67774819D02*
X142049523Y-66774819D01*
X142430476Y-66774819D02*
X143049523Y-66774819D01*
X143049523Y-66774819D02*
X142716190Y-67155771D01*
X142716190Y-67155771D02*
X142859047Y-67155771D01*
X142859047Y-67155771D02*
X142954285Y-67203390D01*
X142954285Y-67203390D02*
X143001904Y-67251009D01*
X143001904Y-67251009D02*
X143049523Y-67346247D01*
X143049523Y-67346247D02*
X143049523Y-67584342D01*
X143049523Y-67584342D02*
X143001904Y-67679580D01*
X143001904Y-67679580D02*
X142954285Y-67727200D01*
X142954285Y-67727200D02*
X142859047Y-67774819D01*
X142859047Y-67774819D02*
X142573333Y-67774819D01*
X142573333Y-67774819D02*
X142478095Y-67727200D01*
X142478095Y-67727200D02*
X142430476Y-67679580D01*
X141478095Y-123654819D02*
X141478095Y-122654819D01*
X141478095Y-123131009D02*
X142049523Y-123131009D01*
X142049523Y-123654819D02*
X142049523Y-122654819D01*
X143049523Y-123654819D02*
X142478095Y-123654819D01*
X142763809Y-123654819D02*
X142763809Y-122654819D01*
X142763809Y-122654819D02*
X142668571Y-122797676D01*
X142668571Y-122797676D02*
X142573333Y-122892914D01*
X142573333Y-122892914D02*
X142478095Y-122940533D01*
X160225057Y-101695238D02*
X160177438Y-101790476D01*
X160177438Y-101790476D02*
X160082200Y-101885714D01*
X160082200Y-101885714D02*
X159939342Y-102028571D01*
X159939342Y-102028571D02*
X159891723Y-102123809D01*
X159891723Y-102123809D02*
X159891723Y-102219047D01*
X160129819Y-102171428D02*
X160082200Y-102266666D01*
X160082200Y-102266666D02*
X159986961Y-102361904D01*
X159986961Y-102361904D02*
X159796485Y-102409523D01*
X159796485Y-102409523D02*
X159463152Y-102409523D01*
X159463152Y-102409523D02*
X159272676Y-102361904D01*
X159272676Y-102361904D02*
X159177438Y-102266666D01*
X159177438Y-102266666D02*
X159129819Y-102171428D01*
X159129819Y-102171428D02*
X159129819Y-101980952D01*
X159129819Y-101980952D02*
X159177438Y-101885714D01*
X159177438Y-101885714D02*
X159272676Y-101790476D01*
X159272676Y-101790476D02*
X159463152Y-101742857D01*
X159463152Y-101742857D02*
X159796485Y-101742857D01*
X159796485Y-101742857D02*
X159986961Y-101790476D01*
X159986961Y-101790476D02*
X160082200Y-101885714D01*
X160082200Y-101885714D02*
X160129819Y-101980952D01*
X160129819Y-101980952D02*
X160129819Y-102171428D01*
X160129819Y-100790476D02*
X160129819Y-101361904D01*
X160129819Y-101076190D02*
X159129819Y-101076190D01*
X159129819Y-101076190D02*
X159272676Y-101171428D01*
X159272676Y-101171428D02*
X159367914Y-101266666D01*
X159367914Y-101266666D02*
X159415533Y-101361904D01*
X187198095Y-67774819D02*
X187198095Y-66774819D01*
X187198095Y-67251009D02*
X187769523Y-67251009D01*
X187769523Y-67774819D02*
X187769523Y-66774819D01*
X188674285Y-67108152D02*
X188674285Y-67774819D01*
X188436190Y-66727200D02*
X188198095Y-67441485D01*
X188198095Y-67441485D02*
X188817142Y-67441485D01*
X187198095Y-123654819D02*
X187198095Y-122654819D01*
X187198095Y-123131009D02*
X187769523Y-123131009D01*
X187769523Y-123654819D02*
X187769523Y-122654819D01*
X188198095Y-122750057D02*
X188245714Y-122702438D01*
X188245714Y-122702438D02*
X188340952Y-122654819D01*
X188340952Y-122654819D02*
X188579047Y-122654819D01*
X188579047Y-122654819D02*
X188674285Y-122702438D01*
X188674285Y-122702438D02*
X188721904Y-122750057D01*
X188721904Y-122750057D02*
X188769523Y-122845295D01*
X188769523Y-122845295D02*
X188769523Y-122940533D01*
X188769523Y-122940533D02*
X188721904Y-123083390D01*
X188721904Y-123083390D02*
X188150476Y-123654819D01*
X188150476Y-123654819D02*
X188769523Y-123654819D01*
X155324819Y-97258094D02*
X154324819Y-97258094D01*
X154324819Y-97258094D02*
X154324819Y-97019999D01*
X154324819Y-97019999D02*
X154372438Y-96877142D01*
X154372438Y-96877142D02*
X154467676Y-96781904D01*
X154467676Y-96781904D02*
X154562914Y-96734285D01*
X154562914Y-96734285D02*
X154753390Y-96686666D01*
X154753390Y-96686666D02*
X154896247Y-96686666D01*
X154896247Y-96686666D02*
X155086723Y-96734285D01*
X155086723Y-96734285D02*
X155181961Y-96781904D01*
X155181961Y-96781904D02*
X155277200Y-96877142D01*
X155277200Y-96877142D02*
X155324819Y-97019999D01*
X155324819Y-97019999D02*
X155324819Y-97258094D01*
X155324819Y-95734285D02*
X155324819Y-96305713D01*
X155324819Y-96019999D02*
X154324819Y-96019999D01*
X154324819Y-96019999D02*
X154467676Y-96115237D01*
X154467676Y-96115237D02*
X154562914Y-96210475D01*
X154562914Y-96210475D02*
X154610533Y-96305713D01*
X154954819Y-91701904D02*
X153954819Y-91701904D01*
X154954819Y-91130476D02*
X154383390Y-91559047D01*
X153954819Y-91130476D02*
X154526247Y-91701904D01*
D11*
%TO.C,J8*%
X181193001Y-97102100D02*
X189041601Y-97102100D01*
X189041601Y-97102100D02*
X189041601Y-86357900D01*
X181193001Y-86357900D02*
X181193001Y-97102100D01*
X189041601Y-86357900D02*
X181193001Y-86357900D01*
D12*
X185801000Y-98880100D02*
G75*
G03*
X185801000Y-98880100I-381000J0D01*
G01*
D11*
%TO.C,J7*%
X160602100Y-77886999D02*
X160602100Y-70038399D01*
X160602100Y-70038399D02*
X149857900Y-70038399D01*
X149857900Y-77886999D02*
X160602100Y-77886999D01*
X149857900Y-70038399D02*
X149857900Y-77886999D01*
D12*
X162761100Y-73660000D02*
G75*
G03*
X162761100Y-73660000I-381000J0D01*
G01*
D11*
%TO.C,J6*%
X151897900Y-122773001D02*
X151897900Y-130621601D01*
X151897900Y-130621601D02*
X162642100Y-130621601D01*
X162642100Y-122773001D02*
X151897900Y-122773001D01*
X162642100Y-130621601D02*
X162642100Y-122773001D01*
D12*
X150500900Y-127000000D02*
G75*
G03*
X150500900Y-127000000I-381000J0D01*
G01*
D11*
%TO.C,J5*%
X167137900Y-122773001D02*
X167137900Y-130621601D01*
X167137900Y-130621601D02*
X177882100Y-130621601D01*
X177882100Y-122773001D02*
X167137900Y-122773001D01*
X177882100Y-130621601D02*
X177882100Y-122773001D01*
D12*
X165740900Y-127000000D02*
G75*
G03*
X165740900Y-127000000I-381000J0D01*
G01*
D11*
%TO.C,J4*%
X181193001Y-114882100D02*
X189041601Y-114882100D01*
X189041601Y-114882100D02*
X189041601Y-104137900D01*
X181193001Y-104137900D02*
X181193001Y-114882100D01*
X189041601Y-104137900D02*
X181193001Y-104137900D01*
D12*
X185801000Y-116660100D02*
G75*
G03*
X185801000Y-116660100I-381000J0D01*
G01*
D11*
%TO.C,J3*%
X180922100Y-77886999D02*
X180922100Y-70038399D01*
X180922100Y-70038399D02*
X170177900Y-70038399D01*
X170177900Y-77886999D02*
X180922100Y-77886999D01*
X170177900Y-70038399D02*
X170177900Y-77886999D01*
D12*
X183081100Y-73660000D02*
G75*
G03*
X183081100Y-73660000I-381000J0D01*
G01*
D11*
%TO.C,J2*%
X146466999Y-90937900D02*
X138618399Y-90937900D01*
X138618399Y-90937900D02*
X138618399Y-101682100D01*
X146466999Y-101682100D02*
X146466999Y-90937900D01*
X138618399Y-101682100D02*
X146466999Y-101682100D01*
D12*
X142621000Y-89159900D02*
G75*
G03*
X142621000Y-89159900I-381000J0D01*
G01*
D11*
%TO.C,J1*%
X146466999Y-108717900D02*
X138618399Y-108717900D01*
X138618399Y-108717900D02*
X138618399Y-119462100D01*
X146466999Y-119462100D02*
X146466999Y-108717900D01*
X138618399Y-119462100D02*
X146466999Y-119462100D01*
D12*
X142621000Y-106939900D02*
G75*
G03*
X142621000Y-106939900I-381000J0D01*
G01*
D11*
%TO.C,U2*%
X171270000Y-93853000D02*
X175870000Y-93853000D01*
X171270000Y-104160000D02*
X171270000Y-93853000D01*
X175870000Y-93853000D02*
X175870000Y-104160000D01*
X175870000Y-104160000D02*
X171270000Y-104160000D01*
D13*
X170981803Y-96610000D02*
G75*
G03*
X170981803Y-96610000I-111803J0D01*
G01*
D14*
%TO.C,R1*%
X172080000Y-111370000D02*
X172080000Y-111040000D01*
X165540000Y-108630000D02*
X172080000Y-108630000D01*
X165540000Y-111370000D02*
X172080000Y-111370000D01*
X165540000Y-111040000D02*
X165540000Y-111370000D01*
X165540000Y-108960000D02*
X165540000Y-108630000D01*
X172080000Y-108630000D02*
X172080000Y-108960000D01*
%TO.C,Q1*%
X160675000Y-106720000D02*
X165316000Y-106720000D01*
X160675000Y-106720000D02*
X160675000Y-96480000D01*
X162185000Y-106720000D02*
X162185000Y-96480000D01*
X165316000Y-106720000D02*
X165316000Y-96480000D01*
X160675000Y-103450000D02*
X162185000Y-103450000D01*
X160675000Y-99749000D02*
X162185000Y-99749000D01*
X160675000Y-96480000D02*
X165316000Y-96480000D01*
%TO.C,D1*%
X152400000Y-92780000D02*
X152400000Y-93800000D01*
X153870000Y-93800000D02*
X150930000Y-93800000D01*
X150930000Y-93800000D02*
X150930000Y-99240000D01*
X153870000Y-94580000D02*
X150930000Y-94580000D01*
X153870000Y-94700000D02*
X150930000Y-94700000D01*
X153870000Y-94820000D02*
X150930000Y-94820000D01*
X153870000Y-99240000D02*
X153870000Y-93800000D01*
X150930000Y-99240000D02*
X153870000Y-99240000D01*
X152400000Y-100260000D02*
X152400000Y-99240000D01*
%TD*%
M02*
