<?xml version="1.0" encoding="utf-8" standalone="no"?>
<!DOCTYPE svg PUBLIC "-//W3C//DTD SVG 1.1//EN"
  "http://www.w3.org/Graphics/SVG/1.1/DTD/svg11.dtd">
<svg xmlns:xlink="http://www.w3.org/1999/xlink" width="460.5pt" height="345pt" viewBox="0 0 460.5 345" xmlns="http://www.w3.org/2000/svg" version="1.1">
 <metadata>
  <rdf:RDF xmlns:dc="http://purl.org/dc/elements/1.1/" xmlns:cc="http://creativecommons.org/ns#" xmlns:rdf="http://www.w3.org/1999/02/22-rdf-syntax-ns#">
   <cc:Work>
    <dc:type rdf:resource="http://purl.org/dc/dcmitype/StillImage"/>
    <dc:date>2024-07-29T07:45:42.057531</dc:date>
    <dc:format>image/svg+xml</dc:format>
    <dc:creator>
     <cc:Agent>
      <dc:title>Matplotlib v3.5.1, https://matplotlib.org/</dc:title>
     </cc:Agent>
    </dc:creator>
   </cc:Work>
  </rdf:RDF>
 </metadata>
 <defs>
  <style type="text/css">*{stroke-linejoin: round; stroke-linecap: butt}</style>
 </defs>
 <g id="figure_1">
  <g id="patch_1">
   <path d="M 0 345 
L 460.5 345 
L 460.5 0 
L 0 0 
z
" style="fill: #ffffff"/>
  </g>
  <g id="axes_1">
   <g id="patch_2">
    <path d="M 57.5625 307.05 
L 414.45 307.05 
L 414.45 41.4 
L 57.5625 41.4 
z
" style="fill: #ffffff"/>
   </g>
   <g id="matplotlib.axis_1">
    <g id="xtick_1">
     <g id="line2d_1">
      <defs>
       <path id="m8b1a6037b5" d="M 0 0 
L 0 3.5 
" style="stroke: #000000; stroke-width: 0.8"/>
      </defs>
      <g>
       <use xlink:href="#m8b1a6037b5" x="73.784659" y="307.05" style="stroke: #000000; stroke-width: 0.8"/>
      </g>
     </g>
     <g id="text_1">
      <!-- 0 -->
      <g transform="translate(70.603409 321.648438)scale(0.1 -0.1)">
       <defs>
        <path id="DejaVuSans-30" d="M 2034 4250 
Q 1547 4250 1301 3770 
Q 1056 3291 1056 2328 
Q 1056 1369 1301 889 
Q 1547 409 2034 409 
Q 2525 409 2770 889 
Q 3016 1369 3016 2328 
Q 3016 3291 2770 3770 
Q 2525 4250 2034 4250 
z
M 2034 4750 
Q 2819 4750 3233 4129 
Q 3647 3509 3647 2328 
Q 3647 1150 3233 529 
Q 2819 -91 2034 -91 
Q 1250 -91 836 529 
Q 422 1150 422 2328 
Q 422 3509 836 4129 
Q 1250 4750 2034 4750 
z
" transform="scale(0.015625)"/>
       </defs>
       <use xlink:href="#DejaVuSans-30"/>
      </g>
     </g>
    </g>
    <g id="xtick_2">
     <g id="line2d_2">
      <g>
       <use xlink:href="#m8b1a6037b5" x="137.956286" y="307.05" style="stroke: #000000; stroke-width: 0.8"/>
      </g>
     </g>
     <g id="text_2">
      <!-- 20 -->
      <g transform="translate(131.593786 321.648438)scale(0.1 -0.1)">
       <defs>
        <path id="DejaVuSans-32" d="M 1228 531 
L 3431 531 
L 3431 0 
L 469 0 
L 469 531 
Q 828 903 1448 1529 
Q 2069 2156 2228 2338 
Q 2531 2678 2651 2914 
Q 2772 3150 2772 3378 
Q 2772 3750 2511 3984 
Q 2250 4219 1831 4219 
Q 1534 4219 1204 4116 
Q 875 4013 500 3803 
L 500 4441 
Q 881 4594 1212 4672 
Q 1544 4750 1819 4750 
Q 2544 4750 2975 4387 
Q 3406 4025 3406 3419 
Q 3406 3131 3298 2873 
Q 3191 2616 2906 2266 
Q 2828 2175 2409 1742 
Q 1991 1309 1228 531 
z
" transform="scale(0.015625)"/>
       </defs>
       <use xlink:href="#DejaVuSans-32"/>
       <use xlink:href="#DejaVuSans-30" x="63.623047"/>
      </g>
     </g>
    </g>
    <g id="xtick_3">
     <g id="line2d_3">
      <g>
       <use xlink:href="#m8b1a6037b5" x="202.127913" y="307.05" style="stroke: #000000; stroke-width: 0.8"/>
      </g>
     </g>
     <g id="text_3">
      <!-- 40 -->
      <g transform="translate(195.765413 321.648438)scale(0.1 -0.1)">
       <defs>
        <path id="DejaVuSans-34" d="M 2419 4116 
L 825 1625 
L 2419 1625 
L 2419 4116 
z
M 2253 4666 
L 3047 4666 
L 3047 1625 
L 3713 1625 
L 3713 1100 
L 3047 1100 
L 3047 0 
L 2419 0 
L 2419 1100 
L 313 1100 
L 313 1709 
L 2253 4666 
z
" transform="scale(0.015625)"/>
       </defs>
       <use xlink:href="#DejaVuSans-34"/>
       <use xlink:href="#DejaVuSans-30" x="63.623047"/>
      </g>
     </g>
    </g>
    <g id="xtick_4">
     <g id="line2d_4">
      <g>
       <use xlink:href="#m8b1a6037b5" x="266.299541" y="307.05" style="stroke: #000000; stroke-width: 0.8"/>
      </g>
     </g>
     <g id="text_4">
      <!-- 60 -->
      <g transform="translate(259.937041 321.648438)scale(0.1 -0.1)">
       <defs>
        <path id="DejaVuSans-36" d="M 2113 2584 
Q 1688 2584 1439 2293 
Q 1191 2003 1191 1497 
Q 1191 994 1439 701 
Q 1688 409 2113 409 
Q 2538 409 2786 701 
Q 3034 994 3034 1497 
Q 3034 2003 2786 2293 
Q 2538 2584 2113 2584 
z
M 3366 4563 
L 3366 3988 
Q 3128 4100 2886 4159 
Q 2644 4219 2406 4219 
Q 1781 4219 1451 3797 
Q 1122 3375 1075 2522 
Q 1259 2794 1537 2939 
Q 1816 3084 2150 3084 
Q 2853 3084 3261 2657 
Q 3669 2231 3669 1497 
Q 3669 778 3244 343 
Q 2819 -91 2113 -91 
Q 1303 -91 875 529 
Q 447 1150 447 2328 
Q 447 3434 972 4092 
Q 1497 4750 2381 4750 
Q 2619 4750 2861 4703 
Q 3103 4656 3366 4563 
z
" transform="scale(0.015625)"/>
       </defs>
       <use xlink:href="#DejaVuSans-36"/>
       <use xlink:href="#DejaVuSans-30" x="63.623047"/>
      </g>
     </g>
    </g>
    <g id="xtick_5">
     <g id="line2d_5">
      <g>
       <use xlink:href="#m8b1a6037b5" x="330.471168" y="307.05" style="stroke: #000000; stroke-width: 0.8"/>
      </g>
     </g>
     <g id="text_5">
      <!-- 80 -->
      <g transform="translate(324.108668 321.648438)scale(0.1 -0.1)">
       <defs>
        <path id="DejaVuSans-38" d="M 2034 2216 
Q 1584 2216 1326 1975 
Q 1069 1734 1069 1313 
Q 1069 891 1326 650 
Q 1584 409 2034 409 
Q 2484 409 2743 651 
Q 3003 894 3003 1313 
Q 3003 1734 2745 1975 
Q 2488 2216 2034 2216 
z
M 1403 2484 
Q 997 2584 770 2862 
Q 544 3141 544 3541 
Q 544 4100 942 4425 
Q 1341 4750 2034 4750 
Q 2731 4750 3128 4425 
Q 3525 4100 3525 3541 
Q 3525 3141 3298 2862 
Q 3072 2584 2669 2484 
Q 3125 2378 3379 2068 
Q 3634 1759 3634 1313 
Q 3634 634 3220 271 
Q 2806 -91 2034 -91 
Q 1263 -91 848 271 
Q 434 634 434 1313 
Q 434 1759 690 2068 
Q 947 2378 1403 2484 
z
M 1172 3481 
Q 1172 3119 1398 2916 
Q 1625 2713 2034 2713 
Q 2441 2713 2670 2916 
Q 2900 3119 2900 3481 
Q 2900 3844 2670 4047 
Q 2441 4250 2034 4250 
Q 1625 4250 1398 4047 
Q 1172 3844 1172 3481 
z
" transform="scale(0.015625)"/>
       </defs>
       <use xlink:href="#DejaVuSans-38"/>
       <use xlink:href="#DejaVuSans-30" x="63.623047"/>
      </g>
     </g>
    </g>
    <g id="xtick_6">
     <g id="line2d_6">
      <g>
       <use xlink:href="#m8b1a6037b5" x="394.642795" y="307.05" style="stroke: #000000; stroke-width: 0.8"/>
      </g>
     </g>
     <g id="text_6">
      <!-- 100 -->
      <g transform="translate(385.099045 321.648438)scale(0.1 -0.1)">
       <defs>
        <path id="DejaVuSans-31" d="M 794 531 
L 1825 531 
L 1825 4091 
L 703 3866 
L 703 4441 
L 1819 4666 
L 2450 4666 
L 2450 531 
L 3481 531 
L 3481 0 
L 794 0 
L 794 531 
z
" transform="scale(0.015625)"/>
       </defs>
       <use xlink:href="#DejaVuSans-31"/>
       <use xlink:href="#DejaVuSans-30" x="63.623047"/>
       <use xlink:href="#DejaVuSans-30" x="127.246094"/>
      </g>
     </g>
    </g>
    <g id="text_7">
     <!-- Time (s) -->
     <g transform="translate(215.677344 335.326563)scale(0.1 -0.1)">
      <defs>
       <path id="DejaVuSans-54" d="M -19 4666 
L 3928 4666 
L 3928 4134 
L 2272 4134 
L 2272 0 
L 1638 0 
L 1638 4134 
L -19 4134 
L -19 4666 
z
" transform="scale(0.015625)"/>
       <path id="DejaVuSans-69" d="M 603 3500 
L 1178 3500 
L 1178 0 
L 603 0 
L 603 3500 
z
M 603 4863 
L 1178 4863 
L 1178 4134 
L 603 4134 
L 603 4863 
z
" transform="scale(0.015625)"/>
       <path id="DejaVuSans-6d" d="M 3328 2828 
Q 3544 3216 3844 3400 
Q 4144 3584 4550 3584 
Q 5097 3584 5394 3201 
Q 5691 2819 5691 2113 
L 5691 0 
L 5113 0 
L 5113 2094 
Q 5113 2597 4934 2840 
Q 4756 3084 4391 3084 
Q 3944 3084 3684 2787 
Q 3425 2491 3425 1978 
L 3425 0 
L 2847 0 
L 2847 2094 
Q 2847 2600 2669 2842 
Q 2491 3084 2119 3084 
Q 1678 3084 1418 2786 
Q 1159 2488 1159 1978 
L 1159 0 
L 581 0 
L 581 3500 
L 1159 3500 
L 1159 2956 
Q 1356 3278 1631 3431 
Q 1906 3584 2284 3584 
Q 2666 3584 2933 3390 
Q 3200 3197 3328 2828 
z
" transform="scale(0.015625)"/>
       <path id="DejaVuSans-65" d="M 3597 1894 
L 3597 1613 
L 953 1613 
Q 991 1019 1311 708 
Q 1631 397 2203 397 
Q 2534 397 2845 478 
Q 3156 559 3463 722 
L 3463 178 
Q 3153 47 2828 -22 
Q 2503 -91 2169 -91 
Q 1331 -91 842 396 
Q 353 884 353 1716 
Q 353 2575 817 3079 
Q 1281 3584 2069 3584 
Q 2775 3584 3186 3129 
Q 3597 2675 3597 1894 
z
M 3022 2063 
Q 3016 2534 2758 2815 
Q 2500 3097 2075 3097 
Q 1594 3097 1305 2825 
Q 1016 2553 972 2059 
L 3022 2063 
z
" transform="scale(0.015625)"/>
       <path id="DejaVuSans-20" transform="scale(0.015625)"/>
       <path id="DejaVuSans-28" d="M 1984 4856 
Q 1566 4138 1362 3434 
Q 1159 2731 1159 2009 
Q 1159 1288 1364 580 
Q 1569 -128 1984 -844 
L 1484 -844 
Q 1016 -109 783 600 
Q 550 1309 550 2009 
Q 550 2706 781 3412 
Q 1013 4119 1484 4856 
L 1984 4856 
z
" transform="scale(0.015625)"/>
       <path id="DejaVuSans-73" d="M 2834 3397 
L 2834 2853 
Q 2591 2978 2328 3040 
Q 2066 3103 1784 3103 
Q 1356 3103 1142 2972 
Q 928 2841 928 2578 
Q 928 2378 1081 2264 
Q 1234 2150 1697 2047 
L 1894 2003 
Q 2506 1872 2764 1633 
Q 3022 1394 3022 966 
Q 3022 478 2636 193 
Q 2250 -91 1575 -91 
Q 1294 -91 989 -36 
Q 684 19 347 128 
L 347 722 
Q 666 556 975 473 
Q 1284 391 1588 391 
Q 1994 391 2212 530 
Q 2431 669 2431 922 
Q 2431 1156 2273 1281 
Q 2116 1406 1581 1522 
L 1381 1569 
Q 847 1681 609 1914 
Q 372 2147 372 2553 
Q 372 3047 722 3315 
Q 1072 3584 1716 3584 
Q 2034 3584 2315 3537 
Q 2597 3491 2834 3397 
z
" transform="scale(0.015625)"/>
       <path id="DejaVuSans-29" d="M 513 4856 
L 1013 4856 
Q 1481 4119 1714 3412 
Q 1947 2706 1947 2009 
Q 1947 1309 1714 600 
Q 1481 -109 1013 -844 
L 513 -844 
Q 928 -128 1133 580 
Q 1338 1288 1338 2009 
Q 1338 2731 1133 3434 
Q 928 4138 513 4856 
z
" transform="scale(0.015625)"/>
      </defs>
      <use xlink:href="#DejaVuSans-54"/>
      <use xlink:href="#DejaVuSans-69" x="57.958984"/>
      <use xlink:href="#DejaVuSans-6d" x="85.742188"/>
      <use xlink:href="#DejaVuSans-65" x="183.154297"/>
      <use xlink:href="#DejaVuSans-20" x="244.677734"/>
      <use xlink:href="#DejaVuSans-28" x="276.464844"/>
      <use xlink:href="#DejaVuSans-73" x="315.478516"/>
      <use xlink:href="#DejaVuSans-29" x="367.578125"/>
     </g>
    </g>
   </g>
   <g id="matplotlib.axis_2">
    <g id="ytick_1">
     <g id="line2d_7">
      <defs>
       <path id="mc4441327d7" d="M 0 0 
L -3.5 0 
" style="stroke: #000000; stroke-width: 0.8"/>
      </defs>
      <g>
       <use xlink:href="#mc4441327d7" x="57.5625" y="294.975" style="stroke: #000000; stroke-width: 0.8"/>
      </g>
     </g>
     <g id="text_8">
      <!-- 0 -->
      <g transform="translate(44.2 298.774219)scale(0.1 -0.1)">
       <use xlink:href="#DejaVuSans-30"/>
      </g>
     </g>
    </g>
    <g id="ytick_2">
     <g id="line2d_8">
      <g>
       <use xlink:href="#mc4441327d7" x="57.5625" y="261.981071" style="stroke: #000000; stroke-width: 0.8"/>
      </g>
     </g>
     <g id="text_9">
      <!-- 2500 -->
      <g transform="translate(25.1125 265.780289)scale(0.1 -0.1)">
       <defs>
        <path id="DejaVuSans-35" d="M 691 4666 
L 3169 4666 
L 3169 4134 
L 1269 4134 
L 1269 2991 
Q 1406 3038 1543 3061 
Q 1681 3084 1819 3084 
Q 2600 3084 3056 2656 
Q 3513 2228 3513 1497 
Q 3513 744 3044 326 
Q 2575 -91 1722 -91 
Q 1428 -91 1123 -41 
Q 819 9 494 109 
L 494 744 
Q 775 591 1075 516 
Q 1375 441 1709 441 
Q 2250 441 2565 725 
Q 2881 1009 2881 1497 
Q 2881 1984 2565 2268 
Q 2250 2553 1709 2553 
Q 1456 2553 1204 2497 
Q 953 2441 691 2322 
L 691 4666 
z
" transform="scale(0.015625)"/>
       </defs>
       <use xlink:href="#DejaVuSans-32"/>
       <use xlink:href="#DejaVuSans-35" x="63.623047"/>
       <use xlink:href="#DejaVuSans-30" x="127.246094"/>
       <use xlink:href="#DejaVuSans-30" x="190.869141"/>
      </g>
     </g>
    </g>
    <g id="ytick_3">
     <g id="line2d_9">
      <g>
       <use xlink:href="#mc4441327d7" x="57.5625" y="228.987141" style="stroke: #000000; stroke-width: 0.8"/>
      </g>
     </g>
     <g id="text_10">
      <!-- 5000 -->
      <g transform="translate(25.1125 232.78636)scale(0.1 -0.1)">
       <use xlink:href="#DejaVuSans-35"/>
       <use xlink:href="#DejaVuSans-30" x="63.623047"/>
       <use xlink:href="#DejaVuSans-30" x="127.246094"/>
       <use xlink:href="#DejaVuSans-30" x="190.869141"/>
      </g>
     </g>
    </g>
    <g id="ytick_4">
     <g id="line2d_10">
      <g>
       <use xlink:href="#mc4441327d7" x="57.5625" y="195.993212" style="stroke: #000000; stroke-width: 0.8"/>
      </g>
     </g>
     <g id="text_11">
      <!-- 7500 -->
      <g transform="translate(25.1125 199.792431)scale(0.1 -0.1)">
       <defs>
        <path id="DejaVuSans-37" d="M 525 4666 
L 3525 4666 
L 3525 4397 
L 1831 0 
L 1172 0 
L 2766 4134 
L 525 4134 
L 525 4666 
z
" transform="scale(0.015625)"/>
       </defs>
       <use xlink:href="#DejaVuSans-37"/>
       <use xlink:href="#DejaVuSans-35" x="63.623047"/>
       <use xlink:href="#DejaVuSans-30" x="127.246094"/>
       <use xlink:href="#DejaVuSans-30" x="190.869141"/>
      </g>
     </g>
    </g>
    <g id="ytick_5">
     <g id="line2d_11">
      <g>
       <use xlink:href="#mc4441327d7" x="57.5625" y="162.999283" style="stroke: #000000; stroke-width: 0.8"/>
      </g>
     </g>
     <g id="text_12">
      <!-- 10000 -->
      <g transform="translate(18.75 166.798502)scale(0.1 -0.1)">
       <use xlink:href="#DejaVuSans-31"/>
       <use xlink:href="#DejaVuSans-30" x="63.623047"/>
       <use xlink:href="#DejaVuSans-30" x="127.246094"/>
       <use xlink:href="#DejaVuSans-30" x="190.869141"/>
       <use xlink:href="#DejaVuSans-30" x="254.492188"/>
      </g>
     </g>
    </g>
    <g id="ytick_6">
     <g id="line2d_12">
      <g>
       <use xlink:href="#mc4441327d7" x="57.5625" y="130.005354" style="stroke: #000000; stroke-width: 0.8"/>
      </g>
     </g>
     <g id="text_13">
      <!-- 12500 -->
      <g transform="translate(18.75 133.804572)scale(0.1 -0.1)">
       <use xlink:href="#DejaVuSans-31"/>
       <use xlink:href="#DejaVuSans-32" x="63.623047"/>
       <use xlink:href="#DejaVuSans-35" x="127.246094"/>
       <use xlink:href="#DejaVuSans-30" x="190.869141"/>
       <use xlink:href="#DejaVuSans-30" x="254.492188"/>
      </g>
     </g>
    </g>
    <g id="ytick_7">
     <g id="line2d_13">
      <g>
       <use xlink:href="#mc4441327d7" x="57.5625" y="97.011424" style="stroke: #000000; stroke-width: 0.8"/>
      </g>
     </g>
     <g id="text_14">
      <!-- 15000 -->
      <g transform="translate(18.75 100.810643)scale(0.1 -0.1)">
       <use xlink:href="#DejaVuSans-31"/>
       <use xlink:href="#DejaVuSans-35" x="63.623047"/>
       <use xlink:href="#DejaVuSans-30" x="127.246094"/>
       <use xlink:href="#DejaVuSans-30" x="190.869141"/>
       <use xlink:href="#DejaVuSans-30" x="254.492188"/>
      </g>
     </g>
    </g>
    <g id="ytick_8">
     <g id="line2d_14">
      <g>
       <use xlink:href="#mc4441327d7" x="57.5625" y="64.017495" style="stroke: #000000; stroke-width: 0.8"/>
      </g>
     </g>
     <g id="text_15">
      <!-- 17500 -->
      <g transform="translate(18.75 67.816714)scale(0.1 -0.1)">
       <use xlink:href="#DejaVuSans-31"/>
       <use xlink:href="#DejaVuSans-37" x="63.623047"/>
       <use xlink:href="#DejaVuSans-35" x="127.246094"/>
       <use xlink:href="#DejaVuSans-30" x="190.869141"/>
       <use xlink:href="#DejaVuSans-30" x="254.492188"/>
      </g>
     </g>
    </g>
    <g id="text_16">
     <!-- Trust Score -->
     <g transform="translate(12.670312 201.921875)rotate(-90)scale(0.1 -0.1)">
      <defs>
       <path id="DejaVuSans-72" d="M 2631 2963 
Q 2534 3019 2420 3045 
Q 2306 3072 2169 3072 
Q 1681 3072 1420 2755 
Q 1159 2438 1159 1844 
L 1159 0 
L 581 0 
L 581 3500 
L 1159 3500 
L 1159 2956 
Q 1341 3275 1631 3429 
Q 1922 3584 2338 3584 
Q 2397 3584 2469 3576 
Q 2541 3569 2628 3553 
L 2631 2963 
z
" transform="scale(0.015625)"/>
       <path id="DejaVuSans-75" d="M 544 1381 
L 544 3500 
L 1119 3500 
L 1119 1403 
Q 1119 906 1312 657 
Q 1506 409 1894 409 
Q 2359 409 2629 706 
Q 2900 1003 2900 1516 
L 2900 3500 
L 3475 3500 
L 3475 0 
L 2900 0 
L 2900 538 
Q 2691 219 2414 64 
Q 2138 -91 1772 -91 
Q 1169 -91 856 284 
Q 544 659 544 1381 
z
M 1991 3584 
L 1991 3584 
z
" transform="scale(0.015625)"/>
       <path id="DejaVuSans-74" d="M 1172 4494 
L 1172 3500 
L 2356 3500 
L 2356 3053 
L 1172 3053 
L 1172 1153 
Q 1172 725 1289 603 
Q 1406 481 1766 481 
L 2356 481 
L 2356 0 
L 1766 0 
Q 1100 0 847 248 
Q 594 497 594 1153 
L 594 3053 
L 172 3053 
L 172 3500 
L 594 3500 
L 594 4494 
L 1172 4494 
z
" transform="scale(0.015625)"/>
       <path id="DejaVuSans-53" d="M 3425 4513 
L 3425 3897 
Q 3066 4069 2747 4153 
Q 2428 4238 2131 4238 
Q 1616 4238 1336 4038 
Q 1056 3838 1056 3469 
Q 1056 3159 1242 3001 
Q 1428 2844 1947 2747 
L 2328 2669 
Q 3034 2534 3370 2195 
Q 3706 1856 3706 1288 
Q 3706 609 3251 259 
Q 2797 -91 1919 -91 
Q 1588 -91 1214 -16 
Q 841 59 441 206 
L 441 856 
Q 825 641 1194 531 
Q 1563 422 1919 422 
Q 2459 422 2753 634 
Q 3047 847 3047 1241 
Q 3047 1584 2836 1778 
Q 2625 1972 2144 2069 
L 1759 2144 
Q 1053 2284 737 2584 
Q 422 2884 422 3419 
Q 422 4038 858 4394 
Q 1294 4750 2059 4750 
Q 2388 4750 2728 4690 
Q 3069 4631 3425 4513 
z
" transform="scale(0.015625)"/>
       <path id="DejaVuSans-63" d="M 3122 3366 
L 3122 2828 
Q 2878 2963 2633 3030 
Q 2388 3097 2138 3097 
Q 1578 3097 1268 2742 
Q 959 2388 959 1747 
Q 959 1106 1268 751 
Q 1578 397 2138 397 
Q 2388 397 2633 464 
Q 2878 531 3122 666 
L 3122 134 
Q 2881 22 2623 -34 
Q 2366 -91 2075 -91 
Q 1284 -91 818 406 
Q 353 903 353 1747 
Q 353 2603 823 3093 
Q 1294 3584 2113 3584 
Q 2378 3584 2631 3529 
Q 2884 3475 3122 3366 
z
" transform="scale(0.015625)"/>
       <path id="DejaVuSans-6f" d="M 1959 3097 
Q 1497 3097 1228 2736 
Q 959 2375 959 1747 
Q 959 1119 1226 758 
Q 1494 397 1959 397 
Q 2419 397 2687 759 
Q 2956 1122 2956 1747 
Q 2956 2369 2687 2733 
Q 2419 3097 1959 3097 
z
M 1959 3584 
Q 2709 3584 3137 3096 
Q 3566 2609 3566 1747 
Q 3566 888 3137 398 
Q 2709 -91 1959 -91 
Q 1206 -91 779 398 
Q 353 888 353 1747 
Q 353 2609 779 3096 
Q 1206 3584 1959 3584 
z
" transform="scale(0.015625)"/>
      </defs>
      <use xlink:href="#DejaVuSans-54"/>
      <use xlink:href="#DejaVuSans-72" x="46.333984"/>
      <use xlink:href="#DejaVuSans-75" x="87.447266"/>
      <use xlink:href="#DejaVuSans-73" x="150.826172"/>
      <use xlink:href="#DejaVuSans-74" x="202.925781"/>
      <use xlink:href="#DejaVuSans-20" x="242.134766"/>
      <use xlink:href="#DejaVuSans-53" x="273.921875"/>
      <use xlink:href="#DejaVuSans-63" x="337.398438"/>
      <use xlink:href="#DejaVuSans-6f" x="392.378906"/>
      <use xlink:href="#DejaVuSans-72" x="453.560547"/>
      <use xlink:href="#DejaVuSans-65" x="492.423828"/>
     </g>
    </g>
   </g>
   <g id="line2d_15">
    <path d="M 73.784659 294.975 
L 110.256014 294.875104 
L 111.185116 294.697851 
L 112.083983 294.321154 
L 112.639093 293.872558 
L 113.343907 293.0106 
L 113.899957 292.08855 
L 115.116091 289.261603 
L 115.910344 286.296058 
L 117.087869 280.788444 
L 117.900463 274.588486 
L 118.697099 266.700636 
L 119.613373 254.519122 
L 120.966516 232.118647 
L 121.354755 224.617812 
L 123.067105 221.295279 
L 123.447216 216.279122 
L 124.011862 212.193197 
L 124.3911 210.93113 
L 124.812096 210.46476 
L 125.186906 210.42573 
L 125.601657 210.629732 
L 127.670335 208.624564 
L 128.262122 201.232208 
L 128.458436 198.543059 
L 129.589108 190.111672 
L 129.790148 189.804191 
L 130.007098 189.950149 
L 130.234938 190.478751 
L 130.718627 192.511498 
L 131.548469 197.106113 
L 133.252552 197.906345 
L 133.71934 198.801273 
L 133.955539 198.865868 
L 134.40216 198.752732 
L 134.622408 198.867617 
L 134.841248 199.250507 
L 135.061369 199.949524 
L 135.286271 201.062842 
L 137.121782 203.705972 
L 139.424879 230.052356 
L 140.433734 240.47623 
L 140.966228 244.633169 
L 141.333618 246.308564 
L 141.883679 248.088323 
L 143.573788 249.668203 
L 144.999514 262.296218 
L 145.72671 267.725583 
L 146.260634 270.666121 
L 146.814239 272.808594 
L 147.366691 274.10957 
L 147.551795 274.286001 
L 147.734894 274.297924 
L 148.124474 273.8028 
L 148.555522 271.890966 
L 149.17716 267.296063 
L 150.172263 259.540076 
L 150.553387 257.422359 
L 150.999061 256.183495 
L 151.246384 256.022616 
L 151.486596 256.05507 
L 151.769404 256.325761 
L 152.221387 257.392283 
L 153.07398 260.595379 
L 153.278863 261.425861 
L 153.691198 260.899783 
L 154.793233 258.703948 
L 155.738664 255.781158 
L 156.200442 255.283622 
L 156.405781 255.333202 
L 156.837573 255.959999 
L 157.055114 256.42665 
L 157.466065 255.930169 
L 159.204305 253.017457 
L 159.632957 254.757345 
L 160.210605 258.596811 
L 160.5745 261.522116 
L 161.077633 264.143762 
L 161.635674 267.05785 
L 162.008121 267.997256 
L 162.1901 268.158401 
L 162.557957 268.063346 
L 163.378216 267.053909 
L 163.991315 266.15939 
L 164.416174 266.035638 
L 164.606174 266.238315 
L 164.975798 267.317169 
L 165.521583 270.423428 
L 166.273904 276.412619 
L 166.453544 278.028011 
L 166.960321 281.244273 
L 167.534109 285.391095 
L 168.106354 288.194927 
L 168.500529 289.128637 
L 168.908278 289.008431 
L 169.767013 288.220633 
L 171.661257 286.106132 
L 172.044787 286.123675 
L 172.949392 286.631523 
L 173.516845 287.049322 
L 173.899748 287.164256 
L 174.400429 287.138948 
L 174.82668 286.938512 
L 176.167023 285.769916 
L 177.165091 284.863939 
L 178.237607 284.468293 
L 179.510909 284.285087 
L 181.945557 284.007058 
L 183.415025 283.647096 
L 186.28033 283.020914 
L 187.068551 283.053472 
L 190.4162 283.620092 
L 193.542891 283.318111 
L 195.838622 283.368118 
L 197.326769 283.123874 
L 200.496802 282.216763 
L 201.491057 281.858483 
L 202.11499 281.827682 
L 202.792626 282.042939 
L 203.701306 282.591673 
L 207.177701 285.685057 
L 212.443541 291.439551 
L 213.395871 292.000813 
L 214.541433 292.635828 
L 216.755895 293.253045 
L 217.934848 293.274548 
L 221.146408 293.231561 
L 222.799253 293.469124 
L 225.452842 294.054457 
L 227.764588 294.234251 
L 228.549844 294.035783 
L 229.115399 293.745393 
L 230.24526 292.775738 
L 230.923786 291.844016 
L 232.967471 287.82846 
L 235.902796 279.46827 
L 237.027799 277.072398 
L 237.979248 275.485643 
L 238.38958 275.208697 
L 240.209683 273.073607 
L 240.96911 272.53697 
L 241.519971 272.391457 
L 242.074009 272.476666 
L 242.633046 272.806344 
L 243.73479 273.877935 
L 245.007445 275.800709 
L 246.457605 278.629879 
L 247.803645 280.752733 
L 249.498483 282.806735 
L 250.07137 283.427691 
L 250.86449 284.004156 
L 251.733551 284.597311 
L 252.182266 284.755334 
L 252.690766 284.732507 
L 253.482687 284.370383 
L 255.192854 283.495046 
L 255.759676 283.435697 
L 256.830925 283.636677 
L 258.355856 283.97871 
L 259.046616 283.914007 
L 262.54193 283.207492 
L 267.466273 282.831434 
L 269.357471 282.385383 
L 271.85055 282.307891 
L 272.920636 282.845079 
L 274.009995 283.362994 
L 274.780548 283.504515 
L 275.890807 283.368669 
L 277.443555 282.964129 
L 278.026023 282.967303 
L 279.124305 283.245373 
L 281.510445 284.048537 
L 283.154565 283.900198 
L 284.914565 283.766129 
L 286.802629 283.898321 
L 288.076024 283.963342 
L 289.224071 283.795948 
L 292.441008 282.810146 
L 294.219924 282.215173 
L 294.887921 280.154134 
L 295.271851 279.348654 
L 297.252833 273.338369 
L 298.09467 271.501602 
L 299.334821 269.167258 
L 301.608822 263.84151 
L 302.449623 262.820116 
L 303.25608 261.889212 
L 303.856429 261.503069 
L 304.867127 261.194469 
L 305.971636 261.11313 
L 306.560655 261.250657 
L 307.147818 261.618161 
L 308.245 262.743972 
L 309.033595 264.047786 
L 311.407223 268.924263 
L 312.701889 272.700348 
L 314.287152 278.40405 
L 314.844882 279.458882 
L 315.455749 280.610155 
L 315.866681 280.987388 
L 317.268401 281.612843 
L 318.144738 281.956591 
L 318.782303 282.001815 
L 319.505786 281.829425 
L 321.081214 281.180414 
L 322.102622 281.139126 
L 322.960286 281.36977 
L 325.73132 282.466668 
L 326.817679 282.513726 
L 328.449324 282.417541 
L 329.929068 282.536577 
L 330.598842 282.570309 
L 331.684178 282.408912 
L 332.563229 282.095826 
L 335.74502 280.931623 
L 336.498458 280.756083 
L 338.292102 280.60685 
L 338.964109 280.242821 
L 340.182944 279.861366 
L 341.082924 279.973763 
L 342.947511 280.609755 
L 344.684038 280.483373 
L 346.432881 279.443523 
L 347.034234 279.650429 
L 347.848862 280.398343 
L 348.753926 281.191911 
L 349.896259 281.648941 
L 350.512524 281.576665 
L 350.964301 281.404832 
L 352.969954 281.371163 
L 353.579824 281.767004 
L 354.331255 282.357302 
L 356.122287 282.279981 
L 356.967595 281.745574 
L 357.687145 281.233478 
L 358.179536 281.084709 
L 358.901856 281.218944 
L 360.332545 281.933588 
L 362.118151 281.755995 
L 363.401737 280.579421 
L 363.810541 280.359509 
L 364.277878 280.424933 
L 364.783548 280.726482 
L 367.155244 283.257297 
L 370.556199 285.092328 
L 372.443146 287.118809 
L 373.922998 287.82033 
L 374.811096 288.693665 
L 375.302928 289.301501 
L 376.412012 290.920765 
L 376.412012 290.920765 
" clip-path="url(#peb4410470b)" style="fill: none; stroke: #800080; stroke-width: 5; stroke-linecap: square"/>
   </g>
   <g id="line2d_16">
    <path d="M 73.784659 294.975 
L 110.256014 294.88265 
L 111.185116 294.703942 
L 112.083983 294.325098 
L 112.80846 293.678204 
L 113.534518 292.704384 
L 114.254598 291.256917 
L 115.311125 288.483593 
L 116.118828 285.256863 
L 116.325615 284.277502 
L 116.67878 283.160455 
L 117.286318 279.246209 
L 118.098384 272.499814 
L 118.876607 264.009664 
L 120.191679 244.786236 
L 121.354755 225.881859 
L 122.681111 224.398366 
L 123.255386 221.81949 
L 123.447216 221.530083 
L 123.640531 221.461919 
L 124.011862 221.732232 
L 124.3911 222.391327 
L 125.186906 224.287191 
L 125.601657 225.259209 
L 127.43653 223.950703 
L 127.876375 220.712824 
L 128.458436 215.318 
L 128.98803 213.57841 
L 129.184545 213.260415 
L 129.383937 213.424006 
L 129.589108 214.021747 
L 130.234938 217.55746 
L 131.548469 225.873236 
L 133.252552 227.400633 
L 134.184448 232.448473 
L 135.286271 238.263873 
L 137.121782 240.10977 
L 138.494348 250.535349 
L 141.333618 268.480915 
L 141.883679 270.890483 
L 143.360048 271.816749 
L 144.189036 274.831906 
L 144.604404 275.773672 
L 145.363482 276.80742 
L 146.082899 277.26893 
L 146.814239 277.397905 
L 147.551795 277.409627 
L 148.343592 277.760547 
L 148.975469 278.585852 
L 149.378881 279.241236 
L 150.553387 279.496148 
L 151.246384 280.080067 
L 153.278863 282.54253 
L 153.691198 283.663488 
L 154.241421 285.533837 
L 154.988608 286.321191 
L 155.555019 286.33409 
L 155.995927 286.381845 
L 156.405781 286.722918 
L 156.837573 287.261902 
L 157.674533 287.213192 
L 158.083278 287.460129 
L 158.79317 287.971847 
L 159.632957 288.423535 
L 161.077633 289.944675 
L 161.449491 290.028297 
L 162.374874 290.026271 
L 162.958812 290.364182 
L 163.77849 291.013986 
L 164.606174 291.052848 
L 165.339809 291.382324 
L 166.089245 291.669338 
L 168.292621 292.211202 
L 169.123795 292.503617 
L 169.960367 292.475473 
L 171.466324 292.07057 
L 173.899748 291.111564 
L 175.956194 290.826533 
L 176.972505 290.963633 
L 179.974201 291.772049 
L 184.389378 293.648484 
L 185.247132 293.813418 
L 186.045562 293.676163 
L 186.497244 293.417167 
L 187.068551 292.706897 
L 187.878662 291.162956 
L 188.49149 289.431248 
L 189.576227 285.65403 
L 191.056111 278.951655 
L 192.104124 273.695919 
L 192.499158 272.627189 
L 193.349841 268.517268 
L 193.781855 266.657005 
L 194.925269 263.51486 
L 196.365189 260.371354 
L 197.326769 259.087246 
L 198.074022 258.446965 
L 198.75826 258.170073 
L 199.464092 258.214266 
L 200.091389 258.44287 
L 200.890796 259.162796 
L 201.900619 260.33505 
L 202.792626 261.623691 
L 204.472048 264.730758 
L 205.016521 265.786404 
L 205.674383 267.543018 
L 207.761201 273.96821 
L 208.391124 275.315257 
L 209.238724 276.468949 
L 210.620599 277.589166 
L 211.627693 278.413781 
L 212.443541 279.03878 
L 213.965023 279.457488 
L 214.993821 279.645463 
L 215.628451 280.023091 
L 216.205403 280.746066 
L 217.934848 283.421159 
L 218.586034 283.827308 
L 219.599349 283.920534 
L 222.150209 283.862379 
L 224.774363 283.983561 
L 226.279243 283.81026 
L 227.764588 283.481217 
L 229.307682 283.384015 
L 231.980585 283.405295 
L 233.156592 283.179688 
L 234.788155 282.950452 
L 235.715425 283.038696 
L 240.025737 283.70975 
L 240.775401 283.845178 
L 244.114029 284.230824 
L 245.583662 284.39572 
L 248.744069 284.781244 
L 249.498483 284.643186 
L 253.288372 283.787245 
L 255.949683 283.406603 
L 259.046616 283.403669 
L 260.180932 283.309946 
L 261.164181 282.945803 
L 262.342657 282.607288 
L 263.062915 282.569805 
L 263.717918 282.735743 
L 264.678123 283.32777 
L 266.316564 284.69765 
L 267.90124 286.511067 
L 268.999086 287.792674 
L 269.357471 288.043941 
L 270.998655 288.332942 
L 272.512889 290.047827 
L 273.801207 291.102934 
L 274.980918 291.776422 
L 278.444969 293.256809 
L 280.356349 293.631265 
L 282.437981 293.88314 
L 288.076024 293.958763 
L 294.418241 293.895412 
L 297.64891 293.690196 
L 298.859951 293.579162 
L 306.560655 293.518428 
L 309.033595 293.738152 
L 311.407223 293.89159 
L 317.268401 294.139054 
L 320.190322 294.583815 
L 321.081214 294.554173 
L 321.888297 294.3149 
L 322.528558 293.86859 
L 323.183663 293.150537 
L 323.822807 292.116726 
L 324.673624 290.256989 
L 325.51902 287.863042 
L 327.239564 282.244814 
L 327.662589 280.877535 
L 328.239582 279.547332 
L 328.449324 278.92901 
L 328.994688 277.778372 
L 329.668191 276.286465 
L 331.035805 274.219865 
L 331.684178 273.59692 
L 332.324928 273.231055 
L 333.0708 273.071373 
L 334.093685 273.116708 
L 336.222948 273.443786 
L 336.498458 273.46837 
L 338.720279 273.488052 
L 339.477927 273.814729 
L 341.082924 274.9079 
L 341.707827 274.867406 
L 342.135068 274.593887 
L 342.50377 274.226138 
L 342.947511 273.369291 
L 344.462378 272.374225 
L 345.785904 267.115893 
L 348.262303 258.703046 
L 349.070448 256.329904 
L 350.512524 250.535438 
L 350.964301 248.938524 
L 352.37091 248.131824 
L 353.372098 244.496184 
L 353.816292 243.441342 
L 354.331255 242.706832 
L 356.411127 242.723411 
L 356.967595 242.990565 
L 357.934392 243.763827 
L 359.389325 245.121522 
L 359.876118 245.700674 
L 360.332545 246.408899 
L 361.898781 246.747507 
L 363.198764 249.363374 
L 364.576027 254.471162 
L 366.423963 263.03002 
L 368.050094 270.191541 
L 368.870149 273.62431 
L 369.338621 274.566575 
L 370.003525 274.955565 
L 370.216952 274.936987 
L 370.556199 274.761606 
L 370.975676 273.85019 
L 371.376708 272.456782 
L 373.058322 265.95593 
L 373.922998 263.494543 
L 374.811096 261.673661 
L 375.711709 260.369481 
L 376.171021 260.164565 
L 376.412012 260.193774 
L 376.412012 260.193774 
" clip-path="url(#peb4410470b)" style="fill: none; stroke: #ff0000; stroke-width: 5; stroke-linecap: square"/>
   </g>
   <g id="line2d_17">
    <path d="M 320.425129 294.975 
L 320.657272 288.112263 
L 321.437887 279.004618 
L 322.316673 267.658593 
L 322.960286 259.969841 
L 323.3984 257.30797 
L 323.610222 256.825219 
L 323.822807 256.777048 
L 324.035443 257.09137 
L 324.46403 258.714402 
L 326.396619 268.900666 
L 326.817679 270.290838 
L 327.239564 270.758746 
L 327.662589 270.785886 
L 328.239582 270.833771 
L 328.783255 271.025885 
L 329.205676 270.990486 
L 329.668191 270.493083 
L 330.143506 269.581065 
L 330.823985 267.298532 
L 331.899829 262.46421 
L 333.32213 255.883006 
L 334.093685 252.15364 
L 335.485167 241.981154 
L 336.498458 232.408059 
L 338.086262 227.122354 
L 338.964109 206.693542 
L 341.293385 168.527428 
L 342.135068 158.315816 
L 342.50377 155.997048 
L 342.947511 151.411503 
L 344.462378 148.818652 
L 345.570668 137.331795 
L 345.999926 133.110831 
L 347.638857 105.464261 
L 348.262303 99.123229 
L 349.500736 91.918651 
L 350.71982 84.538206 
L 350.964301 83.899429 
L 352.37091 84.147844 
L 352.768536 85.610963 
L 353.372098 87.811757 
L 353.816292 88.690166 
L 354.331255 89.267092 
L 355.837304 88.560426 
L 356.122287 88.17076 
L 356.411127 88.185609 
L 356.705309 88.608641 
L 357.218845 90.66597 
L 357.934392 95.541541 
L 358.660242 101.954735 
L 359.650093 112.806983 
L 360.332545 122.952407 
L 361.898781 126.644794 
L 362.586254 139.116035 
L 362.976109 143.663007 
L 364.277878 171.140614 
L 364.783548 178.554721 
L 365.641754 192.126356 
L 365.914114 195.363165 
L 366.423963 197.192806 
L 367.629494 201.273713 
L 368.253874 204.461479 
L 369.092876 210.064075 
L 369.661295 213.712152 
L 370.003525 215.64869 
L 370.216952 217.70685 
L 370.768595 221.565726 
L 371.376708 225.797982 
L 371.778333 227.206505 
L 371.979829 227.522202 
L 372.240444 227.579279 
L 372.443146 227.282378 
L 372.648687 226.576172 
L 373.058322 223.414157 
L 373.474582 217.376959 
L 373.922998 208.634273 
L 374.341585 195.829804 
L 375.302928 157.980606 
L 376.412012 100.648906 
L 388.969113 100.570563 
L 389.191512 100.399677 
L 390.299759 97.802001 
L 391.950881 97.260478 
L 392.676182 94.433 
L 393.269514 91.803862 
L 394.298698 86.897665 
L 394.842094 84.33651 
L 395.808261 77.973031 
L 396.537803 71.942207 
L 397.224883 64.658617 
L 398.227841 53.475 
L 398.227841 53.475 
" clip-path="url(#peb4410470b)" style="fill: none; stroke: #0000ff; stroke-width: 5; stroke-linecap: square"/>
   </g>
   <g id="patch_3">
    <path d="M 57.5625 307.05 
L 57.5625 41.4 
" style="fill: none; stroke: #000000; stroke-width: 0.8; stroke-linejoin: miter; stroke-linecap: square"/>
   </g>
   <g id="patch_4">
    <path d="M 414.45 307.05 
L 414.45 41.4 
" style="fill: none; stroke: #000000; stroke-width: 0.8; stroke-linejoin: miter; stroke-linecap: square"/>
   </g>
   <g id="patch_5">
    <path d="M 57.5625 307.05 
L 414.45 307.05 
" style="fill: none; stroke: #000000; stroke-width: 0.8; stroke-linejoin: miter; stroke-linecap: square"/>
   </g>
   <g id="patch_6">
    <path d="M 57.5625 41.4 
L 414.45 41.4 
" style="fill: none; stroke: #000000; stroke-width: 0.8; stroke-linejoin: miter; stroke-linecap: square"/>
   </g>
   <g id="legend_1">
    <g id="patch_7">
     <path d="M 64.5625 93.434375 
L 123.325 93.434375 
Q 125.325 93.434375 125.325 91.434375 
L 125.325 48.4 
Q 125.325 46.4 123.325 46.4 
L 64.5625 46.4 
Q 62.5625 46.4 62.5625 48.4 
L 62.5625 91.434375 
Q 62.5625 93.434375 64.5625 93.434375 
z
" style="fill: #ffffff; opacity: 0.8; stroke: #cccccc; stroke-linejoin: miter"/>
    </g>
    <g id="line2d_18">
     <path d="M 66.5625 54.498437 
L 76.5625 54.498437 
L 86.5625 54.498437 
" style="fill: none; stroke: #800080; stroke-width: 5; stroke-linecap: square"/>
    </g>
    <g id="text_17">
     <!-- Car 0 -->
     <g transform="translate(94.5625 57.998437)scale(0.1 -0.1)">
      <defs>
       <path id="DejaVuSans-43" d="M 4122 4306 
L 4122 3641 
Q 3803 3938 3442 4084 
Q 3081 4231 2675 4231 
Q 1875 4231 1450 3742 
Q 1025 3253 1025 2328 
Q 1025 1406 1450 917 
Q 1875 428 2675 428 
Q 3081 428 3442 575 
Q 3803 722 4122 1019 
L 4122 359 
Q 3791 134 3420 21 
Q 3050 -91 2638 -91 
Q 1578 -91 968 557 
Q 359 1206 359 2328 
Q 359 3453 968 4101 
Q 1578 4750 2638 4750 
Q 3056 4750 3426 4639 
Q 3797 4528 4122 4306 
z
" transform="scale(0.015625)"/>
       <path id="DejaVuSans-61" d="M 2194 1759 
Q 1497 1759 1228 1600 
Q 959 1441 959 1056 
Q 959 750 1161 570 
Q 1363 391 1709 391 
Q 2188 391 2477 730 
Q 2766 1069 2766 1631 
L 2766 1759 
L 2194 1759 
z
M 3341 1997 
L 3341 0 
L 2766 0 
L 2766 531 
Q 2569 213 2275 61 
Q 1981 -91 1556 -91 
Q 1019 -91 701 211 
Q 384 513 384 1019 
Q 384 1609 779 1909 
Q 1175 2209 1959 2209 
L 2766 2209 
L 2766 2266 
Q 2766 2663 2505 2880 
Q 2244 3097 1772 3097 
Q 1472 3097 1187 3025 
Q 903 2953 641 2809 
L 641 3341 
Q 956 3463 1253 3523 
Q 1550 3584 1831 3584 
Q 2591 3584 2966 3190 
Q 3341 2797 3341 1997 
z
" transform="scale(0.015625)"/>
      </defs>
      <use xlink:href="#DejaVuSans-43"/>
      <use xlink:href="#DejaVuSans-61" x="69.824219"/>
      <use xlink:href="#DejaVuSans-72" x="131.103516"/>
      <use xlink:href="#DejaVuSans-20" x="172.216797"/>
      <use xlink:href="#DejaVuSans-30" x="204.003906"/>
     </g>
    </g>
    <g id="line2d_19">
     <path d="M 66.5625 69.176562 
L 76.5625 69.176562 
L 86.5625 69.176562 
" style="fill: none; stroke: #ff0000; stroke-width: 5; stroke-linecap: square"/>
    </g>
    <g id="text_18">
     <!-- Car 1 -->
     <g transform="translate(94.5625 72.676562)scale(0.1 -0.1)">
      <use xlink:href="#DejaVuSans-43"/>
      <use xlink:href="#DejaVuSans-61" x="69.824219"/>
      <use xlink:href="#DejaVuSans-72" x="131.103516"/>
      <use xlink:href="#DejaVuSans-20" x="172.216797"/>
      <use xlink:href="#DejaVuSans-31" x="204.003906"/>
     </g>
    </g>
    <g id="line2d_20">
     <path d="M 66.5625 83.854687 
L 76.5625 83.854687 
L 86.5625 83.854687 
" style="fill: none; stroke: #0000ff; stroke-width: 5; stroke-linecap: square"/>
    </g>
    <g id="text_19">
     <!-- Car 2 -->
     <g transform="translate(94.5625 87.354687)scale(0.1 -0.1)">
      <use xlink:href="#DejaVuSans-43"/>
      <use xlink:href="#DejaVuSans-61" x="69.824219"/>
      <use xlink:href="#DejaVuSans-72" x="131.103516"/>
      <use xlink:href="#DejaVuSans-20" x="172.216797"/>
      <use xlink:href="#DejaVuSans-32" x="204.003906"/>
     </g>
    </g>
   </g>
  </g>
 </g>
 <defs>
  <clipPath id="peb4410470b">
   <rect x="57.5625" y="41.4" width="356.8875" height="265.65"/>
  </clipPath>
 </defs>
</svg>
