%TF.GenerationSoftware,KiCad,Pcbnew,7.0.9*%
%TF.CreationDate,2024-06-07T12:35:00-04:00*%
%TF.ProjectId,PCBAdas,50434241-6461-4732-9e6b-696361645f70,rev?*%
%TF.SameCoordinates,Original*%
%TF.FileFunction,Copper,L1,Top*%
%TF.FilePolarity,Positive*%
%FSLAX46Y46*%
G04 Gerber Fmt 4.6, Leading zero omitted, Abs format (unit mm)*
G04 Created by KiCad (PCBNEW 7.0.9) date 2024-06-07 12:35:00*
%MOMM*%
%LPD*%
G01*
G04 APERTURE LIST*
G04 Aperture macros list*
%AMRoundRect*
0 Rectangle with rounded corners*
0 $1 Rounding radius*
0 $2 $3 $4 $5 $6 $7 $8 $9 X,Y pos of 4 corners*
0 Add a 4 corners polygon primitive as box body*
4,1,4,$2,$3,$4,$5,$6,$7,$8,$9,$2,$3,0*
0 Add four circle primitives for the rounded corners*
1,1,$1+$1,$2,$3*
1,1,$1+$1,$4,$5*
1,1,$1+$1,$6,$7*
1,1,$1+$1,$8,$9*
0 Add four rect primitives between the rounded corners*
20,1,$1+$1,$2,$3,$4,$5,0*
20,1,$1+$1,$4,$5,$6,$7,0*
20,1,$1+$1,$6,$7,$8,$9,0*
20,1,$1+$1,$8,$9,$2,$3,0*%
G04 Aperture macros list end*
%ADD10C,0.300000*%
%TA.AperFunction,NonConductor*%
%ADD11C,0.300000*%
%TD*%
%TA.AperFunction,ComponentPad*%
%ADD12C,1.803400*%
%TD*%
%TA.AperFunction,ComponentPad*%
%ADD13C,5.600000*%
%TD*%
%TA.AperFunction,ComponentPad*%
%ADD14R,2.000000X1.905000*%
%TD*%
%TA.AperFunction,ComponentPad*%
%ADD15O,2.000000X1.905000*%
%TD*%
%TA.AperFunction,SMDPad,CuDef*%
%ADD16RoundRect,0.237500X-0.250000X-0.237500X0.250000X-0.237500X0.250000X0.237500X-0.250000X0.237500X0*%
%TD*%
%TA.AperFunction,ComponentPad*%
%ADD17R,2.200000X2.200000*%
%TD*%
%TA.AperFunction,ComponentPad*%
%ADD18O,2.200000X2.200000*%
%TD*%
%TA.AperFunction,Conductor*%
%ADD19C,0.250000*%
%TD*%
G04 APERTURE END LIST*
D10*
D11*
X179712257Y-98576917D02*
X179712257Y-97862632D01*
X180140828Y-98719774D02*
X178640828Y-98219774D01*
X178640828Y-98219774D02*
X180140828Y-97719774D01*
X180140828Y-97219775D02*
X179140828Y-97219775D01*
X179426542Y-97219775D02*
X179283685Y-97148346D01*
X179283685Y-97148346D02*
X179212257Y-97076918D01*
X179212257Y-97076918D02*
X179140828Y-96934060D01*
X179140828Y-96934060D02*
X179140828Y-96791203D01*
X180140828Y-95648347D02*
X178640828Y-95648347D01*
X180069400Y-95648347D02*
X180140828Y-95791204D01*
X180140828Y-95791204D02*
X180140828Y-96076918D01*
X180140828Y-96076918D02*
X180069400Y-96219775D01*
X180069400Y-96219775D02*
X179997971Y-96291204D01*
X179997971Y-96291204D02*
X179855114Y-96362632D01*
X179855114Y-96362632D02*
X179426542Y-96362632D01*
X179426542Y-96362632D02*
X179283685Y-96291204D01*
X179283685Y-96291204D02*
X179212257Y-96219775D01*
X179212257Y-96219775D02*
X179140828Y-96076918D01*
X179140828Y-96076918D02*
X179140828Y-95791204D01*
X179140828Y-95791204D02*
X179212257Y-95648347D01*
X179140828Y-94291204D02*
X180140828Y-94291204D01*
X179140828Y-94934061D02*
X179926542Y-94934061D01*
X179926542Y-94934061D02*
X180069400Y-94862632D01*
X180069400Y-94862632D02*
X180140828Y-94719775D01*
X180140828Y-94719775D02*
X180140828Y-94505489D01*
X180140828Y-94505489D02*
X180069400Y-94362632D01*
X180069400Y-94362632D02*
X179997971Y-94291204D01*
X180140828Y-93576918D02*
X179140828Y-93576918D01*
X178640828Y-93576918D02*
X178712257Y-93648346D01*
X178712257Y-93648346D02*
X178783685Y-93576918D01*
X178783685Y-93576918D02*
X178712257Y-93505489D01*
X178712257Y-93505489D02*
X178640828Y-93576918D01*
X178640828Y-93576918D02*
X178783685Y-93576918D01*
X179140828Y-92862632D02*
X180140828Y-92862632D01*
X179283685Y-92862632D02*
X179212257Y-92791203D01*
X179212257Y-92791203D02*
X179140828Y-92648346D01*
X179140828Y-92648346D02*
X179140828Y-92434060D01*
X179140828Y-92434060D02*
X179212257Y-92291203D01*
X179212257Y-92291203D02*
X179355114Y-92219775D01*
X179355114Y-92219775D02*
X180140828Y-92219775D01*
X180140828Y-91291203D02*
X180069400Y-91434060D01*
X180069400Y-91434060D02*
X179997971Y-91505489D01*
X179997971Y-91505489D02*
X179855114Y-91576917D01*
X179855114Y-91576917D02*
X179426542Y-91576917D01*
X179426542Y-91576917D02*
X179283685Y-91505489D01*
X179283685Y-91505489D02*
X179212257Y-91434060D01*
X179212257Y-91434060D02*
X179140828Y-91291203D01*
X179140828Y-91291203D02*
X179140828Y-91076917D01*
X179140828Y-91076917D02*
X179212257Y-90934060D01*
X179212257Y-90934060D02*
X179283685Y-90862632D01*
X179283685Y-90862632D02*
X179426542Y-90791203D01*
X179426542Y-90791203D02*
X179855114Y-90791203D01*
X179855114Y-90791203D02*
X179997971Y-90862632D01*
X179997971Y-90862632D02*
X180069400Y-90934060D01*
X180069400Y-90934060D02*
X180140828Y-91076917D01*
X180140828Y-91076917D02*
X180140828Y-91291203D01*
X180069400Y-89076917D02*
X180140828Y-88934060D01*
X180140828Y-88934060D02*
X180140828Y-88648346D01*
X180140828Y-88648346D02*
X180069400Y-88505489D01*
X180069400Y-88505489D02*
X179926542Y-88434060D01*
X179926542Y-88434060D02*
X179855114Y-88434060D01*
X179855114Y-88434060D02*
X179712257Y-88505489D01*
X179712257Y-88505489D02*
X179640828Y-88648346D01*
X179640828Y-88648346D02*
X179640828Y-88862632D01*
X179640828Y-88862632D02*
X179569400Y-89005489D01*
X179569400Y-89005489D02*
X179426542Y-89076917D01*
X179426542Y-89076917D02*
X179355114Y-89076917D01*
X179355114Y-89076917D02*
X179212257Y-89005489D01*
X179212257Y-89005489D02*
X179140828Y-88862632D01*
X179140828Y-88862632D02*
X179140828Y-88648346D01*
X179140828Y-88648346D02*
X179212257Y-88505489D01*
X179140828Y-87148346D02*
X180140828Y-87148346D01*
X179140828Y-87791203D02*
X179926542Y-87791203D01*
X179926542Y-87791203D02*
X180069400Y-87719774D01*
X180069400Y-87719774D02*
X180140828Y-87576917D01*
X180140828Y-87576917D02*
X180140828Y-87362631D01*
X180140828Y-87362631D02*
X180069400Y-87219774D01*
X180069400Y-87219774D02*
X179997971Y-87148346D01*
X179140828Y-86434060D02*
X180640828Y-86434060D01*
X179212257Y-86434060D02*
X179140828Y-86291203D01*
X179140828Y-86291203D02*
X179140828Y-86005488D01*
X179140828Y-86005488D02*
X179212257Y-85862631D01*
X179212257Y-85862631D02*
X179283685Y-85791203D01*
X179283685Y-85791203D02*
X179426542Y-85719774D01*
X179426542Y-85719774D02*
X179855114Y-85719774D01*
X179855114Y-85719774D02*
X179997971Y-85791203D01*
X179997971Y-85791203D02*
X180069400Y-85862631D01*
X180069400Y-85862631D02*
X180140828Y-86005488D01*
X180140828Y-86005488D02*
X180140828Y-86291203D01*
X180140828Y-86291203D02*
X180069400Y-86434060D01*
X179140828Y-85076917D02*
X180640828Y-85076917D01*
X179212257Y-85076917D02*
X179140828Y-84934060D01*
X179140828Y-84934060D02*
X179140828Y-84648345D01*
X179140828Y-84648345D02*
X179212257Y-84505488D01*
X179212257Y-84505488D02*
X179283685Y-84434060D01*
X179283685Y-84434060D02*
X179426542Y-84362631D01*
X179426542Y-84362631D02*
X179855114Y-84362631D01*
X179855114Y-84362631D02*
X179997971Y-84434060D01*
X179997971Y-84434060D02*
X180069400Y-84505488D01*
X180069400Y-84505488D02*
X180140828Y-84648345D01*
X180140828Y-84648345D02*
X180140828Y-84934060D01*
X180140828Y-84934060D02*
X180069400Y-85076917D01*
X180140828Y-83505488D02*
X180069400Y-83648345D01*
X180069400Y-83648345D02*
X179926542Y-83719774D01*
X179926542Y-83719774D02*
X178640828Y-83719774D01*
X179140828Y-83076917D02*
X180140828Y-82719774D01*
X179140828Y-82362631D02*
X180140828Y-82719774D01*
X180140828Y-82719774D02*
X180497971Y-82862631D01*
X180497971Y-82862631D02*
X180569400Y-82934060D01*
X180569400Y-82934060D02*
X180640828Y-83076917D01*
D10*
D11*
X157963082Y-121649400D02*
X158177368Y-121720828D01*
X158177368Y-121720828D02*
X158534510Y-121720828D01*
X158534510Y-121720828D02*
X158677368Y-121649400D01*
X158677368Y-121649400D02*
X158748796Y-121577971D01*
X158748796Y-121577971D02*
X158820225Y-121435114D01*
X158820225Y-121435114D02*
X158820225Y-121292257D01*
X158820225Y-121292257D02*
X158748796Y-121149400D01*
X158748796Y-121149400D02*
X158677368Y-121077971D01*
X158677368Y-121077971D02*
X158534510Y-121006542D01*
X158534510Y-121006542D02*
X158248796Y-120935114D01*
X158248796Y-120935114D02*
X158105939Y-120863685D01*
X158105939Y-120863685D02*
X158034510Y-120792257D01*
X158034510Y-120792257D02*
X157963082Y-120649400D01*
X157963082Y-120649400D02*
X157963082Y-120506542D01*
X157963082Y-120506542D02*
X158034510Y-120363685D01*
X158034510Y-120363685D02*
X158105939Y-120292257D01*
X158105939Y-120292257D02*
X158248796Y-120220828D01*
X158248796Y-120220828D02*
X158605939Y-120220828D01*
X158605939Y-120220828D02*
X158820225Y-120292257D01*
X160034510Y-121649400D02*
X159891653Y-121720828D01*
X159891653Y-121720828D02*
X159605939Y-121720828D01*
X159605939Y-121720828D02*
X159463081Y-121649400D01*
X159463081Y-121649400D02*
X159391653Y-121506542D01*
X159391653Y-121506542D02*
X159391653Y-120935114D01*
X159391653Y-120935114D02*
X159463081Y-120792257D01*
X159463081Y-120792257D02*
X159605939Y-120720828D01*
X159605939Y-120720828D02*
X159891653Y-120720828D01*
X159891653Y-120720828D02*
X160034510Y-120792257D01*
X160034510Y-120792257D02*
X160105939Y-120935114D01*
X160105939Y-120935114D02*
X160105939Y-121077971D01*
X160105939Y-121077971D02*
X159391653Y-121220828D01*
X160748795Y-121720828D02*
X160748795Y-120720828D01*
X160748795Y-121006542D02*
X160820224Y-120863685D01*
X160820224Y-120863685D02*
X160891653Y-120792257D01*
X160891653Y-120792257D02*
X161034510Y-120720828D01*
X161034510Y-120720828D02*
X161177367Y-120720828D01*
X161534509Y-120720828D02*
X161891652Y-121720828D01*
X161891652Y-121720828D02*
X162248795Y-120720828D01*
X163034509Y-121720828D02*
X162891652Y-121649400D01*
X162891652Y-121649400D02*
X162820223Y-121577971D01*
X162820223Y-121577971D02*
X162748795Y-121435114D01*
X162748795Y-121435114D02*
X162748795Y-121006542D01*
X162748795Y-121006542D02*
X162820223Y-120863685D01*
X162820223Y-120863685D02*
X162891652Y-120792257D01*
X162891652Y-120792257D02*
X163034509Y-120720828D01*
X163034509Y-120720828D02*
X163248795Y-120720828D01*
X163248795Y-120720828D02*
X163391652Y-120792257D01*
X163391652Y-120792257D02*
X163463081Y-120863685D01*
X163463081Y-120863685D02*
X163534509Y-121006542D01*
X163534509Y-121006542D02*
X163534509Y-121435114D01*
X163534509Y-121435114D02*
X163463081Y-121577971D01*
X163463081Y-121577971D02*
X163391652Y-121649400D01*
X163391652Y-121649400D02*
X163248795Y-121720828D01*
X163248795Y-121720828D02*
X163034509Y-121720828D01*
X165963081Y-121649400D02*
X165820223Y-121720828D01*
X165820223Y-121720828D02*
X165534509Y-121720828D01*
X165534509Y-121720828D02*
X165391652Y-121649400D01*
X165391652Y-121649400D02*
X165320223Y-121577971D01*
X165320223Y-121577971D02*
X165248795Y-121435114D01*
X165248795Y-121435114D02*
X165248795Y-121006542D01*
X165248795Y-121006542D02*
X165320223Y-120863685D01*
X165320223Y-120863685D02*
X165391652Y-120792257D01*
X165391652Y-120792257D02*
X165534509Y-120720828D01*
X165534509Y-120720828D02*
X165820223Y-120720828D01*
X165820223Y-120720828D02*
X165963081Y-120792257D01*
X166820223Y-121720828D02*
X166677366Y-121649400D01*
X166677366Y-121649400D02*
X166605937Y-121577971D01*
X166605937Y-121577971D02*
X166534509Y-121435114D01*
X166534509Y-121435114D02*
X166534509Y-121006542D01*
X166534509Y-121006542D02*
X166605937Y-120863685D01*
X166605937Y-120863685D02*
X166677366Y-120792257D01*
X166677366Y-120792257D02*
X166820223Y-120720828D01*
X166820223Y-120720828D02*
X167034509Y-120720828D01*
X167034509Y-120720828D02*
X167177366Y-120792257D01*
X167177366Y-120792257D02*
X167248795Y-120863685D01*
X167248795Y-120863685D02*
X167320223Y-121006542D01*
X167320223Y-121006542D02*
X167320223Y-121435114D01*
X167320223Y-121435114D02*
X167248795Y-121577971D01*
X167248795Y-121577971D02*
X167177366Y-121649400D01*
X167177366Y-121649400D02*
X167034509Y-121720828D01*
X167034509Y-121720828D02*
X166820223Y-121720828D01*
X167963080Y-120720828D02*
X167963080Y-121720828D01*
X167963080Y-120863685D02*
X168034509Y-120792257D01*
X168034509Y-120792257D02*
X168177366Y-120720828D01*
X168177366Y-120720828D02*
X168391652Y-120720828D01*
X168391652Y-120720828D02*
X168534509Y-120792257D01*
X168534509Y-120792257D02*
X168605938Y-120935114D01*
X168605938Y-120935114D02*
X168605938Y-121720828D01*
X169105938Y-120720828D02*
X169677366Y-120720828D01*
X169320223Y-120220828D02*
X169320223Y-121506542D01*
X169320223Y-121506542D02*
X169391652Y-121649400D01*
X169391652Y-121649400D02*
X169534509Y-121720828D01*
X169534509Y-121720828D02*
X169677366Y-121720828D01*
X170177366Y-121720828D02*
X170177366Y-120720828D01*
X170177366Y-121006542D02*
X170248795Y-120863685D01*
X170248795Y-120863685D02*
X170320224Y-120792257D01*
X170320224Y-120792257D02*
X170463081Y-120720828D01*
X170463081Y-120720828D02*
X170605938Y-120720828D01*
X171320223Y-121720828D02*
X171177366Y-121649400D01*
X171177366Y-121649400D02*
X171105937Y-121577971D01*
X171105937Y-121577971D02*
X171034509Y-121435114D01*
X171034509Y-121435114D02*
X171034509Y-121006542D01*
X171034509Y-121006542D02*
X171105937Y-120863685D01*
X171105937Y-120863685D02*
X171177366Y-120792257D01*
X171177366Y-120792257D02*
X171320223Y-120720828D01*
X171320223Y-120720828D02*
X171534509Y-120720828D01*
X171534509Y-120720828D02*
X171677366Y-120792257D01*
X171677366Y-120792257D02*
X171748795Y-120863685D01*
X171748795Y-120863685D02*
X171820223Y-121006542D01*
X171820223Y-121006542D02*
X171820223Y-121435114D01*
X171820223Y-121435114D02*
X171748795Y-121577971D01*
X171748795Y-121577971D02*
X171677366Y-121649400D01*
X171677366Y-121649400D02*
X171534509Y-121720828D01*
X171534509Y-121720828D02*
X171320223Y-121720828D01*
X172677366Y-121720828D02*
X172534509Y-121649400D01*
X172534509Y-121649400D02*
X172463080Y-121506542D01*
X172463080Y-121506542D02*
X172463080Y-120220828D01*
D10*
D11*
X157068346Y-80439171D02*
X156068346Y-80439171D01*
X156068346Y-80439171D02*
X156711203Y-78939171D01*
X155425489Y-79010600D02*
X155425489Y-78939171D01*
X155425489Y-78939171D02*
X155496918Y-78796314D01*
X155496918Y-78796314D02*
X155568346Y-78724885D01*
X154854060Y-80296314D02*
X154782632Y-80367742D01*
X154782632Y-80367742D02*
X154639775Y-80439171D01*
X154639775Y-80439171D02*
X154282632Y-80439171D01*
X154282632Y-80439171D02*
X154139775Y-80367742D01*
X154139775Y-80367742D02*
X154068346Y-80296314D01*
X154068346Y-80296314D02*
X153996917Y-80153457D01*
X153996917Y-80153457D02*
X153996917Y-80010600D01*
X153996917Y-80010600D02*
X154068346Y-79796314D01*
X154068346Y-79796314D02*
X154925489Y-78939171D01*
X154925489Y-78939171D02*
X153996917Y-78939171D01*
X153568346Y-80439171D02*
X153068346Y-78939171D01*
X153068346Y-78939171D02*
X152568346Y-80439171D01*
D10*
D11*
X147519171Y-89454510D02*
X149019171Y-89454510D01*
X149019171Y-89454510D02*
X147947742Y-89954510D01*
X147947742Y-89954510D02*
X149019171Y-90454510D01*
X149019171Y-90454510D02*
X147519171Y-90454510D01*
X147519171Y-91383082D02*
X147590600Y-91240225D01*
X147590600Y-91240225D02*
X147662028Y-91168796D01*
X147662028Y-91168796D02*
X147804885Y-91097368D01*
X147804885Y-91097368D02*
X148233457Y-91097368D01*
X148233457Y-91097368D02*
X148376314Y-91168796D01*
X148376314Y-91168796D02*
X148447742Y-91240225D01*
X148447742Y-91240225D02*
X148519171Y-91383082D01*
X148519171Y-91383082D02*
X148519171Y-91597368D01*
X148519171Y-91597368D02*
X148447742Y-91740225D01*
X148447742Y-91740225D02*
X148376314Y-91811654D01*
X148376314Y-91811654D02*
X148233457Y-91883082D01*
X148233457Y-91883082D02*
X147804885Y-91883082D01*
X147804885Y-91883082D02*
X147662028Y-91811654D01*
X147662028Y-91811654D02*
X147590600Y-91740225D01*
X147590600Y-91740225D02*
X147519171Y-91597368D01*
X147519171Y-91597368D02*
X147519171Y-91383082D01*
X148519171Y-92311654D02*
X148519171Y-92883082D01*
X149019171Y-92525939D02*
X147733457Y-92525939D01*
X147733457Y-92525939D02*
X147590600Y-92597368D01*
X147590600Y-92597368D02*
X147519171Y-92740225D01*
X147519171Y-92740225D02*
X147519171Y-92883082D01*
X147519171Y-93597368D02*
X147590600Y-93454511D01*
X147590600Y-93454511D02*
X147662028Y-93383082D01*
X147662028Y-93383082D02*
X147804885Y-93311654D01*
X147804885Y-93311654D02*
X148233457Y-93311654D01*
X148233457Y-93311654D02*
X148376314Y-93383082D01*
X148376314Y-93383082D02*
X148447742Y-93454511D01*
X148447742Y-93454511D02*
X148519171Y-93597368D01*
X148519171Y-93597368D02*
X148519171Y-93811654D01*
X148519171Y-93811654D02*
X148447742Y-93954511D01*
X148447742Y-93954511D02*
X148376314Y-94025940D01*
X148376314Y-94025940D02*
X148233457Y-94097368D01*
X148233457Y-94097368D02*
X147804885Y-94097368D01*
X147804885Y-94097368D02*
X147662028Y-94025940D01*
X147662028Y-94025940D02*
X147590600Y-93954511D01*
X147590600Y-93954511D02*
X147519171Y-93811654D01*
X147519171Y-93811654D02*
X147519171Y-93597368D01*
X147519171Y-94740225D02*
X148519171Y-94740225D01*
X148233457Y-94740225D02*
X148376314Y-94811654D01*
X148376314Y-94811654D02*
X148447742Y-94883083D01*
X148447742Y-94883083D02*
X148519171Y-95025940D01*
X148519171Y-95025940D02*
X148519171Y-95168797D01*
X147590600Y-96740225D02*
X147519171Y-96883082D01*
X147519171Y-96883082D02*
X147519171Y-97168796D01*
X147519171Y-97168796D02*
X147590600Y-97311653D01*
X147590600Y-97311653D02*
X147733457Y-97383082D01*
X147733457Y-97383082D02*
X147804885Y-97383082D01*
X147804885Y-97383082D02*
X147947742Y-97311653D01*
X147947742Y-97311653D02*
X148019171Y-97168796D01*
X148019171Y-97168796D02*
X148019171Y-96954511D01*
X148019171Y-96954511D02*
X148090600Y-96811653D01*
X148090600Y-96811653D02*
X148233457Y-96740225D01*
X148233457Y-96740225D02*
X148304885Y-96740225D01*
X148304885Y-96740225D02*
X148447742Y-96811653D01*
X148447742Y-96811653D02*
X148519171Y-96954511D01*
X148519171Y-96954511D02*
X148519171Y-97168796D01*
X148519171Y-97168796D02*
X148447742Y-97311653D01*
X148519171Y-98668797D02*
X147519171Y-98668797D01*
X148519171Y-98025939D02*
X147733457Y-98025939D01*
X147733457Y-98025939D02*
X147590600Y-98097368D01*
X147590600Y-98097368D02*
X147519171Y-98240225D01*
X147519171Y-98240225D02*
X147519171Y-98454511D01*
X147519171Y-98454511D02*
X147590600Y-98597368D01*
X147590600Y-98597368D02*
X147662028Y-98668797D01*
X148519171Y-99383082D02*
X147019171Y-99383082D01*
X148447742Y-99383082D02*
X148519171Y-99525940D01*
X148519171Y-99525940D02*
X148519171Y-99811654D01*
X148519171Y-99811654D02*
X148447742Y-99954511D01*
X148447742Y-99954511D02*
X148376314Y-100025940D01*
X148376314Y-100025940D02*
X148233457Y-100097368D01*
X148233457Y-100097368D02*
X147804885Y-100097368D01*
X147804885Y-100097368D02*
X147662028Y-100025940D01*
X147662028Y-100025940D02*
X147590600Y-99954511D01*
X147590600Y-99954511D02*
X147519171Y-99811654D01*
X147519171Y-99811654D02*
X147519171Y-99525940D01*
X147519171Y-99525940D02*
X147590600Y-99383082D01*
X148519171Y-100740225D02*
X147019171Y-100740225D01*
X148447742Y-100740225D02*
X148519171Y-100883083D01*
X148519171Y-100883083D02*
X148519171Y-101168797D01*
X148519171Y-101168797D02*
X148447742Y-101311654D01*
X148447742Y-101311654D02*
X148376314Y-101383083D01*
X148376314Y-101383083D02*
X148233457Y-101454511D01*
X148233457Y-101454511D02*
X147804885Y-101454511D01*
X147804885Y-101454511D02*
X147662028Y-101383083D01*
X147662028Y-101383083D02*
X147590600Y-101311654D01*
X147590600Y-101311654D02*
X147519171Y-101168797D01*
X147519171Y-101168797D02*
X147519171Y-100883083D01*
X147519171Y-100883083D02*
X147590600Y-100740225D01*
X147519171Y-102311654D02*
X147590600Y-102168797D01*
X147590600Y-102168797D02*
X147733457Y-102097368D01*
X147733457Y-102097368D02*
X149019171Y-102097368D01*
X148519171Y-102740225D02*
X147519171Y-103097368D01*
X148519171Y-103454511D02*
X147519171Y-103097368D01*
X147519171Y-103097368D02*
X147162028Y-102954511D01*
X147162028Y-102954511D02*
X147090600Y-102883082D01*
X147090600Y-102883082D02*
X147019171Y-102740225D01*
D10*
D11*
X177388346Y-80439171D02*
X176388346Y-80439171D01*
X176388346Y-80439171D02*
X177031203Y-78939171D01*
X175745489Y-79010600D02*
X175745489Y-78939171D01*
X175745489Y-78939171D02*
X175816918Y-78796314D01*
X175816918Y-78796314D02*
X175888346Y-78724885D01*
X175174060Y-80296314D02*
X175102632Y-80367742D01*
X175102632Y-80367742D02*
X174959775Y-80439171D01*
X174959775Y-80439171D02*
X174602632Y-80439171D01*
X174602632Y-80439171D02*
X174459775Y-80367742D01*
X174459775Y-80367742D02*
X174388346Y-80296314D01*
X174388346Y-80296314D02*
X174316917Y-80153457D01*
X174316917Y-80153457D02*
X174316917Y-80010600D01*
X174316917Y-80010600D02*
X174388346Y-79796314D01*
X174388346Y-79796314D02*
X175245489Y-78939171D01*
X175245489Y-78939171D02*
X174316917Y-78939171D01*
X173888346Y-80439171D02*
X173388346Y-78939171D01*
X173388346Y-78939171D02*
X172888346Y-80439171D01*
D10*
D11*
X180069400Y-116356917D02*
X180140828Y-116142632D01*
X180140828Y-116142632D02*
X180140828Y-115785489D01*
X180140828Y-115785489D02*
X180069400Y-115642632D01*
X180069400Y-115642632D02*
X179997971Y-115571203D01*
X179997971Y-115571203D02*
X179855114Y-115499774D01*
X179855114Y-115499774D02*
X179712257Y-115499774D01*
X179712257Y-115499774D02*
X179569400Y-115571203D01*
X179569400Y-115571203D02*
X179497971Y-115642632D01*
X179497971Y-115642632D02*
X179426542Y-115785489D01*
X179426542Y-115785489D02*
X179355114Y-116071203D01*
X179355114Y-116071203D02*
X179283685Y-116214060D01*
X179283685Y-116214060D02*
X179212257Y-116285489D01*
X179212257Y-116285489D02*
X179069400Y-116356917D01*
X179069400Y-116356917D02*
X178926542Y-116356917D01*
X178926542Y-116356917D02*
X178783685Y-116285489D01*
X178783685Y-116285489D02*
X178712257Y-116214060D01*
X178712257Y-116214060D02*
X178640828Y-116071203D01*
X178640828Y-116071203D02*
X178640828Y-115714060D01*
X178640828Y-115714060D02*
X178712257Y-115499774D01*
X180069400Y-114285489D02*
X180140828Y-114428346D01*
X180140828Y-114428346D02*
X180140828Y-114714061D01*
X180140828Y-114714061D02*
X180069400Y-114856918D01*
X180069400Y-114856918D02*
X179926542Y-114928346D01*
X179926542Y-114928346D02*
X179355114Y-114928346D01*
X179355114Y-114928346D02*
X179212257Y-114856918D01*
X179212257Y-114856918D02*
X179140828Y-114714061D01*
X179140828Y-114714061D02*
X179140828Y-114428346D01*
X179140828Y-114428346D02*
X179212257Y-114285489D01*
X179212257Y-114285489D02*
X179355114Y-114214061D01*
X179355114Y-114214061D02*
X179497971Y-114214061D01*
X179497971Y-114214061D02*
X179640828Y-114928346D01*
X180140828Y-113571204D02*
X179140828Y-113571204D01*
X179426542Y-113571204D02*
X179283685Y-113499775D01*
X179283685Y-113499775D02*
X179212257Y-113428347D01*
X179212257Y-113428347D02*
X179140828Y-113285489D01*
X179140828Y-113285489D02*
X179140828Y-113142632D01*
X179140828Y-112785490D02*
X180140828Y-112428347D01*
X180140828Y-112428347D02*
X179140828Y-112071204D01*
X180140828Y-111285490D02*
X180069400Y-111428347D01*
X180069400Y-111428347D02*
X179997971Y-111499776D01*
X179997971Y-111499776D02*
X179855114Y-111571204D01*
X179855114Y-111571204D02*
X179426542Y-111571204D01*
X179426542Y-111571204D02*
X179283685Y-111499776D01*
X179283685Y-111499776D02*
X179212257Y-111428347D01*
X179212257Y-111428347D02*
X179140828Y-111285490D01*
X179140828Y-111285490D02*
X179140828Y-111071204D01*
X179140828Y-111071204D02*
X179212257Y-110928347D01*
X179212257Y-110928347D02*
X179283685Y-110856919D01*
X179283685Y-110856919D02*
X179426542Y-110785490D01*
X179426542Y-110785490D02*
X179855114Y-110785490D01*
X179855114Y-110785490D02*
X179997971Y-110856919D01*
X179997971Y-110856919D02*
X180069400Y-110928347D01*
X180069400Y-110928347D02*
X180140828Y-111071204D01*
X180140828Y-111071204D02*
X180140828Y-111285490D01*
X180069400Y-109071204D02*
X180140828Y-108928347D01*
X180140828Y-108928347D02*
X180140828Y-108642633D01*
X180140828Y-108642633D02*
X180069400Y-108499776D01*
X180069400Y-108499776D02*
X179926542Y-108428347D01*
X179926542Y-108428347D02*
X179855114Y-108428347D01*
X179855114Y-108428347D02*
X179712257Y-108499776D01*
X179712257Y-108499776D02*
X179640828Y-108642633D01*
X179640828Y-108642633D02*
X179640828Y-108856919D01*
X179640828Y-108856919D02*
X179569400Y-108999776D01*
X179569400Y-108999776D02*
X179426542Y-109071204D01*
X179426542Y-109071204D02*
X179355114Y-109071204D01*
X179355114Y-109071204D02*
X179212257Y-108999776D01*
X179212257Y-108999776D02*
X179140828Y-108856919D01*
X179140828Y-108856919D02*
X179140828Y-108642633D01*
X179140828Y-108642633D02*
X179212257Y-108499776D01*
X179140828Y-107142633D02*
X180140828Y-107142633D01*
X179140828Y-107785490D02*
X179926542Y-107785490D01*
X179926542Y-107785490D02*
X180069400Y-107714061D01*
X180069400Y-107714061D02*
X180140828Y-107571204D01*
X180140828Y-107571204D02*
X180140828Y-107356918D01*
X180140828Y-107356918D02*
X180069400Y-107214061D01*
X180069400Y-107214061D02*
X179997971Y-107142633D01*
X179140828Y-106428347D02*
X180640828Y-106428347D01*
X179212257Y-106428347D02*
X179140828Y-106285490D01*
X179140828Y-106285490D02*
X179140828Y-105999775D01*
X179140828Y-105999775D02*
X179212257Y-105856918D01*
X179212257Y-105856918D02*
X179283685Y-105785490D01*
X179283685Y-105785490D02*
X179426542Y-105714061D01*
X179426542Y-105714061D02*
X179855114Y-105714061D01*
X179855114Y-105714061D02*
X179997971Y-105785490D01*
X179997971Y-105785490D02*
X180069400Y-105856918D01*
X180069400Y-105856918D02*
X180140828Y-105999775D01*
X180140828Y-105999775D02*
X180140828Y-106285490D01*
X180140828Y-106285490D02*
X180069400Y-106428347D01*
X179140828Y-105071204D02*
X180640828Y-105071204D01*
X179212257Y-105071204D02*
X179140828Y-104928347D01*
X179140828Y-104928347D02*
X179140828Y-104642632D01*
X179140828Y-104642632D02*
X179212257Y-104499775D01*
X179212257Y-104499775D02*
X179283685Y-104428347D01*
X179283685Y-104428347D02*
X179426542Y-104356918D01*
X179426542Y-104356918D02*
X179855114Y-104356918D01*
X179855114Y-104356918D02*
X179997971Y-104428347D01*
X179997971Y-104428347D02*
X180069400Y-104499775D01*
X180069400Y-104499775D02*
X180140828Y-104642632D01*
X180140828Y-104642632D02*
X180140828Y-104928347D01*
X180140828Y-104928347D02*
X180069400Y-105071204D01*
X180140828Y-103499775D02*
X180069400Y-103642632D01*
X180069400Y-103642632D02*
X179926542Y-103714061D01*
X179926542Y-103714061D02*
X178640828Y-103714061D01*
X179140828Y-103071204D02*
X180140828Y-102714061D01*
X179140828Y-102356918D02*
X180140828Y-102714061D01*
X180140828Y-102714061D02*
X180497971Y-102856918D01*
X180497971Y-102856918D02*
X180569400Y-102928347D01*
X180569400Y-102928347D02*
X180640828Y-103071204D01*
D10*
D11*
X147519171Y-112314510D02*
X149019171Y-112314510D01*
X149019171Y-112314510D02*
X149019171Y-112885939D01*
X149019171Y-112885939D02*
X148947742Y-113028796D01*
X148947742Y-113028796D02*
X148876314Y-113100225D01*
X148876314Y-113100225D02*
X148733457Y-113171653D01*
X148733457Y-113171653D02*
X148519171Y-113171653D01*
X148519171Y-113171653D02*
X148376314Y-113100225D01*
X148376314Y-113100225D02*
X148304885Y-113028796D01*
X148304885Y-113028796D02*
X148233457Y-112885939D01*
X148233457Y-112885939D02*
X148233457Y-112314510D01*
X149019171Y-113671653D02*
X147519171Y-114028796D01*
X147519171Y-114028796D02*
X148590600Y-114314510D01*
X148590600Y-114314510D02*
X147519171Y-114600225D01*
X147519171Y-114600225D02*
X149019171Y-114957368D01*
X147519171Y-115528796D02*
X149019171Y-115528796D01*
X149019171Y-115528796D02*
X147947742Y-116028796D01*
X147947742Y-116028796D02*
X149019171Y-116528796D01*
X149019171Y-116528796D02*
X147519171Y-116528796D01*
D12*
%TO.P,J7,1,Pin_1*%
%TO.N,+7.5V*%
X157560000Y-73660000D03*
%TO.P,J7,2,Pin_2*%
%TO.N,GND*%
X152560000Y-73660000D03*
%TD*%
D13*
%TO.P,H3,1,1*%
%TO.N,GND*%
X142240000Y-71120000D03*
%TD*%
%TO.P,H1,1,1*%
%TO.N,GND*%
X142240000Y-127000000D03*
%TD*%
D14*
%TO.P,Q1,1,G*%
%TO.N,Net-(J1-Pin_1)*%
X163945000Y-103540000D03*
D15*
%TO.P,Q1,2,D*%
%TO.N,Net-(D1-A)*%
X163945000Y-101000000D03*
%TO.P,Q1,3,S*%
%TO.N,GND*%
X163945000Y-98460000D03*
%TD*%
D12*
%TO.P,J4,1,Pin_1*%
%TO.N,+8V*%
X185420000Y-93900000D03*
%TO.P,J4,2,Pin_2*%
%TO.N,GND*%
X185420000Y-88900000D03*
%TD*%
D16*
%TO.P,R1,1*%
%TO.N,Net-(J1-Pin_1)*%
X164087500Y-110000000D03*
%TO.P,R1,2*%
%TO.N,GND*%
X165912500Y-110000000D03*
%TD*%
D12*
%TO.P,J2,1,Pin_1*%
%TO.N,+7.5V*%
X142240000Y-93980000D03*
%TO.P,J2,2,Pin_2*%
%TO.N,Net-(D1-A)*%
X142240000Y-98980000D03*
%TD*%
%TO.P,J1,1,Pin_1*%
%TO.N,Net-(J1-Pin_1)*%
X142240000Y-111840000D03*
%TO.P,J1,2,Pin_2*%
%TO.N,GND*%
X142240000Y-116840000D03*
%TD*%
D13*
%TO.P,H4,1,1*%
%TO.N,GND*%
X187960000Y-71120000D03*
%TD*%
%TO.P,H2,1,1*%
%TO.N,GND*%
X187960000Y-127000000D03*
%TD*%
D12*
%TO.P,J5,1,Pin_1*%
%TO.N,Net-(J5-Pin_1)*%
X170260000Y-127000000D03*
%TO.P,J5,2,Pin_2*%
%TO.N,Net-(J5-Pin_2)*%
X175260000Y-127000000D03*
%TD*%
%TO.P,J6,1,Pin_1*%
%TO.N,Net-(J5-Pin_2)*%
X155020000Y-127000000D03*
%TO.P,J6,2,Pin_2*%
%TO.N,Net-(J5-Pin_1)*%
X160020000Y-127000000D03*
%TD*%
%TO.P,J3,1,Pin_1*%
%TO.N,+8V*%
X185420000Y-111760000D03*
%TO.P,J3,2,Pin_2*%
%TO.N,GND*%
X185420000Y-106760000D03*
%TD*%
%TO.P,J8,1,Pin_1*%
%TO.N,+8V*%
X177800000Y-73660000D03*
%TO.P,J8,2,Pin_2*%
%TO.N,GND*%
X172800000Y-73660000D03*
%TD*%
D17*
%TO.P,D1,1,K*%
%TO.N,+7.5V*%
X152400000Y-91440000D03*
D18*
%TO.P,D1,2,A*%
%TO.N,Net-(D1-A)*%
X152400000Y-101600000D03*
%TD*%
D19*
%TO.N,Net-(J1-Pin_1)*%
X163945000Y-109945000D02*
X164000000Y-110000000D01*
X163945000Y-103540000D02*
X163945000Y-109945000D01*
X144080000Y-110000000D02*
X164000000Y-110000000D01*
X142240000Y-111840000D02*
X144080000Y-110000000D01*
%TD*%
%TA.AperFunction,Conductor*%
%TO.N,GND*%
G36*
X190501737Y-66040598D02*
G01*
X190535041Y-66042467D01*
X190615603Y-66046992D01*
X190787691Y-66057401D01*
X190794297Y-66058160D01*
X190865907Y-66070327D01*
X190930343Y-66081277D01*
X191023462Y-66098340D01*
X191079227Y-66108560D01*
X191085198Y-66109963D01*
X191222032Y-66149384D01*
X191362850Y-66193265D01*
X191368092Y-66195164D01*
X191501420Y-66250391D01*
X191634609Y-66310334D01*
X191639147Y-66312605D01*
X191712221Y-66352991D01*
X191766422Y-66382947D01*
X191766439Y-66382956D01*
X191890935Y-66458217D01*
X191894739Y-66460711D01*
X192012726Y-66544427D01*
X192015072Y-66546176D01*
X192110416Y-66620874D01*
X192128332Y-66634910D01*
X192131409Y-66637486D01*
X192239430Y-66734018D01*
X192241957Y-66736408D01*
X192343590Y-66838041D01*
X192345980Y-66840568D01*
X192442512Y-66948589D01*
X192445088Y-66951666D01*
X192533811Y-67064912D01*
X192535571Y-67067272D01*
X192619287Y-67185259D01*
X192621781Y-67189063D01*
X192697043Y-67313560D01*
X192767393Y-67440851D01*
X192769668Y-67445398D01*
X192829609Y-67578581D01*
X192884831Y-67711899D01*
X192886744Y-67717183D01*
X192909633Y-67790634D01*
X192930631Y-67858021D01*
X192970032Y-67994790D01*
X192971440Y-68000781D01*
X192998722Y-68149656D01*
X193021835Y-68285683D01*
X193022599Y-68292330D01*
X193033012Y-68464475D01*
X193039402Y-68578263D01*
X193039500Y-68581741D01*
X193039500Y-129538258D01*
X193039402Y-129541736D01*
X193033012Y-129655524D01*
X193022599Y-129827668D01*
X193021835Y-129834315D01*
X192998722Y-129970343D01*
X192971440Y-130119217D01*
X192970032Y-130125208D01*
X192930625Y-130262001D01*
X192886744Y-130402815D01*
X192884831Y-130408099D01*
X192829609Y-130541418D01*
X192769668Y-130674600D01*
X192767394Y-130679147D01*
X192697043Y-130806439D01*
X192621781Y-130930936D01*
X192619287Y-130934739D01*
X192535571Y-131052726D01*
X192533811Y-131055086D01*
X192445088Y-131168332D01*
X192442512Y-131171409D01*
X192345980Y-131279430D01*
X192343590Y-131281957D01*
X192241957Y-131383590D01*
X192239430Y-131385980D01*
X192131409Y-131482512D01*
X192128332Y-131485088D01*
X192015086Y-131573811D01*
X192012726Y-131575571D01*
X191894739Y-131659287D01*
X191890936Y-131661781D01*
X191766439Y-131737043D01*
X191639147Y-131807394D01*
X191634600Y-131809668D01*
X191501418Y-131869609D01*
X191368099Y-131924831D01*
X191362815Y-131926744D01*
X191245231Y-131963385D01*
X191221990Y-131970627D01*
X191085208Y-132010032D01*
X191079217Y-132011440D01*
X190930343Y-132038722D01*
X190794315Y-132061835D01*
X190787668Y-132062599D01*
X190615524Y-132073012D01*
X190501736Y-132079402D01*
X190498258Y-132079500D01*
X139701742Y-132079500D01*
X139698265Y-132079402D01*
X139584475Y-132073012D01*
X139412330Y-132062599D01*
X139405683Y-132061835D01*
X139269656Y-132038722D01*
X139120781Y-132011440D01*
X139114790Y-132010032D01*
X138978021Y-131970631D01*
X138910634Y-131949633D01*
X138837183Y-131926744D01*
X138831899Y-131924831D01*
X138698581Y-131869609D01*
X138565398Y-131809668D01*
X138560851Y-131807393D01*
X138433560Y-131737043D01*
X138309063Y-131661781D01*
X138305259Y-131659287D01*
X138187272Y-131575571D01*
X138184912Y-131573811D01*
X138071666Y-131485088D01*
X138068589Y-131482512D01*
X137960568Y-131385980D01*
X137958041Y-131383590D01*
X137856408Y-131281957D01*
X137854018Y-131279430D01*
X137757486Y-131171409D01*
X137754910Y-131168332D01*
X137740874Y-131150416D01*
X137666176Y-131055072D01*
X137664427Y-131052726D01*
X137580711Y-130934739D01*
X137578217Y-130930935D01*
X137502956Y-130806439D01*
X137432605Y-130679147D01*
X137430330Y-130674600D01*
X137370390Y-130541418D01*
X137315167Y-130408099D01*
X137313265Y-130402850D01*
X137269375Y-130262001D01*
X137229963Y-130125198D01*
X137228560Y-130119227D01*
X137218340Y-130063462D01*
X137201277Y-129970343D01*
X137190327Y-129905907D01*
X137178160Y-129834297D01*
X137177401Y-129827691D01*
X137166992Y-129655603D01*
X137162626Y-129577867D01*
X137160598Y-129541736D01*
X137160500Y-129538259D01*
X137160500Y-127000002D01*
X138935153Y-127000002D01*
X138954526Y-127357314D01*
X138954527Y-127357331D01*
X139012415Y-127710431D01*
X139012421Y-127710457D01*
X139108147Y-128055232D01*
X139108149Y-128055239D01*
X139240597Y-128387659D01*
X139240606Y-128387677D01*
X139408218Y-128703827D01*
X139609033Y-129000007D01*
X139736441Y-129150003D01*
X139736442Y-129150004D01*
X140942266Y-127944180D01*
X141105130Y-128134870D01*
X141295818Y-128297732D01*
X140087255Y-129506295D01*
X140087256Y-129506296D01*
X140100485Y-129518828D01*
X140100486Y-129518829D01*
X140385367Y-129735388D01*
X140385370Y-129735390D01*
X140691990Y-129919876D01*
X141016739Y-130070122D01*
X141016744Y-130070123D01*
X141355855Y-130184383D01*
X141705339Y-130261311D01*
X142061075Y-130299999D01*
X142061085Y-130300000D01*
X142418915Y-130300000D01*
X142418924Y-130299999D01*
X142774660Y-130261311D01*
X143124144Y-130184383D01*
X143463255Y-130070123D01*
X143463260Y-130070122D01*
X143788009Y-129919876D01*
X144094629Y-129735390D01*
X144094632Y-129735388D01*
X144379504Y-129518836D01*
X144392742Y-129506294D01*
X143184180Y-128297733D01*
X143374870Y-128134870D01*
X143537733Y-127944180D01*
X144743556Y-129150003D01*
X144870964Y-129000008D01*
X144870975Y-128999994D01*
X145071781Y-128703827D01*
X145239393Y-128387677D01*
X145239402Y-128387659D01*
X145371850Y-128055239D01*
X145371852Y-128055232D01*
X145467578Y-127710457D01*
X145467584Y-127710431D01*
X145525472Y-127357331D01*
X145525473Y-127357314D01*
X145544847Y-127000005D01*
X153612994Y-127000005D01*
X153632183Y-127231582D01*
X153689229Y-127456854D01*
X153782575Y-127669662D01*
X153809228Y-127710457D01*
X153909675Y-127864201D01*
X154067061Y-128035168D01*
X154067064Y-128035170D01*
X154067067Y-128035173D01*
X154250432Y-128177892D01*
X154250438Y-128177896D01*
X154250441Y-128177898D01*
X154454812Y-128288499D01*
X154674600Y-128363952D01*
X154903810Y-128402200D01*
X155136190Y-128402200D01*
X155365400Y-128363952D01*
X155585188Y-128288499D01*
X155789559Y-128177898D01*
X155972939Y-128035168D01*
X156130325Y-127864201D01*
X156257425Y-127669661D01*
X156350771Y-127456854D01*
X156407816Y-127231586D01*
X156427006Y-127000005D01*
X158612994Y-127000005D01*
X158632183Y-127231582D01*
X158689229Y-127456854D01*
X158782575Y-127669662D01*
X158809228Y-127710457D01*
X158909675Y-127864201D01*
X159067061Y-128035168D01*
X159067064Y-128035170D01*
X159067067Y-128035173D01*
X159250432Y-128177892D01*
X159250438Y-128177896D01*
X159250441Y-128177898D01*
X159454812Y-128288499D01*
X159674600Y-128363952D01*
X159903810Y-128402200D01*
X160136190Y-128402200D01*
X160365400Y-128363952D01*
X160585188Y-128288499D01*
X160789559Y-128177898D01*
X160972939Y-128035168D01*
X161130325Y-127864201D01*
X161257425Y-127669661D01*
X161350771Y-127456854D01*
X161407816Y-127231586D01*
X161427006Y-127000005D01*
X168852994Y-127000005D01*
X168872183Y-127231582D01*
X168929229Y-127456854D01*
X169022575Y-127669662D01*
X169049228Y-127710457D01*
X169149675Y-127864201D01*
X169307061Y-128035168D01*
X169307064Y-128035170D01*
X169307067Y-128035173D01*
X169490432Y-128177892D01*
X169490438Y-128177896D01*
X169490441Y-128177898D01*
X169694812Y-128288499D01*
X169914600Y-128363952D01*
X170143810Y-128402200D01*
X170376190Y-128402200D01*
X170605400Y-128363952D01*
X170825188Y-128288499D01*
X171029559Y-128177898D01*
X171212939Y-128035168D01*
X171370325Y-127864201D01*
X171497425Y-127669661D01*
X171590771Y-127456854D01*
X171647816Y-127231586D01*
X171667006Y-127000005D01*
X173852994Y-127000005D01*
X173872183Y-127231582D01*
X173929229Y-127456854D01*
X174022575Y-127669662D01*
X174049228Y-127710457D01*
X174149675Y-127864201D01*
X174307061Y-128035168D01*
X174307064Y-128035170D01*
X174307067Y-128035173D01*
X174490432Y-128177892D01*
X174490438Y-128177896D01*
X174490441Y-128177898D01*
X174694812Y-128288499D01*
X174914600Y-128363952D01*
X175143810Y-128402200D01*
X175376190Y-128402200D01*
X175605400Y-128363952D01*
X175825188Y-128288499D01*
X176029559Y-128177898D01*
X176212939Y-128035168D01*
X176370325Y-127864201D01*
X176497425Y-127669661D01*
X176590771Y-127456854D01*
X176647816Y-127231586D01*
X176667006Y-127000002D01*
X184655153Y-127000002D01*
X184674526Y-127357314D01*
X184674527Y-127357331D01*
X184732415Y-127710431D01*
X184732421Y-127710457D01*
X184828147Y-128055232D01*
X184828149Y-128055239D01*
X184960597Y-128387659D01*
X184960606Y-128387677D01*
X185128218Y-128703827D01*
X185329033Y-129000007D01*
X185456441Y-129150003D01*
X185456442Y-129150004D01*
X186662266Y-127944180D01*
X186825130Y-128134870D01*
X187015818Y-128297732D01*
X185807255Y-129506295D01*
X185807256Y-129506296D01*
X185820485Y-129518828D01*
X185820486Y-129518829D01*
X186105367Y-129735388D01*
X186105370Y-129735390D01*
X186411990Y-129919876D01*
X186736739Y-130070122D01*
X186736744Y-130070123D01*
X187075855Y-130184383D01*
X187425339Y-130261311D01*
X187781075Y-130299999D01*
X187781085Y-130300000D01*
X188138915Y-130300000D01*
X188138924Y-130299999D01*
X188494660Y-130261311D01*
X188844144Y-130184383D01*
X189183255Y-130070123D01*
X189183260Y-130070122D01*
X189508009Y-129919876D01*
X189814629Y-129735390D01*
X189814632Y-129735388D01*
X190099504Y-129518836D01*
X190112742Y-129506294D01*
X188904180Y-128297733D01*
X189094870Y-128134870D01*
X189257733Y-127944180D01*
X190463556Y-129150003D01*
X190590964Y-129000008D01*
X190590975Y-128999994D01*
X190791781Y-128703827D01*
X190959393Y-128387677D01*
X190959402Y-128387659D01*
X191091850Y-128055239D01*
X191091852Y-128055232D01*
X191187578Y-127710457D01*
X191187584Y-127710431D01*
X191245472Y-127357331D01*
X191245473Y-127357314D01*
X191264847Y-127000002D01*
X191264847Y-126999997D01*
X191245473Y-126642685D01*
X191245472Y-126642668D01*
X191187584Y-126289568D01*
X191187578Y-126289542D01*
X191091852Y-125944767D01*
X191091850Y-125944760D01*
X190959402Y-125612340D01*
X190959393Y-125612322D01*
X190791781Y-125296172D01*
X190590966Y-124999992D01*
X190463557Y-124849995D01*
X190463556Y-124849994D01*
X189257732Y-126055818D01*
X189094870Y-125865130D01*
X188904180Y-125702266D01*
X190112743Y-124493703D01*
X190112742Y-124493702D01*
X190099514Y-124481171D01*
X190099513Y-124481170D01*
X189814632Y-124264611D01*
X189814629Y-124264609D01*
X189508009Y-124080123D01*
X189183260Y-123929877D01*
X189183255Y-123929876D01*
X188844144Y-123815616D01*
X188494660Y-123738688D01*
X188138924Y-123700000D01*
X187781075Y-123700000D01*
X187425339Y-123738688D01*
X187075855Y-123815616D01*
X186736744Y-123929876D01*
X186736739Y-123929877D01*
X186411990Y-124080123D01*
X186105370Y-124264609D01*
X186105367Y-124264611D01*
X185820491Y-124481166D01*
X185807256Y-124493703D01*
X185807255Y-124493703D01*
X187015819Y-125702266D01*
X186825130Y-125865130D01*
X186662266Y-126055818D01*
X185456442Y-124849994D01*
X185456441Y-124849995D01*
X185329040Y-124999983D01*
X185329033Y-124999993D01*
X185128218Y-125296172D01*
X184960606Y-125612322D01*
X184960597Y-125612340D01*
X184828149Y-125944760D01*
X184828147Y-125944767D01*
X184732421Y-126289542D01*
X184732415Y-126289568D01*
X184674527Y-126642668D01*
X184674526Y-126642685D01*
X184655153Y-126999997D01*
X184655153Y-127000002D01*
X176667006Y-127000002D01*
X176667006Y-127000000D01*
X176647816Y-126768414D01*
X176590771Y-126543146D01*
X176497425Y-126330339D01*
X176370325Y-126135799D01*
X176212939Y-125964832D01*
X176212934Y-125964828D01*
X176212932Y-125964826D01*
X176029567Y-125822107D01*
X176029561Y-125822103D01*
X175825188Y-125711501D01*
X175825180Y-125711498D01*
X175605402Y-125636048D01*
X175376190Y-125597800D01*
X175143810Y-125597800D01*
X174914597Y-125636048D01*
X174694819Y-125711498D01*
X174694811Y-125711501D01*
X174490438Y-125822103D01*
X174490432Y-125822107D01*
X174307067Y-125964826D01*
X174307064Y-125964829D01*
X174149676Y-126135797D01*
X174149673Y-126135801D01*
X174022575Y-126330337D01*
X173929229Y-126543145D01*
X173872183Y-126768417D01*
X173852994Y-126999994D01*
X173852994Y-127000005D01*
X171667006Y-127000005D01*
X171667006Y-127000000D01*
X171647816Y-126768414D01*
X171590771Y-126543146D01*
X171497425Y-126330339D01*
X171370325Y-126135799D01*
X171212939Y-125964832D01*
X171212934Y-125964828D01*
X171212932Y-125964826D01*
X171029567Y-125822107D01*
X171029561Y-125822103D01*
X170825188Y-125711501D01*
X170825180Y-125711498D01*
X170605402Y-125636048D01*
X170376190Y-125597800D01*
X170143810Y-125597800D01*
X169914597Y-125636048D01*
X169694819Y-125711498D01*
X169694811Y-125711501D01*
X169490438Y-125822103D01*
X169490432Y-125822107D01*
X169307067Y-125964826D01*
X169307064Y-125964829D01*
X169149676Y-126135797D01*
X169149673Y-126135801D01*
X169022575Y-126330337D01*
X168929229Y-126543145D01*
X168872183Y-126768417D01*
X168852994Y-126999994D01*
X168852994Y-127000005D01*
X161427006Y-127000005D01*
X161427006Y-127000000D01*
X161407816Y-126768414D01*
X161350771Y-126543146D01*
X161257425Y-126330339D01*
X161130325Y-126135799D01*
X160972939Y-125964832D01*
X160972934Y-125964828D01*
X160972932Y-125964826D01*
X160789567Y-125822107D01*
X160789561Y-125822103D01*
X160585188Y-125711501D01*
X160585180Y-125711498D01*
X160365402Y-125636048D01*
X160136190Y-125597800D01*
X159903810Y-125597800D01*
X159674597Y-125636048D01*
X159454819Y-125711498D01*
X159454811Y-125711501D01*
X159250438Y-125822103D01*
X159250432Y-125822107D01*
X159067067Y-125964826D01*
X159067064Y-125964829D01*
X158909676Y-126135797D01*
X158909673Y-126135801D01*
X158782575Y-126330337D01*
X158689229Y-126543145D01*
X158632183Y-126768417D01*
X158612994Y-126999994D01*
X158612994Y-127000005D01*
X156427006Y-127000005D01*
X156427006Y-127000000D01*
X156407816Y-126768414D01*
X156350771Y-126543146D01*
X156257425Y-126330339D01*
X156130325Y-126135799D01*
X155972939Y-125964832D01*
X155972934Y-125964828D01*
X155972932Y-125964826D01*
X155789567Y-125822107D01*
X155789561Y-125822103D01*
X155585188Y-125711501D01*
X155585180Y-125711498D01*
X155365402Y-125636048D01*
X155136190Y-125597800D01*
X154903810Y-125597800D01*
X154674597Y-125636048D01*
X154454819Y-125711498D01*
X154454811Y-125711501D01*
X154250438Y-125822103D01*
X154250432Y-125822107D01*
X154067067Y-125964826D01*
X154067064Y-125964829D01*
X153909676Y-126135797D01*
X153909673Y-126135801D01*
X153782575Y-126330337D01*
X153689229Y-126543145D01*
X153632183Y-126768417D01*
X153612994Y-126999994D01*
X153612994Y-127000005D01*
X145544847Y-127000005D01*
X145544847Y-127000002D01*
X145544847Y-126999997D01*
X145525473Y-126642685D01*
X145525472Y-126642668D01*
X145467584Y-126289568D01*
X145467578Y-126289542D01*
X145371852Y-125944767D01*
X145371850Y-125944760D01*
X145239402Y-125612340D01*
X145239393Y-125612322D01*
X145071781Y-125296172D01*
X144870966Y-124999992D01*
X144743557Y-124849995D01*
X144743556Y-124849994D01*
X143537732Y-126055818D01*
X143374870Y-125865130D01*
X143184180Y-125702266D01*
X144392743Y-124493703D01*
X144392742Y-124493702D01*
X144379514Y-124481171D01*
X144379513Y-124481170D01*
X144094632Y-124264611D01*
X144094629Y-124264609D01*
X143788009Y-124080123D01*
X143463260Y-123929877D01*
X143463255Y-123929876D01*
X143124144Y-123815616D01*
X142774660Y-123738688D01*
X142418924Y-123700000D01*
X142061075Y-123700000D01*
X141705339Y-123738688D01*
X141355855Y-123815616D01*
X141016744Y-123929876D01*
X141016739Y-123929877D01*
X140691990Y-124080123D01*
X140385370Y-124264609D01*
X140385367Y-124264611D01*
X140100491Y-124481166D01*
X140087256Y-124493703D01*
X140087255Y-124493703D01*
X141295819Y-125702266D01*
X141105130Y-125865130D01*
X140942266Y-126055818D01*
X139736442Y-124849994D01*
X139736441Y-124849995D01*
X139609040Y-124999983D01*
X139609033Y-124999993D01*
X139408218Y-125296172D01*
X139240606Y-125612322D01*
X139240597Y-125612340D01*
X139108149Y-125944760D01*
X139108147Y-125944767D01*
X139012421Y-126289542D01*
X139012415Y-126289568D01*
X138954527Y-126642668D01*
X138954526Y-126642685D01*
X138935153Y-126999997D01*
X138935153Y-127000002D01*
X137160500Y-127000002D01*
X137160500Y-119565037D01*
X157307570Y-119565037D01*
X157307570Y-122376619D01*
X173332878Y-122376619D01*
X173332878Y-119565037D01*
X157307570Y-119565037D01*
X137160500Y-119565037D01*
X137160500Y-116840005D01*
X140833496Y-116840005D01*
X140852678Y-117071499D01*
X140909704Y-117296691D01*
X141003015Y-117509418D01*
X141087584Y-117638861D01*
X141639277Y-117087168D01*
X141649285Y-117117969D01*
X141736972Y-117256141D01*
X141856266Y-117368165D01*
X141991204Y-117442348D01*
X141439989Y-117993562D01*
X141439990Y-117993563D01*
X141470712Y-118017475D01*
X141470718Y-118017480D01*
X141675007Y-118128035D01*
X141675017Y-118128040D01*
X141894721Y-118203464D01*
X142123853Y-118241700D01*
X142356147Y-118241700D01*
X142585278Y-118203464D01*
X142804982Y-118128040D01*
X142804987Y-118128038D01*
X143009288Y-118017475D01*
X143040008Y-117993563D01*
X143040008Y-117993562D01*
X142485762Y-117439315D01*
X142554512Y-117412095D01*
X142686905Y-117315906D01*
X142791218Y-117189813D01*
X142839903Y-117086350D01*
X143392414Y-117638861D01*
X143476980Y-117509425D01*
X143476985Y-117509417D01*
X143570295Y-117296691D01*
X143627321Y-117071499D01*
X143646504Y-116840005D01*
X143646504Y-116839994D01*
X143627321Y-116608500D01*
X143570295Y-116383308D01*
X143476982Y-116170576D01*
X143392414Y-116041137D01*
X142840721Y-116592829D01*
X142830715Y-116562031D01*
X142743028Y-116423859D01*
X142623734Y-116311835D01*
X142488795Y-116237651D01*
X143040009Y-115686436D01*
X143040009Y-115686435D01*
X143009286Y-115662523D01*
X143009281Y-115662519D01*
X142804992Y-115551964D01*
X142804982Y-115551959D01*
X142585278Y-115476535D01*
X142356147Y-115438300D01*
X142123853Y-115438300D01*
X141894721Y-115476535D01*
X141675017Y-115551959D01*
X141675007Y-115551964D01*
X141470717Y-115662520D01*
X141470706Y-115662527D01*
X141439990Y-115686434D01*
X141439990Y-115686436D01*
X141994238Y-116240684D01*
X141925488Y-116267905D01*
X141793095Y-116364094D01*
X141688782Y-116490187D01*
X141640096Y-116593649D01*
X141087584Y-116041137D01*
X141003016Y-116170578D01*
X140909704Y-116383308D01*
X140852678Y-116608500D01*
X140833496Y-116839994D01*
X140833496Y-116840005D01*
X137160500Y-116840005D01*
X137160500Y-111840005D01*
X140832994Y-111840005D01*
X140852183Y-112071582D01*
X140909229Y-112296854D01*
X141002575Y-112509662D01*
X141129673Y-112704198D01*
X141129675Y-112704201D01*
X141287061Y-112875168D01*
X141287064Y-112875170D01*
X141287067Y-112875173D01*
X141470432Y-113017892D01*
X141470438Y-113017896D01*
X141470441Y-113017898D01*
X141674812Y-113128499D01*
X141894600Y-113203952D01*
X142123810Y-113242200D01*
X142356190Y-113242200D01*
X142585400Y-113203952D01*
X142805188Y-113128499D01*
X143009559Y-113017898D01*
X143192939Y-112875168D01*
X143350325Y-112704201D01*
X143477425Y-112509661D01*
X143570771Y-112296854D01*
X143627816Y-112071586D01*
X143647006Y-111840000D01*
X143640377Y-111760005D01*
X143631984Y-111658719D01*
X146863380Y-111658719D01*
X146863380Y-117184000D01*
X149674962Y-117184000D01*
X149674962Y-111658719D01*
X146863380Y-111658719D01*
X143631984Y-111658719D01*
X143627816Y-111608415D01*
X143627815Y-111608411D01*
X143590223Y-111459963D01*
X143592847Y-111390142D01*
X143622745Y-111341843D01*
X144302772Y-110661819D01*
X144364095Y-110628334D01*
X144390453Y-110625500D01*
X163140519Y-110625500D01*
X163207558Y-110645185D01*
X163246058Y-110684404D01*
X163254660Y-110698350D01*
X163376650Y-110820340D01*
X163523484Y-110910908D01*
X163687247Y-110965174D01*
X163788323Y-110975500D01*
X164386676Y-110975499D01*
X164386684Y-110975498D01*
X164386687Y-110975498D01*
X164442030Y-110969844D01*
X164487753Y-110965174D01*
X164651516Y-110910908D01*
X164798350Y-110820340D01*
X164912675Y-110706014D01*
X164973994Y-110672532D01*
X165043686Y-110677516D01*
X165088034Y-110706017D01*
X165201961Y-110819944D01*
X165201965Y-110819947D01*
X165348688Y-110910448D01*
X165348699Y-110910453D01*
X165512347Y-110964680D01*
X165613351Y-110974999D01*
X165662499Y-110974998D01*
X165662500Y-110974998D01*
X165662500Y-110250000D01*
X166162500Y-110250000D01*
X166162500Y-110974999D01*
X166211640Y-110974999D01*
X166211654Y-110974998D01*
X166312652Y-110964680D01*
X166476300Y-110910453D01*
X166476311Y-110910448D01*
X166623034Y-110819947D01*
X166623038Y-110819944D01*
X166744944Y-110698038D01*
X166744947Y-110698034D01*
X166835448Y-110551311D01*
X166835453Y-110551300D01*
X166889680Y-110387652D01*
X166899999Y-110286654D01*
X166900000Y-110286641D01*
X166900000Y-110250000D01*
X166162500Y-110250000D01*
X165662500Y-110250000D01*
X165662500Y-109025000D01*
X166162500Y-109025000D01*
X166162500Y-109750000D01*
X166899999Y-109750000D01*
X166899999Y-109713360D01*
X166899998Y-109713345D01*
X166889680Y-109612347D01*
X166835453Y-109448699D01*
X166835448Y-109448688D01*
X166744947Y-109301965D01*
X166744944Y-109301961D01*
X166623038Y-109180055D01*
X166623034Y-109180052D01*
X166476311Y-109089551D01*
X166476300Y-109089546D01*
X166312652Y-109035319D01*
X166211654Y-109025000D01*
X166162500Y-109025000D01*
X165662500Y-109025000D01*
X165662499Y-109024999D01*
X165613361Y-109025000D01*
X165613343Y-109025001D01*
X165512347Y-109035319D01*
X165348699Y-109089546D01*
X165348688Y-109089551D01*
X165201965Y-109180052D01*
X165088034Y-109293983D01*
X165026711Y-109327467D01*
X164957019Y-109322483D01*
X164912672Y-109293982D01*
X164798351Y-109179661D01*
X164798350Y-109179660D01*
X164651516Y-109089092D01*
X164651514Y-109089091D01*
X164651512Y-109089090D01*
X164644971Y-109086040D01*
X164645996Y-109083841D01*
X164598027Y-109050608D01*
X164571224Y-108986083D01*
X164570500Y-108972704D01*
X164570500Y-105116999D01*
X164590185Y-105049960D01*
X164642989Y-105004205D01*
X164694500Y-104992999D01*
X164992871Y-104992999D01*
X164992872Y-104992999D01*
X165052483Y-104986591D01*
X165187331Y-104936296D01*
X165302546Y-104850046D01*
X165388796Y-104734831D01*
X165439091Y-104599983D01*
X165445500Y-104540373D01*
X165445499Y-102539628D01*
X165439091Y-102480017D01*
X165388796Y-102345169D01*
X165388795Y-102345168D01*
X165388793Y-102345164D01*
X165302547Y-102229955D01*
X165302544Y-102229952D01*
X165187335Y-102143706D01*
X165187328Y-102143702D01*
X165156687Y-102132274D01*
X165100753Y-102090403D01*
X165076336Y-102024938D01*
X165091188Y-101956665D01*
X165102161Y-101939937D01*
X165213072Y-101797439D01*
X165263827Y-101703652D01*
X177985037Y-101703652D01*
X177985037Y-117012429D01*
X181296619Y-117012429D01*
X181296619Y-111760005D01*
X184012994Y-111760005D01*
X184032183Y-111991582D01*
X184089229Y-112216854D01*
X184182575Y-112429662D01*
X184309673Y-112624198D01*
X184309675Y-112624201D01*
X184467061Y-112795168D01*
X184467064Y-112795170D01*
X184467067Y-112795173D01*
X184650432Y-112937892D01*
X184650438Y-112937896D01*
X184650441Y-112937898D01*
X184854812Y-113048499D01*
X185074600Y-113123952D01*
X185303810Y-113162200D01*
X185536190Y-113162200D01*
X185765400Y-113123952D01*
X185985188Y-113048499D01*
X186189559Y-112937898D01*
X186372939Y-112795168D01*
X186530325Y-112624201D01*
X186657425Y-112429661D01*
X186750771Y-112216854D01*
X186807816Y-111991586D01*
X186820377Y-111840000D01*
X186827006Y-111760005D01*
X186827006Y-111759994D01*
X186807816Y-111528417D01*
X186807816Y-111528414D01*
X186750771Y-111303146D01*
X186657425Y-111090339D01*
X186530325Y-110895799D01*
X186372939Y-110724832D01*
X186372934Y-110724828D01*
X186372932Y-110724826D01*
X186189567Y-110582107D01*
X186189561Y-110582103D01*
X185985188Y-110471501D01*
X185985180Y-110471498D01*
X185765402Y-110396048D01*
X185536190Y-110357800D01*
X185303810Y-110357800D01*
X185074597Y-110396048D01*
X184854819Y-110471498D01*
X184854811Y-110471501D01*
X184650438Y-110582103D01*
X184650432Y-110582107D01*
X184467067Y-110724826D01*
X184467064Y-110724829D01*
X184309676Y-110895797D01*
X184309673Y-110895801D01*
X184182575Y-111090337D01*
X184089229Y-111303145D01*
X184032183Y-111528417D01*
X184012994Y-111759994D01*
X184012994Y-111760005D01*
X181296619Y-111760005D01*
X181296619Y-106760005D01*
X184013496Y-106760005D01*
X184032678Y-106991499D01*
X184089704Y-107216691D01*
X184183015Y-107429418D01*
X184267584Y-107558861D01*
X184819277Y-107007168D01*
X184829285Y-107037969D01*
X184916972Y-107176141D01*
X185036266Y-107288165D01*
X185171204Y-107362348D01*
X184619989Y-107913562D01*
X184619990Y-107913563D01*
X184650712Y-107937475D01*
X184650718Y-107937480D01*
X184855007Y-108048035D01*
X184855017Y-108048040D01*
X185074721Y-108123464D01*
X185303853Y-108161700D01*
X185536147Y-108161700D01*
X185765278Y-108123464D01*
X185984982Y-108048040D01*
X185984987Y-108048038D01*
X186189288Y-107937475D01*
X186220008Y-107913563D01*
X186220008Y-107913562D01*
X185665762Y-107359315D01*
X185734512Y-107332095D01*
X185866905Y-107235906D01*
X185971218Y-107109813D01*
X186019903Y-107006350D01*
X186572414Y-107558861D01*
X186656980Y-107429425D01*
X186656985Y-107429417D01*
X186750295Y-107216691D01*
X186807321Y-106991499D01*
X186826504Y-106760005D01*
X186826504Y-106759994D01*
X186807321Y-106528500D01*
X186750295Y-106303308D01*
X186656982Y-106090576D01*
X186572414Y-105961137D01*
X186020721Y-106512829D01*
X186010715Y-106482031D01*
X185923028Y-106343859D01*
X185803734Y-106231835D01*
X185668795Y-106157651D01*
X186220009Y-105606436D01*
X186220009Y-105606435D01*
X186189286Y-105582523D01*
X186189281Y-105582519D01*
X185984992Y-105471964D01*
X185984982Y-105471959D01*
X185765278Y-105396535D01*
X185536147Y-105358300D01*
X185303853Y-105358300D01*
X185074721Y-105396535D01*
X184855017Y-105471959D01*
X184855007Y-105471964D01*
X184650717Y-105582520D01*
X184650706Y-105582527D01*
X184619990Y-105606434D01*
X184619990Y-105606436D01*
X185174238Y-106160684D01*
X185105488Y-106187905D01*
X184973095Y-106284094D01*
X184868782Y-106410187D01*
X184820096Y-106513649D01*
X184267584Y-105961137D01*
X184183016Y-106090578D01*
X184089704Y-106303308D01*
X184032678Y-106528500D01*
X184013496Y-106759994D01*
X184013496Y-106760005D01*
X181296619Y-106760005D01*
X181296619Y-101703652D01*
X177985037Y-101703652D01*
X165263827Y-101703652D01*
X165327679Y-101585664D01*
X165405866Y-101357913D01*
X165445500Y-101120399D01*
X165445500Y-100879601D01*
X165405866Y-100642087D01*
X165327679Y-100414336D01*
X165213072Y-100202561D01*
X165065171Y-100012537D01*
X164888010Y-99849449D01*
X164888007Y-99849446D01*
X164863614Y-99833510D01*
X164818257Y-99780364D01*
X164808833Y-99711132D01*
X164838335Y-99647796D01*
X164863616Y-99625891D01*
X164887701Y-99610155D01*
X164887702Y-99610154D01*
X165064797Y-99447126D01*
X165064806Y-99447116D01*
X165212649Y-99257168D01*
X165212655Y-99257159D01*
X165327215Y-99045468D01*
X165327221Y-99045454D01*
X165405380Y-98817791D01*
X165423367Y-98710000D01*
X164439852Y-98710000D01*
X164488559Y-98572953D01*
X164498877Y-98422114D01*
X164468116Y-98274085D01*
X164434910Y-98210000D01*
X165423366Y-98210000D01*
X165423366Y-98209999D01*
X165405380Y-98102208D01*
X165327221Y-97874545D01*
X165327215Y-97874531D01*
X165212655Y-97662840D01*
X165212649Y-97662831D01*
X165064806Y-97472883D01*
X165064797Y-97472873D01*
X164887710Y-97309851D01*
X164887699Y-97309843D01*
X164686184Y-97178186D01*
X164465739Y-97081491D01*
X164465740Y-97081491D01*
X164232391Y-97022399D01*
X164195000Y-97019300D01*
X164195000Y-97968316D01*
X164166181Y-97950791D01*
X164020596Y-97910000D01*
X163907378Y-97910000D01*
X163795217Y-97925416D01*
X163695000Y-97968946D01*
X163695000Y-97019300D01*
X163694999Y-97019300D01*
X163657608Y-97022399D01*
X163424259Y-97081491D01*
X163203815Y-97178186D01*
X163002300Y-97309843D01*
X163002289Y-97309851D01*
X162825202Y-97472873D01*
X162825193Y-97472883D01*
X162677350Y-97662831D01*
X162677344Y-97662840D01*
X162562784Y-97874531D01*
X162562778Y-97874545D01*
X162484619Y-98102208D01*
X162466633Y-98209999D01*
X162466634Y-98210000D01*
X163450148Y-98210000D01*
X163401441Y-98347047D01*
X163391123Y-98497886D01*
X163421884Y-98645915D01*
X163455090Y-98710000D01*
X162466633Y-98710000D01*
X162484619Y-98817791D01*
X162562778Y-99045454D01*
X162562784Y-99045468D01*
X162677344Y-99257159D01*
X162677350Y-99257168D01*
X162825193Y-99447116D01*
X162825202Y-99447126D01*
X163002297Y-99610154D01*
X163002296Y-99610154D01*
X163026385Y-99625892D01*
X163071742Y-99679038D01*
X163081166Y-99748269D01*
X163051664Y-99811605D01*
X163026389Y-99833507D01*
X163001994Y-99849446D01*
X163001988Y-99849450D01*
X162844367Y-99994551D01*
X162824829Y-100012537D01*
X162781305Y-100068456D01*
X162676929Y-100202558D01*
X162562321Y-100414334D01*
X162562318Y-100414343D01*
X162484134Y-100642083D01*
X162444500Y-100879602D01*
X162444500Y-101120397D01*
X162484134Y-101357916D01*
X162562318Y-101585656D01*
X162562321Y-101585665D01*
X162676929Y-101797441D01*
X162676933Y-101797447D01*
X162787832Y-101939930D01*
X162813475Y-102004924D01*
X162799908Y-102073464D01*
X162751440Y-102123788D01*
X162733313Y-102132273D01*
X162702675Y-102143700D01*
X162702664Y-102143706D01*
X162587455Y-102229952D01*
X162587452Y-102229955D01*
X162501206Y-102345164D01*
X162501202Y-102345171D01*
X162450908Y-102480017D01*
X162444501Y-102539616D01*
X162444501Y-102539623D01*
X162444500Y-102539635D01*
X162444500Y-104540370D01*
X162444501Y-104540376D01*
X162450908Y-104599983D01*
X162501202Y-104734828D01*
X162501206Y-104734835D01*
X162587452Y-104850044D01*
X162587455Y-104850047D01*
X162702664Y-104936293D01*
X162702671Y-104936297D01*
X162747618Y-104953061D01*
X162837517Y-104986591D01*
X162897127Y-104993000D01*
X163195500Y-104992999D01*
X163262539Y-105012683D01*
X163308294Y-105065487D01*
X163319500Y-105116999D01*
X163319500Y-109185448D01*
X163299815Y-109252487D01*
X163283181Y-109273129D01*
X163254660Y-109301649D01*
X163254659Y-109301651D01*
X163246058Y-109315596D01*
X163194110Y-109362321D01*
X163140519Y-109374500D01*
X144162743Y-109374500D01*
X144147122Y-109372775D01*
X144147096Y-109373061D01*
X144139334Y-109372327D01*
X144139333Y-109372327D01*
X144070186Y-109374500D01*
X144040649Y-109374500D01*
X144033766Y-109375369D01*
X144027949Y-109375826D01*
X143981373Y-109377290D01*
X143962129Y-109382881D01*
X143943079Y-109386825D01*
X143923211Y-109389334D01*
X143879884Y-109406488D01*
X143874358Y-109408379D01*
X143829614Y-109421379D01*
X143829610Y-109421381D01*
X143812366Y-109431579D01*
X143794905Y-109440133D01*
X143776274Y-109447510D01*
X143776262Y-109447517D01*
X143738570Y-109474902D01*
X143733687Y-109478109D01*
X143693580Y-109501829D01*
X143679414Y-109515995D01*
X143664624Y-109528627D01*
X143648414Y-109540404D01*
X143648411Y-109540407D01*
X143618710Y-109576309D01*
X143614777Y-109580631D01*
X142739858Y-110455549D01*
X142678535Y-110489034D01*
X142611917Y-110485150D01*
X142585401Y-110476048D01*
X142356190Y-110437800D01*
X142123810Y-110437800D01*
X141894597Y-110476048D01*
X141674819Y-110551498D01*
X141674811Y-110551501D01*
X141470438Y-110662103D01*
X141470432Y-110662107D01*
X141287067Y-110804826D01*
X141287064Y-110804829D01*
X141287061Y-110804831D01*
X141287061Y-110804832D01*
X141273147Y-110819947D01*
X141129676Y-110975797D01*
X141129673Y-110975801D01*
X141002575Y-111170337D01*
X140909229Y-111383145D01*
X140852183Y-111608417D01*
X140832994Y-111839994D01*
X140832994Y-111840005D01*
X137160500Y-111840005D01*
X137160500Y-98980005D01*
X140832994Y-98980005D01*
X140852183Y-99211582D01*
X140909229Y-99436854D01*
X141002575Y-99649662D01*
X141066999Y-99748269D01*
X141129675Y-99844201D01*
X141287061Y-100015168D01*
X141287064Y-100015170D01*
X141287067Y-100015173D01*
X141470432Y-100157892D01*
X141470438Y-100157896D01*
X141470441Y-100157898D01*
X141674812Y-100268499D01*
X141894600Y-100343952D01*
X142123810Y-100382200D01*
X142356190Y-100382200D01*
X142585400Y-100343952D01*
X142805188Y-100268499D01*
X143009559Y-100157898D01*
X143192939Y-100015168D01*
X143350325Y-99844201D01*
X143477425Y-99649661D01*
X143570771Y-99436854D01*
X143627816Y-99211586D01*
X143647006Y-98980000D01*
X143643223Y-98934349D01*
X143627816Y-98748417D01*
X143627816Y-98748414D01*
X143570771Y-98523146D01*
X143477425Y-98310339D01*
X143350325Y-98115799D01*
X143192939Y-97944832D01*
X143192934Y-97944828D01*
X143192932Y-97944826D01*
X143009567Y-97802107D01*
X143009561Y-97802103D01*
X142805188Y-97691501D01*
X142805180Y-97691498D01*
X142585402Y-97616048D01*
X142356190Y-97577800D01*
X142123810Y-97577800D01*
X141894597Y-97616048D01*
X141674819Y-97691498D01*
X141674811Y-97691501D01*
X141470438Y-97802103D01*
X141470432Y-97802107D01*
X141287067Y-97944826D01*
X141287064Y-97944829D01*
X141287061Y-97944831D01*
X141287061Y-97944832D01*
X141252317Y-97982573D01*
X141129676Y-98115797D01*
X141129673Y-98115801D01*
X141002575Y-98310337D01*
X140909229Y-98523145D01*
X140852183Y-98748417D01*
X140832994Y-98979994D01*
X140832994Y-98980005D01*
X137160500Y-98980005D01*
X137160500Y-93980005D01*
X140832994Y-93980005D01*
X140852183Y-94211582D01*
X140909229Y-94436854D01*
X141002575Y-94649662D01*
X141129673Y-94844198D01*
X141129675Y-94844201D01*
X141287061Y-95015168D01*
X141287064Y-95015170D01*
X141287067Y-95015173D01*
X141470432Y-95157892D01*
X141470438Y-95157896D01*
X141470441Y-95157898D01*
X141674812Y-95268499D01*
X141894600Y-95343952D01*
X142123810Y-95382200D01*
X142356190Y-95382200D01*
X142585400Y-95343952D01*
X142805188Y-95268499D01*
X143009559Y-95157898D01*
X143192939Y-95015168D01*
X143350325Y-94844201D01*
X143477425Y-94649661D01*
X143570771Y-94436854D01*
X143627816Y-94211586D01*
X143647006Y-93980000D01*
X143640377Y-93900005D01*
X143627816Y-93748417D01*
X143627816Y-93748414D01*
X143570771Y-93523146D01*
X143477425Y-93310339D01*
X143350325Y-93115799D01*
X143192939Y-92944832D01*
X143192934Y-92944828D01*
X143192932Y-92944826D01*
X143009567Y-92802107D01*
X143009561Y-92802103D01*
X142805188Y-92691501D01*
X142805180Y-92691498D01*
X142585402Y-92616048D01*
X142356190Y-92577800D01*
X142123810Y-92577800D01*
X141894597Y-92616048D01*
X141674819Y-92691498D01*
X141674811Y-92691501D01*
X141470438Y-92802103D01*
X141470432Y-92802107D01*
X141287067Y-92944826D01*
X141287064Y-92944829D01*
X141129676Y-93115797D01*
X141129673Y-93115801D01*
X141002575Y-93310337D01*
X140909229Y-93523145D01*
X140852183Y-93748417D01*
X140832994Y-93979994D01*
X140832994Y-93980005D01*
X137160500Y-93980005D01*
X137160500Y-88799306D01*
X146363380Y-88799306D01*
X146363380Y-104107777D01*
X149674962Y-104107777D01*
X149674962Y-101600000D01*
X150794551Y-101600000D01*
X150814317Y-101851151D01*
X150873126Y-102096110D01*
X150969533Y-102328859D01*
X151101160Y-102543653D01*
X151101161Y-102543656D01*
X151101164Y-102543659D01*
X151264776Y-102735224D01*
X151413066Y-102861875D01*
X151456343Y-102898838D01*
X151456346Y-102898839D01*
X151671140Y-103030466D01*
X151903889Y-103126873D01*
X152148852Y-103185683D01*
X152400000Y-103205449D01*
X152651148Y-103185683D01*
X152896111Y-103126873D01*
X153128859Y-103030466D01*
X153343659Y-102898836D01*
X153535224Y-102735224D01*
X153698836Y-102543659D01*
X153830466Y-102328859D01*
X153926873Y-102096111D01*
X153985683Y-101851148D01*
X154005449Y-101600000D01*
X153985683Y-101348852D01*
X153926873Y-101103889D01*
X153833971Y-100879602D01*
X153830466Y-100871140D01*
X153698839Y-100656346D01*
X153698838Y-100656343D01*
X153661875Y-100613066D01*
X153535224Y-100464776D01*
X153393756Y-100343951D01*
X153343656Y-100301161D01*
X153343653Y-100301160D01*
X153128859Y-100169533D01*
X152896110Y-100073126D01*
X152651151Y-100014317D01*
X152400000Y-99994551D01*
X152148848Y-100014317D01*
X151903889Y-100073126D01*
X151671140Y-100169533D01*
X151456346Y-100301160D01*
X151456343Y-100301161D01*
X151264776Y-100464776D01*
X151101161Y-100656343D01*
X151101160Y-100656346D01*
X150969533Y-100871140D01*
X150873126Y-101103889D01*
X150814317Y-101348848D01*
X150794551Y-101600000D01*
X149674962Y-101600000D01*
X149674962Y-92587870D01*
X150799500Y-92587870D01*
X150799501Y-92587876D01*
X150805908Y-92647483D01*
X150856202Y-92782328D01*
X150856206Y-92782335D01*
X150942452Y-92897544D01*
X150942455Y-92897547D01*
X151057664Y-92983793D01*
X151057671Y-92983797D01*
X151192517Y-93034091D01*
X151192516Y-93034091D01*
X151199444Y-93034835D01*
X151252127Y-93040500D01*
X153547872Y-93040499D01*
X153607483Y-93034091D01*
X153742331Y-92983796D01*
X153857546Y-92897546D01*
X153943796Y-92782331D01*
X153994091Y-92647483D01*
X154000500Y-92587873D01*
X154000499Y-90292128D01*
X153994091Y-90232517D01*
X153977502Y-90188040D01*
X153943797Y-90097671D01*
X153943793Y-90097664D01*
X153857547Y-89982455D01*
X153857544Y-89982452D01*
X153742335Y-89896206D01*
X153742328Y-89896202D01*
X153607482Y-89845908D01*
X153607483Y-89845908D01*
X153547883Y-89839501D01*
X153547881Y-89839500D01*
X153547873Y-89839500D01*
X153547864Y-89839500D01*
X151252129Y-89839500D01*
X151252123Y-89839501D01*
X151192516Y-89845908D01*
X151057671Y-89896202D01*
X151057664Y-89896206D01*
X150942455Y-89982452D01*
X150942452Y-89982455D01*
X150856206Y-90097664D01*
X150856202Y-90097671D01*
X150805908Y-90232517D01*
X150799501Y-90292116D01*
X150799501Y-90292123D01*
X150799500Y-90292135D01*
X150799500Y-92587870D01*
X149674962Y-92587870D01*
X149674962Y-88799306D01*
X146363380Y-88799306D01*
X137160500Y-88799306D01*
X137160500Y-81709365D01*
X177985037Y-81709365D01*
X177985037Y-99372412D01*
X181296619Y-99372412D01*
X181296619Y-93900005D01*
X184012994Y-93900005D01*
X184032183Y-94131582D01*
X184089229Y-94356854D01*
X184182575Y-94569662D01*
X184309673Y-94764198D01*
X184309675Y-94764201D01*
X184467061Y-94935168D01*
X184467064Y-94935170D01*
X184467067Y-94935173D01*
X184650432Y-95077892D01*
X184650438Y-95077896D01*
X184650441Y-95077898D01*
X184854812Y-95188499D01*
X185074600Y-95263952D01*
X185303810Y-95302200D01*
X185536190Y-95302200D01*
X185765400Y-95263952D01*
X185985188Y-95188499D01*
X186189559Y-95077898D01*
X186372939Y-94935168D01*
X186530325Y-94764201D01*
X186657425Y-94569661D01*
X186750771Y-94356854D01*
X186807816Y-94131586D01*
X186820377Y-93980000D01*
X186827006Y-93900005D01*
X186827006Y-93899994D01*
X186807816Y-93668417D01*
X186807816Y-93668414D01*
X186750771Y-93443146D01*
X186657425Y-93230339D01*
X186530325Y-93035799D01*
X186372939Y-92864832D01*
X186372934Y-92864828D01*
X186372932Y-92864826D01*
X186189567Y-92722107D01*
X186189561Y-92722103D01*
X185985188Y-92611501D01*
X185985180Y-92611498D01*
X185765402Y-92536048D01*
X185536190Y-92497800D01*
X185303810Y-92497800D01*
X185074597Y-92536048D01*
X184854819Y-92611498D01*
X184854811Y-92611501D01*
X184650438Y-92722103D01*
X184650432Y-92722107D01*
X184467067Y-92864826D01*
X184467064Y-92864829D01*
X184309676Y-93035797D01*
X184309673Y-93035801D01*
X184182575Y-93230337D01*
X184089229Y-93443145D01*
X184032183Y-93668417D01*
X184012994Y-93899994D01*
X184012994Y-93900005D01*
X181296619Y-93900005D01*
X181296619Y-88900005D01*
X184013496Y-88900005D01*
X184032678Y-89131499D01*
X184089704Y-89356691D01*
X184183015Y-89569418D01*
X184267584Y-89698861D01*
X184819277Y-89147168D01*
X184829285Y-89177969D01*
X184916972Y-89316141D01*
X185036266Y-89428165D01*
X185171204Y-89502348D01*
X184619989Y-90053562D01*
X184619990Y-90053563D01*
X184650712Y-90077475D01*
X184650718Y-90077480D01*
X184855007Y-90188035D01*
X184855017Y-90188040D01*
X185074721Y-90263464D01*
X185303853Y-90301700D01*
X185536147Y-90301700D01*
X185765278Y-90263464D01*
X185984982Y-90188040D01*
X185984987Y-90188038D01*
X186189288Y-90077475D01*
X186220008Y-90053563D01*
X186220008Y-90053562D01*
X185665762Y-89499315D01*
X185734512Y-89472095D01*
X185866905Y-89375906D01*
X185971218Y-89249813D01*
X186019903Y-89146350D01*
X186572414Y-89698861D01*
X186656980Y-89569425D01*
X186656985Y-89569417D01*
X186750295Y-89356691D01*
X186807321Y-89131499D01*
X186826504Y-88900005D01*
X186826504Y-88899994D01*
X186807321Y-88668500D01*
X186750295Y-88443308D01*
X186656982Y-88230576D01*
X186572414Y-88101137D01*
X186020721Y-88652829D01*
X186010715Y-88622031D01*
X185923028Y-88483859D01*
X185803734Y-88371835D01*
X185668795Y-88297651D01*
X186220009Y-87746436D01*
X186220009Y-87746435D01*
X186189286Y-87722523D01*
X186189281Y-87722519D01*
X185984992Y-87611964D01*
X185984982Y-87611959D01*
X185765278Y-87536535D01*
X185536147Y-87498300D01*
X185303853Y-87498300D01*
X185074721Y-87536535D01*
X184855017Y-87611959D01*
X184855007Y-87611964D01*
X184650717Y-87722520D01*
X184650706Y-87722527D01*
X184619990Y-87746434D01*
X184619990Y-87746436D01*
X185174238Y-88300684D01*
X185105488Y-88327905D01*
X184973095Y-88424094D01*
X184868782Y-88550187D01*
X184820096Y-88653649D01*
X184267584Y-88101137D01*
X184183016Y-88230578D01*
X184089704Y-88443308D01*
X184032678Y-88668500D01*
X184013496Y-88899994D01*
X184013496Y-88900005D01*
X181296619Y-88900005D01*
X181296619Y-81709365D01*
X177985037Y-81709365D01*
X137160500Y-81709365D01*
X137160500Y-78074386D01*
X151915708Y-78074386D01*
X151915708Y-81094683D01*
X157724137Y-81094683D01*
X157724137Y-78074386D01*
X172235708Y-78074386D01*
X172235708Y-81094683D01*
X178044137Y-81094683D01*
X178044137Y-78074386D01*
X172235708Y-78074386D01*
X157724137Y-78074386D01*
X151915708Y-78074386D01*
X137160500Y-78074386D01*
X137160500Y-71120002D01*
X138935153Y-71120002D01*
X138954526Y-71477314D01*
X138954527Y-71477331D01*
X139012415Y-71830431D01*
X139012421Y-71830457D01*
X139108147Y-72175232D01*
X139108149Y-72175239D01*
X139240597Y-72507659D01*
X139240606Y-72507677D01*
X139408218Y-72823827D01*
X139609033Y-73120007D01*
X139736441Y-73270003D01*
X139736442Y-73270004D01*
X140942266Y-72064180D01*
X141105130Y-72254870D01*
X141295818Y-72417732D01*
X140087255Y-73626295D01*
X140087256Y-73626296D01*
X140100485Y-73638828D01*
X140100486Y-73638829D01*
X140385367Y-73855388D01*
X140385370Y-73855390D01*
X140691990Y-74039876D01*
X141016739Y-74190122D01*
X141016744Y-74190123D01*
X141355855Y-74304383D01*
X141705339Y-74381311D01*
X142061075Y-74419999D01*
X142061085Y-74420000D01*
X142418915Y-74420000D01*
X142418924Y-74419999D01*
X142774660Y-74381311D01*
X143124144Y-74304383D01*
X143463255Y-74190123D01*
X143463260Y-74190122D01*
X143788009Y-74039876D01*
X144094629Y-73855390D01*
X144094632Y-73855388D01*
X144351656Y-73660005D01*
X151153496Y-73660005D01*
X151172678Y-73891499D01*
X151229704Y-74116691D01*
X151323015Y-74329418D01*
X151407584Y-74458861D01*
X151959277Y-73907168D01*
X151969285Y-73937969D01*
X152056972Y-74076141D01*
X152176266Y-74188165D01*
X152311204Y-74262348D01*
X151759989Y-74813562D01*
X151759990Y-74813563D01*
X151790712Y-74837475D01*
X151790718Y-74837480D01*
X151995007Y-74948035D01*
X151995017Y-74948040D01*
X152214721Y-75023464D01*
X152443853Y-75061700D01*
X152676147Y-75061700D01*
X152905278Y-75023464D01*
X153124982Y-74948040D01*
X153124987Y-74948038D01*
X153329288Y-74837475D01*
X153360008Y-74813563D01*
X153360008Y-74813562D01*
X152805762Y-74259315D01*
X152874512Y-74232095D01*
X153006905Y-74135906D01*
X153111218Y-74009813D01*
X153159903Y-73906350D01*
X153712414Y-74458861D01*
X153796980Y-74329425D01*
X153796985Y-74329417D01*
X153890295Y-74116691D01*
X153947321Y-73891499D01*
X153966504Y-73660005D01*
X156152994Y-73660005D01*
X156172183Y-73891582D01*
X156229229Y-74116854D01*
X156322575Y-74329662D01*
X156406986Y-74458861D01*
X156449675Y-74524201D01*
X156607061Y-74695168D01*
X156607064Y-74695170D01*
X156607067Y-74695173D01*
X156790432Y-74837892D01*
X156790438Y-74837896D01*
X156790441Y-74837898D01*
X156994812Y-74948499D01*
X157214600Y-75023952D01*
X157443810Y-75062200D01*
X157676190Y-75062200D01*
X157905400Y-75023952D01*
X158125188Y-74948499D01*
X158329559Y-74837898D01*
X158330103Y-74837475D01*
X158391138Y-74789969D01*
X158512939Y-74695168D01*
X158670325Y-74524201D01*
X158797425Y-74329661D01*
X158890771Y-74116854D01*
X158947816Y-73891586D01*
X158967006Y-73660005D01*
X171393496Y-73660005D01*
X171412678Y-73891499D01*
X171469704Y-74116691D01*
X171563015Y-74329418D01*
X171647584Y-74458861D01*
X172199277Y-73907168D01*
X172209285Y-73937969D01*
X172296972Y-74076141D01*
X172416266Y-74188165D01*
X172551204Y-74262348D01*
X171999989Y-74813562D01*
X171999990Y-74813563D01*
X172030712Y-74837475D01*
X172030718Y-74837480D01*
X172235007Y-74948035D01*
X172235017Y-74948040D01*
X172454721Y-75023464D01*
X172683853Y-75061700D01*
X172916147Y-75061700D01*
X173145278Y-75023464D01*
X173364982Y-74948040D01*
X173364987Y-74948038D01*
X173569288Y-74837475D01*
X173600008Y-74813563D01*
X173600008Y-74813562D01*
X173045762Y-74259315D01*
X173114512Y-74232095D01*
X173246905Y-74135906D01*
X173351218Y-74009813D01*
X173399903Y-73906350D01*
X173952414Y-74458861D01*
X174036980Y-74329425D01*
X174036985Y-74329417D01*
X174130295Y-74116691D01*
X174187321Y-73891499D01*
X174206504Y-73660005D01*
X176392994Y-73660005D01*
X176412183Y-73891582D01*
X176469229Y-74116854D01*
X176562575Y-74329662D01*
X176646986Y-74458861D01*
X176689675Y-74524201D01*
X176847061Y-74695168D01*
X176847064Y-74695170D01*
X176847067Y-74695173D01*
X177030432Y-74837892D01*
X177030438Y-74837896D01*
X177030441Y-74837898D01*
X177234812Y-74948499D01*
X177454600Y-75023952D01*
X177683810Y-75062200D01*
X177916190Y-75062200D01*
X178145400Y-75023952D01*
X178365188Y-74948499D01*
X178569559Y-74837898D01*
X178570103Y-74837475D01*
X178631138Y-74789969D01*
X178752939Y-74695168D01*
X178910325Y-74524201D01*
X179037425Y-74329661D01*
X179130771Y-74116854D01*
X179187816Y-73891586D01*
X179207006Y-73660000D01*
X179205252Y-73638836D01*
X179187816Y-73428417D01*
X179187816Y-73428414D01*
X179130771Y-73203146D01*
X179037425Y-72990339D01*
X178910325Y-72795799D01*
X178752939Y-72624832D01*
X178752934Y-72624828D01*
X178752932Y-72624826D01*
X178569567Y-72482107D01*
X178569561Y-72482103D01*
X178365188Y-72371501D01*
X178365180Y-72371498D01*
X178145402Y-72296048D01*
X177916190Y-72257800D01*
X177683810Y-72257800D01*
X177454597Y-72296048D01*
X177234819Y-72371498D01*
X177234811Y-72371501D01*
X177030438Y-72482103D01*
X177030432Y-72482107D01*
X176847067Y-72624826D01*
X176847064Y-72624829D01*
X176689676Y-72795797D01*
X176689673Y-72795801D01*
X176562575Y-72990337D01*
X176469229Y-73203145D01*
X176412183Y-73428417D01*
X176392994Y-73659994D01*
X176392994Y-73660005D01*
X174206504Y-73660005D01*
X174206504Y-73659994D01*
X174187321Y-73428500D01*
X174130295Y-73203308D01*
X174036982Y-72990576D01*
X173952414Y-72861137D01*
X173400721Y-73412829D01*
X173390715Y-73382031D01*
X173303028Y-73243859D01*
X173183734Y-73131835D01*
X173048795Y-73057651D01*
X173600009Y-72506436D01*
X173600009Y-72506435D01*
X173569286Y-72482523D01*
X173569281Y-72482519D01*
X173364992Y-72371964D01*
X173364982Y-72371959D01*
X173145278Y-72296535D01*
X172916147Y-72258300D01*
X172683853Y-72258300D01*
X172454721Y-72296535D01*
X172235017Y-72371959D01*
X172235007Y-72371964D01*
X172030717Y-72482520D01*
X172030706Y-72482527D01*
X171999990Y-72506434D01*
X171999990Y-72506436D01*
X172554238Y-73060684D01*
X172485488Y-73087905D01*
X172353095Y-73184094D01*
X172248782Y-73310187D01*
X172200096Y-73413649D01*
X171647584Y-72861137D01*
X171563016Y-72990578D01*
X171469704Y-73203308D01*
X171412678Y-73428500D01*
X171393496Y-73659994D01*
X171393496Y-73660005D01*
X158967006Y-73660005D01*
X158967006Y-73660000D01*
X158965252Y-73638836D01*
X158947816Y-73428417D01*
X158947816Y-73428414D01*
X158890771Y-73203146D01*
X158797425Y-72990339D01*
X158670325Y-72795799D01*
X158512939Y-72624832D01*
X158512934Y-72624828D01*
X158512932Y-72624826D01*
X158329567Y-72482107D01*
X158329561Y-72482103D01*
X158125188Y-72371501D01*
X158125180Y-72371498D01*
X157905402Y-72296048D01*
X157676190Y-72257800D01*
X157443810Y-72257800D01*
X157214597Y-72296048D01*
X156994819Y-72371498D01*
X156994811Y-72371501D01*
X156790438Y-72482103D01*
X156790432Y-72482107D01*
X156607067Y-72624826D01*
X156607064Y-72624829D01*
X156449676Y-72795797D01*
X156449673Y-72795801D01*
X156322575Y-72990337D01*
X156229229Y-73203145D01*
X156172183Y-73428417D01*
X156152994Y-73659994D01*
X156152994Y-73660005D01*
X153966504Y-73660005D01*
X153966504Y-73659994D01*
X153947321Y-73428500D01*
X153890295Y-73203308D01*
X153796982Y-72990576D01*
X153712414Y-72861137D01*
X153160721Y-73412829D01*
X153150715Y-73382031D01*
X153063028Y-73243859D01*
X152943734Y-73131835D01*
X152808795Y-73057651D01*
X153360009Y-72506436D01*
X153360009Y-72506435D01*
X153329286Y-72482523D01*
X153329281Y-72482519D01*
X153124992Y-72371964D01*
X153124982Y-72371959D01*
X152905278Y-72296535D01*
X152676147Y-72258300D01*
X152443853Y-72258300D01*
X152214721Y-72296535D01*
X151995017Y-72371959D01*
X151995007Y-72371964D01*
X151790717Y-72482520D01*
X151790706Y-72482527D01*
X151759990Y-72506434D01*
X151759990Y-72506436D01*
X152314238Y-73060684D01*
X152245488Y-73087905D01*
X152113095Y-73184094D01*
X152008782Y-73310187D01*
X151960096Y-73413649D01*
X151407584Y-72861137D01*
X151323016Y-72990578D01*
X151229704Y-73203308D01*
X151172678Y-73428500D01*
X151153496Y-73659994D01*
X151153496Y-73660005D01*
X144351656Y-73660005D01*
X144379504Y-73638836D01*
X144392742Y-73626294D01*
X143184180Y-72417733D01*
X143374870Y-72254870D01*
X143537733Y-72064180D01*
X144743556Y-73270003D01*
X144870964Y-73120008D01*
X144870975Y-73119994D01*
X145071781Y-72823827D01*
X145239393Y-72507677D01*
X145239402Y-72507659D01*
X145371850Y-72175239D01*
X145371852Y-72175232D01*
X145467578Y-71830457D01*
X145467584Y-71830431D01*
X145525472Y-71477331D01*
X145525473Y-71477314D01*
X145544847Y-71120002D01*
X184655153Y-71120002D01*
X184674526Y-71477314D01*
X184674527Y-71477331D01*
X184732415Y-71830431D01*
X184732421Y-71830457D01*
X184828147Y-72175232D01*
X184828149Y-72175239D01*
X184960597Y-72507659D01*
X184960606Y-72507677D01*
X185128218Y-72823827D01*
X185329033Y-73120007D01*
X185456441Y-73270003D01*
X185456442Y-73270004D01*
X186662266Y-72064180D01*
X186825130Y-72254870D01*
X187015818Y-72417732D01*
X185807255Y-73626295D01*
X185807256Y-73626296D01*
X185820485Y-73638828D01*
X185820486Y-73638829D01*
X186105367Y-73855388D01*
X186105370Y-73855390D01*
X186411990Y-74039876D01*
X186736739Y-74190122D01*
X186736744Y-74190123D01*
X187075855Y-74304383D01*
X187425339Y-74381311D01*
X187781075Y-74419999D01*
X187781085Y-74420000D01*
X188138915Y-74420000D01*
X188138924Y-74419999D01*
X188494660Y-74381311D01*
X188844144Y-74304383D01*
X189183255Y-74190123D01*
X189183260Y-74190122D01*
X189508009Y-74039876D01*
X189814629Y-73855390D01*
X189814632Y-73855388D01*
X190099504Y-73638836D01*
X190112742Y-73626294D01*
X188904180Y-72417733D01*
X189094870Y-72254870D01*
X189257733Y-72064180D01*
X190463556Y-73270003D01*
X190590964Y-73120008D01*
X190590975Y-73119994D01*
X190791781Y-72823827D01*
X190959393Y-72507677D01*
X190959402Y-72507659D01*
X191091850Y-72175239D01*
X191091852Y-72175232D01*
X191187578Y-71830457D01*
X191187584Y-71830431D01*
X191245472Y-71477331D01*
X191245473Y-71477314D01*
X191264847Y-71120002D01*
X191264847Y-71119997D01*
X191245473Y-70762685D01*
X191245472Y-70762668D01*
X191187584Y-70409568D01*
X191187578Y-70409542D01*
X191091852Y-70064767D01*
X191091850Y-70064760D01*
X190959402Y-69732340D01*
X190959393Y-69732322D01*
X190791781Y-69416172D01*
X190590966Y-69119992D01*
X190463557Y-68969995D01*
X190463556Y-68969994D01*
X189257732Y-70175818D01*
X189094870Y-69985130D01*
X188904180Y-69822266D01*
X190112743Y-68613703D01*
X190112742Y-68613702D01*
X190099514Y-68601171D01*
X190099513Y-68601170D01*
X189814632Y-68384611D01*
X189814629Y-68384609D01*
X189508009Y-68200123D01*
X189183260Y-68049877D01*
X189183255Y-68049876D01*
X188844144Y-67935616D01*
X188494660Y-67858688D01*
X188138924Y-67820000D01*
X187781075Y-67820000D01*
X187425339Y-67858688D01*
X187075855Y-67935616D01*
X186736744Y-68049876D01*
X186736739Y-68049877D01*
X186411990Y-68200123D01*
X186105370Y-68384609D01*
X186105367Y-68384611D01*
X185820491Y-68601166D01*
X185807256Y-68613703D01*
X185807255Y-68613703D01*
X187015819Y-69822266D01*
X186825130Y-69985130D01*
X186662266Y-70175818D01*
X185456442Y-68969994D01*
X185456441Y-68969995D01*
X185329040Y-69119983D01*
X185329033Y-69119993D01*
X185128218Y-69416172D01*
X184960606Y-69732322D01*
X184960597Y-69732340D01*
X184828149Y-70064760D01*
X184828147Y-70064767D01*
X184732421Y-70409542D01*
X184732415Y-70409568D01*
X184674527Y-70762668D01*
X184674526Y-70762685D01*
X184655153Y-71119997D01*
X184655153Y-71120002D01*
X145544847Y-71120002D01*
X145544847Y-71119997D01*
X145525473Y-70762685D01*
X145525472Y-70762668D01*
X145467584Y-70409568D01*
X145467578Y-70409542D01*
X145371852Y-70064767D01*
X145371850Y-70064760D01*
X145239402Y-69732340D01*
X145239393Y-69732322D01*
X145071781Y-69416172D01*
X144870966Y-69119992D01*
X144743557Y-68969995D01*
X144743556Y-68969994D01*
X143537732Y-70175818D01*
X143374870Y-69985130D01*
X143184180Y-69822266D01*
X144392743Y-68613703D01*
X144392742Y-68613702D01*
X144379514Y-68601171D01*
X144379513Y-68601170D01*
X144094632Y-68384611D01*
X144094629Y-68384609D01*
X143788009Y-68200123D01*
X143463260Y-68049877D01*
X143463255Y-68049876D01*
X143124144Y-67935616D01*
X142774660Y-67858688D01*
X142418924Y-67820000D01*
X142061075Y-67820000D01*
X141705339Y-67858688D01*
X141355855Y-67935616D01*
X141016744Y-68049876D01*
X141016739Y-68049877D01*
X140691990Y-68200123D01*
X140385370Y-68384609D01*
X140385367Y-68384611D01*
X140100491Y-68601166D01*
X140087256Y-68613703D01*
X140087255Y-68613703D01*
X141295819Y-69822266D01*
X141105130Y-69985130D01*
X140942266Y-70175818D01*
X139736442Y-68969994D01*
X139736441Y-68969995D01*
X139609040Y-69119983D01*
X139609033Y-69119993D01*
X139408218Y-69416172D01*
X139240606Y-69732322D01*
X139240597Y-69732340D01*
X139108149Y-70064760D01*
X139108147Y-70064767D01*
X139012421Y-70409542D01*
X139012415Y-70409568D01*
X138954527Y-70762668D01*
X138954526Y-70762685D01*
X138935153Y-71119997D01*
X138935153Y-71120002D01*
X137160500Y-71120002D01*
X137160500Y-68581740D01*
X137160598Y-68578263D01*
X137162140Y-68550782D01*
X137166995Y-68464333D01*
X137177401Y-68292304D01*
X137178160Y-68285706D01*
X137200576Y-68153780D01*
X137201277Y-68149656D01*
X137213432Y-68083324D01*
X137228562Y-68000763D01*
X137229961Y-67994810D01*
X137269387Y-67857956D01*
X137313270Y-67717135D01*
X137315158Y-67711921D01*
X137370397Y-67578565D01*
X137430343Y-67445370D01*
X137432599Y-67440861D01*
X137502958Y-67313557D01*
X137578228Y-67189044D01*
X137580693Y-67185286D01*
X137664461Y-67067226D01*
X137666145Y-67064967D01*
X137754932Y-66951638D01*
X137757472Y-66948605D01*
X137854052Y-66840531D01*
X137856373Y-66838077D01*
X137958077Y-66736373D01*
X137960531Y-66734052D01*
X138068605Y-66637472D01*
X138071638Y-66634932D01*
X138184967Y-66546145D01*
X138187226Y-66544461D01*
X138305286Y-66460693D01*
X138309044Y-66458228D01*
X138433561Y-66382956D01*
X138560861Y-66312599D01*
X138565370Y-66310343D01*
X138698565Y-66250397D01*
X138831921Y-66195158D01*
X138837135Y-66193270D01*
X138977956Y-66149387D01*
X139114810Y-66109961D01*
X139120763Y-66108562D01*
X139203324Y-66093432D01*
X139269656Y-66081277D01*
X139317941Y-66073072D01*
X139405706Y-66058160D01*
X139412304Y-66057401D01*
X139584333Y-66046995D01*
X139670782Y-66042140D01*
X139698263Y-66040598D01*
X139701740Y-66040500D01*
X190498260Y-66040500D01*
X190501737Y-66040598D01*
G37*
%TD.AperFunction*%
%TD*%
M02*
