M48
; DRILL file {KiCad 7.0.9} date Fri Jun  7 12:56:42 2024
; FORMAT={-:-/ absolute / inch / decimal}
; #@! TF.CreationDate,2024-06-07T12:56:42-04:00
; #@! TF.GenerationSoftware,Kicad,Pcbnew,7.0.9
; #@! TF.FileFunction,Plated,1,2,PTH
FMAT,2
INCH
; #@! TA.AperFunction,Plated,PTH,ComponentDrill
T1C0.0433
; #@! TA.AperFunction,Plated,PTH,ComponentDrill
T2C0.0510
; #@! TA.AperFunction,Plated,PTH,ComponentDrill
T3C0.1260
%
G90
G05
T1
X6.0Y-3.6
X6.0Y-4.0
X6.4545Y-3.8764
X6.4545Y-3.9764
X6.4545Y-4.0764
T2
X5.6Y-3.7
X5.6Y-3.8969
X5.6Y-4.4031
X5.6Y-4.6
X6.0063Y-2.9
X6.1031Y-5.0
X6.2031Y-2.9
X6.3Y-5.0
X6.7031Y-5.0
X6.8031Y-2.9
X6.9Y-5.0
X7.0Y-2.9
X7.3Y-3.5
X7.3Y-3.6969
X7.3Y-4.2031
X7.3Y-4.4
T3
X5.6Y-2.8
X5.6Y-5.0
X7.4Y-2.8
X7.4Y-5.0
T0
M30
